<svg width="140" height="42" viewBox="0 0 140 42" fill="none" xmlns="http://www.w3.org/2000/svg">
<path d="M0 5.6C0 2.50721 2.47748 0 5.5336 0H134.466C137.523 0 140 2.50721 140 5.6V36.4C140 39.4928 137.523 42 134.466 42H5.5336C2.47748 42 0 39.4928 0 36.4V5.6Z" fill="white"/>
<path fill-rule="evenodd" clip-rule="evenodd" d="M0 36.4V5.6C0 2.50721 2.47747 0 5.5336 0H134.466C137.523 0 140 2.50721 140 5.6V36.4C140 39.4928 137.523 42 134.466 42H5.5336C2.47748 42 0 39.4928 0 36.4ZM0.830039 36.4V5.6C0.830039 2.97112 2.93589 0.84 5.5336 0.84H134.466C137.064 0.84 139.17 2.97112 139.17 5.6V36.4C139.17 39.0289 137.064 41.16 134.466 41.16H5.5336C2.93589 41.16 0.830039 39.0289 0.830039 36.4Z" fill="black" fill-opacity="0.1"/>
<path d="M31.8102 21.533C31.7958 19.0814 32.9109 17.2337 35.1628 15.8713C33.9033 14.074 31.9979 13.0854 29.4862 12.8949C27.108 12.708 24.5061 14.2753 23.5534 14.2753C22.5465 14.2753 20.2442 12.9596 18.4326 12.9596C14.6939 13.0171 10.7206 15.9288 10.7206 21.8529C10.7206 23.6035 11.0418 25.4116 11.6842 27.2737C12.5431 29.7253 15.6394 35.732 18.8692 35.635C20.5581 35.5954 21.7526 34.4415 23.9504 34.4415C26.0831 34.4415 27.1874 35.635 29.0712 35.635C32.3299 35.5882 35.1303 30.1279 35.9459 27.6691C31.5757 25.6165 31.8102 21.6588 31.8102 21.533ZM28.0174 10.5691C29.8471 8.4051 29.6811 6.43521 29.6269 5.72705C28.0102 5.82051 26.1409 6.82344 25.0763 8.05642C23.9034 9.37927 23.2142 11.0149 23.3621 12.8589C25.1088 12.9919 26.7038 12.0969 28.0174 10.5691Z" fill="black"/>
<path d="M51.3145 29.9471H49.4827L48.4793 26.8043H44.9915L44.0356 29.9471H42.2522L45.7077 19.2475H47.842L51.3145 29.9471ZM48.1768 25.4857L47.2694 22.6918C47.1734 22.4064 46.9935 21.7342 46.7281 20.6762H46.6958C46.5902 21.1312 46.42 21.8034 46.1861 22.6918L45.2947 25.4857H48.1768Z" fill="black"/>
<path d="M60.2011 25.9947C60.2011 27.3068 59.8453 28.344 59.1339 29.1054C58.4967 29.7832 57.7054 30.1216 56.7608 30.1216C55.7413 30.1216 55.0088 29.7566 54.5628 29.0266H54.5305V33.0908H52.8108V24.7718C52.8108 23.9469 52.789 23.1003 52.7471 22.232H54.2595L54.3555 23.4549H54.3878C54.9613 22.5335 55.8316 22.0736 56.9996 22.0736C57.9127 22.0736 58.6749 22.433 59.2847 23.1526C59.8961 23.8729 60.2011 24.8201 60.2011 25.9947ZM58.4491 26.0574C58.4491 25.3065 58.2797 24.6874 57.9393 24.2002C57.5674 23.692 57.0681 23.438 56.4422 23.438C56.0179 23.438 55.6324 23.5795 55.2879 23.8585C54.9427 24.1399 54.7168 24.5073 54.6112 24.9624C54.5579 25.1746 54.5313 25.3483 54.5313 25.485V26.7714C54.5313 27.3326 54.7039 27.8061 55.0492 28.1928C55.3944 28.5796 55.8429 28.7725 56.3946 28.7725C57.0423 28.7725 57.5465 28.5233 57.907 28.0264C58.2684 27.5287 58.4491 26.8727 58.4491 26.0574Z" fill="black"/>
<path d="M69.104 25.9947C69.104 27.3068 68.7483 28.344 68.036 29.1054C67.3996 29.7832 66.6083 30.1216 65.6638 30.1216C64.6442 30.1216 63.9118 29.7566 63.4665 29.0266H63.4343V33.0908H61.7146V24.7718C61.7146 23.9469 61.6928 23.1003 61.6508 22.232H63.1633L63.2592 23.4549H63.2915C63.8642 22.5335 64.7345 22.0736 65.9033 22.0736C66.8156 22.0736 67.5779 22.433 68.1893 23.1526C68.7983 23.8729 69.104 24.8201 69.104 25.9947ZM67.352 26.0574C67.352 25.3065 67.1818 24.6874 66.8414 24.2002C66.4696 23.692 65.9719 23.438 65.3452 23.438C64.9201 23.438 64.5353 23.5795 64.1901 23.8585C63.8448 24.1399 63.6198 24.5073 63.5141 24.9624C63.4617 25.1746 63.4343 25.3483 63.4343 25.485V26.7714C63.4343 27.3326 63.6069 27.8061 63.9505 28.1928C64.2957 28.5788 64.7442 28.7725 65.2976 28.7725C65.9453 28.7725 66.4494 28.5233 66.81 28.0264C67.1713 27.5287 67.352 26.8727 67.352 26.0574Z" fill="black"/>
<path d="M79.0578 26.9467C79.0578 27.8568 78.7408 28.5973 78.1044 29.169C77.4051 29.7937 76.4315 30.1056 75.1804 30.1056C74.0253 30.1056 73.0993 29.8837 72.3984 29.4391L72.7969 28.0104C73.5518 28.4655 74.3802 28.6938 75.2828 28.6938C75.9306 28.6938 76.4347 28.5475 76.7969 28.2564C77.1574 27.9654 77.3373 27.5746 77.3373 27.0874C77.3373 26.6533 77.1889 26.2874 76.8912 25.9908C76.5952 25.6941 76.1008 25.4183 75.4103 25.1634C73.5309 24.4648 72.592 23.4413 72.592 22.0954C72.592 21.2158 72.9211 20.4946 73.5801 19.9334C74.2367 19.3714 75.1127 19.0908 76.208 19.0908C77.1849 19.0908 77.9963 19.2605 78.644 19.5989L78.2141 20.9963C77.6091 20.6683 76.9251 20.5043 76.1596 20.5043C75.5547 20.5043 75.082 20.653 74.7432 20.9489C74.4569 21.2134 74.3133 21.5358 74.3133 21.9177C74.3133 22.3406 74.477 22.6903 74.8061 22.9653C75.0925 23.2194 75.6128 23.4943 76.3678 23.791C77.2913 24.1617 77.9697 24.595 78.4061 25.0919C78.8408 25.5872 79.0578 26.207 79.0578 26.9467Z" fill="black"/>
<path d="M84.7434 23.5185H82.8478V27.2644C82.8478 28.2171 83.1818 28.6931 83.8513 28.6931C84.1586 28.6931 84.4135 28.6666 84.6152 28.6135L84.6627 29.9152C84.324 30.0414 83.8779 30.1049 83.3254 30.1049C82.6462 30.1049 82.1154 29.8983 81.7323 29.4858C81.3508 29.0726 81.1588 28.3795 81.1588 27.4059V23.5169H80.0295V22.2305H81.1588V20.8179L82.8478 20.3098V22.2305H84.7434V23.5185Z" fill="black"/>
<path d="M93.2961 26.0261C93.2961 27.212 92.9557 28.1856 92.2765 28.947C91.5643 29.7309 90.6189 30.1216 89.4404 30.1216C88.3047 30.1216 87.4005 29.7462 86.7262 28.9952C86.0518 28.2443 85.7147 27.2964 85.7147 26.1539C85.7147 24.9583 86.0615 23.9791 86.7576 23.2177C87.4521 22.4555 88.3894 22.0744 89.5679 22.0744C90.7036 22.0744 91.6175 22.4499 92.3072 23.2016C92.967 23.9308 93.2961 24.8723 93.2961 26.0261ZM91.5118 26.0815C91.5118 25.37 91.3594 24.7598 91.0504 24.2508C90.6899 23.635 90.1745 23.3278 89.5066 23.3278C88.8153 23.3278 88.2902 23.6358 87.9296 24.2508C87.6207 24.7606 87.4683 25.3804 87.4683 26.1137C87.4683 26.8252 87.6207 27.4355 87.9296 27.9436C88.3015 28.5595 88.821 28.8666 89.4913 28.8666C90.1478 28.8666 90.6633 28.553 91.0351 27.9275C91.3521 27.4089 91.5118 26.7923 91.5118 26.0815Z" fill="black"/>
<path d="M98.8858 23.7395C98.7156 23.7081 98.5341 23.692 98.3438 23.692C97.7388 23.692 97.271 23.9196 96.9419 24.3754C96.6555 24.7774 96.5119 25.2856 96.5119 25.899V29.9472H94.793L94.8092 24.6617C94.8092 23.7724 94.7874 22.9628 94.7446 22.2328H96.2425L96.3054 23.7089H96.353C96.5345 23.2016 96.8209 22.7932 97.2129 22.4868C97.596 22.2111 98.0098 22.0736 98.4559 22.0736C98.6148 22.0736 98.7584 22.0848 98.8858 22.1049V23.7395Z" fill="black"/>
<path d="M106.577 25.7246C106.577 26.0317 106.556 26.2906 106.514 26.5021H101.354C101.375 27.2643 101.624 27.8472 102.103 28.2492C102.538 28.6086 103.1 28.7887 103.79 28.7887C104.554 28.7887 105.251 28.6673 105.878 28.4236L106.147 29.6136C105.415 29.9319 104.55 30.0903 103.552 30.0903C102.352 30.0903 101.41 29.7382 100.724 29.0347C100.04 28.3312 99.6977 27.3865 99.6977 26.2014C99.6977 25.038 100.016 24.0692 100.654 23.2965C101.322 22.4716 102.225 22.0592 103.361 22.0592C104.476 22.0592 105.321 22.4716 105.894 23.2965C106.348 23.9518 106.577 24.7622 106.577 25.7246ZM104.937 25.28C104.948 24.7719 104.836 24.3329 104.603 23.9622C104.305 23.4855 103.848 23.2475 103.232 23.2475C102.67 23.2475 102.213 23.4798 101.863 23.9462C101.577 24.3168 101.407 24.7614 101.354 25.2792H104.937V25.28Z" fill="black"/>
<path d="M47.5413 12.37C47.5413 13.5496 47.1938 14.4377 46.5 15.034C45.8573 15.5843 44.944 15.8599 43.761 15.8599C43.1744 15.8599 42.6724 15.8338 42.2522 15.7817V9.33606C42.8004 9.24586 43.3909 9.19975 44.0287 9.19975C45.1556 9.19975 46.0049 9.44932 46.5777 9.94845C47.2194 10.5127 47.5413 11.3196 47.5413 12.37ZM46.4537 12.399C46.4537 11.6343 46.2549 11.048 45.8573 10.639C45.4597 10.2311 44.879 10.0266 44.1143 10.0266C43.7895 10.0266 43.5129 10.0487 43.2836 10.0948V14.9949C43.4106 15.015 43.6429 15.024 43.9804 15.024C44.7698 15.024 45.379 14.8005 45.8081 14.3535C46.2372 13.9065 46.4537 13.255 46.4537 12.399Z" fill="black"/>
<path d="M53.3078 13.4005C53.3078 14.1271 53.104 14.7225 52.6966 15.1895C52.2694 15.6696 51.7035 15.9092 50.9969 15.9092C50.3158 15.9092 49.7735 15.6797 49.369 15.2186C48.9655 14.7586 48.7637 14.1782 48.7637 13.4787C48.7637 12.747 48.9714 12.1466 49.3887 11.6806C49.806 11.2145 50.367 10.981 51.0736 10.981C51.7547 10.981 52.3019 11.2105 52.7162 11.6705C53.1099 12.1176 53.3078 12.6949 53.3078 13.4005ZM52.2379 13.4346C52.2379 12.9986 52.1454 12.6247 51.9614 12.313C51.7448 11.9361 51.4368 11.7477 51.0362 11.7477C50.6219 11.7477 50.3069 11.9361 50.0904 12.313C49.9054 12.6247 49.8139 13.0046 49.8139 13.4536C49.8139 13.8896 49.9064 14.2634 50.0904 14.5751C50.3138 14.952 50.6248 15.1404 51.0264 15.1404C51.4201 15.1404 51.7291 14.949 51.9515 14.5651C52.1425 14.2474 52.2379 13.8705 52.2379 13.4346Z" fill="black"/>
<path d="M61.0399 11.0771L59.5882 15.8019H58.6434L58.042 13.7502C57.8895 13.238 57.7655 12.7289 57.669 12.2237H57.6503C57.5607 12.7429 57.4367 13.2511 57.2773 13.7502L56.6386 15.8019H55.6829L54.3178 11.0771H55.3778L55.9024 13.3232C56.0293 13.8545 56.1337 14.3606 56.2173 14.8397H56.236C56.3128 14.4448 56.4397 13.9416 56.6189 13.3333L57.2773 11.0781H58.1178L58.7487 13.2852C58.9012 13.8234 59.0252 14.3416 59.1207 14.8407H59.1492C59.2191 14.3546 59.3244 13.8364 59.4642 13.2852L60.0271 11.0781H61.0399V11.0771Z" fill="black"/>
<path d="M66.3867 15.8019H65.3552V13.0958C65.3552 12.2619 65.0442 11.8449 64.4202 11.8449C64.1142 11.8449 63.8671 11.9592 63.6752 12.1887C63.4853 12.4182 63.3888 12.6888 63.3888 12.9985V15.8009H62.3574V12.4272C62.3574 12.0123 62.3446 11.5623 62.32 11.0752H63.2264L63.2746 11.8138H63.3032C63.4233 11.5843 63.6024 11.3949 63.8376 11.2435C64.1171 11.0671 64.4301 10.9779 64.7726 10.9779C65.2056 10.9779 65.5658 11.1203 65.8523 11.4059C66.2085 11.7557 66.3867 12.2779 66.3867 12.9715V15.8019Z" fill="black"/>
<path d="M69.2308 15.8019H68.2004V8.90918H69.2308V15.8019Z" fill="black"/>
<path d="M75.3033 13.4005C75.3033 14.1271 75.0996 14.7225 74.6922 15.1895C74.265 15.6696 73.6981 15.9092 72.9924 15.9092C72.3104 15.9092 71.7681 15.6797 71.3646 15.2186C70.9611 14.7586 70.7593 14.1782 70.7593 13.4787C70.7593 12.747 70.967 12.1466 71.3843 11.6806C71.8016 11.2145 72.3626 10.981 73.0682 10.981C73.7503 10.981 74.2965 11.2105 74.7118 11.6705C75.1055 12.1176 75.3033 12.6949 75.3033 13.4005ZM74.2325 13.4346C74.2325 12.9986 74.14 12.6247 73.956 12.313C73.7404 11.9361 73.4314 11.7477 73.0318 11.7477C72.6165 11.7477 72.3015 11.9361 72.086 12.313C71.901 12.6247 71.8094 13.0046 71.8094 13.4536C71.8094 13.8896 71.9019 14.2634 72.086 14.5751C72.3094 14.952 72.6204 15.1404 73.022 15.1404C73.4156 15.1404 73.7237 14.949 73.9461 14.5651C74.138 14.2474 74.2325 13.8705 74.2325 13.4346Z" fill="black"/>
<path d="M80.2952 15.8019H79.3691L79.2924 15.2577H79.2638C78.9469 15.6917 78.4952 15.9092 77.9086 15.9092C77.4706 15.9092 77.1163 15.7659 76.8496 15.4812C76.6075 15.2226 76.4864 14.9009 76.4864 14.519C76.4864 13.9417 76.7226 13.5017 77.198 13.197C77.6724 12.8923 78.3397 12.743 79.1989 12.75V12.6618C79.1989 12.0394 78.878 11.7287 78.2353 11.7287C77.7777 11.7287 77.3742 11.8459 77.0257 12.0785L76.8161 11.3889C77.2472 11.1173 77.7796 10.981 78.4076 10.981C79.6201 10.981 80.2283 11.6325 80.2283 12.9354V14.6754C80.2283 15.1474 80.251 15.5233 80.2952 15.8019ZM79.2244 14.1782V13.4496C78.0867 13.4295 77.5178 13.7473 77.5178 14.4018C77.5178 14.6483 77.5828 14.8327 77.7157 14.956C77.8485 15.0793 78.0178 15.1404 78.2196 15.1404C78.4459 15.1404 78.6575 15.0673 78.8504 14.9219C79.0443 14.7756 79.1634 14.5902 79.2077 14.3627C79.2185 14.3115 79.2244 14.2494 79.2244 14.1782Z" fill="black"/>
<path d="M86.156 15.8019H85.2407L85.1925 15.0431H85.164C84.8717 15.6204 84.3736 15.9091 83.6739 15.9091C83.1149 15.9091 82.6493 15.6856 82.2803 15.2386C81.9112 14.7916 81.7271 14.2112 81.7271 13.4986C81.7271 12.7339 81.9269 12.1145 82.3285 11.6414C82.7172 11.2004 83.1936 10.9799 83.7605 10.9799C84.3835 10.9799 84.8195 11.1934 85.0675 11.6213H85.0872V8.90918H86.1196V14.529C86.1196 14.989 86.1314 15.413 86.156 15.8019ZM85.0872 13.8093V13.0215C85.0872 12.8852 85.0773 12.775 85.0586 12.6908C85.0006 12.4382 84.8756 12.2257 84.6856 12.0543C84.4937 11.8829 84.2624 11.7967 83.9957 11.7967C83.6109 11.7967 83.3097 11.9521 83.0883 12.2638C82.8688 12.5755 82.7576 12.9734 82.7576 13.4595C82.7576 13.9266 82.8629 14.3054 83.0745 14.5971C83.2979 14.9078 83.5991 15.0632 83.976 15.0632C84.3146 15.0632 84.5853 14.9339 84.7909 14.6743C84.9898 14.4347 85.0872 14.1461 85.0872 13.8093Z" fill="black"/>
<path d="M94.9778 13.4005C94.9778 14.1271 94.7741 14.7225 94.3666 15.1895C93.9395 15.6696 93.3746 15.9092 92.6669 15.9092C91.9869 15.9092 91.4446 15.6797 91.0391 15.2186C90.6356 14.7586 90.4338 14.1782 90.4338 13.4787C90.4338 12.747 90.6415 12.1466 91.0588 11.6806C91.4761 11.2145 92.0371 10.981 92.7447 10.981C93.4248 10.981 93.973 11.2105 94.3863 11.6705C94.78 12.1176 94.9778 12.6949 94.9778 13.4005ZM93.909 13.4346C93.909 12.9986 93.8165 12.6247 93.6324 12.313C93.4149 11.9361 93.1079 11.7477 92.7063 11.7477C92.2929 11.7477 91.978 11.9361 91.7605 12.313C91.5755 12.6247 91.4839 13.0046 91.4839 13.4536C91.4839 13.8896 91.5764 14.2634 91.7605 14.5751C91.9839 14.952 92.2949 15.1404 92.6965 15.1404C93.0901 15.1404 93.4002 14.949 93.6226 14.5651C93.8125 14.2474 93.909 13.8705 93.909 13.4346Z" fill="black"/>
<path d="M100.523 15.8019H99.493V13.0958C99.493 12.2619 99.182 11.8449 98.5571 11.8449C98.251 11.8449 98.0039 11.9592 97.813 12.1887C97.6221 12.4182 97.5266 12.6888 97.5266 12.9985V15.8009H96.4942V12.4272C96.4942 12.0123 96.4824 11.5623 96.4578 11.0752H97.3632L97.4115 11.8138H97.44C97.5611 11.5843 97.7402 11.3949 97.9744 11.2435C98.2549 11.0671 98.5669 10.9779 98.9104 10.9779C99.3424 10.9779 99.7027 11.1203 99.9891 11.4059C100.346 11.7557 100.523 12.2779 100.523 12.9715V15.8019Z" fill="black"/>
<path d="M107.465 11.864H106.329V14.1592C106.329 14.7425 106.531 15.0342 106.93 15.0342C107.115 15.0342 107.269 15.0181 107.39 14.9851L107.417 15.7819C107.213 15.8601 106.945 15.8991 106.615 15.8991C106.208 15.8991 105.891 15.7729 105.662 15.5203C105.431 15.2677 105.317 14.8427 105.317 14.2464V11.864H104.639V11.0772H105.317V10.2112L106.328 9.9005V11.0762H107.464V11.864H107.465Z" fill="black"/>
<path d="M112.925 15.8019H111.893V13.1157C111.893 12.2688 111.582 11.8449 110.959 11.8449C110.481 11.8449 110.154 12.0904 109.975 12.5815C109.944 12.6848 109.927 12.8111 109.927 12.9594V15.8008H108.896V8.90918H109.927V11.7567H109.946C110.271 11.2385 110.737 10.9799 111.34 10.9799C111.767 10.9799 112.12 11.1222 112.401 11.4079C112.75 11.7637 112.925 12.2929 112.925 12.9925V15.8019Z" fill="black"/>
<path d="M118.558 13.216C118.558 13.4044 118.545 13.5628 118.52 13.6921H115.427C115.441 14.1591 115.588 14.5149 115.875 14.7615C116.136 14.982 116.474 15.0922 116.887 15.0922C117.345 15.0922 117.762 15.0181 118.138 14.8687L118.3 15.5984C117.86 15.7928 117.342 15.8901 116.743 15.8901C116.024 15.8901 115.458 15.6746 115.049 15.2436C114.637 14.8126 114.434 14.2343 114.434 13.5086C114.434 12.796 114.624 12.2027 115.007 11.7296C115.406 11.2244 115.946 10.9719 116.628 10.9719C117.296 10.9719 117.803 11.2244 118.145 11.7296C118.422 12.1305 118.558 12.6266 118.558 13.216ZM117.574 12.9444C117.582 12.6326 117.514 12.364 117.374 12.1375C117.195 11.8459 116.923 11.6995 116.554 11.6995C116.217 11.6995 115.942 11.8419 115.733 12.1275C115.562 12.355 115.46 12.6266 115.427 12.9444H117.574Z" fill="black"/>
</svg>
