<svg width="48" height="48" viewBox="0 0 48 48" fill="none" xmlns="http://www.w3.org/2000/svg">
<circle cx="24" cy="24" r="24" fill="#FF8401"/>
<path d="M30.0504 22.9305C31.4713 22.1461 32.3603 20.7646 32.1527 18.4631C31.873 15.3178 29.367 14.2632 26.2035 13.9628L26.2029 9.6001H23.7518L23.7511 13.8481C23.1062 13.8481 22.4488 13.8618 21.7944 13.876L21.7939 9.60068L19.345 9.60043L19.3445 13.9621C18.8138 13.9738 18.2926 13.985 17.7837 13.985V13.9721L14.4028 13.9706L14.4033 16.8064C14.4033 16.8064 16.2134 16.7695 16.1836 16.8053C17.176 16.806 17.5 17.4306 17.5932 17.9696L17.594 22.9397V29.9209C17.5503 30.2593 17.3664 30.7998 16.6725 30.8008C16.7041 30.8309 14.8895 30.8005 14.8895 30.8005L14.4033 33.9715H17.5925C18.1867 33.9723 18.7706 33.9823 19.3435 33.9873L19.3456 38.3993L21.7939 38.4001L21.7932 34.0342C22.4667 34.0491 23.1169 34.0556 23.752 34.0547L23.7513 38.4001H26.2023L26.2037 33.9954C30.3237 33.7389 33.208 32.6142 33.5666 28.4213C33.8557 25.0456 32.3895 23.5388 30.0504 22.9305ZM21.853 16.9978C23.2353 16.9978 27.5829 16.5207 27.5835 19.6501C27.5829 22.6502 23.2367 22.2998 21.853 22.2998V16.9978ZM21.8519 30.8223L21.853 24.9764C23.5139 24.9759 28.7233 24.4585 28.724 27.898C28.7247 31.1966 23.5139 30.821 21.8519 30.8223Z" fill="white"/>
</svg>
