<svg width="48" height="48" viewBox="0 0 48 48" fill="none" xmlns="http://www.w3.org/2000/svg">
<path d="M39.8436 12.8875L40.4722 13.6653C40.7071 13.4754 40.8436 13.1896 40.8436 12.8875C40.8436 12.5855 40.7071 12.2997 40.4722 12.1098L39.8436 12.8875ZM28.8481 21.775H27.8481C27.8481 22.1604 28.0695 22.5114 28.4172 22.6774C28.7649 22.8435 29.1771 22.795 29.4767 22.5528L28.8481 21.775ZM28.8481 4.00003L29.4767 3.22232C29.1771 2.9801 28.7649 2.9316 28.4172 3.09764C28.0695 3.26368 27.8481 3.61472 27.8481 4.00003H28.8481ZM28.8481 9.22237V10.2224C29.4004 10.2224 29.8481 9.77465 29.8481 9.22237H28.8481ZM6.85716 29.7472H5.85716C5.85716 30.1335 6.07967 30.4853 6.42873 30.6508C6.7778 30.8163 7.19097 30.7659 7.49006 30.5214L6.85716 29.7472ZM14.2373 23.7143L14.8702 24.4885C15.0727 24.323 15.2023 24.0848 15.2312 23.8249L14.2373 23.7143ZM28.8481 16.5527H29.8481C29.8481 16.0004 29.4004 15.5527 28.8481 15.5527V16.5527ZM39.2149 12.1098L28.2195 20.9973L29.4767 22.5528L40.4722 13.6653L39.2149 12.1098ZM28.2195 4.77774L39.2149 13.6653L40.4722 12.1098L29.4767 3.22232L28.2195 4.77774ZM29.8481 9.22237V4.00003H27.8481V9.22237H29.8481ZM22.2508 10.2224H28.8481V8.22237H22.2508V10.2224ZM7.85716 25.616C7.85716 17.584 14.3806 10.2224 22.2508 10.2224V8.22237C13.1177 8.22237 5.85716 16.6447 5.85716 25.616H7.85716ZM7.85716 29.7472V25.616H5.85716V29.7472H7.85716ZM13.6044 22.94L6.22426 28.9729L7.49006 30.5214L14.8702 24.4885L13.6044 22.94ZM22.2508 15.5527C17.5872 15.5527 13.7475 19.0741 13.2434 23.6037L15.2312 23.8249C15.6238 20.2967 18.6175 17.5527 22.2508 17.5527V15.5527ZM28.8481 15.5527H22.2508V17.5527H28.8481V15.5527ZM29.8481 21.775V16.5527H27.8481V21.775H29.8481Z" fill="#3139CE"/>
<path d="M6.85728 36.3259L6.22866 35.5482C5.99378 35.738 5.85728 36.0239 5.85728 36.3259C5.85728 36.6279 5.99378 36.9138 6.22866 37.1036L6.85728 36.3259ZM17.8527 27.4384H18.8527C18.8527 27.0531 18.6313 26.702 18.2836 26.536C17.9359 26.37 17.5238 26.4185 17.2241 26.6607L17.8527 27.4384ZM17.8527 45.2134L17.2241 45.9911C17.5238 46.2333 17.9359 46.2818 18.2836 46.1158C18.6313 45.9498 18.8527 45.5987 18.8527 45.2134H17.8527ZM17.8527 39.9911V38.9911C17.3004 38.9911 16.8527 39.4388 16.8527 39.9911H17.8527ZM39.8437 19.4663H40.8437C40.8437 19.0829 40.6245 18.7332 40.2794 18.5662C39.9343 18.3991 39.5241 18.4441 39.2234 18.6819L39.8437 19.4663ZM32.4844 25.2857L31.8642 24.5013C31.6474 24.6727 31.5113 24.9262 31.488 25.2015L32.4844 25.2857ZM17.8527 32.6608H16.8527C16.8527 33.2131 17.3004 33.6608 17.8527 33.6608V32.6608ZM7.4859 37.1036L18.4813 28.2161L17.2241 26.6607L6.22866 35.5482L7.4859 37.1036ZM18.4813 44.4357L7.4859 35.5482L6.22866 37.1036L17.2241 45.9911L18.4813 44.4357ZM16.8527 39.9911V45.2134H18.8527V39.9911H16.8527ZM24.4501 38.9911H17.8527V40.9911H24.4501V38.9911ZM38.8437 23.5975C38.8437 31.6295 32.3203 38.9911 24.4501 38.9911V40.9911C33.5832 40.9911 40.8437 32.5688 40.8437 23.5975H38.8437ZM38.8437 19.4663V23.5975H40.8437V19.4663H38.8437ZM33.1047 26.0701L40.464 20.2506L39.2234 18.6819L31.8642 24.5013L33.1047 26.0701ZM24.4501 33.6608C29.1955 33.6608 33.0883 30.0144 33.4809 25.3699L31.488 25.2015C31.1822 28.8192 28.1474 31.6608 24.4501 31.6608V33.6608ZM17.8527 33.6608H24.4501V31.6608H17.8527V33.6608ZM16.8527 27.4384V32.6608H18.8527V27.4384H16.8527Z" fill="#3139CE"/>
</svg>
