<svg width="48" height="48" viewBox="0 0 48 48" fill="none" xmlns="http://www.w3.org/2000/svg">
<rect x="5.99997" y="5" width="30.273" height="35.3185" rx="3.42857" fill="white" stroke="#3139CE" stroke-width="2"/>
<path d="M12.7274 17.4543C12.1751 17.4543 11.7274 17.9021 11.7274 18.4543C11.7274 19.0066 12.1751 19.4543 12.7274 19.4543V17.4543ZM29.5457 19.4543C30.098 19.4543 30.5457 19.0066 30.5457 18.4543C30.5457 17.9021 30.098 17.4543 29.5457 17.4543V19.4543ZM12.7274 19.4543H29.5457V17.4543H12.7274V19.4543Z" fill="#3139CE"/>
<path d="M12.7274 10.7271C12.1751 10.7271 11.7274 11.1748 11.7274 11.7271C11.7274 12.2793 12.1751 12.7271 12.7274 12.7271V10.7271ZM29.5457 12.7271C30.098 12.7271 30.5457 12.2793 30.5457 11.7271C30.5457 11.1748 30.098 10.7271 29.5457 10.7271V12.7271ZM12.7274 12.7271H29.5457V10.7271H12.7274V12.7271Z" fill="#3139CE"/>
<path d="M41.2859 28.7058H31.2599C30.3131 28.7058 29.5456 29.4733 29.5456 30.4201V38.3684C29.5456 40.1115 30.4286 41.736 31.8913 42.6841L35.1851 44.8189C35.8469 45.2479 36.6989 45.2479 37.3607 44.8189L40.6545 42.6841C42.1172 41.736 43.0002 40.1115 43.0002 38.3684V30.4201C43.0002 29.4733 42.2326 28.7058 41.2859 28.7058Z" fill="white" stroke="#3139CE" stroke-width="2" stroke-linejoin="round"/>
</svg>
