<svg width="48" height="45" viewBox="0 0 48 45" fill="none" xmlns="http://www.w3.org/2000/svg">
<path fill-rule="evenodd" clip-rule="evenodd" d="M12.9999 15.625C12.9999 9.75698 17.7009 5 23.4999 5C29.2989 5 33.9999 9.75697 33.9999 15.625V22H12.9999V15.625ZM23.4999 9.25C20.0205 9.25 17.1999 12.1042 17.1999 15.625V17.75H29.7999V15.625C29.7999 12.1042 26.9793 9.25 23.4999 9.25Z" stroke="#3139CE" stroke-width="2"/>
<path fill-rule="evenodd" clip-rule="evenodd" d="M14.7499 17C9.91745 17 5.99994 21.1775 5.99994 26.3306V34.6694C5.99994 39.8225 9.91745 44 14.7499 44H32.2499C37.0824 44 40.9999 39.8225 40.9999 34.6694V26.3306C40.9999 21.1775 37.0824 17 32.2499 17H14.7499ZM27.0731 28.7886C27.0731 29.8252 26.6225 30.7565 25.9064 31.3974V34.2634C25.9064 35.552 24.8617 36.5967 23.5731 36.5967C22.2844 36.5967 21.2397 35.552 21.2397 34.2634V31.3974C20.5237 30.7565 20.0731 29.8252 20.0731 28.7886C20.0731 26.8556 21.6401 25.2886 23.5731 25.2886C25.5061 25.2886 27.0731 26.8556 27.0731 28.7886Z" fill="white"/>
<path d="M25.9064 31.3974L25.2395 30.6522C25.0275 30.8419 24.9064 31.1129 24.9064 31.3974H25.9064ZM21.2397 31.3974H22.2397C22.2397 31.1129 22.1186 30.8419 21.9067 30.6522L21.2397 31.3974ZM6.99994 26.3306C6.99994 21.6682 10.5293 18 14.7499 18V16C9.30562 16 4.99994 20.6867 4.99994 26.3306H6.99994ZM6.99994 34.6694V26.3306H4.99994V34.6694H6.99994ZM14.7499 43C10.5293 43 6.99994 39.3318 6.99994 34.6694H4.99994C4.99994 40.3133 9.30561 45 14.7499 45V43ZM32.2499 43H14.7499V45H32.2499V43ZM39.9999 34.6694C39.9999 39.3318 36.4706 43 32.2499 43V45C37.6943 45 41.9999 40.3133 41.9999 34.6694H39.9999ZM39.9999 26.3306V34.6694H41.9999V26.3306H39.9999ZM32.2499 18C36.4706 18 39.9999 21.6682 39.9999 26.3306H41.9999C41.9999 20.6867 37.6943 16 32.2499 16V18ZM14.7499 18H32.2499V16H14.7499V18ZM26.5733 32.1425C27.4924 31.3199 28.0731 30.1214 28.0731 28.7886H26.0731C26.0731 29.5289 25.7526 30.193 25.2395 30.6522L26.5733 32.1425ZM26.9064 34.2634V31.3974H24.9064V34.2634H26.9064ZM23.5731 37.5967C25.414 37.5967 26.9064 36.1043 26.9064 34.2634H24.9064C24.9064 34.9997 24.3095 35.5967 23.5731 35.5967V37.5967ZM20.2397 34.2634C20.2397 36.1043 21.7321 37.5967 23.5731 37.5967V35.5967C22.8367 35.5967 22.2397 34.9997 22.2397 34.2634H20.2397ZM20.2397 31.3974V34.2634H22.2397V31.3974H20.2397ZM19.0731 28.7886C19.0731 30.1214 19.6538 31.3199 20.5728 32.1425L21.9067 30.6522C21.3936 30.193 21.0731 29.5289 21.0731 28.7886H19.0731ZM23.5731 24.2886C21.0878 24.2886 19.0731 26.3033 19.0731 28.7886H21.0731C21.0731 27.4079 22.1924 26.2886 23.5731 26.2886V24.2886ZM28.0731 28.7886C28.0731 26.3033 26.0584 24.2886 23.5731 24.2886V26.2886C24.9538 26.2886 26.0731 27.4079 26.0731 28.7886H28.0731Z" fill="#3139CE"/>
</svg>
