<svg width="49" height="49" viewBox="0 0 49 49" fill="none" xmlns="http://www.w3.org/2000/svg">
<path fill-rule="evenodd" clip-rule="evenodd" d="M26.1645 3.20928C25.6406 1.59699 23.3596 1.59699 22.8358 3.20928L18.8801 15.3834C18.6459 16.1045 17.9739 16.5927 17.2158 16.5927L4.41511 16.5927C2.71985 16.5927 2.01499 18.762 3.38649 19.7584L9.39958 24.1272H19.1731H23.4257V20.761L30.5123 26.4891L23.4257 32.2172V28.8517H19.1731H14.4572C14.4458 28.9814 14.4197 29.1113 14.3782 29.2391L10.4226 41.4132C9.89868 43.0255 11.744 44.3662 13.1155 43.3698L23.4715 35.8457C24.0848 35.4001 24.9154 35.4001 25.5287 35.8457L35.8847 43.3698C37.2562 44.3662 39.1015 43.0255 38.5777 41.4132L34.622 29.2391C34.3878 28.518 34.6444 27.7281 35.2578 27.2825L45.6137 19.7584C46.9852 18.762 46.2804 16.5927 44.5851 16.5927L31.7844 16.5927C31.0263 16.5927 30.3544 16.1045 30.1201 15.3834L26.1645 3.20928Z" fill="white"/>
<path d="M22.8358 3.20928L23.7868 3.5183L23.7868 3.5183L22.8358 3.20928ZM26.1645 3.20928L27.1155 2.90026L27.1155 2.90026L26.1645 3.20928ZM18.8801 15.3834L17.9291 15.0744V15.0744L18.8801 15.3834ZM17.2158 16.5927V15.5927V16.5927ZM4.41511 16.5927V17.5927H4.41511L4.41511 16.5927ZM3.38649 19.7584L2.7987 20.5675H2.7987L3.38649 19.7584ZM9.39958 24.1272L8.8118 24.9362C8.98264 25.0604 9.1884 25.1272 9.39958 25.1272V24.1272ZM23.4257 24.1272V25.1272C23.9779 25.1272 24.4257 24.6795 24.4257 24.1272H23.4257ZM23.4257 20.761L24.0543 19.9833C23.7546 19.741 23.3424 19.6925 22.9947 19.8586C22.647 20.0246 22.4257 20.3757 22.4257 20.761H23.4257ZM30.5123 26.4891L31.141 27.2668C31.3758 27.0769 31.5123 26.7911 31.5123 26.4891C31.5123 26.187 31.3758 25.9012 31.141 25.7114L30.5123 26.4891ZM23.4257 32.2172H22.4257C22.4257 32.6025 22.647 32.9535 22.9947 33.1196C23.3424 33.2856 23.7546 33.2371 24.0543 32.9949L23.4257 32.2172ZM23.4257 28.8517H24.4257C24.4257 28.2994 23.9779 27.8517 23.4257 27.8517V28.8517ZM14.4572 28.8517V27.8517C13.939 27.8517 13.5066 28.2476 13.4611 28.7639L14.4572 28.8517ZM14.3782 29.2391L15.3292 29.5481L14.3782 29.2391ZM10.4226 41.4132L11.3736 41.7222L10.4226 41.4132ZM13.1155 43.3698L12.5277 42.5608L13.1155 43.3698ZM23.4715 35.8457L24.0593 36.6548L24.0593 36.6547L23.4715 35.8457ZM25.5287 35.8457L26.1165 35.0367H26.1165L25.5287 35.8457ZM35.8847 43.3698L35.2969 44.1788L35.8847 43.3698ZM38.5777 41.4132L39.5287 41.1042L38.5777 41.4132ZM34.622 29.2391L35.5731 28.93V28.93L34.622 29.2391ZM35.2578 27.2825L35.8456 28.0915L35.2578 27.2825ZM45.6137 19.7584L46.2015 20.5675L45.6137 19.7584ZM44.5851 16.5927V17.5927V16.5927ZM31.7844 16.5927V15.5927V16.5927ZM30.1201 15.3834L29.169 15.6925L29.169 15.6925L30.1201 15.3834ZM23.7868 3.5183C24.0113 2.82732 24.9889 2.82731 25.2134 3.5183L27.1155 2.90026C26.2923 0.366662 22.7079 0.366658 21.8847 2.90026L23.7868 3.5183ZM19.8312 15.6925L23.7868 3.5183L21.8847 2.90026L17.9291 15.0744L19.8312 15.6925ZM17.2158 17.5927C18.4072 17.5927 19.463 16.8255 19.8312 15.6925L17.9291 15.0744C17.8287 15.3834 17.5407 15.5927 17.2158 15.5927V17.5927ZM4.41511 17.5927L17.2158 17.5927V15.5927L4.41511 15.5927L4.41511 17.5927ZM3.97427 18.9494C3.38649 18.5224 3.68857 17.5927 4.41511 17.5927V15.5927C1.75112 15.5927 0.643492 19.0016 2.7987 20.5675L3.97427 18.9494ZM9.98737 23.3182L3.97427 18.9494L2.7987 20.5675L8.8118 24.9362L9.98737 23.3182ZM9.39958 25.1272H19.1731V23.1272H9.39958V25.1272ZM19.1731 25.1272H23.4257V23.1272H19.1731V25.1272ZM24.4257 24.1272V20.761H22.4257V24.1272H24.4257ZM22.797 21.5387L29.8837 27.2668L31.141 25.7114L24.0543 19.9833L22.797 21.5387ZM29.8837 25.7114L22.797 31.4394L24.0543 32.9949L31.141 27.2668L29.8837 25.7114ZM24.4257 32.2172V28.8517H22.4257V32.2172H24.4257ZM23.4257 27.8517H19.1731V29.8517H23.4257V27.8517ZM19.1731 27.8517H14.4572V29.8517H19.1731V27.8517ZM15.3292 29.5481C15.3943 29.3479 15.4353 29.1437 15.4534 28.9395L13.4611 28.7639C13.4562 28.8191 13.4451 28.8748 13.4271 28.93L15.3292 29.5481ZM11.3736 41.7222L15.3292 29.5481L13.4271 28.93L9.47149 41.1042L11.3736 41.7222ZM12.5277 42.5608C11.94 42.9878 11.1491 42.4132 11.3736 41.7222L9.47149 41.1042C8.64828 43.6378 11.5481 45.7446 13.7033 44.1788L12.5277 42.5608ZM22.8837 35.0367L12.5277 42.5608L13.7033 44.1788L24.0593 36.6548L22.8837 35.0367ZM26.1165 35.0367C25.1527 34.3364 23.8475 34.3364 22.8837 35.0367L24.0593 36.6547C24.3221 36.4638 24.6781 36.4638 24.941 36.6547L26.1165 35.0367ZM36.4725 42.5608L26.1165 35.0367L24.941 36.6547L35.2969 44.1788L36.4725 42.5608ZM37.6266 41.7222C37.8511 42.4132 37.0603 42.9878 36.4725 42.5608L35.2969 44.1788C37.4521 45.7446 40.3519 43.6378 39.5287 41.1042L37.6266 41.7222ZM33.671 29.5481L37.6266 41.7222L39.5287 41.1042L35.5731 28.93L33.671 29.5481ZM34.67 26.4735C33.7061 27.1737 33.3028 28.415 33.671 29.5481L35.5731 28.93C35.4727 28.621 35.5827 28.2825 35.8456 28.0915L34.67 26.4735ZM45.026 18.9494L34.67 26.4735L35.8456 28.0915L46.2015 20.5675L45.026 18.9494ZM44.5851 17.5927C45.3116 17.5927 45.6137 18.5224 45.026 18.9494L46.2015 20.5675C48.3567 19.0016 47.2491 15.5927 44.5851 15.5927V17.5927ZM31.7844 17.5927L44.5851 17.5927V15.5927L31.7844 15.5927V17.5927ZM29.169 15.6925C29.5372 16.8255 30.5931 17.5927 31.7844 17.5927V15.5927C31.4595 15.5927 31.1715 15.3834 31.0711 15.0744L29.169 15.6925ZM25.2134 3.5183L29.169 15.6925L31.0711 15.0744L27.1155 2.90026L25.2134 3.5183Z" fill="#3139CE"/>
</svg>
