<svg width="48" height="48" viewBox="0 0 48 48" fill="none" xmlns="http://www.w3.org/2000/svg">
<rect width="13.9163" height="14.9868" rx="6.95816" transform="matrix(-1 0 0 1 18.6475 21.905)" fill="white" stroke="#3139CE" stroke-width="2"/>
<path d="M32.1357 12.7624C32.1357 8.2692 28.4932 4.62671 24 4.62671C19.5067 4.62671 15.8642 8.2692 15.8642 12.7624C15.8642 17.2557 19.5067 20.8982 24 20.8982C28.4932 20.8982 32.1357 17.2557 32.1357 12.7624Z" fill="white" stroke="#3139CE" stroke-width="2"/>
<path d="M16.5065 17.0878C16.5065 14.4274 14.3498 12.2707 11.6893 12.2707C9.02885 12.2707 6.87212 14.4274 6.87212 17.0878C6.87212 19.7483 9.02885 21.905 11.6893 21.905C14.3498 21.905 16.5065 19.7483 16.5065 17.0878Z" fill="white" stroke="#3139CE" stroke-width="2"/>
<rect x="29.3525" y="21.905" width="13.9163" height="14.9868" rx="6.95816" fill="white" stroke="#3139CE" stroke-width="2"/>
<path d="M34.1696 31.1697C34.1696 25.5531 29.6165 21 24 21C18.3834 21 13.8303 25.5531 13.8303 31.1697V33.2036C13.8303 38.8201 18.3834 43.3733 24 43.3733C29.6165 43.3733 34.1696 38.8201 34.1696 33.2036V31.1697Z" fill="white" stroke="#3139CE" stroke-width="2"/>
<path d="M31.4934 17.0878C31.4934 14.4274 33.6502 12.2707 36.3106 12.2707C38.9711 12.2707 41.1278 14.4274 41.1278 17.0878C41.1278 19.7483 38.9711 21.905 36.3106 21.905C33.6502 21.905 31.4934 19.7483 31.4934 17.0878Z" fill="white" stroke="#3139CE" stroke-width="2"/>
</svg>
