<svg width="48" height="48" viewBox="0 0 48 48" fill="none" xmlns="http://www.w3.org/2000/svg">
<path d="M31.5 10.0113C31.5 9.09881 32.0175 8.26524 32.8353 7.86042L39.1902 4.71475C40.2537 4.18834 41.5 4.96208 41.5 6.14869V30.1315C41.5 31.044 40.9825 31.8776 40.1647 32.2824L33.8098 35.428C32.7463 35.9545 31.5 35.1807 31.5 33.9941V10.0113Z" stroke="#3139CE" stroke-width="2"/>
<path d="M27.5 10.0113C27.5 9.09881 26.9825 8.26524 26.1647 7.86042L19.8098 4.71475C18.7463 4.18834 17.5 4.96208 17.5 6.14869V30.1315C17.5 31.044 18.0175 31.8776 18.8353 32.2824L25.1902 35.428C26.2537 35.9545 27.5 35.1807 27.5 33.9941V10.0113Z" stroke="#3139CE" stroke-width="2"/>
<path d="M3.5 10.0113C3.5 9.09881 4.01749 8.26524 4.8353 7.86042L11.1902 4.71475C12.2537 4.18834 13.5 4.96208 13.5 6.14869V30.1315C13.5 31.044 12.9825 31.8776 12.1647 32.2824L5.8098 35.428C4.74634 35.9545 3.5 35.1807 3.5 33.9941V10.0113Z" stroke="#3139CE" stroke-width="2"/>
<mask id="path-4-outside-1" maskUnits="userSpaceOnUse" x="30.5001" y="26.4285" width="16" height="20" fill="black">
<rect fill="white" x="30.5001" y="26.4285" width="16" height="20"/>
<path d="M44.5001 34.4631C44.5001 39.0714 40.5001 43.5714 38.5001 44.4285C36.5001 43.5714 32.5001 39.0714 32.5001 34.4631C32.5001 31.1303 35.1864 28.4285 38.5001 28.4285C41.8138 28.4285 44.5001 31.1303 44.5001 34.4631Z"/>
</mask>
<path d="M44.5001 34.4631C44.5001 39.0714 40.5001 43.5714 38.5001 44.4285C36.5001 43.5714 32.5001 39.0714 32.5001 34.4631C32.5001 31.1303 35.1864 28.4285 38.5001 28.4285C41.8138 28.4285 44.5001 31.1303 44.5001 34.4631Z" fill="white"/>
<path d="M38.5001 44.4285L37.7122 46.2668C38.2153 46.4824 38.7848 46.4824 39.2879 46.2668L38.5001 44.4285ZM42.5001 34.4631C42.5001 36.2178 41.7214 38.1001 40.6049 39.7152C39.4509 41.3845 38.2151 42.3747 37.7122 42.5903L39.2879 46.2668C40.785 45.6252 42.5492 43.9368 43.8952 41.9898C45.2787 39.9884 46.5001 37.3167 46.5001 34.4631H42.5001ZM39.2879 42.5903C38.785 42.3747 37.5492 41.3845 36.3952 39.7152C35.2787 38.1001 34.5001 36.2178 34.5001 34.4631H30.5001C30.5001 37.3167 31.7214 39.9884 33.1049 41.9898C34.4509 43.9368 36.2151 45.6252 37.7122 46.2668L39.2879 42.5903ZM34.5001 34.4631C34.5001 32.224 36.3017 30.4285 38.5001 30.4285V26.4285C34.071 26.4285 30.5001 30.0366 30.5001 34.4631H34.5001ZM38.5001 30.4285C40.6984 30.4285 42.5001 32.224 42.5001 34.4631H46.5001C46.5001 30.0366 42.9291 26.4285 38.5001 26.4285V30.4285Z" fill="#3139CE" mask="url(#path-4-outside-1)"/>
<circle cx="38.5" cy="34.5714" r="2.5" fill="white" stroke="#3139CE" stroke-width="2"/>
</svg>
