<svg width="140" height="42" viewBox="0 0 140 42" fill="none" xmlns="http://www.w3.org/2000/svg">
<path d="M0 5.6C0 2.50721 2.47748 0 5.5336 0H134.466C137.523 0 140 2.50721 140 5.6V36.4C140 39.4928 137.523 42 134.466 42H5.5336C2.47748 42 0 39.4928 0 36.4V5.6Z" fill="white"/>
<path fill-rule="evenodd" clip-rule="evenodd" d="M0 36.4V5.6C0 2.50721 2.47747 0 5.5336 0H134.466C137.523 0 140 2.50721 140 5.6V36.4C140 39.4928 137.523 42 134.466 42H5.5336C2.47748 42 0 39.4928 0 36.4ZM0.830039 36.4V5.6C0.830039 2.97112 2.93589 0.84 5.5336 0.84H134.466C137.064 0.84 139.17 2.97112 139.17 5.6V36.4C139.17 39.0289 137.064 41.16 134.466 41.16H5.5336C2.93589 41.16 0.830039 39.0289 0.830039 36.4Z" fill="black" fill-opacity="0.1"/>
<path d="M71.0696 22.9283C68.5763 22.9283 66.5162 24.8718 66.5162 27.5366C66.5162 30.1796 68.5547 32.1448 71.0699 32.1448C73.5848 32.1448 75.623 30.2013 75.623 27.5366C75.623 24.8718 73.5848 22.9283 71.0696 22.9283ZM71.0696 30.3111C69.7033 30.3111 68.5115 29.1532 68.5115 27.516C68.5115 25.8561 69.7043 24.7209 71.0696 24.7209C72.435 24.7209 73.6278 25.8561 73.6278 27.516C73.6278 29.1532 72.435 30.3111 71.0696 30.3111ZM61.1606 22.9283C58.6454 22.9283 56.6069 24.8718 56.6069 27.5366C56.6069 30.1796 58.6454 32.1448 61.1606 32.1448C63.6755 32.1448 65.714 30.2013 65.714 27.5366C65.714 24.8718 63.6755 22.9283 61.1604 22.9283H61.1606ZM61.1606 30.3111C59.794 30.3111 58.6024 29.1532 58.6024 27.516C58.6024 25.8561 59.7952 24.7209 61.1606 24.7209C62.5269 24.7209 63.7188 25.8561 63.7188 27.516C63.7188 29.1532 62.5473 30.3111 61.1606 30.3111ZM49.3866 24.3481V26.2916H53.983C53.8524 27.3835 53.4849 28.1916 52.9424 28.738C52.2705 29.4148 51.2297 30.1578 49.3866 30.1578C46.5457 30.1578 44.3565 27.8429 44.3565 24.9816C44.3565 22.1203 46.5469 19.7616 49.3866 19.7616C50.9256 19.7616 52.0322 20.3733 52.856 21.1599L54.2214 19.7834C53.0718 18.6699 51.5329 17.8184 49.3866 17.8184C45.5049 17.8184 42.2523 21.0284 42.2523 24.9381C42.2523 28.848 45.5049 32.058 49.3866 32.058C51.4897 32.058 53.0514 31.3595 54.3088 30.0483C55.588 28.7598 55.9783 26.9466 55.9783 25.4836C55.9783 25.0251 55.9353 24.61 55.8695 24.2604L49.3866 24.3481ZM97.5662 25.8549C97.1973 24.8283 96.0271 22.9283 93.6845 22.9283C91.3421 22.9283 89.4126 24.785 89.4126 27.5366C89.4126 30.1133 91.3421 32.1448 93.9015 32.1448C95.9829 32.1448 97.1757 30.8564 97.674 30.1133L96.1351 29.0652C95.6142 29.83 94.9207 30.3317 93.9015 30.3317C92.8822 30.3317 92.1672 29.8732 91.7111 28.9337L97.7604 26.3787L97.5662 25.8549ZM91.4079 27.4063C91.3649 25.6366 92.7745 24.7197 93.7709 24.7197C94.5734 24.7197 95.2239 25.1129 95.462 25.7029L91.4079 27.4063ZM86.4858 31.8395H88.481V18.3418H86.4858V31.8395ZM83.2341 23.955H83.1693C82.7142 23.4085 81.8687 22.9283 80.7838 22.9283C78.5069 22.9283 76.4471 24.9598 76.4471 27.5366C76.4471 30.1133 78.5285 32.1233 80.7838 32.1233C81.8676 32.1233 82.7132 31.6429 83.1693 31.0747H83.2341V31.7299C83.2341 33.4996 82.3011 34.438 80.8054 34.438C79.591 34.438 78.8317 33.5429 78.5285 32.7999L76.7944 33.5429C77.2925 34.7661 78.6159 36.2729 80.8054 36.2729C83.1468 36.2729 85.1204 34.8749 85.1204 31.4898V23.212H83.2341V23.955ZM80.9573 30.3111C79.591 30.3111 78.4424 29.1532 78.4424 27.5378C78.4424 25.9224 79.5919 24.7425 80.9573 24.7425C82.3023 24.7425 83.3861 25.9224 83.3861 27.5378C83.3851 29.1314 82.3011 30.3111 80.9573 30.3111ZM106.868 18.3421H102.098V31.8395H104.093V26.7283H106.868C109.08 26.7283 111.248 25.1117 111.248 22.5352C111.248 19.9584 109.08 18.3418 106.868 18.3418V18.3421ZM106.933 24.8513H104.114V20.2201H106.933C108.407 20.2201 109.274 21.465 109.274 22.5349C109.254 23.5833 108.408 24.8513 106.933 24.8513ZM119.206 22.9066C117.775 22.9066 116.279 23.5401 115.672 24.9816L117.429 25.7246C117.819 24.9816 118.513 24.7415 119.25 24.7415C120.291 24.7415 121.332 25.3748 121.353 26.4882V26.6197C120.984 26.4014 120.226 26.095 119.272 26.095C117.364 26.095 115.433 27.1652 115.433 29.1314C115.433 30.9444 116.995 32.1016 118.73 32.1016C120.074 32.1016 120.811 31.4898 121.266 30.7695H121.331V31.8179H123.26V26.6412C123.239 24.2611 121.483 22.9063 119.206 22.9063V22.9066ZM118.968 30.2893C118.317 30.2893 117.406 29.9612 117.406 29.1541C117.406 28.1057 118.533 27.7126 119.509 27.7126C120.376 27.7126 120.788 27.9092 121.331 28.171C121.179 29.416 120.117 30.2893 118.968 30.2893ZM130.221 23.2132L127.944 29.0444H127.879L125.517 23.2129H123.37L126.926 31.381L124.909 35.946H126.99L132.432 23.2129H130.221L130.221 23.2132ZM112.354 31.8395H114.35V18.3418H112.354V31.8395Z" fill="black"/>
<path d="M46.2048 14C45.6024 14 45.0473 13.8471 44.5394 13.5414C44.0315 13.2357 43.627 12.8177 43.3258 12.2874C43.0305 11.7509 42.8829 11.1551 42.8829 10.5C42.8829 9.84492 43.0305 9.25223 43.3258 8.72193C43.627 8.18538 44.0315 7.76426 44.5394 7.45856C45.0473 7.15285 45.6024 7 46.2048 7C46.6832 7 47.129 7.09046 47.5424 7.27139C47.9558 7.45232 48.3013 7.70499 48.5789 8.02941L47.8879 8.75936C47.6812 8.51604 47.4332 8.32888 47.1438 8.19786C46.8603 8.06685 46.5444 8.00134 46.196 8.00134C45.7885 8.00134 45.4076 8.10428 45.0532 8.31016C44.6989 8.51604 44.4154 8.80927 44.2028 9.18984C43.9902 9.57041 43.8839 10.0071 43.8839 10.5C43.8839 10.9929 43.9902 11.4296 44.2028 11.8102C44.4154 12.1907 44.6989 12.484 45.0532 12.6898C45.4076 12.8957 45.7914 12.9987 46.2048 12.9987C46.5828 12.9987 46.8987 12.9394 47.1527 12.8209C47.4066 12.7023 47.634 12.5432 47.8348 12.3436C47.9647 12.2063 48.0739 12.0348 48.1625 11.8289C48.257 11.623 48.319 11.3984 48.3486 11.1551H46.196V10.2193H49.2876C49.3171 10.3939 49.3318 10.5749 49.3318 10.762C49.3318 11.1863 49.2698 11.5949 49.1458 11.988C49.0218 12.3748 48.824 12.7117 48.5523 12.9987C47.9558 13.6662 47.1733 14 46.2048 14Z" fill="black"/>
<path d="M50.2557 7.14973H54.1091V8.15107H51.2478V10.004H53.8256V10.996H51.2478V12.8489H54.1091V13.8503H50.2557V7.14973Z" fill="black"/>
<path d="M56.4054 8.15107H54.6337V7.14973H59.1692V8.15107H57.3975V13.8503H56.4054V8.15107Z" fill="black"/>
<path d="M61.763 7.14973H62.7551V13.8503H61.763V7.14973Z" fill="black"/>
<path d="M65.2655 8.15107H63.4939V7.14973H68.0294V8.15107H66.2577V13.8503H65.2655V8.15107Z" fill="black"/>
<path d="M73.4177 14C72.8035 14 72.2455 13.8471 71.7435 13.5414C71.2415 13.2295 70.8458 12.8053 70.5564 12.2687C70.273 11.7322 70.1312 11.1426 70.1312 10.5C70.1312 9.8574 70.273 9.27095 70.5564 8.74064C70.8458 8.2041 71.2415 7.77986 71.7435 7.46791C72.2455 7.15597 72.8035 7 73.4177 7C74.0319 7 74.587 7.15597 75.0831 7.46791C75.5851 7.77986 75.9808 8.2041 76.2701 8.74064C76.5595 9.27095 76.7042 9.8574 76.7042 10.5C76.7042 11.1426 76.5595 11.7322 76.2701 12.2687C75.9867 12.8053 75.5939 13.2295 75.092 13.5414C74.59 13.8471 74.0319 14 73.4177 14ZM73.4177 12.9987C73.837 12.9987 74.2209 12.8926 74.5693 12.6805C74.9178 12.4684 75.1924 12.1751 75.3932 11.8008C75.5939 11.4202 75.6943 10.9866 75.6943 10.5C75.6943 10.0134 75.5939 9.58289 75.3932 9.20856C75.1924 8.82799 74.9178 8.53164 74.5693 8.31952C74.2209 8.1074 73.837 8.00134 73.4177 8.00134C72.9984 8.00134 72.6146 8.1074 72.2661 8.31952C71.9177 8.53164 71.6401 8.82799 71.4334 9.20856C71.2326 9.58289 71.1322 10.0134 71.1322 10.5C71.1322 10.9866 71.2326 11.4202 71.4334 11.8008C71.6401 12.1751 71.9177 12.4684 72.2661 12.6805C72.6146 12.8926 72.9984 12.9987 73.4177 12.9987Z" fill="black"/>
<path d="M77.6165 7.14973H78.7947L81.6294 12.0254H81.6825L81.6294 10.734V7.14973H82.6126V13.8503H81.5762L78.5998 8.72193H78.5466L78.5998 10.0134V13.8503H77.6165V7.14973Z" fill="black"/>
<path d="M29.6352 25.4545C32.9922 23.5971 35.5373 22.182 35.7567 22.0721C36.4582 21.6959 37.183 20.7008 35.7567 19.9278C35.2961 19.6848 32.8165 18.3135 29.6352 16.5454L25.2252 21.0329L29.635 25.4545H29.6352Z" fill="#FFD900"/>
<path d="M25.2687 21L11.3513 34.9893C11.6778 35.0325 12.0466 34.9461 12.4816 34.7076C13.3945 34.2094 23.0717 28.9385 29.6396 25.3386L25.2687 21Z" fill="#F43249"/>
<path d="M25.2742 21L29.6396 16.6029C29.6396 16.6029 13.4795 7.76473 12.5015 7.24322C12.1336 7.02394 11.7207 6.95911 11.3513 7.02394L25.2742 20.9998V21Z" fill="#00EE76"/>
<path d="M25.2252 21.274L11.1445 7C10.573 7.13365 10.09 7.64461 10.09 8.68919V33.9245C10.09 34.8812 10.4638 35.5702 11.1662 35.6364L25.2249 21.2738L25.2252 21.274Z" fill="#00D3FF"/>
</svg>
