<svg width="119" height="40" viewBox="0 0 119 40" fill="none" xmlns="http://www.w3.org/2000/svg">
<g clip-path="url(#clip0)">
<path d="M15.7822 33.0012L6.25626 29.5918L3.54329 33.497L3.3722 33.4419L3.36609 33.448L19.5156 38.357L15.7822 33.0012Z" fill="#5C3DF5"/>
<path d="M25.8093 38.5408L12.8066 20.1719L10.0569 16.2912L6.53127 11.3088L3.7633 7.3975L3.75719 7.38525L1.23975 8.27891C0.139893 8.67065 -0.281719 9.99889 0.390415 10.9538L1.808 12.9859L7.0812 20.533L9.82472 24.4627L15.7823 33.0014L19.5218 38.3572L24.8011 39.9609C25.6382 40.2118 26.3225 39.257 25.8093 38.5408Z" fill="#5C3DF5"/>
<path d="M15.9043 7.97874L10.0568 16.291L12.8064 20.1716L25.8091 1.45383C26.3285 0.719315 25.6014 -0.247793 24.7521 0.0521329L3.75706 7.39725L6.52502 11.3085L15.9043 7.97874Z" fill="#5C3DF5"/>
<path d="M12.8063 20.1719L18.6172 11.8107L15.9042 7.979L10.0567 16.2912L12.8063 20.1719Z" fill="url(#paint0_linear)"/>
<path d="M6.25605 29.5917L9.81836 24.4624L7.07483 20.5327L0.353496 30.0875C-0.355299 31.0669 0.115194 32.4563 1.27004 32.8052L3.37199 33.4418L3.54308 33.4907L6.25605 29.5917Z" fill="url(#paint1_linear)"/>
</g>
<path d="M44.9514 15.1778L48.6143 24.2622L49.4106 27.2489H49.4743L50.0795 24.2L52.9143 15.1778H55.3351L49.984 31.0756H48.7417L44.5692 20.8089L43.964 18.2578H43.8684L43.2314 20.84L39.218 31.0756H37.9758L32.4336 15.1778H35.2047L38.358 24.2311L38.8995 27.2489H38.9314L39.6958 24.1689L43.104 15.1778H44.9514Z" fill="white"/>
<path d="M57.3211 16.3289C58.128 15.8519 59.0623 15.4993 60.1241 15.2711C61.207 15.043 62.3324 14.9289 63.5004 14.9289C64.6045 14.9289 65.4858 15.0741 66.1441 15.3645C66.8236 15.6548 67.3332 16.0385 67.6729 16.5156C68.0339 16.9719 68.2675 17.48 68.3737 18.04C68.5011 18.6 68.5648 19.16 68.5648 19.72C68.5648 20.9645 68.5329 22.1778 68.4692 23.36C68.4055 24.5422 68.3737 25.6622 68.3737 26.72C68.3737 27.4874 68.4055 28.2133 68.4692 28.8978C68.5329 29.5822 68.6497 30.2148 68.8196 30.7956H66.9403L66.2715 28.6178H66.1122C65.9211 28.9082 65.6769 29.1985 65.3796 29.4889C65.1036 29.7585 64.7638 30.0074 64.3603 30.2356C63.9569 30.443 63.4897 30.6193 62.9589 30.7645C62.428 30.9096 61.8228 30.9822 61.1433 30.9822C60.4638 30.9822 59.8268 30.8785 59.2322 30.6711C58.6589 30.4637 58.1599 30.1733 57.7352 29.8C57.3105 29.4059 56.9707 28.9393 56.7159 28.4C56.4823 27.8608 56.3655 27.2489 56.3655 26.5645C56.3655 25.6519 56.5566 24.8948 56.9389 24.2933C57.3211 23.6711 57.852 23.1837 58.5315 22.8311C59.2322 22.4578 60.0603 22.1985 61.0159 22.0533C61.9927 21.8874 63.065 21.8045 64.2329 21.8045C64.5302 21.8045 64.8169 21.8045 65.0929 21.8045C65.3902 21.8045 65.6875 21.8252 65.9848 21.8667C66.0485 21.2445 66.0803 20.6845 66.0803 20.1867C66.0803 19.0459 65.8468 18.2474 65.3796 17.7911C64.9124 17.3348 64.0631 17.1067 62.8315 17.1067C62.4705 17.1067 62.0776 17.1378 61.6529 17.2C61.2495 17.2415 60.8248 17.3141 60.3789 17.4178C59.9542 17.5008 59.5401 17.6148 59.1366 17.76C58.7544 17.8845 58.4147 18.0296 58.1174 18.1956L57.3211 16.3289ZM61.8441 28.8045C62.4386 28.8045 62.9695 28.7319 63.4366 28.5867C63.9038 28.4208 64.3073 28.2237 64.647 27.9956C64.9868 27.7467 65.2628 27.477 65.4752 27.1867C65.7087 26.8963 65.8786 26.6163 65.9848 26.3467V23.7645C65.6875 23.7437 65.3796 23.7333 65.0611 23.7333C64.7638 23.7126 64.4665 23.7022 64.1692 23.7022C63.511 23.7022 62.8633 23.7437 62.2263 23.8267C61.6105 23.8889 61.0584 24.0237 60.57 24.2311C60.1028 24.4178 59.7206 24.6874 59.4233 25.04C59.1473 25.3719 59.0092 25.7971 59.0092 26.3156C59.0092 27.0415 59.2747 27.643 59.8055 28.12C60.3364 28.5763 61.0159 28.8045 61.8441 28.8045Z" fill="white"/>
<path d="M75.7345 26.9067C75.7345 27.6326 75.8619 28.1511 76.1167 28.4622C76.3715 28.7733 76.7325 28.9289 77.1996 28.9289C77.4757 28.9289 77.773 28.9082 78.0915 28.8667C78.41 28.8252 78.771 28.7319 79.1744 28.5867L79.4611 30.5467C79.1214 30.7126 78.6436 30.8474 78.0278 30.9511C77.4332 31.0548 76.913 31.1067 76.467 31.1067C75.5115 31.1067 74.7258 30.8474 74.11 30.3289C73.4942 29.7896 73.1863 28.8874 73.1863 27.6222V8.95557H75.7345V26.9067Z" fill="white"/>
<path d="M84.5572 26.9067C84.5572 27.6326 84.6846 28.1511 84.9394 28.4622C85.1942 28.7733 85.5552 28.9289 86.0223 28.9289C86.2984 28.9289 86.5957 28.9082 86.9142 28.8667C87.2327 28.8252 87.5937 28.7319 87.9972 28.5867L88.2838 30.5467C87.9441 30.7126 87.4663 30.8474 86.8505 30.9511C86.2559 31.0548 85.7357 31.1067 85.2898 31.1067C84.3342 31.1067 83.5485 30.8474 82.9327 30.3289C82.3169 29.7896 82.009 28.8874 82.009 27.6222V8.95557H84.5572V26.9067Z" fill="white"/>
<path d="M102.171 29.4889C101.534 29.9867 100.727 30.3808 99.7503 30.6711C98.7947 30.9615 97.7754 31.1067 96.6925 31.1067C95.4821 31.1067 94.431 30.92 93.5391 30.5467C92.6473 30.1526 91.9147 29.603 91.3414 28.8978C90.768 28.1719 90.3433 27.3111 90.0673 26.3156C89.7912 25.32 89.6532 24.2 89.6532 22.9556C89.6532 20.3008 90.2584 18.2785 91.4688 16.8889C92.6791 15.4993 94.4098 14.8045 96.6606 14.8045C97.3826 14.8045 98.1046 14.8874 98.8265 15.0533C99.5485 15.1985 100.196 15.4889 100.77 15.9245C101.343 16.36 101.81 16.9822 102.171 17.7911C102.532 18.5793 102.712 19.6267 102.712 20.9333C102.712 21.6178 102.649 22.3748 102.521 23.2045H92.2969C92.2969 24.117 92.3925 24.9259 92.5836 25.6311C92.7747 26.3363 93.072 26.9378 93.4754 27.4356C93.8789 27.9126 94.3991 28.2859 95.0362 28.5556C95.6944 28.8045 96.4907 28.9289 97.4251 28.9289C98.147 28.9289 98.869 28.8045 99.591 28.5556C100.313 28.3067 100.854 28.0163 101.215 27.6845L102.171 29.4889ZM96.6925 16.9822C95.4396 16.9822 94.431 17.3037 93.6665 17.9467C92.9233 18.5896 92.4774 19.6889 92.3288 21.2445H100.228C100.228 19.6682 99.9201 18.5689 99.3043 17.9467C98.6885 17.3037 97.8179 16.9822 96.6925 16.9822Z" fill="white"/>
<path d="M104.14 15.1778H106.624V12.0978L109.172 11.3822V15.1778H113.504V17.3556H109.172V25.9733C109.172 27.0519 109.31 27.8193 109.587 28.2756C109.863 28.7111 110.33 28.9289 110.988 28.9289C111.54 28.9289 112.007 28.877 112.389 28.7733C112.772 28.6489 113.196 28.4933 113.664 28.3067L114.237 30.2045C113.664 30.4741 113.037 30.6919 112.358 30.8578C111.678 31.0237 110.946 31.1067 110.16 31.1067C108.865 31.1067 107.951 30.7541 107.421 30.0489C106.89 29.323 106.624 28.12 106.624 26.44V17.3556H104.14V15.1778Z" fill="white"/>
<path fill-rule="evenodd" clip-rule="evenodd" d="M45.2771 14.711L49.0698 24.1173L49.3793 25.2779L49.6157 24.0867L52.5616 14.711H55.9955L50.3302 31.5421H48.4178L44.1122 20.9483L43.9084 20.0892L43.689 20.9786L39.5471 31.5421H37.6342L31.7666 14.711H35.5472L38.8227 24.1149L38.9885 25.0393L39.2385 24.0323L42.7718 14.711H45.2771ZM38.9318 27.2488H38.8999L38.3585 24.231L35.2051 15.1777H32.434L37.9762 31.0754H39.2185L43.2318 20.8399L43.8688 18.2577H43.9644L44.5696 20.8088L48.7422 31.0754H49.9844L55.3355 15.1777H52.9147L50.0799 24.1999L49.4747 27.2488H49.411L48.6147 24.2621L44.9518 15.1777H43.1044L39.6962 24.1688L38.9318 27.2488ZM56.7223 16.1375L57.0741 15.9295C57.932 15.4224 58.9166 15.0527 60.0218 14.8152L60.0237 14.8148C61.1415 14.5793 62.3008 14.4621 63.5008 14.4621C64.6391 14.4621 65.5949 14.6105 66.3385 14.9379C67.0736 15.2524 67.6581 15.6813 68.0586 16.2393C68.4596 16.749 68.7221 17.3197 68.8423 17.9466C68.9759 18.5364 69.043 19.1277 69.043 19.7199C69.043 20.9721 69.0109 22.1936 68.9468 23.3844C68.8834 24.5594 68.8519 25.6712 68.8519 26.7199C68.8519 27.4748 68.8832 28.1865 68.9455 28.8554C69.0068 29.5147 69.1188 30.1181 69.2794 30.6672L69.4534 31.2621H66.5853L66.039 29.4836C65.9385 29.5961 65.8314 29.7079 65.7179 29.8188C65.4074 30.122 65.0328 30.3946 64.6001 30.6393L64.5918 30.644L64.5833 30.6484C64.1446 30.8739 63.6449 31.0614 63.0881 31.2137C62.5069 31.3727 61.8571 31.4488 61.1437 31.4488C60.4136 31.4488 59.7219 31.3372 59.0719 31.1105L59.0693 31.1096L59.0667 31.1086C58.4407 30.8822 57.8886 30.5622 57.416 30.1468L57.4112 30.1425L57.4065 30.1382C56.9363 29.7019 56.5617 29.1863 56.2825 28.5954L56.2793 28.5886L56.2763 28.5817C56.014 27.976 55.8882 27.3008 55.8882 26.5643C55.8882 25.5909 56.0918 24.7435 56.5314 24.0502C56.9594 23.3546 57.5542 22.8104 58.3054 22.4201C59.0619 22.0174 59.9425 21.7445 60.9386 21.5927C61.9456 21.422 63.0443 21.3377 64.2333 21.3377H65.0933C65.2465 21.3377 65.3995 21.3428 65.5525 21.353C65.5863 20.9284 65.603 20.5397 65.603 20.1865C65.603 19.0821 65.3718 18.4429 65.0422 18.121C64.716 17.8024 64.0351 17.5732 62.8319 17.5732C62.4986 17.5732 62.1297 17.602 61.7242 17.6614L61.7138 17.6629L61.7034 17.664C61.3228 17.7031 60.9184 17.772 60.4899 17.8716L60.4815 17.8736L60.473 17.8753C60.0724 17.9535 59.6822 18.061 59.3022 18.1978L59.2952 18.2003L59.2881 18.2026C58.9307 18.319 58.6205 18.4523 58.3548 18.6006L57.8849 18.8629L56.7223 16.1375ZM66.0278 21.4011C66.0157 21.5522 66.0015 21.7073 65.9852 21.8665C65.8268 21.8444 65.6684 21.8282 65.51 21.8179C65.3711 21.8089 65.2322 21.8043 65.0933 21.8043H64.2333C63.0654 21.8043 61.9931 21.8873 61.0163 22.0532C60.0608 22.1984 59.2326 22.4577 58.5319 22.831C57.8524 23.1836 57.3215 23.671 56.9393 24.2932C56.5571 24.8947 56.3659 25.6517 56.3659 26.5643C56.3659 27.2488 56.4827 27.8606 56.7163 28.3999C56.9711 28.9391 57.3109 29.4058 57.7356 29.7999C58.1603 30.1732 58.6593 30.4636 59.2326 30.671C59.8272 30.8784 60.4642 30.9821 61.1437 30.9821C61.8232 30.9821 62.4284 30.9095 62.9593 30.7643C63.4901 30.6191 63.9573 30.4428 64.3608 30.2354C64.7642 30.0073 65.104 29.7584 65.38 29.4888C65.5653 29.3078 65.7299 29.1269 65.8739 28.946C65.9456 28.8559 66.0122 28.7658 66.0737 28.6757C66.0869 28.6564 66.0999 28.637 66.1126 28.6177H66.2719L66.9408 30.7954H68.82C68.7756 30.6434 68.7347 30.4879 68.6975 30.3288C68.5926 29.88 68.5167 29.403 68.4696 28.8977C68.4059 28.2132 68.3741 27.4873 68.3741 26.7199C68.3741 25.6621 68.4059 24.5421 68.4696 23.3599C68.5333 22.1777 68.5652 20.9643 68.5652 19.7199C68.5652 19.1599 68.5015 18.5999 68.3741 18.0399C68.2679 17.4799 68.0343 16.9717 67.6734 16.5154C67.3336 16.0384 66.824 15.6547 66.1445 15.3643C65.4862 15.074 64.605 14.9288 63.5008 14.9288C62.3329 14.9288 61.2074 15.0428 60.1245 15.271C59.0627 15.4991 58.1284 15.8517 57.3215 16.3288L58.1178 18.1954C58.2516 18.1207 58.3941 18.0502 58.5452 17.9839C58.7296 17.903 58.9269 17.8283 59.1371 17.7599C59.5405 17.6147 59.9546 17.5006 60.3793 17.4177C60.8252 17.314 61.2499 17.2414 61.6534 17.1999C62.078 17.1377 62.4709 17.1065 62.8319 17.1065C64.0635 17.1065 64.9129 17.3347 65.38 17.791C65.8472 18.2473 66.0808 19.0458 66.0808 20.1865C66.0808 20.557 66.0631 20.9618 66.0278 21.4011ZM65.0931 26.9066L65.0999 26.8982C65.2873 26.6653 65.4203 26.4509 65.5074 26.255V24.2071C65.3615 24.2023 65.2129 24.1999 65.0615 24.1999H65.0445L65.0275 24.1987C64.7415 24.1787 64.4555 24.1688 64.1696 24.1688C63.532 24.1688 62.9054 24.2089 62.2898 24.2891L62.2829 24.29L62.2758 24.2907C61.701 24.3488 61.1977 24.4734 60.7609 24.659L60.7561 24.661L60.7513 24.6629C60.3518 24.8225 60.0365 25.0476 59.7935 25.3354C59.6011 25.5673 59.4874 25.8813 59.4874 26.3154C59.4874 26.9135 59.6989 27.3879 60.1255 27.7729C60.5541 28.1395 61.1137 28.3377 61.8445 28.3377C62.3959 28.3377 62.8735 28.2708 63.2831 28.1447C63.7117 27.9917 64.0719 27.8144 64.3687 27.6163C64.6716 27.3933 64.9087 27.1589 65.0868 26.9153L65.0931 26.9066ZM64.6474 27.9954C64.3077 28.2236 63.9042 28.4206 63.4371 28.5865C62.9699 28.7317 62.439 28.8043 61.8445 28.8043C61.0163 28.8043 60.3368 28.5762 59.8059 28.1199C59.2751 27.6428 59.0096 27.0414 59.0096 26.3154C59.0096 25.7969 59.1477 25.3717 59.4237 25.0399C59.721 24.6873 60.1032 24.4177 60.5704 24.231C61.0588 24.0236 61.6109 23.8888 62.2267 23.8265C62.8637 23.7436 63.5114 23.7021 64.1696 23.7021C64.4669 23.7021 64.7642 23.7125 65.0615 23.7332C65.38 23.7332 65.6879 23.7436 65.9852 23.7643V26.3465C65.879 26.6162 65.7092 26.8962 65.4756 27.1865C65.2632 27.4769 64.9872 27.7465 64.6474 27.9954ZM79.5643 27.9491L79.9832 30.8135L79.6752 30.9639C79.2757 31.159 78.7464 31.3035 78.1107 31.4106C77.498 31.5174 76.949 31.5732 76.4674 31.5732C75.4185 31.5732 74.5158 31.2862 73.7984 30.6822L73.7949 30.6793L73.7915 30.6762C73.0293 30.0088 72.7089 28.9457 72.7089 27.6221V8.48877H76.2126V26.9065C76.2126 27.6033 76.3398 27.9869 76.4902 28.1706C76.6404 28.354 76.8543 28.4621 77.2 28.4621C77.4519 28.4621 77.7279 28.4432 78.0287 28.404C78.303 28.3683 78.6289 28.2857 79.0097 28.1487L79.5643 27.9491ZM78.0282 30.951C78.644 30.8473 79.1218 30.7125 79.4615 30.5465L79.1749 28.5865C79.0145 28.6442 78.8609 28.6938 78.714 28.7351C78.4912 28.7977 78.2838 28.8415 78.0919 28.8665C77.7734 28.908 77.4761 28.9288 77.2 28.9288C76.7329 28.9288 76.3719 28.7732 76.1171 28.4621C75.8623 28.151 75.7349 27.6325 75.7349 26.9065V8.95544H73.1867V27.6221C73.1867 28.8873 73.4946 29.7895 74.1104 30.3288C74.7262 30.8473 75.5119 31.1065 76.4674 31.1065C76.9134 31.1065 77.4336 31.0547 78.0282 30.951ZM88.387 27.9491L88.8059 30.8135L88.4979 30.9639C88.0984 31.159 87.5691 31.3035 86.9334 31.4106C86.3208 31.5174 85.7718 31.5732 85.2902 31.5732C84.2412 31.5732 83.3385 31.2862 82.6212 30.6822L82.6176 30.6793L82.6142 30.6762C81.852 30.0088 81.5316 28.9457 81.5316 27.6221V8.48877H85.0353V26.9065C85.0353 27.6033 85.1625 27.9869 85.3129 28.1706C85.4631 28.354 85.677 28.4621 86.0228 28.4621C86.2746 28.4621 86.5506 28.4432 86.8515 28.404C87.1257 28.3683 87.4516 28.2857 87.8324 28.1487L88.387 27.9491ZM86.8509 30.951C87.4667 30.8473 87.9445 30.7125 88.2842 30.5465L87.9976 28.5865C87.8372 28.6442 87.6836 28.6938 87.5367 28.7351C87.3139 28.7977 87.1065 28.8415 86.9146 28.8665C86.5961 28.908 86.2988 28.9288 86.0228 28.9288C85.5556 28.9288 85.1946 28.7732 84.9398 28.4621C84.685 28.151 84.5576 27.6325 84.5576 26.9065V8.95544H82.0094V27.6221C82.0094 28.8873 82.3173 29.7895 82.9331 30.3288C83.5489 30.8473 84.3346 31.1065 85.2902 31.1065C85.7361 31.1065 86.2563 31.0547 86.8509 30.951ZM102.776 29.6142L102.47 29.8532C101.776 30.3957 100.911 30.8137 99.891 31.1171C98.8863 31.4222 97.8194 31.5732 96.6929 31.5732C95.4333 31.5732 94.3154 31.3791 93.3513 30.9755L93.347 30.9736L93.3426 30.9717C92.3859 30.549 91.5911 29.9547 90.9676 29.1879L90.9655 29.1853L90.9635 29.1827C90.3473 28.4026 89.8969 27.4847 89.6065 26.4374C89.3175 25.3949 89.1758 24.2329 89.1758 22.9554C89.1758 20.2391 89.7942 18.0916 91.1053 16.5864C92.425 15.0712 94.3016 14.3377 96.661 14.3377C97.4187 14.3377 98.1752 14.4245 98.93 14.5975C99.7199 14.7573 100.433 15.0771 101.063 15.556C101.713 16.0493 102.223 16.7402 102.608 17.6024C103.007 18.473 103.191 19.5924 103.191 20.9332C103.191 21.6453 103.124 22.4259 102.994 23.2736L102.933 23.671H92.7841C92.8113 24.3599 92.8998 24.9725 93.0459 25.5116C93.2221 26.162 93.4918 26.7021 93.8473 27.1419C94.196 27.553 94.6491 27.8814 95.2178 28.1235C95.805 28.344 96.5365 28.4621 97.4255 28.4621C98.0901 28.4621 98.7584 28.3477 99.4324 28.1154C100.122 27.8775 100.595 27.6143 100.888 27.3445L101.349 26.9207L102.776 29.6142ZM95.0366 28.5554C94.3995 28.2858 93.8793 27.9125 93.4758 27.4354C93.0724 26.9377 92.7751 26.3362 92.584 25.631C92.4261 25.0484 92.3334 24.3951 92.306 23.671C92.3002 23.5186 92.2973 23.363 92.2973 23.2043H102.522C102.649 22.3747 102.713 21.6177 102.713 20.9332C102.713 19.6265 102.532 18.5791 102.171 17.791C101.81 16.9821 101.343 16.3599 100.77 15.9243C100.197 15.4888 99.5489 15.1984 98.827 15.0532C98.105 14.8873 97.383 14.8043 96.661 14.8043C94.4102 14.8043 92.6795 15.4991 91.4692 16.8888C90.2588 18.2784 89.6536 20.3006 89.6536 22.9554C89.6536 24.1999 89.7916 25.3199 90.0677 26.3154C90.3437 27.311 90.7684 28.1717 91.3418 28.8977C91.9151 29.6028 92.6477 30.1525 93.5395 30.5465C94.4314 30.9199 95.4825 31.1065 96.6929 31.1065C97.7758 31.1065 98.7951 30.9614 99.7507 30.671C100.727 30.3806 101.534 29.9865 102.171 29.4888L101.216 27.6843C101.105 27.786 100.978 27.8838 100.833 27.9776C100.506 28.1902 100.092 28.3828 99.5914 28.5554C98.8694 28.8043 98.1474 28.9288 97.4255 28.9288C96.4911 28.9288 95.6949 28.8043 95.0366 28.5554ZM98.9585 18.2681L98.9558 18.2654C98.4518 17.7391 97.7212 17.4488 96.6929 17.4488C95.5273 17.4488 94.6392 17.7458 93.9813 18.298C93.4439 18.7643 93.0511 19.5637 92.8673 20.7777H99.7406C99.6842 19.5066 99.3926 18.7068 98.9612 18.2709L98.9585 18.2681ZM100.219 20.7777C100.225 20.9283 100.228 21.0838 100.228 21.2443H92.3292C92.3445 21.0839 92.363 20.9284 92.3846 20.7777C92.5729 19.4669 93.0004 18.5232 93.667 17.9465C94.4314 17.3036 95.44 16.9821 96.6929 16.9821C97.8183 16.9821 98.6889 17.3036 99.3047 17.9465C99.8578 18.5054 100.163 19.4491 100.219 20.7777ZM103.662 14.711H106.147V11.7463L109.651 10.7624V14.711H113.982V17.8221H109.651V25.9732C109.651 27.034 109.79 27.6912 109.996 28.0339C110.162 28.2938 110.45 28.4621 110.988 28.4621C111.507 28.4621 111.924 28.4137 112.251 28.3266C112.618 28.2068 113.028 28.0563 113.483 27.8746L113.973 27.679L114.81 30.4527L114.445 30.6248C113.839 30.9095 113.182 31.1375 112.474 31.3104C111.752 31.4866 110.98 31.5732 110.16 31.5732C108.784 31.5732 107.692 31.1969 107.036 30.3252L107.034 30.3226L107.032 30.32C106.411 29.4709 106.147 28.1436 106.147 26.4399V17.8221H103.662V14.711ZM106.625 17.3554V26.4399C106.625 28.1199 106.89 29.3228 107.421 30.0488C107.952 30.754 108.865 31.1065 110.16 31.1065C110.946 31.1065 111.679 31.0236 112.358 30.8577C113.038 30.6917 113.664 30.474 114.237 30.2043L113.664 28.3065C113.511 28.3677 113.362 28.4256 113.218 28.4801C112.923 28.5919 112.647 28.6896 112.39 28.7732C112.008 28.8769 111.54 28.9288 110.988 28.9288C110.33 28.9288 109.863 28.711 109.587 28.2754C109.311 27.8191 109.173 27.0517 109.173 25.9732V17.3554H113.505V15.1777H109.173V11.3821L106.625 12.0977V15.1777H104.14V17.3554H106.625Z" fill="white"/>
<defs>
<linearGradient id="paint0_linear" x1="14.3359" y1="7.97783" x2="14.3331" y2="19.4445" gradientUnits="userSpaceOnUse">
<stop offset="0.160259" stop-color="#5C3DF5"/>
<stop offset="0.289301" stop-color="#5C3DF5"/>
<stop offset="1" stop-color="#381F9B"/>
</linearGradient>
<linearGradient id="paint1_linear" x1="-0.833523" y1="35.3331" x2="9.61092" y2="20.7775" gradientUnits="userSpaceOnUse">
<stop offset="0.160259" stop-color="#5C3DF5"/>
<stop offset="0.445025" stop-color="#5C3DF5"/>
<stop offset="0.885315" stop-color="#381F9B"/>
</linearGradient>
<clipPath id="clip0">
<rect width="33" height="40" fill="white"/>
</clipPath>
</defs>
</svg>
