<svg width="52" height="52" viewBox="0 0 52 52" fill="none" xmlns="http://www.w3.org/2000/svg">
<circle cx="26" cy="26" r="26" fill="#41C6A7"/>
<path d="M29.1716 21.446V17.7559H37.9151V12.1333H14.1062V17.7559H22.8508V21.4431C15.744 21.7581 10.4004 23.1165 10.4004 24.7438C10.4004 26.3711 15.7466 27.7295 22.8508 28.0465V39.8666H29.1736V28.0455C36.2676 27.7295 41.6004 26.3721 41.6004 24.7463C41.6004 23.1205 36.2676 21.7631 29.1736 21.447L29.1716 21.446ZM29.1736 27.0443V27.0413C28.9953 27.0522 28.0787 27.1053 26.0379 27.1053C24.4063 27.1053 23.2584 27.0607 22.8539 27.0403V27.0453C16.5752 26.7769 11.8886 25.7216 11.8886 24.459C11.8886 23.1964 16.5757 22.1426 22.8539 21.8737V25.994C23.2651 26.0213 24.4413 26.0883 26.0646 26.0883C28.0145 26.0883 28.9948 26.0099 29.1747 25.994V21.8737C35.441 22.1431 40.1168 23.1993 40.1168 24.4575C40.1168 25.7157 35.4379 26.7719 29.1736 27.0413" fill="white"/>
</svg>
