<svg width="225" height="176" viewBox="0 0 225 176" fill="none" xmlns="http://www.w3.org/2000/svg">
<g opacity="0.5" filter="url(#filter0_f)">
<path d="M21.2927 34.4946L157.13 26L164.29 140.492L28.4525 148.986L21.2927 34.4946Z" fill="#7892FF" fill-opacity="0.6"/>
</g>
<rect width="136.103" height="113.743" rx="8" transform="matrix(-0.998856 0.0478105 0.0478105 0.998856 161.318 33.5361)" fill="white"/>
<rect x="33.6805" y="35.3002" width="134.463" height="112.103" rx="7.18" transform="rotate(-1.58386 33.6805 35.3002)" stroke="#3139CE" stroke-width="1.64"/>
<g filter="url(#filter1_f)">
<circle cx="186.379" cy="141.81" r="18.0316" transform="rotate(8.96402 186.379 141.81)" fill="#7892FF" fill-opacity="0.6"/>
</g>
<circle cx="182.369" cy="145.2" r="16.7128" transform="rotate(8.96402 182.369 145.2)" fill="white"/>
<circle cx="184.45" cy="142.232" r="15.8928" transform="rotate(8.96402 184.45 142.232)" stroke="#3139CE" stroke-width="1.64"/>
<path d="M183.935 143.343L182.414 137.666L181.07 142.513L183.935 143.343Z" fill="#333CCF" stroke="#323BCF" stroke-width="2"/>
<path d="M185.748 142.792L187.729 140.729L184.29 137.348L184.875 139.533L185.748 142.792Z" fill="#333CCF" stroke="#323BCF" stroke-width="2"/>
<path d="M184.73 146.487L184.303 146.363L184.812 146.795L184.73 146.487Z" fill="#333CCF" stroke="#323BCF" stroke-width="2"/>
<path d="M186.853 145.68L186.595 145.95L186.664 146.208L186.853 145.68Z" fill="#333CCF" stroke="#323BCF" stroke-width="2"/>
<g filter="url(#filter2_f)">
<circle cx="162.577" cy="119.478" r="23.6451" transform="rotate(8.96402 162.577 119.478)" fill="#C9FFF1"/>
</g>
<circle cx="157.319" cy="123.924" r="21.9156" transform="rotate(8.96402 157.319 123.924)" fill="white"/>
<circle cx="160.048" cy="120.032" r="21.0956" transform="rotate(8.96402 160.048 120.032)" stroke="#41C6A7" stroke-width="1.64"/>
<mask id="path-14-inside-1" fill="white">
<path d="M163.414 118.086L164.172 115.258L170.873 117.054L172.028 112.744L153.779 107.854L152.624 112.164L159.327 113.96L158.569 116.786C153.057 115.568 148.683 115.512 148.348 116.759C148.014 118.006 151.833 120.145 157.213 121.847L154.786 130.908L159.632 132.206L162.06 123.145C167.562 124.36 171.929 124.415 172.262 123.169C172.596 121.923 168.788 119.787 163.415 118.088L163.414 118.086ZM162.265 122.378L162.266 122.376C162.127 122.347 161.414 122.2 159.849 121.781C158.599 121.446 157.728 121.176 157.422 121.077L157.421 121.081C152.664 119.585 149.288 117.814 149.548 116.846C149.807 115.878 153.616 116.033 158.483 117.117L157.637 120.275C157.947 120.38 158.834 120.673 160.079 121.007C161.573 121.407 162.341 121.548 162.482 121.573L163.328 118.415C168.076 119.908 171.443 121.678 171.185 122.643C170.926 123.607 167.123 123.456 162.266 122.376"/>
</mask>
<path d="M163.414 118.086L164.172 115.258L170.873 117.054L172.028 112.744L153.779 107.854L152.624 112.164L159.327 113.96L158.569 116.786C153.057 115.568 148.683 115.512 148.348 116.759C148.014 118.006 151.833 120.145 157.213 121.847L154.786 130.908L159.632 132.206L162.06 123.145C167.562 124.36 171.929 124.415 172.262 123.169C172.596 121.923 168.788 119.787 163.415 118.088L163.414 118.086ZM162.265 122.378L162.266 122.376C162.127 122.347 161.414 122.2 159.849 121.781C158.599 121.446 157.728 121.176 157.422 121.077L157.421 121.081C152.664 119.585 149.288 117.814 149.548 116.846C149.807 115.878 153.616 116.033 158.483 117.117L157.637 120.275C157.947 120.38 158.834 120.673 160.079 121.007C161.573 121.407 162.341 121.548 162.482 121.573L163.328 118.415C168.076 119.908 171.443 121.678 171.185 122.643C170.926 123.607 167.123 123.456 162.266 122.376" fill="white"/>
<path d="M163.414 118.086L162.448 117.828L162.285 118.434L162.761 118.844L163.414 118.086ZM164.172 115.258L164.43 114.292L163.464 114.033L163.206 114.999L164.172 115.258ZM170.873 117.054L170.615 118.02L171.581 118.278L171.839 117.313L170.873 117.054ZM172.028 112.744L172.994 113.003L173.253 112.037L172.287 111.778L172.028 112.744ZM153.779 107.854L154.038 106.888L153.072 106.629L152.813 107.595L153.779 107.854ZM152.624 112.164L151.658 111.905L151.399 112.871L152.365 113.13L152.624 112.164ZM159.327 113.96L160.293 114.219L160.551 113.253L159.585 112.994L159.327 113.96ZM158.569 116.786L158.354 117.762L159.288 117.969L159.535 117.045L158.569 116.786ZM157.213 121.847L158.179 122.106L158.427 121.182L157.515 120.894L157.213 121.847ZM154.786 130.908L153.82 130.649L153.561 131.615L154.527 131.873L154.786 130.908ZM159.632 132.206L159.373 133.172L160.339 133.431L160.598 132.465L159.632 132.206ZM162.06 123.145L162.275 122.169L161.341 121.963L161.094 122.886L162.06 123.145ZM163.415 118.088L162.762 118.845L162.918 118.979L163.113 119.041L163.415 118.088ZM162.266 122.376L162.483 121.399L162.474 121.397L162.465 121.396L162.266 122.376ZM157.422 121.077L157.729 120.125L156.728 119.802L156.456 120.818L157.422 121.077ZM157.421 121.081L157.121 122.035L158.117 122.348L158.387 121.34L157.421 121.081ZM158.483 117.117L159.449 117.376L159.719 116.367L158.701 116.141L158.483 117.117ZM157.637 120.275L156.671 120.016L156.429 120.92L157.315 121.222L157.637 120.275ZM162.482 121.573L162.309 122.558L163.211 122.716L163.448 121.832L162.482 121.573ZM163.328 118.415L163.628 117.461L162.632 117.148L162.362 118.156L163.328 118.415ZM164.38 118.345L165.137 115.517L163.206 114.999L162.448 117.828L164.38 118.345ZM163.913 116.224L170.615 118.02L171.132 116.088L164.43 114.292L163.913 116.224ZM171.839 117.313L172.994 113.003L171.062 112.485L169.907 116.795L171.839 117.313ZM172.287 111.778L154.038 106.888L153.52 108.82L171.769 113.71L172.287 111.778ZM152.813 107.595L151.658 111.905L153.59 112.423L154.745 108.113L152.813 107.595ZM152.365 113.13L159.068 114.926L159.585 112.994L152.883 111.198L152.365 113.13ZM158.361 113.701L157.603 116.527L159.535 117.045L160.293 114.219L158.361 113.701ZM158.785 115.81C155.988 115.191 153.442 114.859 151.523 114.848C150.571 114.842 149.715 114.915 149.043 115.102C148.451 115.267 147.615 115.631 147.382 116.5L149.314 117.018C149.248 117.263 149.085 117.166 149.579 117.029C149.994 116.914 150.638 116.843 151.511 116.848C153.241 116.858 155.639 117.162 158.354 117.762L158.785 115.81ZM147.382 116.5C147.149 117.369 147.691 118.102 148.122 118.541C148.611 119.039 149.316 119.53 150.143 120.001C151.81 120.952 154.181 121.937 156.912 122.801L157.515 120.894C154.865 120.056 152.636 119.121 151.133 118.264C150.374 117.831 149.851 117.447 149.55 117.14C149.19 116.774 149.38 116.772 149.314 117.018L147.382 116.5ZM156.247 121.589L153.82 130.649L155.751 131.166L158.179 122.106L156.247 121.589ZM154.527 131.873L159.373 133.172L159.891 131.24L155.044 129.942L154.527 131.873ZM160.598 132.465L163.026 123.404L161.094 122.886L158.666 131.947L160.598 132.465ZM161.844 124.122C164.636 124.738 167.178 125.07 169.094 125.08C170.044 125.085 170.898 125.012 171.57 124.825C172.162 124.66 172.996 124.296 173.228 123.428L171.297 122.91C171.362 122.665 171.525 122.761 171.033 122.898C170.619 123.013 169.976 123.085 169.105 123.08C167.378 123.071 164.986 122.767 162.275 122.169L161.844 124.122ZM173.228 123.428C173.461 122.559 172.921 121.827 172.491 121.388C172.003 120.89 171.299 120.4 170.474 119.929C168.81 118.98 166.443 117.996 163.717 117.134L163.113 119.041C165.76 119.878 167.983 120.811 169.483 121.667C170.24 122.098 170.762 122.482 171.062 122.788C171.42 123.153 171.231 123.155 171.297 122.91L173.228 123.428ZM164.068 117.33L164.066 117.329L162.761 118.844L162.762 118.845L164.068 117.33ZM163.231 122.637L163.232 122.634L161.3 122.117L161.3 122.119L163.231 122.637ZM162.465 121.396C162.349 121.372 161.655 121.229 160.108 120.815L159.591 122.747C161.172 123.17 161.906 123.323 162.067 123.356L162.465 121.396ZM160.108 120.815C158.874 120.484 158.019 120.219 157.729 120.125L157.115 122.029C157.437 122.132 158.324 122.407 159.591 122.747L160.108 120.815ZM156.456 120.818L156.455 120.822L158.387 121.34L158.388 121.336L156.456 120.818ZM157.721 120.127C155.376 119.39 153.406 118.595 152.074 117.884C151.4 117.524 150.939 117.212 150.676 116.97C150.613 116.912 150.569 116.865 150.539 116.829C150.508 116.792 150.498 116.773 150.499 116.774C150.499 116.775 150.516 116.806 150.526 116.864C150.537 116.927 150.539 117.011 150.513 117.105L148.582 116.587C148.463 117.029 148.581 117.428 148.734 117.715C148.884 117.997 149.101 118.239 149.323 118.442C149.768 118.851 150.4 119.257 151.132 119.648C152.612 120.438 154.709 121.276 157.121 122.035L157.721 120.127ZM150.513 117.105C150.488 117.199 150.445 117.271 150.404 117.32C150.366 117.365 150.336 117.384 150.335 117.384C150.334 117.385 150.352 117.374 150.397 117.357C150.441 117.341 150.503 117.322 150.586 117.304C150.935 117.226 151.491 117.186 152.254 117.212C153.764 117.262 155.867 117.559 158.266 118.093L158.701 116.141C156.232 115.591 153.997 115.269 152.321 115.213C151.491 115.185 150.741 115.22 150.151 115.352C149.857 115.417 149.548 115.518 149.278 115.687C149.001 115.859 148.7 116.146 148.582 116.587L150.513 117.105ZM157.517 116.858L156.671 120.016L158.603 120.534L159.449 117.376L157.517 116.858ZM157.315 121.222C157.641 121.332 158.55 121.632 159.82 121.973L160.338 120.041C159.119 119.714 158.253 119.428 157.959 119.328L157.315 121.222ZM159.82 121.973C161.34 122.38 162.137 122.528 162.309 122.558L162.655 120.588C162.545 120.569 161.806 120.434 160.338 120.041L159.82 121.973ZM163.448 121.832L164.294 118.674L162.362 118.156L161.516 121.314L163.448 121.832ZM163.028 119.369C165.368 120.105 167.333 120.899 168.662 121.609C169.334 121.968 169.794 122.28 170.057 122.522C170.119 122.579 170.164 122.626 170.194 122.662C170.224 122.699 170.234 122.717 170.234 122.716C170.233 122.715 170.216 122.684 170.206 122.625C170.195 122.563 170.193 122.478 170.219 122.384L172.151 122.901C172.269 122.46 172.151 122.061 171.998 121.775C171.848 121.494 171.631 121.252 171.41 121.049C170.966 120.641 170.336 120.236 169.605 119.845C168.128 119.056 166.036 118.218 163.628 117.461L163.028 119.369ZM170.219 122.384C170.244 122.29 170.288 122.217 170.329 122.168C170.367 122.123 170.397 122.104 170.398 122.103C170.399 122.103 170.381 122.114 170.336 122.13C170.292 122.147 170.23 122.165 170.147 122.184C169.799 122.261 169.244 122.301 168.483 122.276C166.976 122.227 164.877 121.932 162.483 121.399L162.049 123.352C164.512 123.9 166.743 124.22 168.417 124.275C169.245 124.303 169.994 124.267 170.583 124.136C170.876 124.07 171.185 123.97 171.455 123.801C171.731 123.63 172.032 123.343 172.151 122.901L170.219 122.384Z" fill="#41C6A7" mask="url(#path-14-inside-1)"/>
<circle cx="44.7953" cy="44.8704" r="2.91649" transform="rotate(-1.58386 44.7953 44.8704)" fill="#3139CE"/>
<circle cx="60.3438" cy="44.4405" r="2.91649" transform="rotate(-1.58386 60.3438 44.4405)" fill="#3139CE"/>
<circle cx="52.5693" cy="44.6556" r="2.91649" transform="rotate(-1.58386 52.5693 44.6556)" fill="#3139CE"/>
<rect x="103.994" y="40.3159" width="56.3855" height="5.83298" rx="2.91649" transform="rotate(-1.58386 103.994 40.3159)" fill="#3139CE"/>
<defs>
<filter id="filter0_f" x="0.292725" y="5" width="184.997" height="164.986" filterUnits="userSpaceOnUse" color-interpolation-filters="sRGB">
<feFlood flood-opacity="0" result="BackgroundImageFix"/>
<feBlend mode="normal" in="SourceGraphic" in2="BackgroundImageFix" result="shape"/>
<feGaussianBlur stdDeviation="10.5" result="effect1_foregroundBlur"/>
</filter>
<filter id="filter1_f" x="157.626" y="113.056" width="57.5069" height="57.5069" filterUnits="userSpaceOnUse" color-interpolation-filters="sRGB">
<feFlood flood-opacity="0" result="BackgroundImageFix"/>
<feBlend mode="normal" in="SourceGraphic" in2="BackgroundImageFix" result="shape"/>
<feGaussianBlur stdDeviation="5.35962" result="effect1_foregroundBlur"/>
</filter>
<filter id="filter2_f" x="124.872" y="81.7736" width="75.4096" height="75.4096" filterUnits="userSpaceOnUse" color-interpolation-filters="sRGB">
<feFlood flood-opacity="0" result="BackgroundImageFix"/>
<feBlend mode="normal" in="SourceGraphic" in2="BackgroundImageFix" result="shape"/>
<feGaussianBlur stdDeviation="7.02814" result="effect1_foregroundBlur"/>
</filter>
</defs>
</svg>
