<svg width="228" height="176" viewBox="0 0 228 176" fill="none" xmlns="http://www.w3.org/2000/svg">
<g opacity="0.42" filter="url(#filter0_f)">
<path d="M21.1699 37.7949L156.855 27.1399L165.836 141.503L30.1506 152.158L21.1699 37.7949Z" fill="#7892FF" fill-opacity="0.6"/>
</g>
<path d="M31.3562 49.7218C31.1399 46.6919 33.4207 44.0604 36.4505 43.844L156.248 35.29C159.278 35.0736 161.91 37.3544 162.126 40.3843L169.088 137.879C169.304 140.909 167.023 143.541 163.993 143.757L44.1955 152.311C41.1656 152.527 38.5341 150.247 38.3177 147.217L31.3562 49.7218Z" fill="white" stroke="white" stroke-width="5"/>
<rect x="37.1887" y="38.0861" width="134.463" height="113.075" rx="7.18" transform="rotate(-2.71955 37.1887 38.0861)" stroke="#3139CE" stroke-width="1.64"/>
<path d="M44.265 58.318L166.373 52.5178L170.334 135.915C170.418 137.669 169.063 139.159 167.309 139.242L51.5538 144.741C49.7995 144.824 48.3098 143.469 48.2264 141.715L44.265 58.318Z" fill="white" stroke="#3139CE" stroke-width="1.64"/>
<path d="M44.0934 54.7055C43.9052 50.7446 46.9637 47.3811 50.9246 47.1929L66.3551 46.46C70.3161 46.2718 73.6796 49.3303 73.8677 53.2912L74.037 56.8557L44.2627 58.2701L44.0934 54.7055Z" stroke="#3139CE" stroke-width="1.64"/>
<path d="M136.427 50.3193C136.239 46.3583 139.297 42.9948 143.258 42.8067L158.689 42.0737C162.65 41.8856 166.013 44.944 166.201 48.905L166.371 52.4695L136.596 53.8838L136.427 50.3193Z" stroke="#3139CE" stroke-width="1.64"/>
<path d="M74.6868 53.2517C74.4771 48.8384 77.8849 45.0908 82.2982 44.8812L96.7768 44.1934C101.19 43.9838 104.938 47.3915 105.147 51.8048L105.356 56.1885L74.895 57.6354L74.6868 53.2517Z" fill="#3139CE"/>
<path d="M105.967 51.766C105.779 47.8051 108.837 44.4416 112.798 44.2535L127.277 43.5657C131.237 43.3776 134.601 46.436 134.789 50.397L134.958 53.9615L106.136 55.3306L105.967 51.766Z" stroke="#3139CE" stroke-width="1.64"/>
<g filter="url(#filter1_f)">
<circle cx="186.157" cy="129.492" r="23.6451" transform="rotate(8.96402 186.157 129.492)" fill="#C9FFF1"/>
</g>
<circle cx="179.899" cy="132.937" r="21.9156" transform="rotate(8.96402 179.899 132.937)" fill="white"/>
<circle cx="183.627" cy="130.045" r="21.0956" transform="rotate(8.96402 183.627 130.045)" stroke="#41C6A7" stroke-width="1.64"/>
<mask id="path-12-inside-1" fill="white">
<path d="M186.993 128.178L187.751 125.349L194.453 127.145L195.608 122.836L177.358 117.946L176.204 122.255L182.906 124.051L182.149 126.878C176.637 125.659 172.262 125.603 171.928 126.85C171.594 128.098 175.413 130.237 180.793 131.939L178.365 140.999L183.212 142.298L185.64 133.237C191.142 134.452 195.508 134.506 195.842 133.26C196.176 132.014 192.367 129.878 186.995 128.179L186.993 128.178ZM185.845 132.469L185.846 132.467C185.707 132.439 184.993 132.291 183.429 131.872C182.178 131.537 181.308 131.267 181.002 131.168L181.001 131.172C176.243 129.677 172.868 127.906 173.127 126.938C173.387 125.97 177.196 126.125 182.063 127.208L181.217 130.366C181.526 130.472 182.414 130.765 183.658 131.098C185.153 131.499 185.92 131.64 186.062 131.665L186.908 128.506C191.656 130 195.023 131.77 194.764 132.734C194.506 133.699 190.703 133.547 185.846 132.467"/>
</mask>
<path d="M186.993 128.178L187.751 125.349L194.453 127.145L195.608 122.836L177.358 117.946L176.204 122.255L182.906 124.051L182.149 126.878C176.637 125.659 172.262 125.603 171.928 126.85C171.594 128.098 175.413 130.237 180.793 131.939L178.365 140.999L183.212 142.298L185.64 133.237C191.142 134.452 195.508 134.506 195.842 133.26C196.176 132.014 192.367 129.878 186.995 128.179L186.993 128.178ZM185.845 132.469L185.846 132.467C185.707 132.439 184.993 132.291 183.429 131.872C182.178 131.537 181.308 131.267 181.002 131.168L181.001 131.172C176.243 129.677 172.868 127.906 173.127 126.938C173.387 125.97 177.196 126.125 182.063 127.208L181.217 130.366C181.526 130.472 182.414 130.765 183.658 131.098C185.153 131.499 185.92 131.64 186.062 131.665L186.908 128.506C191.656 130 195.023 131.77 194.764 132.734C194.506 133.699 190.703 133.547 185.846 132.467" fill="white"/>
<path d="M186.993 128.178L186.027 127.919L185.865 128.526L186.341 128.936L186.993 128.178ZM187.751 125.349L188.01 124.384L187.044 124.125L186.785 125.091L187.751 125.349ZM194.453 127.145L194.194 128.111L195.16 128.37L195.419 127.404L194.453 127.145ZM195.608 122.836L196.574 123.094L196.833 122.128L195.867 121.87L195.608 122.836ZM177.358 117.946L177.617 116.98L176.651 116.721L176.393 117.687L177.358 117.946ZM176.204 122.255L175.238 121.997L174.979 122.962L175.945 123.221L176.204 122.255ZM182.906 124.051L183.872 124.31L184.131 123.344L183.165 123.085L182.906 124.051ZM182.149 126.878L181.933 127.854L182.867 128.06L183.115 127.136L182.149 126.878ZM180.793 131.939L181.759 132.198L182.006 131.274L181.095 130.986L180.793 131.939ZM178.365 140.999L177.399 140.74L177.14 141.706L178.106 141.965L178.365 140.999ZM183.212 142.298L182.953 143.264L183.919 143.522L184.178 142.557L183.212 142.298ZM185.64 133.237L185.855 132.26L184.921 132.054L184.674 132.978L185.64 133.237ZM186.995 128.179L186.342 128.937L186.497 129.071L186.693 129.133L186.995 128.179ZM185.846 132.467L186.063 131.491L186.054 131.489L186.045 131.487L185.846 132.467ZM181.002 131.168L181.309 130.217L180.308 129.894L180.036 130.91L181.002 131.168ZM181.001 131.172L180.701 132.126L181.697 132.439L181.967 131.431L181.001 131.172ZM182.063 127.208L183.029 127.467L183.299 126.459L182.28 126.232L182.063 127.208ZM181.217 130.366L180.251 130.108L180.009 131.012L180.895 131.313L181.217 130.366ZM186.062 131.665L185.889 132.65L186.791 132.808L187.028 131.923L186.062 131.665ZM186.908 128.506L187.208 127.553L186.212 127.239L185.942 128.248L186.908 128.506ZM187.959 128.437L188.717 125.608L186.785 125.091L186.027 127.919L187.959 128.437ZM187.492 126.315L194.194 128.111L194.712 126.179L188.01 124.384L187.492 126.315ZM195.419 127.404L196.574 123.094L194.642 122.577L193.487 126.886L195.419 127.404ZM195.867 121.87L177.617 116.98L177.1 118.912L195.349 123.802L195.867 121.87ZM176.393 117.687L175.238 121.997L177.17 122.514L178.324 118.204L176.393 117.687ZM175.945 123.221L182.648 125.017L183.165 123.085L176.463 121.289L175.945 123.221ZM181.94 123.793L181.183 126.619L183.115 127.136L183.872 124.31L181.94 123.793ZM182.365 125.901C179.568 125.283 177.022 124.95 175.103 124.939C174.151 124.934 173.295 125.007 172.623 125.194C172.03 125.359 171.195 125.722 170.962 126.592L172.894 127.109C172.828 127.355 172.665 127.258 173.159 127.121C173.573 127.005 174.218 126.934 175.091 126.939C176.821 126.949 179.218 127.254 181.933 127.854L182.365 125.901ZM170.962 126.592C170.729 127.461 171.271 128.194 171.702 128.633C172.191 129.131 172.896 129.622 173.722 130.093C175.39 131.043 177.761 132.029 180.491 132.892L181.095 130.986C178.444 130.147 176.216 129.212 174.713 128.355C173.954 127.923 173.431 127.539 173.129 127.232C172.77 126.866 172.96 126.864 172.894 127.109L170.962 126.592ZM179.827 131.68L177.399 140.74L179.331 141.258L181.759 132.198L179.827 131.68ZM178.106 141.965L182.953 143.264L183.471 141.332L178.624 140.033L178.106 141.965ZM184.178 142.557L186.605 133.496L184.674 132.978L182.246 142.039L184.178 142.557ZM185.424 134.213C188.216 134.83 190.758 135.161 192.674 135.171C193.623 135.176 194.478 135.103 195.149 134.916C195.741 134.751 196.575 134.387 196.808 133.519L194.876 133.001C194.942 132.756 195.105 132.853 194.612 132.99C194.199 133.105 193.556 133.176 192.684 133.171C190.958 133.162 188.565 132.859 185.855 132.26L185.424 134.213ZM196.808 133.519C197.041 132.651 196.501 131.919 196.07 131.48C195.582 130.982 194.879 130.491 194.054 130.021C192.39 129.072 190.023 128.088 187.296 127.226L186.693 129.133C189.339 129.97 191.563 130.903 193.063 131.758C193.82 132.19 194.342 132.573 194.642 132.88C195 133.245 194.811 133.247 194.876 133.001L196.808 133.519ZM187.647 127.422L187.646 127.42L186.341 128.936L186.342 128.937L187.647 127.422ZM186.811 132.728L186.812 132.726L184.88 132.208L184.879 132.211L186.811 132.728ZM186.045 131.487C185.928 131.463 185.235 131.321 183.688 130.906L183.17 132.838C184.752 133.262 185.485 133.414 185.646 133.447L186.045 131.487ZM183.688 130.906C182.454 130.576 181.599 130.31 181.309 130.217L180.695 132.12C181.017 132.224 181.903 132.499 183.17 132.838L183.688 130.906ZM180.036 130.91L180.035 130.913L181.967 131.431L181.968 131.427L180.036 130.91ZM181.301 130.218C178.956 129.481 176.986 128.686 175.654 127.975C174.98 127.615 174.519 127.303 174.256 127.061C174.193 127.004 174.149 126.956 174.119 126.92C174.088 126.883 174.078 126.865 174.078 126.866C174.079 126.866 174.095 126.898 174.106 126.956C174.117 127.018 174.118 127.103 174.093 127.197L172.161 126.679C172.043 127.121 172.16 127.52 172.314 127.807C172.464 128.088 172.681 128.33 172.903 128.534C173.348 128.943 173.979 129.348 174.712 129.739C176.192 130.53 178.288 131.368 180.701 132.126L181.301 130.218ZM174.093 127.197C174.068 127.29 174.024 127.363 173.984 127.411C173.945 127.457 173.915 127.475 173.915 127.476C173.914 127.476 173.932 127.465 173.977 127.449C174.021 127.433 174.083 127.414 174.166 127.395C174.515 127.318 175.071 127.278 175.834 127.303C177.343 127.354 179.447 127.65 181.846 128.184L182.28 126.232C179.812 125.683 177.577 125.36 175.9 125.304C175.071 125.277 174.321 125.312 173.731 125.443C173.437 125.509 173.128 125.61 172.857 125.778C172.581 125.95 172.28 126.237 172.161 126.679L174.093 127.197ZM181.097 126.949L180.251 130.108L182.183 130.625L183.029 127.467L181.097 126.949ZM180.895 131.313C181.22 131.424 182.13 131.724 183.4 132.064L183.917 130.132C182.699 129.806 181.833 129.52 181.539 129.42L180.895 131.313ZM183.4 132.064C184.92 132.471 185.716 132.619 185.889 132.65L186.235 130.68C186.125 130.66 185.386 130.526 183.917 130.132L183.4 132.064ZM187.028 131.923L187.874 128.765L185.942 128.248L185.096 131.406L187.028 131.923ZM186.608 129.46C188.948 130.196 190.913 130.99 192.242 131.701C192.914 132.06 193.374 132.372 193.637 132.613C193.699 132.67 193.743 132.717 193.773 132.754C193.804 132.79 193.814 132.808 193.813 132.808C193.813 132.807 193.796 132.776 193.786 132.717C193.775 132.654 193.773 132.569 193.798 132.475L195.73 132.993C195.849 132.551 195.731 132.153 195.578 131.866C195.428 131.585 195.211 131.344 194.99 131.141C194.546 130.732 193.916 130.327 193.185 129.937C191.708 129.148 189.616 128.31 187.208 127.553L186.608 129.46ZM193.798 132.475C193.824 132.381 193.868 132.309 193.908 132.26C193.947 132.214 193.977 132.195 193.978 132.195C193.978 132.195 193.961 132.205 193.916 132.222C193.872 132.238 193.81 132.257 193.727 132.275C193.379 132.353 192.824 132.393 192.062 132.368C190.556 132.318 188.456 132.023 186.063 131.491L185.629 133.443C188.092 133.991 190.323 134.312 191.997 134.367C192.825 134.394 193.573 134.359 194.162 134.227C194.456 134.162 194.764 134.061 195.035 133.893C195.31 133.721 195.612 133.435 195.73 132.993L193.798 132.475Z" fill="#41C6A7" mask="url(#path-12-inside-1)"/>
<defs>
<filter id="filter0_f" x="0.169922" y="6.13989" width="186.666" height="167.018" filterUnits="userSpaceOnUse" color-interpolation-filters="sRGB">
<feFlood flood-opacity="0" result="BackgroundImageFix"/>
<feBlend mode="normal" in="SourceGraphic" in2="BackgroundImageFix" result="shape"/>
<feGaussianBlur stdDeviation="10.5" result="effect1_foregroundBlur"/>
</filter>
<filter id="filter1_f" x="148.452" y="91.787" width="75.4096" height="75.4096" filterUnits="userSpaceOnUse" color-interpolation-filters="sRGB">
<feFlood flood-opacity="0" result="BackgroundImageFix"/>
<feBlend mode="normal" in="SourceGraphic" in2="BackgroundImageFix" result="shape"/>
<feGaussianBlur stdDeviation="7.02814" result="effect1_foregroundBlur"/>
</filter>
</defs>
</svg>
