<svg width="220" height="190" viewBox="0 0 220 190" fill="none" xmlns="http://www.w3.org/2000/svg">
<g filter="url(#filter0_f)">
<circle cx="60.8819" cy="84.0015" r="14.8289" transform="rotate(8.96402 60.8819 84.0015)" fill="#7892FF" fill-opacity="0.6"/>
</g>
<circle cx="57.5845" cy="86.7892" r="13.7443" transform="rotate(8.96402 57.5845 86.7892)" fill="white"/>
<path d="M58.565 85.1749L57.7373 82.0858L57.0063 84.7229L58.565 85.1749Z" fill="#333CCF" stroke="#323BCF" stroke-width="2"/>
<path d="M60.4068 84.6313L61.4658 83.528L59.6269 81.7205L59.849 82.5494L60.4068 84.6313Z" fill="#333CCF" stroke="#323BCF" stroke-width="2"/>
<mask id="path-5-inside-1" fill="white">
<path d="M60.0843 87.2905L60.1425 87.3333L60.8888 90.1186L60.8801 90.2608L55.9611 86.0971L60.0843 87.2905Z"/>
</mask>
<path d="M60.0843 87.2905L60.1425 87.3333L60.8888 90.1186L60.8801 90.2608L55.9611 86.0971L60.0843 87.2905Z" fill="#333CCF"/>
<path d="M60.0843 87.2905L60.6403 85.3694L60.9816 85.4682L61.2679 85.6784L60.0843 87.2905ZM60.1425 87.3333L61.3261 85.7212L61.8925 86.137L62.0744 86.8157L60.1425 87.3333ZM60.8888 90.1186L62.8207 89.601L62.905 89.9155L62.8851 90.2405L60.8888 90.1186ZM60.8801 90.2608L62.8764 90.3827L62.6332 94.365L59.588 91.7874L60.8801 90.2608ZM55.9611 86.0971L54.6689 87.6236L56.5172 84.1759L55.9611 86.0971ZM61.2679 85.6784L61.3261 85.7212L58.9589 88.9455L58.9006 88.9027L61.2679 85.6784ZM62.0744 86.8157L62.8207 89.601L58.957 90.6363L58.2107 87.8509L62.0744 86.8157ZM62.8851 90.2405L62.8764 90.3827L58.8839 90.1389L58.8925 89.9967L62.8851 90.2405ZM59.588 91.7874L54.6689 87.6236L57.2532 84.5705L62.1723 88.7343L59.588 91.7874ZM56.5172 84.1759L60.6403 85.3694L59.5282 89.2117L55.405 88.0182L56.5172 84.1759Z" fill="#323BCF" mask="url(#path-5-inside-1)"/>
<mask id="path-7-inside-2" fill="white">
<path d="M60.88 90.2607L60.0841 87.2904L63.056 84.1958L60.88 90.2607Z"/>
</mask>
<path d="M60.88 90.2607L60.0841 87.2904L63.056 84.1958L60.88 90.2607Z" fill="#333CCF"/>
<path d="M60.88 90.2607L62.7625 90.9361L60.6031 96.9546L58.9481 90.7783L60.88 90.2607ZM60.0841 87.2904L58.1522 87.808L57.8603 86.7186L58.6416 85.9051L60.0841 87.2904ZM63.056 84.1958L61.6135 82.8105L64.9385 84.8712L63.056 84.1958ZM58.9481 90.7783L58.1522 87.808L62.0159 86.7728L62.8118 89.7431L58.9481 90.7783ZM58.6416 85.9051L61.6135 82.8105L64.4985 85.5811L61.5266 88.6757L58.6416 85.9051ZM64.9385 84.8712L62.7625 90.9361L58.9975 89.5853L61.1735 83.5204L64.9385 84.8712Z" fill="#323BCF" mask="url(#path-7-inside-2)"/>
<circle cx="59.2957" cy="84.3486" r="12.9243" transform="rotate(8.96402 59.2957 84.3486)" stroke="#3139CE" stroke-width="1.64"/>
<g opacity="0.7" filter="url(#filter1_f)">
<circle cx="151.513" cy="123.696" r="18.0316" transform="rotate(8.96402 151.513 123.696)" fill="#7892FF" fill-opacity="0.6"/>
</g>
<circle cx="147.503" cy="127.086" r="16.7128" transform="rotate(8.96402 147.503 127.086)" fill="white"/>
<circle cx="149.584" cy="124.118" r="15.8928" transform="rotate(8.96402 149.584 124.118)" stroke="#3139CE" stroke-width="1.64"/>
<path d="M154.266 124.278C154.11 124.186 154.117 123.931 154.272 123.84C154.946 123.444 155.408 122.743 155.484 121.6C155.61 119.77 154.314 118.905 152.556 118.42C152.456 118.393 152.392 118.296 152.408 118.194L152.758 115.985C152.775 115.875 152.701 115.773 152.592 115.756L151.533 115.588C151.424 115.571 151.322 115.645 151.305 115.754L150.968 117.878C150.951 117.987 150.848 118.061 150.739 118.045C150.487 118.006 150.232 117.971 149.976 117.936C149.865 117.921 149.788 117.817 149.806 117.706L150.144 115.571C150.161 115.462 150.087 115.359 149.978 115.342L148.921 115.175C148.812 115.157 148.709 115.232 148.692 115.341L148.344 117.536C148.327 117.643 148.227 117.717 148.12 117.703C147.872 117.669 147.628 117.634 147.39 117.597C147.388 117.596 147.386 117.594 147.386 117.592C147.387 117.59 147.385 117.588 147.383 117.588L145.58 117.301C145.471 117.284 145.369 117.359 145.352 117.468L145.149 118.75C145.131 118.86 145.208 118.964 145.319 118.98C145.442 118.997 145.604 119.02 145.754 119.043C145.921 119.068 146.429 119.169 146.57 119.263C146.82 119.428 146.892 119.692 146.898 119.923C146.899 119.935 146.898 119.946 146.896 119.958L146.433 122.887L145.777 127.026C145.749 127.12 145.699 127.238 145.608 127.329C145.481 127.457 144.833 127.42 144.656 127.39C144.515 127.367 144.37 127.342 144.263 127.324C144.164 127.307 144.068 127.365 144.038 127.46L143.576 128.906C143.539 129.023 143.614 129.145 143.735 129.164L145.396 129.428C145.681 129.473 145.961 129.521 146.237 129.568C146.345 129.587 146.419 129.689 146.401 129.797L146.051 132.02C146.033 132.129 146.108 132.231 146.217 132.249L147.273 132.416C147.382 132.434 147.485 132.359 147.502 132.25L147.848 130.061C147.866 129.95 147.971 129.876 148.082 129.895C148.34 129.941 148.593 129.984 148.842 130.024C148.951 130.041 149.026 130.144 149.008 130.253L148.663 132.434C148.645 132.543 148.72 132.645 148.829 132.663L149.887 132.83C149.996 132.848 150.098 132.773 150.116 132.664L150.469 130.436C150.486 130.331 150.581 130.258 150.686 130.267C153.057 130.464 154.797 130.027 155.387 127.637C155.818 125.897 155.304 124.89 154.266 124.278ZM149.484 119.962C149.501 119.853 149.603 119.778 149.713 119.792C150.688 119.92 152.937 120.15 152.664 121.875C152.402 123.529 150.183 123.112 149.214 122.941C149.105 122.922 149.032 122.819 149.049 122.71L149.484 119.962ZM148.414 127.993C148.305 127.975 148.231 127.872 148.248 127.763L148.735 124.692C148.752 124.583 148.854 124.508 148.964 124.523C150.112 124.679 152.869 124.954 152.566 126.872C152.275 128.711 149.556 128.191 148.414 127.993Z" fill="#3139CE"/>
<g opacity="0.7" filter="url(#filter2_f)">
<rect x="89.4121" y="20.6787" width="68.07" height="125.064" transform="rotate(11.5529 89.4121 20.6787)" fill="#7892FF" fill-opacity="0.6"/>
</g>
<rect x="74.1859" y="24.8389" width="77.4778" height="132.889" rx="8" transform="rotate(6.9587 74.1859 24.8389)" fill="white"/>
<rect x="72.794" y="21.4793" width="72.2458" height="134.179" rx="7.18" transform="rotate(5.46217 72.794 21.4793)" stroke="#3139CE" stroke-width="1.64"/>
<path d="M91.6651 23.2837L125.84 26.5517L125.587 29.2019C125.42 30.9502 123.867 32.2319 122.119 32.0647L94.2745 29.4022C92.5263 29.235 91.2445 27.6823 91.4117 25.934L91.6651 23.2837Z" fill="#333CCF" stroke="#3139CE" stroke-width="1.64"/>
<path d="M84.4633 150.57C84.4774 150.423 84.6075 150.316 84.7541 150.33L108.55 152.605C108.696 152.619 108.804 152.749 108.79 152.896C108.776 153.043 108.646 153.15 108.499 153.136L84.7033 150.861C84.5568 150.847 84.4493 150.716 84.4633 150.57Z" stroke="#3139CE" stroke-width="1.64"/>
<g filter="url(#filter3_f)">
<circle cx="128.574" cy="151.5" r="23.6451" transform="rotate(8.96402 128.574 151.5)" fill="#C9FFF1"/>
</g>
<circle cx="123.316" cy="155.945" r="21.9156" transform="rotate(8.96402 123.316 155.945)" fill="white"/>
<circle cx="126.045" cy="152.053" r="21.0956" transform="rotate(8.96402 126.045 152.053)" stroke="#41C6A7" stroke-width="1.64"/>
<mask id="path-22-inside-3" fill="white">
<path d="M129.411 149.969L130.169 147.141L136.87 148.936L138.025 144.627L119.776 139.737L118.621 144.046L125.324 145.842L124.566 148.669C119.054 147.45 114.68 147.394 114.345 148.641C114.011 149.889 117.83 152.028 123.21 153.73L120.783 162.79L125.629 164.089L128.057 155.028C133.559 156.243 137.926 156.297 138.259 155.051C138.593 153.805 134.785 151.669 129.412 149.97L129.411 149.969ZM128.262 154.26L128.263 154.258C128.124 154.23 127.411 154.082 125.846 153.663C124.596 153.328 123.725 153.058 123.419 152.959L123.418 152.963C118.661 151.468 115.285 149.697 115.545 148.729C115.804 147.761 119.613 147.916 124.48 148.999L123.634 152.157C123.944 152.263 124.831 152.556 126.076 152.889C127.57 153.29 128.338 153.431 128.479 153.456L129.325 150.297C134.073 151.791 137.44 153.561 137.182 154.525C136.923 155.49 133.12 155.338 128.263 154.258"/>
</mask>
<path d="M129.411 149.969L130.169 147.141L136.87 148.936L138.025 144.627L119.776 139.737L118.621 144.046L125.324 145.842L124.566 148.669C119.054 147.45 114.68 147.394 114.345 148.641C114.011 149.889 117.83 152.028 123.21 153.73L120.783 162.79L125.629 164.089L128.057 155.028C133.559 156.243 137.926 156.297 138.259 155.051C138.593 153.805 134.785 151.669 129.412 149.97L129.411 149.969ZM128.262 154.26L128.263 154.258C128.124 154.23 127.411 154.082 125.846 153.663C124.596 153.328 123.725 153.058 123.419 152.959L123.418 152.963C118.661 151.468 115.285 149.697 115.545 148.729C115.804 147.761 119.613 147.916 124.48 148.999L123.634 152.157C123.944 152.263 124.831 152.556 126.076 152.889C127.57 153.29 128.338 153.431 128.479 153.456L129.325 150.297C134.073 151.791 137.44 153.561 137.182 154.525C136.923 155.49 133.12 155.338 128.263 154.258" fill="white"/>
<path d="M129.411 149.969L128.445 149.71L128.282 150.317L128.758 150.727L129.411 149.969ZM130.169 147.141L130.427 146.175L129.461 145.916L129.203 146.882L130.169 147.141ZM136.87 148.936L136.612 149.902L137.578 150.161L137.836 149.195L136.87 148.936ZM138.025 144.627L138.991 144.885L139.25 143.92L138.284 143.661L138.025 144.627ZM119.776 139.737L120.035 138.771L119.069 138.512L118.81 139.478L119.776 139.737ZM118.621 144.046L117.655 143.788L117.396 144.753L118.362 145.012L118.621 144.046ZM125.324 145.842L126.29 146.101L126.548 145.135L125.583 144.876L125.324 145.842ZM124.566 148.669L124.351 149.645L125.285 149.851L125.532 148.927L124.566 148.669ZM123.21 153.73L124.176 153.989L124.424 153.065L123.512 152.777L123.21 153.73ZM120.783 162.79L119.817 162.531L119.558 163.497L120.524 163.756L120.783 162.79ZM125.629 164.089L125.37 165.055L126.336 165.313L126.595 164.348L125.629 164.089ZM128.057 155.028L128.272 154.051L127.338 153.845L127.091 154.769L128.057 155.028ZM129.412 149.97L128.759 150.728L128.915 150.862L129.11 150.924L129.412 149.97ZM128.263 154.258L128.48 153.282L128.471 153.28L128.462 153.278L128.263 154.258ZM123.419 152.959L123.726 152.008L122.725 151.685L122.453 152.701L123.419 152.959ZM123.418 152.963L123.118 153.917L124.114 154.23L124.384 153.222L123.418 152.963ZM124.48 148.999L125.446 149.258L125.716 148.25L124.698 148.023L124.48 148.999ZM123.634 152.157L122.668 151.899L122.426 152.803L123.312 153.104L123.634 152.157ZM128.479 153.456L128.306 154.441L129.208 154.599L129.445 153.714L128.479 153.456ZM129.325 150.297L129.625 149.344L128.629 149.03L128.359 150.039L129.325 150.297ZM130.377 150.228L131.134 147.399L129.203 146.882L128.445 149.71L130.377 150.228ZM129.91 148.106L136.612 149.902L137.129 147.97L130.427 146.175L129.91 148.106ZM137.836 149.195L138.991 144.885L137.059 144.368L135.904 148.677L137.836 149.195ZM138.284 143.661L120.035 138.771L119.517 140.703L137.766 145.593L138.284 143.661ZM118.81 139.478L117.655 143.788L119.587 144.305L120.742 139.996L118.81 139.478ZM118.362 145.012L125.065 146.808L125.583 144.876L118.88 143.08L118.362 145.012ZM124.358 145.584L123.6 148.41L125.532 148.927L126.29 146.101L124.358 145.584ZM124.782 147.692C121.985 147.074 119.439 146.741 117.52 146.73C116.568 146.725 115.712 146.798 115.04 146.985C114.448 147.15 113.612 147.513 113.379 148.383L115.311 148.9C115.245 149.146 115.082 149.049 115.576 148.912C115.991 148.796 116.635 148.725 117.508 148.73C119.238 148.74 121.636 149.045 124.351 149.645L124.782 147.692ZM113.379 148.383C113.146 149.252 113.688 149.985 114.119 150.424C114.608 150.922 115.313 151.413 116.14 151.884C117.807 152.834 120.178 153.82 122.909 154.683L123.512 152.777C120.862 151.938 118.633 151.003 117.13 150.146C116.371 149.714 115.848 149.33 115.547 149.023C115.187 148.657 115.377 148.655 115.311 148.9L113.379 148.383ZM122.244 153.471L119.817 162.531L121.748 163.049L124.176 153.989L122.244 153.471ZM120.524 163.756L125.37 165.055L125.888 163.123L121.041 161.824L120.524 163.756ZM126.595 164.348L129.023 155.287L127.091 154.769L124.663 163.83L126.595 164.348ZM127.841 156.004C130.633 156.621 133.175 156.952 135.091 156.962C136.041 156.967 136.895 156.895 137.567 156.707C138.159 156.542 138.993 156.178 139.225 155.31L137.294 154.792C137.359 154.547 137.522 154.644 137.03 154.781C136.616 154.896 135.973 154.967 135.102 154.962C133.375 154.953 130.983 154.65 128.272 154.051L127.841 156.004ZM139.225 155.31C139.458 154.442 138.918 153.71 138.488 153.271C138 152.773 137.296 152.282 136.471 151.812C134.807 150.863 132.44 149.879 129.714 149.017L129.11 150.924C131.757 151.761 133.98 152.694 135.48 153.549C136.237 153.981 136.759 154.364 137.059 154.671C137.417 155.036 137.228 155.038 137.294 154.792L139.225 155.31ZM130.065 149.213L130.063 149.211L128.758 150.727L128.759 150.728L130.065 149.213ZM129.228 154.519L129.229 154.517L127.297 153.999L127.297 154.002L129.228 154.519ZM128.462 153.278C128.346 153.254 127.652 153.112 126.105 152.697L125.588 154.629C127.169 155.053 127.903 155.205 128.064 155.238L128.462 153.278ZM126.105 152.697C124.871 152.367 124.016 152.101 123.726 152.008L123.112 153.911C123.434 154.015 124.321 154.29 125.588 154.629L126.105 152.697ZM122.453 152.701L122.452 152.704L124.384 153.222L124.385 153.218L122.453 152.701ZM123.718 152.009C121.373 151.272 119.403 150.477 118.071 149.766C117.397 149.406 116.936 149.094 116.673 148.852C116.61 148.795 116.566 148.747 116.536 148.711C116.505 148.674 116.495 148.656 116.496 148.657C116.496 148.657 116.513 148.689 116.523 148.747C116.534 148.809 116.536 148.894 116.51 148.988L114.579 148.47C114.46 148.912 114.578 149.311 114.731 149.598C114.881 149.879 115.098 150.121 115.32 150.325C115.765 150.734 116.397 151.139 117.129 151.53C118.609 152.321 120.706 153.159 123.118 153.917L123.718 152.009ZM116.51 148.988C116.485 149.081 116.442 149.154 116.401 149.202C116.363 149.248 116.333 149.267 116.332 149.267C116.331 149.267 116.349 149.256 116.394 149.24C116.438 149.224 116.5 149.205 116.583 149.187C116.932 149.109 117.488 149.069 118.251 149.094C119.761 149.145 121.864 149.441 124.263 149.975L124.698 148.023C122.229 147.474 119.994 147.151 118.318 147.095C117.488 147.068 116.738 147.103 116.148 147.234C115.855 147.3 115.545 147.401 115.275 147.569C114.998 147.741 114.697 148.028 114.579 148.47L116.51 148.988ZM123.514 148.74L122.668 151.899L124.6 152.416L125.446 149.258L123.514 148.74ZM123.312 153.104C123.638 153.215 124.547 153.515 125.817 153.855L126.335 151.923C125.116 151.597 124.25 151.311 123.956 151.211L123.312 153.104ZM125.817 153.855C127.337 154.262 128.134 154.41 128.306 154.441L128.652 152.471C128.542 152.451 127.803 152.317 126.335 151.923L125.817 153.855ZM129.445 153.714L130.291 150.556L128.359 150.039L127.513 153.197L129.445 153.714ZM129.025 151.251C131.365 151.987 133.33 152.781 134.659 153.492C135.331 153.851 135.791 154.163 136.054 154.404C136.116 154.461 136.161 154.508 136.191 154.545C136.221 154.581 136.231 154.599 136.231 154.599C136.23 154.598 136.213 154.567 136.203 154.508C136.192 154.445 136.19 154.36 136.216 154.266L138.148 154.784C138.266 154.342 138.148 153.944 137.995 153.657C137.845 153.376 137.628 153.135 137.407 152.932C136.963 152.523 136.333 152.118 135.602 151.728C134.125 150.939 132.033 150.101 129.625 149.344L129.025 151.251ZM136.216 154.266C136.241 154.172 136.285 154.1 136.326 154.051C136.364 154.005 136.394 153.986 136.395 153.986C136.396 153.986 136.378 153.996 136.333 154.013C136.289 154.029 136.227 154.048 136.144 154.066C135.796 154.144 135.241 154.184 134.48 154.159C132.973 154.109 130.874 153.814 128.48 153.282L128.046 155.234C130.509 155.782 132.74 156.103 134.414 156.158C135.242 156.185 135.991 156.15 136.58 156.018C136.873 155.953 137.182 155.852 137.452 155.684C137.728 155.512 138.029 155.226 138.148 154.784L136.216 154.266Z" fill="#41C6A7" mask="url(#path-22-inside-3)"/>
<defs>
<filter id="filter0_f" x="37.2356" y="60.3551" width="47.2926" height="47.2926" filterUnits="userSpaceOnUse" color-interpolation-filters="sRGB">
<feFlood flood-opacity="0" result="BackgroundImageFix"/>
<feBlend mode="normal" in="SourceGraphic" in2="BackgroundImageFix" result="shape"/>
<feGaussianBlur stdDeviation="4.40765" result="effect1_foregroundBlur"/>
</filter>
<filter id="filter1_f" x="122.759" y="94.9421" width="57.5069" height="57.5069" filterUnits="userSpaceOnUse" color-interpolation-filters="sRGB">
<feFlood flood-opacity="0" result="BackgroundImageFix"/>
<feBlend mode="normal" in="SourceGraphic" in2="BackgroundImageFix" result="shape"/>
<feGaussianBlur stdDeviation="5.35962" result="effect1_foregroundBlur"/>
</filter>
<filter id="filter2_f" x="43.7939" y="0.10734" width="132.881" height="177.305" filterUnits="userSpaceOnUse" color-interpolation-filters="sRGB">
<feFlood flood-opacity="0" result="BackgroundImageFix"/>
<feBlend mode="normal" in="SourceGraphic" in2="BackgroundImageFix" result="shape"/>
<feGaussianBlur stdDeviation="10.2857" result="effect1_foregroundBlur"/>
</filter>
<filter id="filter3_f" x="90.8694" y="113.795" width="75.4096" height="75.4096" filterUnits="userSpaceOnUse" color-interpolation-filters="sRGB">
<feFlood flood-opacity="0" result="BackgroundImageFix"/>
<feBlend mode="normal" in="SourceGraphic" in2="BackgroundImageFix" result="shape"/>
<feGaussianBlur stdDeviation="7.02814" result="effect1_foregroundBlur"/>
</filter>
</defs>
</svg>
