<svg width="189" height="223" viewBox="0 0 189 223" fill="none" xmlns="http://www.w3.org/2000/svg">
<g opacity="0.4" filter="url(#filter0_f)">
<path d="M75.5938 63.386C92.2419 63.386 105.738 77.2559 105.738 94.3653C105.738 111.475 92.2419 125.345 75.5938 125.345C58.9457 125.345 45.4497 111.475 45.4497 94.3653C45.4497 77.2559 58.9457 63.386 75.5938 63.386Z" fill="#5DD9BD"/>
</g>
<g filter="url(#filter1_d)">
<path d="M165.714 192.776L49.0258 202.918C42.7835 203.457 37.2848 198.835 36.7456 192.593L29.86 113.372C29.3209 107.13 33.9429 101.631 40.1852 101.092L156.862 90.9483C163.104 90.4092 168.603 95.0312 169.142 101.274L176.028 180.494C176.579 186.726 171.957 192.225 165.714 192.776Z" fill="white"/>
</g>
<mask id="mask0" mask-type="alpha" maskUnits="userSpaceOnUse" x="29" y="90" width="148" height="113">
<path d="M165.714 192.776L49.0258 202.918C42.7835 203.457 37.2848 198.835 36.7456 192.593L29.86 113.372C29.3209 107.13 33.9429 101.631 40.1852 101.092L156.862 90.9483C163.104 90.4092 168.603 95.0312 169.142 101.274L176.028 180.494C176.579 186.726 171.957 192.225 165.714 192.776Z" fill="white"/>
</mask>
<g mask="url(#mask0)">
<circle cx="107.158" cy="121.835" r="1.37504" transform="rotate(4.90687 107.158 121.835)" fill="#5DD9BD"/>
<circle cx="104.335" cy="154.715" r="1.37504" transform="rotate(4.90687 104.335 154.715)" fill="#5DD9BD"/>
<circle cx="63.3178" cy="118.071" r="1.37504" transform="rotate(4.90687 63.3178 118.071)" fill="#5DD9BD"/>
<circle cx="150.998" cy="125.599" r="1.37504" transform="rotate(4.90687 150.998 125.599)" fill="#5DD9BD"/>
<circle cx="153.821" cy="92.7188" r="1.37504" transform="rotate(4.90687 153.821 92.7188)" fill="#5DD9BD"/>
<circle cx="60.4946" cy="150.951" r="1.37504" transform="rotate(4.90687 60.4946 150.951)" fill="#5DD9BD"/>
<circle cx="148.175" cy="158.479" r="1.37504" transform="rotate(4.90687 148.175 158.479)" fill="#5DD9BD"/>
<circle cx="41.3974" cy="116.19" r="1.37504" transform="rotate(4.90687 41.3974 116.19)" fill="#5DD9BD"/>
<circle cx="129.078" cy="123.717" r="1.37504" transform="rotate(4.90687 129.078 123.717)" fill="#5DD9BD"/>
<circle cx="131.9" cy="90.837" r="1.37504" transform="rotate(4.90687 131.9 90.837)" fill="#5DD9BD"/>
<circle cx="38.5747" cy="149.07" r="1.37504" transform="rotate(4.90687 38.5747 149.07)" fill="#5DD9BD"/>
<circle cx="126.255" cy="156.597" r="1.37504" transform="rotate(4.90687 126.255 156.597)" fill="#5DD9BD"/>
<circle cx="33.8701" cy="203.87" r="1.37504" transform="rotate(4.90687 33.8701 203.87)" fill="#5DD9BD"/>
<circle cx="85.2377" cy="119.953" r="1.37504" transform="rotate(4.90687 85.2377 119.953)" fill="#5DD9BD"/>
<circle cx="172.918" cy="127.481" r="1.37504" transform="rotate(4.90687 172.918 127.481)" fill="#5DD9BD"/>
<circle cx="175.741" cy="94.6007" r="1.37504" transform="rotate(4.90687 175.741 94.6007)" fill="#5DD9BD"/>
<circle cx="82.4145" cy="152.833" r="1.37504" transform="rotate(4.90687 82.4145 152.833)" fill="#5DD9BD"/>
<circle cx="170.095" cy="160.361" r="1.37504" transform="rotate(4.90687 170.095 160.361)" fill="#5DD9BD"/>
<circle cx="30.4374" cy="115.249" r="1.37504" transform="rotate(4.90687 30.4374 115.249)" fill="#5DD9BD"/>
<circle cx="118.118" cy="122.776" r="1.37504" transform="rotate(4.90687 118.118 122.776)" fill="#5DD9BD"/>
<circle cx="120.94" cy="89.8961" r="1.37504" transform="rotate(4.90687 120.94 89.8961)" fill="#5DD9BD"/>
<circle cx="115.295" cy="155.656" r="1.37504" transform="rotate(4.90687 115.295 155.656)" fill="#5DD9BD"/>
<circle cx="74.2778" cy="119.012" r="1.37504" transform="rotate(4.90687 74.2778 119.012)" fill="#5DD9BD"/>
<circle cx="161.957" cy="126.54" r="1.37504" transform="rotate(4.90687 161.957 126.54)" fill="#5DD9BD"/>
<circle cx="164.781" cy="93.6597" r="1.37504" transform="rotate(4.90687 164.781 93.6597)" fill="#5DD9BD"/>
<circle cx="71.4545" cy="151.892" r="1.37504" transform="rotate(4.90687 71.4545 151.892)" fill="#5DD9BD"/>
<circle cx="159.135" cy="159.42" r="1.37504" transform="rotate(4.90687 159.135 159.42)" fill="#5DD9BD"/>
<circle cx="52.3574" cy="117.13" r="1.37504" transform="rotate(4.90687 52.3574 117.13)" fill="#5DD9BD"/>
<circle cx="140.038" cy="124.658" r="1.37504" transform="rotate(4.90687 140.038 124.658)" fill="#5DD9BD"/>
<circle cx="142.86" cy="91.7779" r="1.37504" transform="rotate(4.90687 142.86 91.7779)" fill="#5DD9BD"/>
<circle cx="49.5346" cy="150.011" r="1.37504" transform="rotate(4.90687 49.5346 150.011)" fill="#5DD9BD"/>
<circle cx="137.215" cy="157.538" r="1.37504" transform="rotate(4.90687 137.215 157.538)" fill="#5DD9BD"/>
<circle cx="96.1977" cy="120.894" r="1.37504" transform="rotate(4.90687 96.1977 120.894)" fill="#5DD9BD"/>
<circle cx="93.3749" cy="153.774" r="1.37504" transform="rotate(4.90687 93.3749 153.774)" fill="#5DD9BD"/>
<circle cx="106.217" cy="132.795" r="1.37504" transform="rotate(4.90687 106.217 132.795)" fill="#5DD9BD"/>
<circle cx="101.512" cy="187.595" r="1.37504" transform="rotate(4.90687 101.512 187.595)" fill="#5DD9BD"/>
<circle cx="109.039" cy="99.9151" r="1.37504" transform="rotate(4.90687 109.039 99.9151)" fill="#5DD9BD"/>
<circle cx="103.394" cy="165.675" r="1.37504" transform="rotate(4.90687 103.394 165.675)" fill="#5DD9BD"/>
<circle cx="62.3764" cy="129.031" r="1.37504" transform="rotate(4.90687 62.3764 129.031)" fill="#5DD9BD"/>
<circle cx="150.057" cy="136.559" r="1.37504" transform="rotate(4.90687 150.057 136.559)" fill="#5DD9BD"/>
<circle cx="57.6718" cy="183.832" r="1.37504" transform="rotate(4.90687 57.6718 183.832)" fill="#5DD9BD"/>
<circle cx="145.352" cy="191.359" r="1.37504" transform="rotate(4.90687 145.352 191.359)" fill="#5DD9BD"/>
<circle cx="65.1997" cy="96.1514" r="1.37504" transform="rotate(4.90687 65.1997 96.1514)" fill="#5DD9BD"/>
<circle cx="152.88" cy="103.679" r="1.37504" transform="rotate(4.90687 152.88 103.679)" fill="#5DD9BD"/>
<circle cx="59.5537" cy="161.911" r="1.37504" transform="rotate(4.90687 59.5537 161.911)" fill="#5DD9BD"/>
<circle cx="147.234" cy="169.439" r="1.37504" transform="rotate(4.90687 147.234 169.439)" fill="#5DD9BD"/>
<circle cx="40.4565" cy="127.149" r="1.37504" transform="rotate(4.90687 40.4565 127.149)" fill="#5DD9BD"/>
<circle cx="128.137" cy="134.677" r="1.37504" transform="rotate(4.90687 128.137 134.677)" fill="#5DD9BD"/>
<circle cx="35.7519" cy="181.95" r="1.37504" transform="rotate(4.90687 35.7519 181.95)" fill="#5DD9BD"/>
<circle cx="123.432" cy="189.477" r="1.37504" transform="rotate(4.90687 123.432 189.477)" fill="#5DD9BD"/>
<circle cx="43.2792" cy="94.2696" r="1.37504" transform="rotate(4.90687 43.2792 94.2696)" fill="#5DD9BD"/>
<circle cx="130.96" cy="101.797" r="1.37504" transform="rotate(4.90687 130.96 101.797)" fill="#5DD9BD"/>
<circle cx="37.6337" cy="160.03" r="1.37504" transform="rotate(4.90687 37.6337 160.03)" fill="#5DD9BD"/>
<circle cx="125.314" cy="167.557" r="1.37504" transform="rotate(4.90687 125.314 167.557)" fill="#5DD9BD"/>
<circle cx="84.2968" cy="130.913" r="1.37504" transform="rotate(4.90687 84.2968 130.913)" fill="#5DD9BD"/>
<circle cx="171.977" cy="138.441" r="1.37504" transform="rotate(4.90687 171.977 138.441)" fill="#5DD9BD"/>
<circle cx="79.5922" cy="185.713" r="1.37504" transform="rotate(4.90687 79.5922 185.713)" fill="#5DD9BD"/>
<circle cx="167.272" cy="193.241" r="1.37504" transform="rotate(4.90687 167.272 193.241)" fill="#5DD9BD"/>
<circle cx="87.1196" cy="98.0333" r="1.37504" transform="rotate(4.90687 87.1196 98.0333)" fill="#5DD9BD"/>
<circle cx="174.8" cy="105.561" r="1.37504" transform="rotate(4.90687 174.8 105.561)" fill="#5DD9BD"/>
<circle cx="81.4741" cy="163.794" r="1.37504" transform="rotate(4.90687 81.4741 163.794)" fill="#5DD9BD"/>
<circle cx="169.154" cy="171.321" r="1.37504" transform="rotate(4.90687 169.154 171.321)" fill="#5DD9BD"/>
<circle cx="29.4965" cy="126.209" r="1.37504" transform="rotate(4.90687 29.4965 126.209)" fill="#5DD9BD"/>
<circle cx="117.177" cy="133.736" r="1.37504" transform="rotate(4.90687 117.177 133.736)" fill="#5DD9BD"/>
<circle cx="112.472" cy="188.536" r="1.37504" transform="rotate(4.90687 112.472 188.536)" fill="#5DD9BD"/>
<circle cx="32.3193" cy="93.3287" r="1.37504" transform="rotate(4.90687 32.3193 93.3287)" fill="#5DD9BD"/>
<circle cx="119.999" cy="100.856" r="1.37504" transform="rotate(4.90687 119.999 100.856)" fill="#5DD9BD"/>
<circle cx="114.354" cy="166.616" r="1.37504" transform="rotate(4.90687 114.354 166.616)" fill="#5DD9BD"/>
<circle cx="73.3364" cy="129.972" r="1.37504" transform="rotate(4.90687 73.3364 129.972)" fill="#5DD9BD"/>
<circle cx="161.017" cy="137.5" r="1.37504" transform="rotate(4.90687 161.017 137.5)" fill="#5DD9BD"/>
<circle cx="68.6318" cy="184.773" r="1.37504" transform="rotate(4.90687 68.6318 184.773)" fill="#5DD9BD"/>
<circle cx="156.312" cy="192.3" r="1.37504" transform="rotate(4.90687 156.312 192.3)" fill="#5DD9BD"/>
<circle cx="76.1596" cy="97.0924" r="1.37504" transform="rotate(4.90687 76.1596 97.0924)" fill="#5DD9BD"/>
<circle cx="163.839" cy="104.62" r="1.37504" transform="rotate(4.90687 163.839 104.62)" fill="#5DD9BD"/>
<circle cx="70.5136" cy="162.852" r="1.37504" transform="rotate(4.90687 70.5136 162.852)" fill="#5DD9BD"/>
<circle cx="158.194" cy="170.38" r="1.37504" transform="rotate(4.90687 158.194 170.38)" fill="#5DD9BD"/>
<circle cx="51.4165" cy="128.09" r="1.37504" transform="rotate(4.90687 51.4165 128.09)" fill="#5DD9BD"/>
<circle cx="139.097" cy="135.618" r="1.37504" transform="rotate(4.90687 139.097 135.618)" fill="#5DD9BD"/>
<circle cx="46.7119" cy="182.891" r="1.37504" transform="rotate(4.90687 46.7119 182.891)" fill="#5DD9BD"/>
<circle cx="134.392" cy="190.418" r="1.37504" transform="rotate(4.90687 134.392 190.418)" fill="#5DD9BD"/>
<circle cx="54.2392" cy="95.2105" r="1.37504" transform="rotate(4.90687 54.2392 95.2105)" fill="#5DD9BD"/>
<circle cx="141.919" cy="102.738" r="1.37504" transform="rotate(4.90687 141.919 102.738)" fill="#5DD9BD"/>
<circle cx="48.5937" cy="160.971" r="1.37504" transform="rotate(4.90687 48.5937 160.971)" fill="#5DD9BD"/>
<circle cx="136.274" cy="168.498" r="1.37504" transform="rotate(4.90687 136.274 168.498)" fill="#5DD9BD"/>
<circle cx="95.2568" cy="131.854" r="1.37504" transform="rotate(4.90687 95.2568 131.854)" fill="#5DD9BD"/>
<circle cx="90.5522" cy="186.654" r="1.37504" transform="rotate(4.90687 90.5522 186.654)" fill="#5DD9BD"/>
<circle cx="98.0795" cy="98.9742" r="1.37504" transform="rotate(4.90687 98.0795 98.9742)" fill="#5DD9BD"/>
<circle cx="92.434" cy="164.734" r="1.37504" transform="rotate(4.90687 92.434 164.734)" fill="#5DD9BD"/>
<circle cx="105.276" cy="143.755" r="1.37504" transform="rotate(4.90687 105.276 143.755)" fill="#5DD9BD"/>
<circle cx="100.571" cy="198.555" r="1.37504" transform="rotate(4.90687 100.571 198.555)" fill="#5DD9BD"/>
<circle cx="108.099" cy="110.875" r="1.37504" transform="rotate(4.90687 108.099 110.875)" fill="#5DD9BD"/>
<circle cx="102.453" cy="176.635" r="1.37504" transform="rotate(4.90687 102.453 176.635)" fill="#5DD9BD"/>
<circle cx="61.4355" cy="139.992" r="1.37504" transform="rotate(4.90687 61.4355 139.992)" fill="#5DD9BD"/>
<circle cx="149.116" cy="147.519" r="1.37504" transform="rotate(4.90687 149.116 147.519)" fill="#5DD9BD"/>
<circle cx="56.7309" cy="194.792" r="1.37504" transform="rotate(4.90687 56.7309 194.792)" fill="#5DD9BD"/>
<circle cx="144.411" cy="202.319" r="1.37504" transform="rotate(4.90687 144.411 202.319)" fill="#5DD9BD"/>
<circle cx="64.2582" cy="107.111" r="1.37504" transform="rotate(4.90687 64.2582 107.111)" fill="#5DD9BD"/>
<circle cx="151.938" cy="114.639" r="1.37504" transform="rotate(4.90687 151.938 114.639)" fill="#5DD9BD"/>
<circle cx="58.6127" cy="172.872" r="1.37504" transform="rotate(4.90687 58.6127 172.872)" fill="#5DD9BD"/>
<circle cx="146.293" cy="180.399" r="1.37504" transform="rotate(4.90687 146.293 180.399)" fill="#5DD9BD"/>
<circle cx="39.5156" cy="138.11" r="1.37504" transform="rotate(4.90687 39.5156 138.11)" fill="#5DD9BD"/>
<circle cx="127.196" cy="145.637" r="1.37504" transform="rotate(4.90687 127.196 145.637)" fill="#5DD9BD"/>
<circle cx="34.811" cy="192.91" r="1.37504" transform="rotate(4.90687 34.811 192.91)" fill="#5DD9BD"/>
<circle cx="122.491" cy="200.437" r="1.37504" transform="rotate(4.90687 122.491 200.437)" fill="#5DD9BD"/>
<circle cx="42.3383" cy="105.23" r="1.37504" transform="rotate(4.90687 42.3383 105.23)" fill="#5DD9BD"/>
<circle cx="130.018" cy="112.757" r="1.37504" transform="rotate(4.90687 130.018 112.757)" fill="#5DD9BD"/>
<circle cx="36.6928" cy="170.99" r="1.37504" transform="rotate(4.90687 36.6928 170.99)" fill="#5DD9BD"/>
<circle cx="124.373" cy="178.517" r="1.37504" transform="rotate(4.90687 124.373 178.517)" fill="#5DD9BD"/>
<circle cx="83.3559" cy="141.873" r="1.37504" transform="rotate(4.90687 83.3559 141.873)" fill="#5DD9BD"/>
<circle cx="171.036" cy="149.401" r="1.37504" transform="rotate(4.90687 171.036 149.401)" fill="#5DD9BD"/>
<circle cx="78.6508" cy="196.673" r="1.37504" transform="rotate(4.90687 78.6508 196.673)" fill="#5DD9BD"/>
<circle cx="166.331" cy="204.201" r="1.37504" transform="rotate(4.90687 166.331 204.201)" fill="#5DD9BD"/>
<circle cx="86.1787" cy="108.993" r="1.37504" transform="rotate(4.90687 86.1787 108.993)" fill="#5DD9BD"/>
<circle cx="173.859" cy="116.521" r="1.37504" transform="rotate(4.90687 173.859 116.521)" fill="#5DD9BD"/>
<circle cx="80.5327" cy="174.753" r="1.37504" transform="rotate(4.90687 80.5327 174.753)" fill="#5DD9BD"/>
<circle cx="168.213" cy="182.281" r="1.37504" transform="rotate(4.90687 168.213 182.281)" fill="#5DD9BD"/>
<circle cx="28.5556" cy="137.169" r="1.37504" transform="rotate(4.90687 28.5556 137.169)" fill="#5DD9BD"/>
<circle cx="116.236" cy="144.696" r="1.37504" transform="rotate(4.90687 116.236 144.696)" fill="#5DD9BD"/>
<circle cx="111.531" cy="199.496" r="1.37504" transform="rotate(4.90687 111.531 199.496)" fill="#5DD9BD"/>
<circle cx="31.3784" cy="104.289" r="1.37504" transform="rotate(4.90687 31.3784 104.289)" fill="#5DD9BD"/>
<circle cx="119.059" cy="111.816" r="1.37504" transform="rotate(4.90687 119.059 111.816)" fill="#5DD9BD"/>
<circle cx="113.413" cy="177.576" r="1.37504" transform="rotate(4.90687 113.413 177.576)" fill="#5DD9BD"/>
<circle cx="72.3955" cy="140.932" r="1.37504" transform="rotate(4.90687 72.3955 140.932)" fill="#5DD9BD"/>
<circle cx="160.076" cy="148.46" r="1.37504" transform="rotate(4.90687 160.076 148.46)" fill="#5DD9BD"/>
<circle cx="67.6909" cy="195.732" r="1.37504" transform="rotate(4.90687 67.6909 195.732)" fill="#5DD9BD"/>
<circle cx="155.371" cy="203.26" r="1.37504" transform="rotate(4.90687 155.371 203.26)" fill="#5DD9BD"/>
<circle cx="75.2182" cy="108.052" r="1.37504" transform="rotate(4.90687 75.2182 108.052)" fill="#5DD9BD"/>
<circle cx="162.899" cy="115.58" r="1.37504" transform="rotate(4.90687 162.899 115.58)" fill="#5DD9BD"/>
<circle cx="69.5727" cy="173.813" r="1.37504" transform="rotate(4.90687 69.5727 173.813)" fill="#5DD9BD"/>
<circle cx="157.253" cy="181.34" r="1.37504" transform="rotate(4.90687 157.253 181.34)" fill="#5DD9BD"/>
<circle cx="50.4755" cy="139.051" r="1.37504" transform="rotate(4.90687 50.4755 139.051)" fill="#5DD9BD"/>
<circle cx="138.156" cy="146.578" r="1.37504" transform="rotate(4.90687 138.156 146.578)" fill="#5DD9BD"/>
<circle cx="45.7709" cy="193.851" r="1.37504" transform="rotate(4.90687 45.7709 193.851)" fill="#5DD9BD"/>
<circle cx="133.451" cy="201.378" r="1.37504" transform="rotate(4.90687 133.451 201.378)" fill="#5DD9BD"/>
<circle cx="53.2983" cy="106.17" r="1.37504" transform="rotate(4.90687 53.2983 106.17)" fill="#5DD9BD"/>
<circle cx="140.978" cy="113.698" r="1.37504" transform="rotate(4.90687 140.978 113.698)" fill="#5DD9BD"/>
<circle cx="47.6528" cy="171.931" r="1.37504" transform="rotate(4.90687 47.6528 171.931)" fill="#5DD9BD"/>
<circle cx="135.333" cy="179.458" r="1.37504" transform="rotate(4.90687 135.333 179.458)" fill="#5DD9BD"/>
<circle cx="94.3159" cy="142.814" r="1.37504" transform="rotate(4.90687 94.3159 142.814)" fill="#5DD9BD"/>
<circle cx="89.6113" cy="197.614" r="1.37504" transform="rotate(4.90687 89.6113 197.614)" fill="#5DD9BD"/>
<circle cx="97.1386" cy="109.934" r="1.37504" transform="rotate(4.90687 97.1386 109.934)" fill="#5DD9BD"/>
<circle cx="91.4931" cy="175.694" r="1.37504" transform="rotate(4.90687 91.4931 175.694)" fill="#5DD9BD"/>
<circle cx="112.638" cy="122.306" r="1.37504" transform="rotate(4.90687 112.638 122.306)" fill="#5DD9BD"/>
<circle cx="115.46" cy="89.4256" r="1.37504" transform="rotate(4.90687 115.46 89.4256)" fill="#5DD9BD"/>
<circle cx="109.815" cy="155.186" r="1.37504" transform="rotate(4.90687 109.815 155.186)" fill="#5DD9BD"/>
<circle cx="68.7973" cy="118.542" r="1.37504" transform="rotate(4.90687 68.7973 118.542)" fill="#5DD9BD"/>
<circle cx="156.477" cy="126.069" r="1.37504" transform="rotate(4.90687 156.477 126.069)" fill="#5DD9BD"/>
<circle cx="159.3" cy="93.1893" r="1.37504" transform="rotate(4.90687 159.3 93.1893)" fill="#5DD9BD"/>
<circle cx="65.9746" cy="151.422" r="1.37504" transform="rotate(4.90687 65.9746 151.422)" fill="#5DD9BD"/>
<circle cx="153.655" cy="158.95" r="1.37504" transform="rotate(4.90687 153.655 158.95)" fill="#5DD9BD"/>
<circle cx="46.8774" cy="116.66" r="1.37504" transform="rotate(4.90687 46.8774 116.66)" fill="#5DD9BD"/>
<circle cx="134.558" cy="124.188" r="1.37504" transform="rotate(4.90687 134.558 124.188)" fill="#5DD9BD"/>
<circle cx="137.38" cy="91.3074" r="1.37504" transform="rotate(4.90687 137.38 91.3074)" fill="#5DD9BD"/>
<circle cx="44.0546" cy="149.54" r="1.37504" transform="rotate(4.90687 44.0546 149.54)" fill="#5DD9BD"/>
<circle cx="131.735" cy="157.068" r="1.37504" transform="rotate(4.90687 131.735 157.068)" fill="#5DD9BD"/>
<circle cx="39.35" cy="204.34" r="1.37504" transform="rotate(4.90687 39.35 204.34)" fill="#5DD9BD"/>
<circle cx="90.7172" cy="120.424" r="1.37504" transform="rotate(4.90687 90.7172 120.424)" fill="#5DD9BD"/>
<circle cx="87.8945" cy="153.304" r="1.37504" transform="rotate(4.90687 87.8945 153.304)" fill="#5DD9BD"/>
<circle cx="175.575" cy="160.831" r="1.37504" transform="rotate(4.90687 175.575 160.831)" fill="#5DD9BD"/>
<circle cx="35.9174" cy="115.719" r="1.37504" transform="rotate(4.90687 35.9174 115.719)" fill="#5DD9BD"/>
<circle cx="123.598" cy="123.247" r="1.37504" transform="rotate(4.90687 123.598 123.247)" fill="#5DD9BD"/>
<circle cx="126.42" cy="90.3665" r="1.37504" transform="rotate(4.90687 126.42 90.3665)" fill="#5DD9BD"/>
<circle cx="33.0947" cy="148.599" r="1.37504" transform="rotate(4.90687 33.0947 148.599)" fill="#5DD9BD"/>
<circle cx="120.775" cy="156.127" r="1.37504" transform="rotate(4.90687 120.775 156.127)" fill="#5DD9BD"/>
<circle cx="28.3901" cy="203.399" r="1.37504" transform="rotate(4.90687 28.3901 203.399)" fill="#5DD9BD"/>
<circle cx="79.7578" cy="119.483" r="1.37504" transform="rotate(4.90687 79.7578 119.483)" fill="#5DD9BD"/>
<circle cx="167.438" cy="127.01" r="1.37504" transform="rotate(4.90687 167.438 127.01)" fill="#5DD9BD"/>
<circle cx="170.261" cy="94.1302" r="1.37504" transform="rotate(4.90687 170.261 94.1302)" fill="#5DD9BD"/>
<circle cx="76.9345" cy="152.363" r="1.37504" transform="rotate(4.90687 76.9345 152.363)" fill="#5DD9BD"/>
<circle cx="164.615" cy="159.89" r="1.37504" transform="rotate(4.90687 164.615 159.89)" fill="#5DD9BD"/>
<circle cx="57.8373" cy="117.601" r="1.37504" transform="rotate(4.90687 57.8373 117.601)" fill="#5DD9BD"/>
<circle cx="145.518" cy="125.128" r="1.37504" transform="rotate(4.90687 145.518 125.128)" fill="#5DD9BD"/>
<circle cx="148.34" cy="92.2484" r="1.37504" transform="rotate(4.90687 148.34 92.2484)" fill="#5DD9BD"/>
<circle cx="55.0146" cy="150.481" r="1.37504" transform="rotate(4.90687 55.0146 150.481)" fill="#5DD9BD"/>
<circle cx="142.695" cy="158.009" r="1.37504" transform="rotate(4.90687 142.695 158.009)" fill="#5DD9BD"/>
<circle cx="101.678" cy="121.365" r="1.37504" transform="rotate(4.90687 101.678 121.365)" fill="#5DD9BD"/>
<circle cx="98.8544" cy="154.245" r="1.37504" transform="rotate(4.90687 98.8544 154.245)" fill="#5DD9BD"/>
<circle cx="111.697" cy="133.266" r="1.37504" transform="rotate(4.90687 111.697 133.266)" fill="#5DD9BD"/>
<circle cx="106.992" cy="188.066" r="1.37504" transform="rotate(4.90687 106.992 188.066)" fill="#5DD9BD"/>
<circle cx="114.519" cy="100.386" r="1.37504" transform="rotate(4.90687 114.519 100.386)" fill="#5DD9BD"/>
<circle cx="108.874" cy="166.146" r="1.37504" transform="rotate(4.90687 108.874 166.146)" fill="#5DD9BD"/>
<circle cx="67.8564" cy="129.502" r="1.37504" transform="rotate(4.90687 67.8564 129.502)" fill="#5DD9BD"/>
<circle cx="155.537" cy="137.029" r="1.37504" transform="rotate(4.90687 155.537 137.029)" fill="#5DD9BD"/>
<circle cx="63.1518" cy="184.302" r="1.37504" transform="rotate(4.90687 63.1518 184.302)" fill="#5DD9BD"/>
<circle cx="150.832" cy="191.829" r="1.37504" transform="rotate(4.90687 150.832 191.829)" fill="#5DD9BD"/>
<circle cx="70.6791" cy="96.6219" r="1.37504" transform="rotate(4.90687 70.6791 96.6219)" fill="#5DD9BD"/>
<circle cx="158.359" cy="104.149" r="1.37504" transform="rotate(4.90687 158.359 104.149)" fill="#5DD9BD"/>
<circle cx="65.0336" cy="162.382" r="1.37504" transform="rotate(4.90687 65.0336 162.382)" fill="#5DD9BD"/>
<circle cx="152.714" cy="169.91" r="1.37504" transform="rotate(4.90687 152.714 169.91)" fill="#5DD9BD"/>
<circle cx="45.9365" cy="127.62" r="1.37504" transform="rotate(4.90687 45.9365 127.62)" fill="#5DD9BD"/>
<circle cx="133.617" cy="135.148" r="1.37504" transform="rotate(4.90687 133.617 135.148)" fill="#5DD9BD"/>
<circle cx="41.2319" cy="182.42" r="1.37504" transform="rotate(4.90687 41.2319 182.42)" fill="#5DD9BD"/>
<circle cx="128.912" cy="189.948" r="1.37504" transform="rotate(4.90687 128.912 189.948)" fill="#5DD9BD"/>
<circle cx="48.7592" cy="94.7401" r="1.37504" transform="rotate(4.90687 48.7592 94.7401)" fill="#5DD9BD"/>
<circle cx="136.439" cy="102.267" r="1.37504" transform="rotate(4.90687 136.439 102.267)" fill="#5DD9BD"/>
<circle cx="43.1137" cy="160.5" r="1.37504" transform="rotate(4.90687 43.1137 160.5)" fill="#5DD9BD"/>
<circle cx="130.794" cy="168.028" r="1.37504" transform="rotate(4.90687 130.794 168.028)" fill="#5DD9BD"/>
<circle cx="89.7763" cy="131.384" r="1.37504" transform="rotate(4.90687 89.7763 131.384)" fill="#5DD9BD"/>
<circle cx="177.457" cy="138.911" r="1.37504" transform="rotate(4.90687 177.457 138.911)" fill="#5DD9BD"/>
<circle cx="85.0717" cy="186.184" r="1.37504" transform="rotate(4.90687 85.0717 186.184)" fill="#5DD9BD"/>
<circle cx="172.752" cy="193.711" r="1.37504" transform="rotate(4.90687 172.752 193.711)" fill="#5DD9BD"/>
<circle cx="92.5991" cy="98.5037" r="1.37504" transform="rotate(4.90687 92.5991 98.5037)" fill="#5DD9BD"/>
<circle cx="86.9536" cy="164.264" r="1.37504" transform="rotate(4.90687 86.9536 164.264)" fill="#5DD9BD"/>
<circle cx="174.634" cy="171.791" r="1.37504" transform="rotate(4.90687 174.634 171.791)" fill="#5DD9BD"/>
<circle cx="34.9765" cy="126.679" r="1.37504" transform="rotate(4.90687 34.9765 126.679)" fill="#5DD9BD"/>
<circle cx="122.657" cy="134.207" r="1.37504" transform="rotate(4.90687 122.657 134.207)" fill="#5DD9BD"/>
<circle cx="30.2719" cy="181.479" r="1.37504" transform="rotate(4.90687 30.2719 181.479)" fill="#5DD9BD"/>
<circle cx="117.952" cy="189.007" r="1.37504" transform="rotate(4.90687 117.952 189.007)" fill="#5DD9BD"/>
<circle cx="37.7993" cy="93.7991" r="1.37504" transform="rotate(4.90687 37.7993 93.7991)" fill="#5DD9BD"/>
<circle cx="125.479" cy="101.326" r="1.37504" transform="rotate(4.90687 125.479 101.326)" fill="#5DD9BD"/>
<circle cx="32.1538" cy="159.559" r="1.37504" transform="rotate(4.90687 32.1538 159.559)" fill="#5DD9BD"/>
<circle cx="119.834" cy="167.087" r="1.37504" transform="rotate(4.90687 119.834 167.087)" fill="#5DD9BD"/>
<circle cx="78.8164" cy="130.443" r="1.37504" transform="rotate(4.90687 78.8164 130.443)" fill="#5DD9BD"/>
<circle cx="166.497" cy="137.97" r="1.37504" transform="rotate(4.90687 166.497 137.97)" fill="#5DD9BD"/>
<circle cx="74.1118" cy="185.243" r="1.37504" transform="rotate(4.90687 74.1118 185.243)" fill="#5DD9BD"/>
<circle cx="161.792" cy="192.77" r="1.37504" transform="rotate(4.90687 161.792 192.77)" fill="#5DD9BD"/>
<circle cx="81.6396" cy="97.5628" r="1.37504" transform="rotate(4.90687 81.6396 97.5628)" fill="#5DD9BD"/>
<circle cx="169.32" cy="105.09" r="1.37504" transform="rotate(4.90687 169.32 105.09)" fill="#5DD9BD"/>
<circle cx="75.9941" cy="163.323" r="1.37504" transform="rotate(4.90687 75.9941 163.323)" fill="#5DD9BD"/>
<circle cx="163.674" cy="170.85" r="1.37504" transform="rotate(4.90687 163.674 170.85)" fill="#5DD9BD"/>
<circle cx="56.8964" cy="128.561" r="1.37504" transform="rotate(4.90687 56.8964 128.561)" fill="#5DD9BD"/>
<circle cx="144.577" cy="136.088" r="1.37504" transform="rotate(4.90687 144.577 136.088)" fill="#5DD9BD"/>
<circle cx="52.1918" cy="183.361" r="1.37504" transform="rotate(4.90687 52.1918 183.361)" fill="#5DD9BD"/>
<circle cx="139.872" cy="190.889" r="1.37504" transform="rotate(4.90687 139.872 190.889)" fill="#5DD9BD"/>
<circle cx="59.7192" cy="95.681" r="1.37504" transform="rotate(4.90687 59.7192 95.681)" fill="#5DD9BD"/>
<circle cx="147.399" cy="103.208" r="1.37504" transform="rotate(4.90687 147.399 103.208)" fill="#5DD9BD"/>
<circle cx="54.0737" cy="161.441" r="1.37504" transform="rotate(4.90687 54.0737 161.441)" fill="#5DD9BD"/>
<circle cx="141.754" cy="168.969" r="1.37504" transform="rotate(4.90687 141.754 168.969)" fill="#5DD9BD"/>
<circle cx="100.736" cy="132.325" r="1.37504" transform="rotate(4.90687 100.736 132.325)" fill="#5DD9BD"/>
<circle cx="96.0322" cy="187.125" r="1.37504" transform="rotate(4.90687 96.0322 187.125)" fill="#5DD9BD"/>
<circle cx="103.56" cy="99.4446" r="1.37504" transform="rotate(4.90687 103.56 99.4446)" fill="#5DD9BD"/>
<circle cx="97.914" cy="165.205" r="1.37504" transform="rotate(4.90687 97.914 165.205)" fill="#5DD9BD"/>
<circle cx="110.756" cy="144.226" r="1.37504" transform="rotate(4.90687 110.756 144.226)" fill="#5DD9BD"/>
<circle cx="106.051" cy="199.026" r="1.37504" transform="rotate(4.90687 106.051 199.026)" fill="#5DD9BD"/>
<circle cx="113.579" cy="111.346" r="1.37504" transform="rotate(4.90687 113.579 111.346)" fill="#5DD9BD"/>
<circle cx="107.933" cy="177.106" r="1.37504" transform="rotate(4.90687 107.933 177.106)" fill="#5DD9BD"/>
<circle cx="66.9155" cy="140.462" r="1.37504" transform="rotate(4.90687 66.9155 140.462)" fill="#5DD9BD"/>
<circle cx="154.596" cy="147.99" r="1.37504" transform="rotate(4.90687 154.596 147.99)" fill="#5DD9BD"/>
<circle cx="62.2109" cy="195.262" r="1.37504" transform="rotate(4.90687 62.2109 195.262)" fill="#5DD9BD"/>
<circle cx="149.891" cy="202.79" r="1.37504" transform="rotate(4.90687 149.891 202.79)" fill="#5DD9BD"/>
<circle cx="69.7382" cy="107.582" r="1.37504" transform="rotate(4.90687 69.7382 107.582)" fill="#5DD9BD"/>
<circle cx="157.418" cy="115.109" r="1.37504" transform="rotate(4.90687 157.418 115.109)" fill="#5DD9BD"/>
<circle cx="64.0927" cy="173.342" r="1.37504" transform="rotate(4.90687 64.0927 173.342)" fill="#5DD9BD"/>
<circle cx="151.773" cy="180.869" r="1.37504" transform="rotate(4.90687 151.773 180.869)" fill="#5DD9BD"/>
<circle cx="44.9956" cy="138.58" r="1.37504" transform="rotate(4.90687 44.9956 138.58)" fill="#5DD9BD"/>
<circle cx="132.676" cy="146.107" r="1.37504" transform="rotate(4.90687 132.676 146.107)" fill="#5DD9BD"/>
<circle cx="40.291" cy="193.38" r="1.37504" transform="rotate(4.90687 40.291 193.38)" fill="#5DD9BD"/>
<circle cx="127.971" cy="200.908" r="1.37504" transform="rotate(4.90687 127.971 200.908)" fill="#5DD9BD"/>
<circle cx="47.8183" cy="105.7" r="1.37504" transform="rotate(4.90687 47.8183 105.7)" fill="#5DD9BD"/>
<circle cx="135.498" cy="113.228" r="1.37504" transform="rotate(4.90687 135.498 113.228)" fill="#5DD9BD"/>
<circle cx="42.1728" cy="171.46" r="1.37504" transform="rotate(4.90687 42.1728 171.46)" fill="#5DD9BD"/>
<circle cx="129.853" cy="178.988" r="1.37504" transform="rotate(4.90687 129.853 178.988)" fill="#5DD9BD"/>
<circle cx="88.8354" cy="142.344" r="1.37504" transform="rotate(4.90687 88.8354 142.344)" fill="#5DD9BD"/>
<circle cx="176.516" cy="149.871" r="1.37504" transform="rotate(4.90687 176.516 149.871)" fill="#5DD9BD"/>
<circle cx="84.1308" cy="197.144" r="1.37504" transform="rotate(4.90687 84.1308 197.144)" fill="#5DD9BD"/>
<circle cx="91.6581" cy="109.464" r="1.37504" transform="rotate(4.90687 91.6581 109.464)" fill="#5DD9BD"/>
<circle cx="86.0126" cy="175.224" r="1.37504" transform="rotate(4.90687 86.0126 175.224)" fill="#5DD9BD"/>
<circle cx="173.693" cy="182.751" r="1.37504" transform="rotate(4.90687 173.693 182.751)" fill="#5DD9BD"/>
<circle cx="34.0356" cy="137.639" r="1.37504" transform="rotate(4.90687 34.0356 137.639)" fill="#5DD9BD"/>
<circle cx="121.716" cy="145.167" r="1.37504" transform="rotate(4.90687 121.716 145.167)" fill="#5DD9BD"/>
<circle cx="29.331" cy="192.439" r="1.37504" transform="rotate(4.90687 29.331 192.439)" fill="#5DD9BD"/>
<circle cx="117.011" cy="199.967" r="1.37504" transform="rotate(4.90687 117.011 199.967)" fill="#5DD9BD"/>
<circle cx="36.8583" cy="104.759" r="1.37504" transform="rotate(4.90687 36.8583 104.759)" fill="#5DD9BD"/>
<circle cx="124.539" cy="112.286" r="1.37504" transform="rotate(4.90687 124.539 112.286)" fill="#5DD9BD"/>
<circle cx="31.2128" cy="170.519" r="1.37504" transform="rotate(4.90687 31.2128 170.519)" fill="#5DD9BD"/>
<circle cx="118.893" cy="178.047" r="1.37504" transform="rotate(4.90687 118.893 178.047)" fill="#5DD9BD"/>
<circle cx="77.8759" cy="141.403" r="1.37504" transform="rotate(4.90687 77.8759 141.403)" fill="#5DD9BD"/>
<circle cx="165.556" cy="148.93" r="1.37504" transform="rotate(4.90687 165.556 148.93)" fill="#5DD9BD"/>
<circle cx="73.1708" cy="196.203" r="1.37504" transform="rotate(4.90687 73.1708 196.203)" fill="#5DD9BD"/>
<circle cx="160.851" cy="203.731" r="1.37504" transform="rotate(4.90687 160.851 203.731)" fill="#5DD9BD"/>
<circle cx="80.6982" cy="108.523" r="1.37504" transform="rotate(4.90687 80.6982 108.523)" fill="#5DD9BD"/>
<circle cx="168.379" cy="116.05" r="1.37504" transform="rotate(4.90687 168.379 116.05)" fill="#5DD9BD"/>
<circle cx="75.0527" cy="174.283" r="1.37504" transform="rotate(4.90687 75.0527 174.283)" fill="#5DD9BD"/>
<circle cx="162.733" cy="181.81" r="1.37504" transform="rotate(4.90687 162.733 181.81)" fill="#5DD9BD"/>
<circle cx="55.9555" cy="139.521" r="1.37504" transform="rotate(4.90687 55.9555 139.521)" fill="#5DD9BD"/>
<circle cx="143.636" cy="147.049" r="1.37504" transform="rotate(4.90687 143.636 147.049)" fill="#5DD9BD"/>
<circle cx="51.2509" cy="194.321" r="1.37504" transform="rotate(4.90687 51.2509 194.321)" fill="#5DD9BD"/>
<circle cx="138.931" cy="201.849" r="1.37504" transform="rotate(4.90687 138.931 201.849)" fill="#5DD9BD"/>
<circle cx="58.7783" cy="106.641" r="1.37504" transform="rotate(4.90687 58.7783 106.641)" fill="#5DD9BD"/>
<circle cx="146.458" cy="114.169" r="1.37504" transform="rotate(4.90687 146.458 114.169)" fill="#5DD9BD"/>
<circle cx="53.1328" cy="172.401" r="1.37504" transform="rotate(4.90687 53.1328 172.401)" fill="#5DD9BD"/>
<circle cx="140.813" cy="179.929" r="1.37504" transform="rotate(4.90687 140.813 179.929)" fill="#5DD9BD"/>
<circle cx="99.7958" cy="143.285" r="1.37504" transform="rotate(4.90687 99.7958 143.285)" fill="#5DD9BD"/>
<circle cx="95.0908" cy="198.085" r="1.37504" transform="rotate(4.90687 95.0908 198.085)" fill="#5DD9BD"/>
<circle cx="102.619" cy="110.405" r="1.37504" transform="rotate(4.90687 102.619 110.405)" fill="#5DD9BD"/>
<circle cx="96.9726" cy="176.165" r="1.37504" transform="rotate(4.90687 96.9726 176.165)" fill="#5DD9BD"/>
<circle cx="112.167" cy="127.786" r="1.37504" transform="rotate(4.90687 112.167 127.786)" fill="#5DD9BD"/>
<circle cx="114.99" cy="94.9056" r="1.37504" transform="rotate(4.90687 114.99 94.9056)" fill="#5DD9BD"/>
<circle cx="109.345" cy="160.666" r="1.37504" transform="rotate(4.90687 109.345 160.666)" fill="#5DD9BD"/>
<circle cx="68.3271" cy="124.022" r="1.37504" transform="rotate(4.90687 68.3271 124.022)" fill="#5DD9BD"/>
<circle cx="156.007" cy="131.549" r="1.37504" transform="rotate(4.90687 156.007 131.549)" fill="#5DD9BD"/>
<circle cx="71.1498" cy="91.1419" r="1.37504" transform="rotate(4.90687 71.1498 91.1419)" fill="#5DD9BD"/>
<circle cx="158.83" cy="98.6693" r="1.37504" transform="rotate(4.90687 158.83 98.6693)" fill="#5DD9BD"/>
<circle cx="65.5043" cy="156.902" r="1.37504" transform="rotate(4.90687 65.5043 156.902)" fill="#5DD9BD"/>
<circle cx="153.185" cy="164.43" r="1.37504" transform="rotate(4.90687 153.185 164.43)" fill="#5DD9BD"/>
<circle cx="46.4072" cy="122.14" r="1.37504" transform="rotate(4.90687 46.4072 122.14)" fill="#5DD9BD"/>
<circle cx="134.087" cy="129.668" r="1.37504" transform="rotate(4.90687 134.087 129.668)" fill="#5DD9BD"/>
<circle cx="136.91" cy="96.7874" r="1.37504" transform="rotate(4.90687 136.91 96.7874)" fill="#5DD9BD"/>
<circle cx="43.5844" cy="155.02" r="1.37504" transform="rotate(4.90687 43.5844 155.02)" fill="#5DD9BD"/>
<circle cx="131.265" cy="162.548" r="1.37504" transform="rotate(4.90687 131.265 162.548)" fill="#5DD9BD"/>
<circle cx="90.247" cy="125.904" r="1.37504" transform="rotate(4.90687 90.247 125.904)" fill="#5DD9BD"/>
<circle cx="93.0698" cy="93.0238" r="1.37504" transform="rotate(4.90687 93.0698 93.0238)" fill="#5DD9BD"/>
<circle cx="87.4243" cy="158.784" r="1.37504" transform="rotate(4.90687 87.4243 158.784)" fill="#5DD9BD"/>
<circle cx="175.104" cy="166.311" r="1.37504" transform="rotate(4.90687 175.104 166.311)" fill="#5DD9BD"/>
<circle cx="35.4467" cy="121.199" r="1.37504" transform="rotate(4.90687 35.4467 121.199)" fill="#5DD9BD"/>
<circle cx="123.127" cy="128.727" r="1.37504" transform="rotate(4.90687 123.127 128.727)" fill="#5DD9BD"/>
<circle cx="125.95" cy="95.8465" r="1.37504" transform="rotate(4.90687 125.95 95.8465)" fill="#5DD9BD"/>
<circle cx="32.624" cy="154.079" r="1.37504" transform="rotate(4.90687 32.624 154.079)" fill="#5DD9BD"/>
<circle cx="120.304" cy="161.607" r="1.37504" transform="rotate(4.90687 120.304 161.607)" fill="#5DD9BD"/>
<circle cx="79.2871" cy="124.963" r="1.37504" transform="rotate(4.90687 79.2871 124.963)" fill="#5DD9BD"/>
<circle cx="166.967" cy="132.49" r="1.37504" transform="rotate(4.90687 166.967 132.49)" fill="#5DD9BD"/>
<circle cx="82.1098" cy="92.0828" r="1.37504" transform="rotate(4.90687 82.1098 92.0828)" fill="#5DD9BD"/>
<circle cx="169.79" cy="99.6102" r="1.37504" transform="rotate(4.90687 169.79 99.6102)" fill="#5DD9BD"/>
<circle cx="76.4643" cy="157.843" r="1.37504" transform="rotate(4.90687 76.4643 157.843)" fill="#5DD9BD"/>
<circle cx="164.144" cy="165.37" r="1.37504" transform="rotate(4.90687 164.144 165.37)" fill="#5DD9BD"/>
<circle cx="57.3666" cy="123.081" r="1.37504" transform="rotate(4.90687 57.3666 123.081)" fill="#5DD9BD"/>
<circle cx="145.047" cy="130.608" r="1.37504" transform="rotate(4.90687 145.047 130.608)" fill="#5DD9BD"/>
<circle cx="60.1899" cy="90.201" r="1.37504" transform="rotate(4.90687 60.1899 90.201)" fill="#5DD9BD"/>
<circle cx="147.87" cy="97.7283" r="1.37504" transform="rotate(4.90687 147.87 97.7283)" fill="#5DD9BD"/>
<circle cx="54.5439" cy="155.961" r="1.37504" transform="rotate(4.90687 54.5439 155.961)" fill="#5DD9BD"/>
<circle cx="142.225" cy="163.488" r="1.37504" transform="rotate(4.90687 142.225 163.488)" fill="#5DD9BD"/>
<circle cx="101.207" cy="126.845" r="1.37504" transform="rotate(4.90687 101.207 126.845)" fill="#5DD9BD"/>
<circle cx="104.03" cy="93.9647" r="1.37504" transform="rotate(4.90687 104.03 93.9647)" fill="#5DD9BD"/>
<circle cx="98.3842" cy="159.725" r="1.37504" transform="rotate(4.90687 98.3842 159.725)" fill="#5DD9BD"/>
<circle cx="111.227" cy="138.746" r="1.37504" transform="rotate(4.90687 111.227 138.746)" fill="#5DD9BD"/>
<circle cx="106.522" cy="193.546" r="1.37504" transform="rotate(4.90687 106.522 193.546)" fill="#5DD9BD"/>
<circle cx="114.049" cy="105.866" r="1.37504" transform="rotate(4.90687 114.049 105.866)" fill="#5DD9BD"/>
<circle cx="108.404" cy="171.626" r="1.37504" transform="rotate(4.90687 108.404 171.626)" fill="#5DD9BD"/>
<circle cx="67.3862" cy="134.982" r="1.37504" transform="rotate(4.90687 67.3862 134.982)" fill="#5DD9BD"/>
<circle cx="155.066" cy="142.509" r="1.37504" transform="rotate(4.90687 155.066 142.509)" fill="#5DD9BD"/>
<circle cx="62.6816" cy="189.782" r="1.37504" transform="rotate(4.90687 62.6816 189.782)" fill="#5DD9BD"/>
<circle cx="150.362" cy="197.309" r="1.37504" transform="rotate(4.90687 150.362 197.309)" fill="#5DD9BD"/>
<circle cx="70.2089" cy="102.102" r="1.37504" transform="rotate(4.90687 70.2089 102.102)" fill="#5DD9BD"/>
<circle cx="157.889" cy="109.629" r="1.37504" transform="rotate(4.90687 157.889 109.629)" fill="#5DD9BD"/>
<circle cx="64.5634" cy="167.862" r="1.37504" transform="rotate(4.90687 64.5634 167.862)" fill="#5DD9BD"/>
<circle cx="152.244" cy="175.389" r="1.37504" transform="rotate(4.90687 152.244 175.389)" fill="#5DD9BD"/>
<circle cx="45.4663" cy="133.1" r="1.37504" transform="rotate(4.90687 45.4663 133.1)" fill="#5DD9BD"/>
<circle cx="133.146" cy="140.628" r="1.37504" transform="rotate(4.90687 133.146 140.628)" fill="#5DD9BD"/>
<circle cx="40.7617" cy="187.9" r="1.37504" transform="rotate(4.90687 40.7617 187.9)" fill="#5DD9BD"/>
<circle cx="128.442" cy="195.428" r="1.37504" transform="rotate(4.90687 128.442 195.428)" fill="#5DD9BD"/>
<circle cx="48.289" cy="100.22" r="1.37504" transform="rotate(4.90687 48.289 100.22)" fill="#5DD9BD"/>
<circle cx="135.969" cy="107.747" r="1.37504" transform="rotate(4.90687 135.969 107.747)" fill="#5DD9BD"/>
<circle cx="42.6435" cy="165.98" r="1.37504" transform="rotate(4.90687 42.6435 165.98)" fill="#5DD9BD"/>
<circle cx="130.324" cy="173.508" r="1.37504" transform="rotate(4.90687 130.324 173.508)" fill="#5DD9BD"/>
<circle cx="89.3061" cy="136.864" r="1.37504" transform="rotate(4.90687 89.3061 136.864)" fill="#5DD9BD"/>
<circle cx="176.986" cy="144.391" r="1.37504" transform="rotate(4.90687 176.986 144.391)" fill="#5DD9BD"/>
<circle cx="84.6015" cy="191.664" r="1.37504" transform="rotate(4.90687 84.6015 191.664)" fill="#5DD9BD"/>
<circle cx="172.282" cy="199.191" r="1.37504" transform="rotate(4.90687 172.282 199.191)" fill="#5DD9BD"/>
<circle cx="92.1289" cy="103.984" r="1.37504" transform="rotate(4.90687 92.1289 103.984)" fill="#5DD9BD"/>
<circle cx="86.4833" cy="169.744" r="1.37504" transform="rotate(4.90687 86.4833 169.744)" fill="#5DD9BD"/>
<circle cx="174.164" cy="177.271" r="1.37504" transform="rotate(4.90687 174.164 177.271)" fill="#5DD9BD"/>
<circle cx="34.5058" cy="132.159" r="1.37504" transform="rotate(4.90687 34.5058 132.159)" fill="#5DD9BD"/>
<circle cx="122.186" cy="139.687" r="1.37504" transform="rotate(4.90687 122.186 139.687)" fill="#5DD9BD"/>
<circle cx="29.8012" cy="186.959" r="1.37504" transform="rotate(4.90687 29.8012 186.959)" fill="#5DD9BD"/>
<circle cx="117.481" cy="194.487" r="1.37504" transform="rotate(4.90687 117.481 194.487)" fill="#5DD9BD"/>
<circle cx="37.3286" cy="99.2791" r="1.37504" transform="rotate(4.90687 37.3286 99.2791)" fill="#5DD9BD"/>
<circle cx="125.009" cy="106.806" r="1.37504" transform="rotate(4.90687 125.009 106.806)" fill="#5DD9BD"/>
<circle cx="31.6831" cy="165.039" r="1.37504" transform="rotate(4.90687 31.6831 165.039)" fill="#5DD9BD"/>
<circle cx="119.363" cy="172.566" r="1.37504" transform="rotate(4.90687 119.363 172.566)" fill="#5DD9BD"/>
<circle cx="78.3461" cy="135.923" r="1.37504" transform="rotate(4.90687 78.3461 135.923)" fill="#5DD9BD"/>
<circle cx="166.026" cy="143.45" r="1.37504" transform="rotate(4.90687 166.026 143.45)" fill="#5DD9BD"/>
<circle cx="73.6415" cy="190.723" r="1.37504" transform="rotate(4.90687 73.6415 190.723)" fill="#5DD9BD"/>
<circle cx="161.322" cy="198.251" r="1.37504" transform="rotate(4.90687 161.322 198.251)" fill="#5DD9BD"/>
<circle cx="81.1689" cy="103.043" r="1.37504" transform="rotate(4.90687 81.1689 103.043)" fill="#5DD9BD"/>
<circle cx="168.849" cy="110.57" r="1.37504" transform="rotate(4.90687 168.849 110.57)" fill="#5DD9BD"/>
<circle cx="75.5234" cy="168.803" r="1.37504" transform="rotate(4.90687 75.5234 168.803)" fill="#5DD9BD"/>
<circle cx="163.204" cy="176.33" r="1.37504" transform="rotate(4.90687 163.204 176.33)" fill="#5DD9BD"/>
<circle cx="56.4257" cy="134.041" r="1.37504" transform="rotate(4.90687 56.4257 134.041)" fill="#5DD9BD"/>
<circle cx="144.106" cy="141.568" r="1.37504" transform="rotate(4.90687 144.106 141.568)" fill="#5DD9BD"/>
<circle cx="51.7211" cy="188.841" r="1.37504" transform="rotate(4.90687 51.7211 188.841)" fill="#5DD9BD"/>
<circle cx="139.401" cy="196.368" r="1.37504" transform="rotate(4.90687 139.401 196.368)" fill="#5DD9BD"/>
<circle cx="59.2485" cy="101.161" r="1.37504" transform="rotate(4.90687 59.2485 101.161)" fill="#5DD9BD"/>
<circle cx="146.929" cy="108.688" r="1.37504" transform="rotate(4.90687 146.929 108.688)" fill="#5DD9BD"/>
<circle cx="53.603" cy="166.921" r="1.37504" transform="rotate(4.90687 53.603 166.921)" fill="#5DD9BD"/>
<circle cx="141.283" cy="174.449" r="1.37504" transform="rotate(4.90687 141.283 174.449)" fill="#5DD9BD"/>
<circle cx="100.266" cy="137.805" r="1.37504" transform="rotate(4.90687 100.266 137.805)" fill="#5DD9BD"/>
<circle cx="95.5615" cy="192.605" r="1.37504" transform="rotate(4.90687 95.5615 192.605)" fill="#5DD9BD"/>
<circle cx="103.089" cy="104.925" r="1.37504" transform="rotate(4.90687 103.089 104.925)" fill="#5DD9BD"/>
<circle cx="97.4433" cy="170.685" r="1.37504" transform="rotate(4.90687 97.4433 170.685)" fill="#5DD9BD"/>
<circle cx="110.286" cy="149.706" r="1.37504" transform="rotate(4.90687 110.286 149.706)" fill="#5DD9BD"/>
<circle cx="113.108" cy="116.826" r="1.37504" transform="rotate(4.90687 113.108 116.826)" fill="#5DD9BD"/>
<circle cx="107.463" cy="182.586" r="1.37504" transform="rotate(4.90687 107.463 182.586)" fill="#5DD9BD"/>
<circle cx="66.4453" cy="145.942" r="1.37504" transform="rotate(4.90687 66.4453 145.942)" fill="#5DD9BD"/>
<circle cx="154.125" cy="153.469" r="1.37504" transform="rotate(4.90687 154.125 153.469)" fill="#5DD9BD"/>
<circle cx="61.7407" cy="200.742" r="1.37504" transform="rotate(4.90687 61.7407 200.742)" fill="#5DD9BD"/>
<circle cx="69.268" cy="113.062" r="1.37504" transform="rotate(4.90687 69.268 113.062)" fill="#5DD9BD"/>
<circle cx="156.948" cy="120.589" r="1.37504" transform="rotate(4.90687 156.948 120.589)" fill="#5DD9BD"/>
<circle cx="63.6225" cy="178.822" r="1.37504" transform="rotate(4.90687 63.6225 178.822)" fill="#5DD9BD"/>
<circle cx="151.303" cy="186.349" r="1.37504" transform="rotate(4.90687 151.303 186.349)" fill="#5DD9BD"/>
<circle cx="44.5253" cy="144.06" r="1.37504" transform="rotate(4.90687 44.5253 144.06)" fill="#5DD9BD"/>
<circle cx="132.206" cy="151.587" r="1.37504" transform="rotate(4.90687 132.206 151.587)" fill="#5DD9BD"/>
<circle cx="39.8207" cy="198.86" r="1.37504" transform="rotate(4.90687 39.8207 198.86)" fill="#5DD9BD"/>
<circle cx="47.3481" cy="111.18" r="1.37504" transform="rotate(4.90687 47.3481 111.18)" fill="#5DD9BD"/>
<circle cx="135.028" cy="118.708" r="1.37504" transform="rotate(4.90687 135.028 118.708)" fill="#5DD9BD"/>
<circle cx="41.7026" cy="176.94" r="1.37504" transform="rotate(4.90687 41.7026 176.94)" fill="#5DD9BD"/>
<circle cx="129.383" cy="184.468" r="1.37504" transform="rotate(4.90687 129.383 184.468)" fill="#5DD9BD"/>
<circle cx="88.3652" cy="147.824" r="1.37504" transform="rotate(4.90687 88.3652 147.824)" fill="#5DD9BD"/>
<circle cx="176.045" cy="155.351" r="1.37504" transform="rotate(4.90687 176.045 155.351)" fill="#5DD9BD"/>
<circle cx="83.6606" cy="202.624" r="1.37504" transform="rotate(4.90687 83.6606 202.624)" fill="#5DD9BD"/>
<circle cx="91.1879" cy="114.944" r="1.37504" transform="rotate(4.90687 91.1879 114.944)" fill="#5DD9BD"/>
<circle cx="85.5424" cy="180.704" r="1.37504" transform="rotate(4.90687 85.5424 180.704)" fill="#5DD9BD"/>
<circle cx="173.223" cy="188.231" r="1.37504" transform="rotate(4.90687 173.223 188.231)" fill="#5DD9BD"/>
<circle cx="33.5649" cy="143.119" r="1.37504" transform="rotate(4.90687 33.5649 143.119)" fill="#5DD9BD"/>
<circle cx="121.245" cy="150.647" r="1.37504" transform="rotate(4.90687 121.245 150.647)" fill="#5DD9BD"/>
<circle cx="28.8603" cy="197.919" r="1.37504" transform="rotate(4.90687 28.8603 197.919)" fill="#5DD9BD"/>
<circle cx="36.3876" cy="110.239" r="1.37504" transform="rotate(4.90687 36.3876 110.239)" fill="#5DD9BD"/>
<circle cx="124.068" cy="117.766" r="1.37504" transform="rotate(4.90687 124.068 117.766)" fill="#5DD9BD"/>
<circle cx="30.7421" cy="175.999" r="1.37504" transform="rotate(4.90687 30.7421 175.999)" fill="#5DD9BD"/>
<circle cx="118.422" cy="183.527" r="1.37504" transform="rotate(4.90687 118.422 183.527)" fill="#5DD9BD"/>
<circle cx="77.4052" cy="146.883" r="1.37504" transform="rotate(4.90687 77.4052 146.883)" fill="#5DD9BD"/>
<circle cx="165.085" cy="154.41" r="1.37504" transform="rotate(4.90687 165.085 154.41)" fill="#5DD9BD"/>
<circle cx="72.7006" cy="201.683" r="1.37504" transform="rotate(4.90687 72.7006 201.683)" fill="#5DD9BD"/>
<circle cx="80.228" cy="114.003" r="1.37504" transform="rotate(4.90687 80.228 114.003)" fill="#5DD9BD"/>
<circle cx="167.908" cy="121.53" r="1.37504" transform="rotate(4.90687 167.908 121.53)" fill="#5DD9BD"/>
<circle cx="74.5825" cy="179.763" r="1.37504" transform="rotate(4.90687 74.5825 179.763)" fill="#5DD9BD"/>
<circle cx="162.263" cy="187.29" r="1.37504" transform="rotate(4.90687 162.263 187.29)" fill="#5DD9BD"/>
<circle cx="55.4848" cy="145.001" r="1.37504" transform="rotate(4.90687 55.4848 145.001)" fill="#5DD9BD"/>
<circle cx="143.165" cy="152.528" r="1.37504" transform="rotate(4.90687 143.165 152.528)" fill="#5DD9BD"/>
<circle cx="50.7802" cy="199.801" r="1.37504" transform="rotate(4.90687 50.7802 199.801)" fill="#5DD9BD"/>
<circle cx="58.3081" cy="112.121" r="1.37504" transform="rotate(4.90687 58.3081 112.121)" fill="#5DD9BD"/>
<circle cx="145.988" cy="119.648" r="1.37504" transform="rotate(4.90687 145.988 119.648)" fill="#5DD9BD"/>
<circle cx="52.6621" cy="177.881" r="1.37504" transform="rotate(4.90687 52.6621 177.881)" fill="#5DD9BD"/>
<circle cx="140.342" cy="185.409" r="1.37504" transform="rotate(4.90687 140.342 185.409)" fill="#5DD9BD"/>
<circle cx="99.3251" cy="148.765" r="1.37504" transform="rotate(4.90687 99.3251 148.765)" fill="#5DD9BD"/>
<circle cx="94.6206" cy="203.565" r="1.37504" transform="rotate(4.90687 94.6206 203.565)" fill="#5DD9BD"/>
<circle cx="102.148" cy="115.885" r="1.37504" transform="rotate(4.90687 102.148 115.885)" fill="#5DD9BD"/>
<circle cx="96.5024" cy="181.645" r="1.37504" transform="rotate(4.90687 96.5024 181.645)" fill="#5DD9BD"/>
<circle cx="106.687" cy="127.315" r="1.37504" transform="rotate(4.90687 106.687 127.315)" fill="#5DD9BD"/>
<circle cx="109.51" cy="94.4351" r="1.37504" transform="rotate(4.90687 109.51 94.4351)" fill="#5DD9BD"/>
<circle cx="103.864" cy="160.195" r="1.37504" transform="rotate(4.90687 103.864 160.195)" fill="#5DD9BD"/>
<circle cx="62.8471" cy="123.552" r="1.37504" transform="rotate(4.90687 62.8471 123.552)" fill="#5DD9BD"/>
<circle cx="150.527" cy="131.079" r="1.37504" transform="rotate(4.90687 150.527 131.079)" fill="#5DD9BD"/>
<circle cx="65.6699" cy="90.6715" r="1.37504" transform="rotate(4.90687 65.6699 90.6715)" fill="#5DD9BD"/>
<circle cx="153.35" cy="98.1988" r="1.37504" transform="rotate(4.90687 153.35 98.1988)" fill="#5DD9BD"/>
<circle cx="60.0244" cy="156.431" r="1.37504" transform="rotate(4.90687 60.0244 156.431)" fill="#5DD9BD"/>
<circle cx="147.705" cy="163.959" r="1.37504" transform="rotate(4.90687 147.705 163.959)" fill="#5DD9BD"/>
<circle cx="40.9267" cy="121.67" r="1.37504" transform="rotate(4.90687 40.9267 121.67)" fill="#5DD9BD"/>
<circle cx="128.607" cy="129.197" r="1.37504" transform="rotate(4.90687 128.607 129.197)" fill="#5DD9BD"/>
<circle cx="131.43" cy="96.317" r="1.37504" transform="rotate(4.90687 131.43 96.317)" fill="#5DD9BD"/>
<circle cx="38.104" cy="154.55" r="1.37504" transform="rotate(4.90687 38.104 154.55)" fill="#5DD9BD"/>
<circle cx="125.785" cy="162.077" r="1.37504" transform="rotate(4.90687 125.785 162.077)" fill="#5DD9BD"/>
<circle cx="84.767" cy="125.433" r="1.37504" transform="rotate(4.90687 84.767 125.433)" fill="#5DD9BD"/>
<circle cx="172.447" cy="132.961" r="1.37504" transform="rotate(4.90687 172.447 132.961)" fill="#5DD9BD"/>
<circle cx="87.5898" cy="92.5533" r="1.37504" transform="rotate(4.90687 87.5898 92.5533)" fill="#5DD9BD"/>
<circle cx="175.27" cy="100.081" r="1.37504" transform="rotate(4.90687 175.27 100.081)" fill="#5DD9BD"/>
<circle cx="81.9443" cy="158.313" r="1.37504" transform="rotate(4.90687 81.9443 158.313)" fill="#5DD9BD"/>
<circle cx="169.624" cy="165.841" r="1.37504" transform="rotate(4.90687 169.624 165.841)" fill="#5DD9BD"/>
<circle cx="29.9667" cy="120.729" r="1.37504" transform="rotate(4.90687 29.9667 120.729)" fill="#5DD9BD"/>
<circle cx="117.647" cy="128.256" r="1.37504" transform="rotate(4.90687 117.647 128.256)" fill="#5DD9BD"/>
<circle cx="120.47" cy="95.376" r="1.37504" transform="rotate(4.90687 120.47 95.376)" fill="#5DD9BD"/>
<circle cx="114.824" cy="161.136" r="1.37504" transform="rotate(4.90687 114.824 161.136)" fill="#5DD9BD"/>
<circle cx="73.8071" cy="124.493" r="1.37504" transform="rotate(4.90687 73.8071 124.493)" fill="#5DD9BD"/>
<circle cx="161.487" cy="132.02" r="1.37504" transform="rotate(4.90687 161.487 132.02)" fill="#5DD9BD"/>
<circle cx="76.6298" cy="91.6124" r="1.37504" transform="rotate(4.90687 76.6298 91.6124)" fill="#5DD9BD"/>
<circle cx="164.31" cy="99.1397" r="1.37504" transform="rotate(4.90687 164.31 99.1397)" fill="#5DD9BD"/>
<circle cx="70.9843" cy="157.372" r="1.37504" transform="rotate(4.90687 70.9843 157.372)" fill="#5DD9BD"/>
<circle cx="158.664" cy="164.9" r="1.37504" transform="rotate(4.90687 158.664 164.9)" fill="#5DD9BD"/>
<circle cx="51.8872" cy="122.611" r="1.37504" transform="rotate(4.90687 51.8872 122.611)" fill="#5DD9BD"/>
<circle cx="139.567" cy="130.138" r="1.37504" transform="rotate(4.90687 139.567 130.138)" fill="#5DD9BD"/>
<circle cx="54.7099" cy="89.7305" r="1.37504" transform="rotate(4.90687 54.7099 89.7305)" fill="#5DD9BD"/>
<circle cx="142.39" cy="97.2579" r="1.37504" transform="rotate(4.90687 142.39 97.2579)" fill="#5DD9BD"/>
<circle cx="49.0639" cy="155.491" r="1.37504" transform="rotate(4.90687 49.0639 155.491)" fill="#5DD9BD"/>
<circle cx="136.745" cy="163.018" r="1.37504" transform="rotate(4.90687 136.745 163.018)" fill="#5DD9BD"/>
<circle cx="95.727" cy="126.374" r="1.37504" transform="rotate(4.90687 95.727 126.374)" fill="#5DD9BD"/>
<circle cx="98.5498" cy="93.4942" r="1.37504" transform="rotate(4.90687 98.5498 93.4942)" fill="#5DD9BD"/>
<circle cx="92.9042" cy="159.254" r="1.37504" transform="rotate(4.90687 92.9042 159.254)" fill="#5DD9BD"/>
<circle cx="105.746" cy="138.275" r="1.37504" transform="rotate(4.90687 105.746 138.275)" fill="#5DD9BD"/>
<circle cx="101.041" cy="193.075" r="1.37504" transform="rotate(4.90687 101.041 193.075)" fill="#5DD9BD"/>
<circle cx="108.569" cy="105.395" r="1.37504" transform="rotate(4.90687 108.569 105.395)" fill="#5DD9BD"/>
<circle cx="102.923" cy="171.155" r="1.37504" transform="rotate(4.90687 102.923 171.155)" fill="#5DD9BD"/>
<circle cx="61.9062" cy="134.512" r="1.37504" transform="rotate(4.90687 61.9062 134.512)" fill="#5DD9BD"/>
<circle cx="149.586" cy="142.039" r="1.37504" transform="rotate(4.90687 149.586 142.039)" fill="#5DD9BD"/>
<circle cx="57.2016" cy="189.312" r="1.37504" transform="rotate(4.90687 57.2016 189.312)" fill="#5DD9BD"/>
<circle cx="144.882" cy="196.839" r="1.37504" transform="rotate(4.90687 144.882 196.839)" fill="#5DD9BD"/>
<circle cx="64.729" cy="101.631" r="1.37504" transform="rotate(4.90687 64.729 101.631)" fill="#5DD9BD"/>
<circle cx="152.409" cy="109.159" r="1.37504" transform="rotate(4.90687 152.409 109.159)" fill="#5DD9BD"/>
<circle cx="59.0834" cy="167.391" r="1.37504" transform="rotate(4.90687 59.0834 167.391)" fill="#5DD9BD"/>
<circle cx="146.764" cy="174.919" r="1.37504" transform="rotate(4.90687 146.764 174.919)" fill="#5DD9BD"/>
<circle cx="39.9858" cy="132.63" r="1.37504" transform="rotate(4.90687 39.9858 132.63)" fill="#5DD9BD"/>
<circle cx="127.666" cy="140.157" r="1.37504" transform="rotate(4.90687 127.666 140.157)" fill="#5DD9BD"/>
<circle cx="35.2812" cy="187.43" r="1.37504" transform="rotate(4.90687 35.2812 187.43)" fill="#5DD9BD"/>
<circle cx="122.962" cy="194.957" r="1.37504" transform="rotate(4.90687 122.962 194.957)" fill="#5DD9BD"/>
<circle cx="42.8085" cy="99.7496" r="1.37504" transform="rotate(4.90687 42.8085 99.7496)" fill="#5DD9BD"/>
<circle cx="130.489" cy="107.277" r="1.37504" transform="rotate(4.90687 130.489 107.277)" fill="#5DD9BD"/>
<circle cx="37.163" cy="165.51" r="1.37504" transform="rotate(4.90687 37.163 165.51)" fill="#5DD9BD"/>
<circle cx="124.844" cy="173.037" r="1.37504" transform="rotate(4.90687 124.844 173.037)" fill="#5DD9BD"/>
<circle cx="83.8261" cy="136.393" r="1.37504" transform="rotate(4.90687 83.8261 136.393)" fill="#5DD9BD"/>
<circle cx="171.506" cy="143.921" r="1.37504" transform="rotate(4.90687 171.506 143.921)" fill="#5DD9BD"/>
<circle cx="79.1215" cy="191.193" r="1.37504" transform="rotate(4.90687 79.1215 191.193)" fill="#5DD9BD"/>
<circle cx="166.802" cy="198.721" r="1.37504" transform="rotate(4.90687 166.802 198.721)" fill="#5DD9BD"/>
<circle cx="86.6489" cy="103.513" r="1.37504" transform="rotate(4.90687 86.6489 103.513)" fill="#5DD9BD"/>
<circle cx="174.329" cy="111.041" r="1.37504" transform="rotate(4.90687 174.329 111.041)" fill="#5DD9BD"/>
<circle cx="81.0034" cy="169.273" r="1.37504" transform="rotate(4.90687 81.0034 169.273)" fill="#5DD9BD"/>
<circle cx="168.684" cy="176.801" r="1.37504" transform="rotate(4.90687 168.684 176.801)" fill="#5DD9BD"/>
<circle cx="29.0258" cy="131.689" r="1.37504" transform="rotate(4.90687 29.0258 131.689)" fill="#5DD9BD"/>
<circle cx="116.706" cy="139.216" r="1.37504" transform="rotate(4.90687 116.706 139.216)" fill="#5DD9BD"/>
<circle cx="112.001" cy="194.016" r="1.37504" transform="rotate(4.90687 112.001 194.016)" fill="#5DD9BD"/>
<circle cx="31.8486" cy="98.8087" r="1.37504" transform="rotate(4.90687 31.8486 98.8087)" fill="#5DD9BD"/>
<circle cx="119.529" cy="106.336" r="1.37504" transform="rotate(4.90687 119.529 106.336)" fill="#5DD9BD"/>
<circle cx="113.883" cy="172.096" r="1.37504" transform="rotate(4.90687 113.883 172.096)" fill="#5DD9BD"/>
<circle cx="72.8662" cy="135.452" r="1.37504" transform="rotate(4.90687 72.8662 135.452)" fill="#5DD9BD"/>
<circle cx="160.546" cy="142.98" r="1.37504" transform="rotate(4.90687 160.546 142.98)" fill="#5DD9BD"/>
<circle cx="68.1616" cy="190.253" r="1.37504" transform="rotate(4.90687 68.1616 190.253)" fill="#5DD9BD"/>
<circle cx="155.842" cy="197.78" r="1.37504" transform="rotate(4.90687 155.842 197.78)" fill="#5DD9BD"/>
<circle cx="75.6889" cy="102.572" r="1.37504" transform="rotate(4.90687 75.6889 102.572)" fill="#5DD9BD"/>
<circle cx="163.369" cy="110.1" r="1.37504" transform="rotate(4.90687 163.369 110.1)" fill="#5DD9BD"/>
<circle cx="70.0434" cy="168.332" r="1.37504" transform="rotate(4.90687 70.0434 168.332)" fill="#5DD9BD"/>
<circle cx="157.724" cy="175.86" r="1.37504" transform="rotate(4.90687 157.724 175.86)" fill="#5DD9BD"/>
<circle cx="50.9457" cy="133.571" r="1.37504" transform="rotate(4.90687 50.9457 133.571)" fill="#5DD9BD"/>
<circle cx="138.626" cy="141.098" r="1.37504" transform="rotate(4.90687 138.626 141.098)" fill="#5DD9BD"/>
<circle cx="46.2416" cy="188.371" r="1.37504" transform="rotate(4.90687 46.2416 188.371)" fill="#5DD9BD"/>
<circle cx="133.922" cy="195.898" r="1.37504" transform="rotate(4.90687 133.922 195.898)" fill="#5DD9BD"/>
<circle cx="53.769" cy="100.69" r="1.37504" transform="rotate(4.90687 53.769 100.69)" fill="#5DD9BD"/>
<circle cx="141.449" cy="108.218" r="1.37504" transform="rotate(4.90687 141.449 108.218)" fill="#5DD9BD"/>
<circle cx="48.1235" cy="166.451" r="1.37504" transform="rotate(4.90687 48.1235 166.451)" fill="#5DD9BD"/>
<circle cx="135.804" cy="173.978" r="1.37504" transform="rotate(4.90687 135.804 173.978)" fill="#5DD9BD"/>
<circle cx="94.7861" cy="137.334" r="1.37504" transform="rotate(4.90687 94.7861 137.334)" fill="#5DD9BD"/>
<circle cx="90.0815" cy="192.134" r="1.37504" transform="rotate(4.90687 90.0815 192.134)" fill="#5DD9BD"/>
<circle cx="97.6088" cy="104.454" r="1.37504" transform="rotate(4.90687 97.6088 104.454)" fill="#5DD9BD"/>
<circle cx="91.9633" cy="170.214" r="1.37504" transform="rotate(4.90687 91.9633 170.214)" fill="#5DD9BD"/>
<circle cx="104.805" cy="149.235" r="1.37504" transform="rotate(4.90687 104.805 149.235)" fill="#5DD9BD"/>
<circle cx="100.101" cy="204.035" r="1.37504" transform="rotate(4.90687 100.101 204.035)" fill="#5DD9BD"/>
<circle cx="107.628" cy="116.355" r="1.37504" transform="rotate(4.90687 107.628 116.355)" fill="#5DD9BD"/>
<circle cx="101.982" cy="182.115" r="1.37504" transform="rotate(4.90687 101.982 182.115)" fill="#5DD9BD"/>
<circle cx="60.9653" cy="145.472" r="1.37504" transform="rotate(4.90687 60.9653 145.472)" fill="#5DD9BD"/>
<circle cx="148.645" cy="152.999" r="1.37504" transform="rotate(4.90687 148.645 152.999)" fill="#5DD9BD"/>
<circle cx="56.2607" cy="200.272" r="1.37504" transform="rotate(4.90687 56.2607 200.272)" fill="#5DD9BD"/>
<circle cx="63.788" cy="112.591" r="1.37504" transform="rotate(4.90687 63.788 112.591)" fill="#5DD9BD"/>
<circle cx="151.468" cy="120.119" r="1.37504" transform="rotate(4.90687 151.468 120.119)" fill="#5DD9BD"/>
<circle cx="58.1425" cy="178.352" r="1.37504" transform="rotate(4.90687 58.1425 178.352)" fill="#5DD9BD"/>
<circle cx="145.823" cy="185.879" r="1.37504" transform="rotate(4.90687 145.823 185.879)" fill="#5DD9BD"/>
<circle cx="39.0449" cy="143.59" r="1.37504" transform="rotate(4.90687 39.0449 143.59)" fill="#5DD9BD"/>
<circle cx="126.726" cy="151.117" r="1.37504" transform="rotate(4.90687 126.726 151.117)" fill="#5DD9BD"/>
<circle cx="34.3403" cy="198.39" r="1.37504" transform="rotate(4.90687 34.3403 198.39)" fill="#5DD9BD"/>
<circle cx="41.8676" cy="110.71" r="1.37504" transform="rotate(4.90687 41.8676 110.71)" fill="#5DD9BD"/>
<circle cx="129.548" cy="118.237" r="1.37504" transform="rotate(4.90687 129.548 118.237)" fill="#5DD9BD"/>
<circle cx="36.2221" cy="176.47" r="1.37504" transform="rotate(4.90687 36.2221 176.47)" fill="#5DD9BD"/>
<circle cx="123.903" cy="183.997" r="1.37504" transform="rotate(4.90687 123.903 183.997)" fill="#5DD9BD"/>
<circle cx="82.8852" cy="147.353" r="1.37504" transform="rotate(4.90687 82.8852 147.353)" fill="#5DD9BD"/>
<circle cx="170.565" cy="154.881" r="1.37504" transform="rotate(4.90687 170.565 154.881)" fill="#5DD9BD"/>
<circle cx="78.1806" cy="202.153" r="1.37504" transform="rotate(4.90687 78.1806 202.153)" fill="#5DD9BD"/>
<circle cx="85.708" cy="114.473" r="1.37504" transform="rotate(4.90687 85.708 114.473)" fill="#5DD9BD"/>
<circle cx="173.388" cy="122.001" r="1.37504" transform="rotate(4.90687 173.388 122.001)" fill="#5DD9BD"/>
<circle cx="80.0624" cy="180.233" r="1.37504" transform="rotate(4.90687 80.0624 180.233)" fill="#5DD9BD"/>
<circle cx="167.743" cy="187.761" r="1.37504" transform="rotate(4.90687 167.743 187.761)" fill="#5DD9BD"/>
<circle cx="115.765" cy="150.176" r="1.37504" transform="rotate(4.90687 115.765 150.176)" fill="#5DD9BD"/>
<circle cx="30.9077" cy="109.769" r="1.37504" transform="rotate(4.90687 30.9077 109.769)" fill="#5DD9BD"/>
<circle cx="118.588" cy="117.296" r="1.37504" transform="rotate(4.90687 118.588 117.296)" fill="#5DD9BD"/>
<circle cx="112.942" cy="183.056" r="1.37504" transform="rotate(4.90687 112.942 183.056)" fill="#5DD9BD"/>
<circle cx="71.9252" cy="146.412" r="1.37504" transform="rotate(4.90687 71.9252 146.412)" fill="#5DD9BD"/>
<circle cx="159.605" cy="153.94" r="1.37504" transform="rotate(4.90687 159.605 153.94)" fill="#5DD9BD"/>
<circle cx="67.2202" cy="201.212" r="1.37504" transform="rotate(4.90687 67.2202 201.212)" fill="#5DD9BD"/>
<circle cx="74.748" cy="113.532" r="1.37504" transform="rotate(4.90687 74.748 113.532)" fill="#5DD9BD"/>
<circle cx="162.428" cy="121.06" r="1.37504" transform="rotate(4.90687 162.428 121.06)" fill="#5DD9BD"/>
<circle cx="69.1025" cy="179.293" r="1.37504" transform="rotate(4.90687 69.1025 179.293)" fill="#5DD9BD"/>
<circle cx="156.783" cy="186.82" r="1.37504" transform="rotate(4.90687 156.783 186.82)" fill="#5DD9BD"/>
<circle cx="50.0053" cy="144.531" r="1.37504" transform="rotate(4.90687 50.0053 144.531)" fill="#5DD9BD"/>
<circle cx="137.685" cy="152.058" r="1.37504" transform="rotate(4.90687 137.685 152.058)" fill="#5DD9BD"/>
<circle cx="45.3002" cy="199.331" r="1.37504" transform="rotate(4.90687 45.3002 199.331)" fill="#5DD9BD"/>
<circle cx="52.8281" cy="111.65" r="1.37504" transform="rotate(4.90687 52.8281 111.65)" fill="#5DD9BD"/>
<circle cx="140.508" cy="119.178" r="1.37504" transform="rotate(4.90687 140.508 119.178)" fill="#5DD9BD"/>
<circle cx="47.1821" cy="177.411" r="1.37504" transform="rotate(4.90687 47.1821 177.411)" fill="#5DD9BD"/>
<circle cx="134.863" cy="184.938" r="1.37504" transform="rotate(4.90687 134.863 184.938)" fill="#5DD9BD"/>
<circle cx="93.8452" cy="148.294" r="1.37504" transform="rotate(4.90687 93.8452 148.294)" fill="#5DD9BD"/>
<circle cx="89.1406" cy="203.095" r="1.37504" transform="rotate(4.90687 89.1406 203.095)" fill="#5DD9BD"/>
<circle cx="96.6679" cy="115.414" r="1.37504" transform="rotate(4.90687 96.6679 115.414)" fill="#5DD9BD"/>
<circle cx="91.0224" cy="181.174" r="1.37504" transform="rotate(4.90687 91.0224 181.174)" fill="#5DD9BD"/>
</g>
<path d="M103.293 91.8591C104.526 105.687 94.3152 117.895 80.4877 119.127C66.6603 120.36 54.4519 110.149 53.2195 96.322C51.9871 82.4945 62.1974 70.2861 76.0248 69.0537C89.8523 67.8213 102.061 78.0316 103.293 91.8591Z" fill="#6EE0C6"/>
<path d="M103.539 94.6227C104.635 106.924 95.5522 117.785 83.2512 118.881C70.9501 119.977 60.0894 110.894 58.993 98.593C57.8966 86.2919 66.9799 75.4312 79.2809 74.3348C91.582 73.2384 102.443 82.3217 103.539 94.6227Z" fill="#41C6A7"/>
<path d="M83.6354 92.4645L83.3537 89.3033L90.8439 88.6357L90.4146 83.8191L70.0185 85.6369L70.4478 90.4535L77.9389 89.7859L78.2204 92.9445C72.1564 93.757 67.6825 95.3287 67.8067 96.7227C67.931 98.1167 72.6145 98.8722 78.7246 98.6014L79.6271 108.727L85.0436 108.244L84.141 98.1178C90.194 97.3054 94.6587 95.7354 94.5346 94.3427C94.4104 92.9499 89.7384 92.1943 83.6372 92.4652L83.6354 92.4645ZM84.0646 97.2601L84.0644 97.2576C83.9124 97.2805 83.1313 97.396 81.383 97.5518C79.9853 97.6764 78.9985 97.7258 78.6504 97.7392L78.6508 97.7435C73.2516 97.9929 69.1562 97.4468 69.0598 96.3651C68.9634 95.2835 72.8983 94.0229 78.2559 93.3132L78.5705 96.8429C78.9249 96.8349 79.9376 96.8024 81.3283 96.6785C82.9986 96.5296 83.8324 96.3876 83.9853 96.3603L83.6707 92.8306C89.0593 92.5829 93.1456 93.1308 93.2416 94.2086C93.3377 95.2864 89.4101 96.5485 84.0644 97.2576" fill="white"/>
<g filter="url(#filter2_d)">
<path d="M153.586 208H25.4154C18.5588 208 13.0005 202.932 13.0005 196.679L13.0005 117.321C13.0005 111.068 18.5589 106 25.4154 106H153.586C160.442 106 166 111.068 166 117.321L166 196.668C166.013 202.932 160.442 208 153.586 208Z" fill="white"/>
</g>
<g filter="url(#filter3_d)">
<path d="M165.441 169.344H121.68C114.69 169.344 109.006 163.676 109.006 156.675C109.006 149.688 114.677 144.006 121.68 144.006L166.002 144.006L166.002 169.344L165.441 169.344Z" fill="#4347D2"/>
</g>
<path d="M121.932 163.165C125.418 163.464 128.486 160.881 128.785 157.395C129.085 153.909 126.502 150.841 123.016 150.542C119.53 150.243 116.462 152.826 116.163 156.311C115.864 159.797 118.447 162.865 121.932 163.165Z" fill="white"/>
<ellipse rx="17.5888" ry="17.8188" transform="matrix(0.96685 0.255223 -0.262464 0.964909 136.571 22.571)" fill="#7479DE"/>
<ellipse rx="15.9363" ry="16.1445" transform="matrix(0.966851 0.255222 -0.262465 0.964909 134.534 23.7471)" fill="#4347D2"/>
<g clip-path="url(#clip0)">
<path d="M137.358 13.3619L137.095 13.7997L133.36 27.5318L133.456 27.7063L140.644 25.5651L137.358 13.3619Z" fill="white"/>
<path d="M137.358 13.3618L128.319 22.3116L133.456 27.7062L135.269 21.041L137.358 13.3618Z" fill="white"/>
<path d="M133.129 28.9122L133.027 28.9878L131.696 33.8791L131.71 34.1283L140.319 26.7742L133.129 28.9122Z" fill="white"/>
<path d="M131.71 34.1282L133.129 28.912L127.99 23.5195L131.71 34.1282Z" fill="white"/>
</g>
<defs>
<filter id="filter0_f" x="25.4497" y="43.386" width="100.288" height="101.959" filterUnits="userSpaceOnUse" color-interpolation-filters="sRGB">
<feFlood flood-opacity="0" result="BackgroundImageFix"/>
<feBlend mode="normal" in="SourceGraphic" in2="BackgroundImageFix" result="shape"/>
<feGaussianBlur stdDeviation="10" result="effect1_foregroundBlur"/>
</filter>
<filter id="filter1_d" x="17.3055" y="80.6016" width="171.279" height="137.079" filterUnits="userSpaceOnUse" color-interpolation-filters="sRGB">
<feFlood flood-opacity="0" result="BackgroundImageFix"/>
<feColorMatrix in="SourceAlpha" type="matrix" values="0 0 0 0 0 0 0 0 0 0 0 0 0 0 0 0 0 0 127 0" result="hardAlpha"/>
<feOffset dy="2.20798"/>
<feGaussianBlur stdDeviation="6.25595"/>
<feColorMatrix type="matrix" values="0 0 0 0 0.309722 0 0 0 0 0.342759 0 0 0 0 0.929167 0 0 0 0.14 0"/>
<feBlend mode="normal" in2="BackgroundImageFix" result="effect1_dropShadow"/>
<feBlend mode="normal" in="SourceGraphic" in2="effect1_dropShadow" result="shape"/>
</filter>
<filter id="filter2_d" x="0.488584" y="95.6961" width="178.024" height="127.024" filterUnits="userSpaceOnUse" color-interpolation-filters="sRGB">
<feFlood flood-opacity="0" result="BackgroundImageFix"/>
<feColorMatrix in="SourceAlpha" type="matrix" values="0 0 0 0 0 0 0 0 0 0 0 0 0 0 0 0 0 0 127 0" result="hardAlpha"/>
<feOffset dy="2.20798"/>
<feGaussianBlur stdDeviation="6.25595"/>
<feColorMatrix type="matrix" values="0 0 0 0 0.309722 0 0 0 0 0.342759 0 0 0 0 0.929167 0 0 0 0.14 0"/>
<feBlend mode="normal" in2="BackgroundImageFix" result="effect1_dropShadow"/>
<feBlend mode="normal" in="SourceGraphic" in2="effect1_dropShadow" result="shape"/>
</filter>
<filter id="filter3_d" x="96.494" y="133.702" width="82.0201" height="50.3622" filterUnits="userSpaceOnUse" color-interpolation-filters="sRGB">
<feFlood flood-opacity="0" result="BackgroundImageFix"/>
<feColorMatrix in="SourceAlpha" type="matrix" values="0 0 0 0 0 0 0 0 0 0 0 0 0 0 0 0 0 0 127 0" result="hardAlpha"/>
<feOffset dy="2.20798"/>
<feGaussianBlur stdDeviation="6.25595"/>
<feColorMatrix type="matrix" values="0 0 0 0 0.309722 0 0 0 0 0.342759 0 0 0 0 0.929167 0 0 0 0.14 0"/>
<feBlend mode="normal" in2="BackgroundImageFix" result="effect1_dropShadow"/>
<feBlend mode="normal" in="SourceGraphic" in2="effect1_dropShadow" result="shape"/>
</filter>
<clipPath id="clip0">
<rect width="21.2498" height="21.5245" fill="white" transform="matrix(0.966851 0.255222 -0.262465 0.964909 127.086 10.6501)"/>
</clipPath>
</defs>
</svg>
