<svg width="367" height="186" viewBox="0 0 367 186" fill="none" xmlns="http://www.w3.org/2000/svg">
<g opacity="0.6">
<mask id="mask0" mask-type="alpha" maskUnits="userSpaceOnUse" x="188" y="36" width="73" height="73">
<circle cx="224.343" cy="72.7825" r="35.9606" transform="rotate(15 224.343 72.7825)" fill="#C4C4C4"/>
</mask>
<g mask="url(#mask0)">
<circle cx="218.669" cy="42.8393" r="0.757084" transform="rotate(15 218.669 42.8393)" fill="#41C6A7"/>
<circle cx="256.066" cy="90.4817" r="0.757084" transform="rotate(15 256.066 90.4817)" fill="#41C6A7"/>
<circle cx="209.263" cy="77.9412" r="0.757084" transform="rotate(15 209.263 77.9412)" fill="#41C6A7"/>
<circle cx="260.769" cy="72.9309" r="0.757084" transform="rotate(15 260.769 72.9309)" fill="#41C6A7"/>
<circle cx="213.967" cy="60.3901" r="0.757084" transform="rotate(15 213.967 60.3901)" fill="#41C6A7"/>
<circle cx="251.363" cy="108.032" r="0.757084" transform="rotate(15 251.363 108.032)" fill="#41C6A7"/>
<circle cx="204.561" cy="95.4918" r="0.757084" transform="rotate(15 204.561 95.4918)" fill="#41C6A7"/>
<circle cx="195.268" cy="36.5688" r="0.757084" transform="rotate(15 195.268 36.5688)" fill="#41C6A7"/>
<circle cx="242.07" cy="49.1097" r="0.757084" transform="rotate(15 242.07 49.1097)" fill="#41C6A7"/>
<circle cx="232.665" cy="84.2114" r="0.757084" transform="rotate(15 232.665 84.2114)" fill="#41C6A7"/>
<circle cx="190.566" cy="54.1199" r="0.757084" transform="rotate(15 190.566 54.1199)" fill="#41C6A7"/>
<circle cx="237.368" cy="66.6604" r="0.757084" transform="rotate(15 237.368 66.6604)" fill="#41C6A7"/>
<circle cx="227.962" cy="101.762" r="0.757084" transform="rotate(15 227.962 101.762)" fill="#41C6A7"/>
<circle cx="230.37" cy="45.9745" r="0.757084" transform="rotate(15 230.37 45.9745)" fill="#41C6A7"/>
<circle cx="220.964" cy="81.0762" r="0.757084" transform="rotate(15 220.964 81.0762)" fill="#41C6A7"/>
<circle cx="225.667" cy="63.5254" r="0.757084" transform="rotate(15 225.667 63.5254)" fill="#41C6A7"/>
<circle cx="216.262" cy="98.6271" r="0.757084" transform="rotate(15 216.262 98.6271)" fill="#41C6A7"/>
<circle cx="206.969" cy="39.7041" r="0.757084" transform="rotate(15 206.969 39.7041)" fill="#41C6A7"/>
<circle cx="253.771" cy="52.2447" r="0.757084" transform="rotate(15 253.771 52.2447)" fill="#41C6A7"/>
<circle cx="197.563" cy="74.8059" r="0.757084" transform="rotate(15 197.563 74.8059)" fill="#41C6A7"/>
<circle cx="244.365" cy="87.3467" r="0.757084" transform="rotate(15 244.365 87.3467)" fill="#41C6A7"/>
<circle cx="202.266" cy="57.2551" r="0.757084" transform="rotate(15 202.266 57.2551)" fill="#41C6A7"/>
<circle cx="249.069" cy="69.7956" r="0.757084" transform="rotate(15 249.069 69.7956)" fill="#41C6A7"/>
<circle cx="192.861" cy="92.3568" r="0.757084" transform="rotate(15 192.861 92.3568)" fill="#41C6A7"/>
<circle cx="239.663" cy="104.897" r="0.757084" transform="rotate(15 239.663 104.897)" fill="#41C6A7"/>
<circle cx="224.52" cy="44.4068" r="0.757084" transform="rotate(15 224.52 44.4068)" fill="#41C6A7"/>
<circle cx="215.114" cy="79.5087" r="0.757084" transform="rotate(15 215.114 79.5087)" fill="#41C6A7"/>
<circle cx="219.817" cy="61.9576" r="0.757084" transform="rotate(15 219.817 61.9576)" fill="#41C6A7"/>
<circle cx="257.214" cy="109.6" r="0.757084" transform="rotate(15 257.214 109.6)" fill="#41C6A7"/>
<circle cx="210.411" cy="97.0596" r="0.757084" transform="rotate(15 210.411 97.0596)" fill="#41C6A7"/>
<circle cx="201.118" cy="38.1363" r="0.757084" transform="rotate(15 201.118 38.1363)" fill="#41C6A7"/>
<circle cx="247.921" cy="50.6772" r="0.757084" transform="rotate(15 247.921 50.6772)" fill="#41C6A7"/>
<circle cx="191.713" cy="73.2383" r="0.757084" transform="rotate(15 191.713 73.2383)" fill="#41C6A7"/>
<circle cx="238.515" cy="85.7789" r="0.757084" transform="rotate(15 238.515 85.7789)" fill="#41C6A7"/>
<circle cx="196.416" cy="55.6876" r="0.757084" transform="rotate(15 196.416 55.6876)" fill="#41C6A7"/>
<circle cx="243.218" cy="68.2279" r="0.757084" transform="rotate(15 243.218 68.2279)" fill="#41C6A7"/>
<circle cx="233.812" cy="103.33" r="0.757084" transform="rotate(15 233.812 103.33)" fill="#41C6A7"/>
<circle cx="236.22" cy="47.542" r="0.757084" transform="rotate(15 236.22 47.542)" fill="#41C6A7"/>
<circle cx="226.815" cy="82.6437" r="0.757084" transform="rotate(15 226.815 82.6437)" fill="#41C6A7"/>
<circle cx="231.517" cy="65.0929" r="0.757084" transform="rotate(15 231.517 65.0929)" fill="#41C6A7"/>
<circle cx="222.112" cy="100.195" r="0.757084" transform="rotate(15 222.112 100.195)" fill="#41C6A7"/>
<circle cx="212.819" cy="41.2716" r="0.757084" transform="rotate(15 212.819 41.2716)" fill="#41C6A7"/>
<circle cx="259.622" cy="53.8122" r="0.757084" transform="rotate(15 259.622 53.8122)" fill="#41C6A7"/>
<circle cx="203.413" cy="76.3734" r="0.757084" transform="rotate(15 203.413 76.3734)" fill="#41C6A7"/>
<circle cx="250.216" cy="88.9142" r="0.757084" transform="rotate(15 250.216 88.9142)" fill="#41C6A7"/>
<circle cx="208.116" cy="58.8226" r="0.757084" transform="rotate(15 208.116 58.8226)" fill="#41C6A7"/>
<circle cx="254.919" cy="71.3632" r="0.757084" transform="rotate(15 254.919 71.3632)" fill="#41C6A7"/>
<circle cx="198.711" cy="93.9243" r="0.757084" transform="rotate(15 198.711 93.9243)" fill="#41C6A7"/>
<circle cx="245.513" cy="106.465" r="0.757084" transform="rotate(15 245.513 106.465)" fill="#41C6A7"/>
<circle cx="217.102" cy="48.6894" r="0.757084" transform="rotate(15 217.102 48.6894)" fill="#41C6A7"/>
<circle cx="254.498" cy="96.332" r="0.757084" transform="rotate(15 254.498 96.332)" fill="#41C6A7"/>
<circle cx="207.696" cy="83.7914" r="0.757084" transform="rotate(15 207.696 83.7914)" fill="#41C6A7"/>
<circle cx="259.201" cy="78.781" r="0.757084" transform="rotate(15 259.201 78.781)" fill="#41C6A7"/>
<circle cx="212.399" cy="66.2405" r="0.757084" transform="rotate(15 212.399 66.2405)" fill="#41C6A7"/>
<circle cx="202.993" cy="101.342" r="0.757084" transform="rotate(15 202.993 101.342)" fill="#41C6A7"/>
<circle cx="193.7" cy="42.4194" r="0.757084" transform="rotate(15 193.7 42.4194)" fill="#41C6A7"/>
<circle cx="240.503" cy="54.9598" r="0.757084" transform="rotate(15 240.503 54.9598)" fill="#41C6A7"/>
<circle cx="231.097" cy="90.0618" r="0.757084" transform="rotate(15 231.097 90.0618)" fill="#41C6A7"/>
<circle cx="188.998" cy="59.9702" r="0.757084" transform="rotate(15 188.998 59.9702)" fill="#41C6A7"/>
<circle cx="235.8" cy="72.5107" r="0.757084" transform="rotate(15 235.8 72.5107)" fill="#41C6A7"/>
<circle cx="245.205" cy="37.409" r="0.757084" transform="rotate(15 245.205 37.409)" fill="#41C6A7"/>
<circle cx="226.395" cy="107.612" r="0.757084" transform="rotate(15 226.395 107.612)" fill="#41C6A7"/>
<circle cx="228.802" cy="51.8247" r="0.757084" transform="rotate(15 228.802 51.8247)" fill="#41C6A7"/>
<circle cx="219.397" cy="86.9265" r="0.757084" transform="rotate(15 219.397 86.9265)" fill="#41C6A7"/>
<circle cx="224.1" cy="69.3757" r="0.757084" transform="rotate(15 224.1 69.3757)" fill="#41C6A7"/>
<circle cx="214.694" cy="104.477" r="0.757084" transform="rotate(15 214.694 104.477)" fill="#41C6A7"/>
<circle cx="205.401" cy="45.5544" r="0.757084" transform="rotate(15 205.401 45.5544)" fill="#41C6A7"/>
<circle cx="252.203" cy="58.0951" r="0.757084" transform="rotate(15 252.203 58.0951)" fill="#41C6A7"/>
<circle cx="195.996" cy="80.6561" r="0.757084" transform="rotate(15 195.996 80.6561)" fill="#41C6A7"/>
<circle cx="242.798" cy="93.1968" r="0.757084" transform="rotate(15 242.798 93.1968)" fill="#41C6A7"/>
<circle cx="200.698" cy="63.1052" r="0.757084" transform="rotate(15 200.698 63.1052)" fill="#41C6A7"/>
<circle cx="247.501" cy="75.646" r="0.757084" transform="rotate(15 247.501 75.646)" fill="#41C6A7"/>
<circle cx="256.906" cy="40.5441" r="0.757084" transform="rotate(15 256.906 40.5441)" fill="#41C6A7"/>
<circle cx="191.293" cy="98.2071" r="0.757084" transform="rotate(15 191.293 98.2071)" fill="#41C6A7"/>
<circle cx="222.952" cy="50.2572" r="0.757084" transform="rotate(15 222.952 50.2572)" fill="#41C6A7"/>
<circle cx="260.348" cy="97.8995" r="0.757084" transform="rotate(15 260.348 97.8995)" fill="#41C6A7"/>
<circle cx="213.547" cy="85.3589" r="0.757084" transform="rotate(15 213.547 85.3589)" fill="#41C6A7"/>
<circle cx="218.249" cy="67.808" r="0.757084" transform="rotate(15 218.249 67.808)" fill="#41C6A7"/>
<circle cx="208.843" cy="102.91" r="0.757084" transform="rotate(15 208.843 102.91)" fill="#41C6A7"/>
<circle cx="199.55" cy="43.9869" r="0.757084" transform="rotate(15 199.55 43.9869)" fill="#41C6A7"/>
<circle cx="246.353" cy="56.5276" r="0.757084" transform="rotate(15 246.353 56.5276)" fill="#41C6A7"/>
<circle cx="190.146" cy="79.0886" r="0.757084" transform="rotate(15 190.146 79.0886)" fill="#41C6A7"/>
<circle cx="236.948" cy="91.6293" r="0.757084" transform="rotate(15 236.948 91.6293)" fill="#41C6A7"/>
<circle cx="194.848" cy="61.5377" r="0.757084" transform="rotate(15 194.848 61.5377)" fill="#41C6A7"/>
<circle cx="241.651" cy="74.0785" r="0.757084" transform="rotate(15 241.651 74.0785)" fill="#41C6A7"/>
<circle cx="251.056" cy="38.9766" r="0.757084" transform="rotate(15 251.056 38.9766)" fill="#41C6A7"/>
<circle cx="232.245" cy="109.18" r="0.757084" transform="rotate(15 232.245 109.18)" fill="#41C6A7"/>
<circle cx="187.85" cy="40.8517" r="0.757084" transform="rotate(15 187.85 40.8517)" fill="#41C6A7"/>
<circle cx="234.653" cy="53.3922" r="0.757084" transform="rotate(15 234.653 53.3922)" fill="#41C6A7"/>
<circle cx="225.247" cy="88.4943" r="0.757084" transform="rotate(15 225.247 88.4943)" fill="#41C6A7"/>
<circle cx="229.95" cy="70.9432" r="0.757084" transform="rotate(15 229.95 70.9432)" fill="#41C6A7"/>
<circle cx="220.544" cy="106.045" r="0.757084" transform="rotate(15 220.544 106.045)" fill="#41C6A7"/>
<circle cx="211.252" cy="47.1219" r="0.757084" transform="rotate(15 211.252 47.1219)" fill="#41C6A7"/>
<circle cx="258.053" cy="59.6628" r="0.757084" transform="rotate(15 258.053 59.6628)" fill="#41C6A7"/>
<circle cx="201.846" cy="82.2236" r="0.757084" transform="rotate(15 201.846 82.2236)" fill="#41C6A7"/>
<circle cx="248.648" cy="94.7643" r="0.757084" transform="rotate(15 248.648 94.7643)" fill="#41C6A7"/>
<circle cx="206.549" cy="64.673" r="0.757084" transform="rotate(15 206.549 64.673)" fill="#41C6A7"/>
<circle cx="253.351" cy="77.2135" r="0.757084" transform="rotate(15 253.351 77.2135)" fill="#41C6A7"/>
<circle cx="197.143" cy="99.7747" r="0.757084" transform="rotate(15 197.143 99.7747)" fill="#41C6A7"/>
<circle cx="215.534" cy="54.5398" r="0.757084" transform="rotate(15 215.534 54.5398)" fill="#41C6A7"/>
<circle cx="252.931" cy="102.182" r="0.757084" transform="rotate(15 252.931 102.182)" fill="#41C6A7"/>
<circle cx="206.129" cy="89.6415" r="0.757084" transform="rotate(15 206.129 89.6415)" fill="#41C6A7"/>
<circle cx="257.633" cy="84.6313" r="0.757084" transform="rotate(15 257.633 84.6313)" fill="#41C6A7"/>
<circle cx="210.832" cy="72.0908" r="0.757084" transform="rotate(15 210.832 72.0908)" fill="#41C6A7"/>
<circle cx="220.237" cy="36.989" r="0.757084" transform="rotate(15 220.237 36.989)" fill="#41C6A7"/>
<circle cx="201.426" cy="107.192" r="0.757084" transform="rotate(15 201.426 107.192)" fill="#41C6A7"/>
<circle cx="192.133" cy="48.2695" r="0.757084" transform="rotate(15 192.133 48.2695)" fill="#41C6A7"/>
<circle cx="238.935" cy="60.81" r="0.757084" transform="rotate(15 238.935 60.81)" fill="#41C6A7"/>
<circle cx="229.53" cy="95.9119" r="0.757084" transform="rotate(15 229.53 95.9119)" fill="#41C6A7"/>
<circle cx="234.232" cy="78.3611" r="0.757084" transform="rotate(15 234.232 78.3611)" fill="#41C6A7"/>
<circle cx="243.638" cy="43.2594" r="0.757084" transform="rotate(15 243.638 43.2594)" fill="#41C6A7"/>
<circle cx="227.235" cy="57.675" r="0.757084" transform="rotate(15 227.235 57.675)" fill="#41C6A7"/>
<circle cx="217.829" cy="92.7767" r="0.757084" transform="rotate(15 217.829 92.7767)" fill="#41C6A7"/>
<circle cx="222.532" cy="75.2258" r="0.757084" transform="rotate(15 222.532 75.2258)" fill="#41C6A7"/>
<circle cx="231.938" cy="40.1241" r="0.757084" transform="rotate(15 231.938 40.1241)" fill="#41C6A7"/>
<circle cx="203.834" cy="51.4048" r="0.757084" transform="rotate(15 203.834 51.4048)" fill="#41C6A7"/>
<circle cx="250.636" cy="63.9453" r="0.757084" transform="rotate(15 250.636 63.9453)" fill="#41C6A7"/>
<circle cx="194.428" cy="86.5065" r="0.757084" transform="rotate(15 194.428 86.5065)" fill="#41C6A7"/>
<circle cx="241.231" cy="99.0471" r="0.757084" transform="rotate(15 241.231 99.0471)" fill="#41C6A7"/>
<circle cx="199.131" cy="68.9556" r="0.757084" transform="rotate(15 199.131 68.9556)" fill="#41C6A7"/>
<circle cx="245.933" cy="81.4961" r="0.757084" transform="rotate(15 245.933 81.4961)" fill="#41C6A7"/>
<circle cx="255.339" cy="46.3944" r="0.757084" transform="rotate(15 255.339 46.3944)" fill="#41C6A7"/>
<circle cx="189.726" cy="104.057" r="0.757084" transform="rotate(15 189.726 104.057)" fill="#41C6A7"/>
<circle cx="221.384" cy="56.1075" r="0.757084" transform="rotate(15 221.384 56.1075)" fill="#41C6A7"/>
<circle cx="258.781" cy="103.75" r="0.757084" transform="rotate(15 258.781 103.75)" fill="#41C6A7"/>
<circle cx="211.979" cy="91.2092" r="0.757084" transform="rotate(15 211.979 91.2092)" fill="#41C6A7"/>
<circle cx="216.682" cy="73.6583" r="0.757084" transform="rotate(15 216.682 73.6583)" fill="#41C6A7"/>
<circle cx="226.087" cy="38.5566" r="0.757084" transform="rotate(15 226.087 38.5566)" fill="#41C6A7"/>
<circle cx="207.276" cy="108.76" r="0.757084" transform="rotate(15 207.276 108.76)" fill="#41C6A7"/>
<circle cx="197.984" cy="49.837" r="0.757084" transform="rotate(15 197.984 49.837)" fill="#41C6A7"/>
<circle cx="244.785" cy="62.3778" r="0.757084" transform="rotate(15 244.785 62.3778)" fill="#41C6A7"/>
<circle cx="188.578" cy="84.939" r="0.757084" transform="rotate(15 188.578 84.939)" fill="#41C6A7"/>
<circle cx="235.38" cy="97.4796" r="0.757084" transform="rotate(15 235.38 97.4796)" fill="#41C6A7"/>
<circle cx="193.28" cy="67.3881" r="0.757084" transform="rotate(15 193.28 67.3881)" fill="#41C6A7"/>
<circle cx="240.083" cy="79.9286" r="0.757084" transform="rotate(15 240.083 79.9286)" fill="#41C6A7"/>
<circle cx="249.488" cy="44.8269" r="0.757084" transform="rotate(15 249.488 44.8269)" fill="#41C6A7"/>
<circle cx="233.085" cy="59.2425" r="0.757084" transform="rotate(15 233.085 59.2425)" fill="#41C6A7"/>
<circle cx="223.68" cy="94.3444" r="0.757084" transform="rotate(15 223.68 94.3444)" fill="#41C6A7"/>
<circle cx="228.382" cy="76.7936" r="0.757084" transform="rotate(15 228.382 76.7936)" fill="#41C6A7"/>
<circle cx="237.788" cy="41.6919" r="0.757084" transform="rotate(15 237.788 41.6919)" fill="#41C6A7"/>
<circle cx="209.684" cy="52.9723" r="0.757084" transform="rotate(15 209.684 52.9723)" fill="#41C6A7"/>
<circle cx="256.486" cy="65.5129" r="0.757084" transform="rotate(15 256.486 65.5129)" fill="#41C6A7"/>
<circle cx="200.279" cy="88.074" r="0.757084" transform="rotate(15 200.279 88.074)" fill="#41C6A7"/>
<circle cx="247.081" cy="100.615" r="0.757084" transform="rotate(15 247.081 100.615)" fill="#41C6A7"/>
<circle cx="204.981" cy="70.5233" r="0.757084" transform="rotate(15 204.981 70.5233)" fill="#41C6A7"/>
<circle cx="251.783" cy="83.0638" r="0.757084" transform="rotate(15 251.783 83.0638)" fill="#41C6A7"/>
<circle cx="261.189" cy="47.9621" r="0.757084" transform="rotate(15 261.189 47.9621)" fill="#41C6A7"/>
<circle cx="195.576" cy="105.625" r="0.757084" transform="rotate(15 195.576 105.625)" fill="#41C6A7"/>
<circle cx="221.594" cy="43.623" r="0.757084" transform="rotate(15 221.594 43.623)" fill="#41C6A7"/>
<circle cx="258.991" cy="91.2656" r="0.757084" transform="rotate(15 258.991 91.2656)" fill="#41C6A7"/>
<circle cx="212.189" cy="78.725" r="0.757084" transform="rotate(15 212.189 78.725)" fill="#41C6A7"/>
<circle cx="216.892" cy="61.1738" r="0.757084" transform="rotate(15 216.892 61.1738)" fill="#41C6A7"/>
<circle cx="254.289" cy="108.816" r="0.757084" transform="rotate(15 254.289 108.816)" fill="#41C6A7"/>
<circle cx="207.486" cy="96.2757" r="0.757084" transform="rotate(15 207.486 96.2757)" fill="#41C6A7"/>
<circle cx="198.193" cy="37.3528" r="0.757084" transform="rotate(15 198.193 37.3528)" fill="#41C6A7"/>
<circle cx="244.996" cy="49.8935" r="0.757084" transform="rotate(15 244.996 49.8935)" fill="#41C6A7"/>
<circle cx="188.788" cy="72.4545" r="0.757084" transform="rotate(15 188.788 72.4545)" fill="#41C6A7"/>
<circle cx="235.59" cy="84.995" r="0.757084" transform="rotate(15 235.59 84.995)" fill="#41C6A7"/>
<circle cx="193.491" cy="54.9037" r="0.757084" transform="rotate(15 193.491 54.9037)" fill="#41C6A7"/>
<circle cx="240.293" cy="67.4443" r="0.757084" transform="rotate(15 240.293 67.4443)" fill="#41C6A7"/>
<circle cx="230.887" cy="102.546" r="0.757084" transform="rotate(15 230.887 102.546)" fill="#41C6A7"/>
<circle cx="233.295" cy="46.758" r="0.757084" transform="rotate(15 233.295 46.758)" fill="#41C6A7"/>
<circle cx="223.889" cy="81.86" r="0.757084" transform="rotate(15 223.889 81.86)" fill="#41C6A7"/>
<circle cx="228.592" cy="64.3093" r="0.757084" transform="rotate(15 228.592 64.3093)" fill="#41C6A7"/>
<circle cx="219.187" cy="99.4108" r="0.757084" transform="rotate(15 219.187 99.4108)" fill="#41C6A7"/>
<circle cx="209.894" cy="40.488" r="0.757084" transform="rotate(15 209.894 40.488)" fill="#41C6A7"/>
<circle cx="256.696" cy="53.0286" r="0.757084" transform="rotate(15 256.696 53.0286)" fill="#41C6A7"/>
<circle cx="200.488" cy="75.5895" r="0.757084" transform="rotate(15 200.488 75.5895)" fill="#41C6A7"/>
<circle cx="247.291" cy="88.1302" r="0.757084" transform="rotate(15 247.291 88.1302)" fill="#41C6A7"/>
<circle cx="205.191" cy="58.0387" r="0.757084" transform="rotate(15 205.191 58.0387)" fill="#41C6A7"/>
<circle cx="251.994" cy="70.5793" r="0.757084" transform="rotate(15 251.994 70.5793)" fill="#41C6A7"/>
<circle cx="195.786" cy="93.1407" r="0.757084" transform="rotate(15 195.786 93.1407)" fill="#41C6A7"/>
<circle cx="242.588" cy="105.681" r="0.757084" transform="rotate(15 242.588 105.681)" fill="#41C6A7"/>
<circle cx="227.445" cy="45.1905" r="0.757084" transform="rotate(15 227.445 45.1905)" fill="#41C6A7"/>
<circle cx="218.039" cy="80.2925" r="0.757084" transform="rotate(15 218.039 80.2925)" fill="#41C6A7"/>
<circle cx="222.742" cy="62.7416" r="0.757084" transform="rotate(15 222.742 62.7416)" fill="#41C6A7"/>
<circle cx="213.337" cy="97.8433" r="0.757084" transform="rotate(15 213.337 97.8433)" fill="#41C6A7"/>
<circle cx="204.043" cy="38.9203" r="0.757084" transform="rotate(15 204.043 38.9203)" fill="#41C6A7"/>
<circle cx="250.846" cy="51.461" r="0.757084" transform="rotate(15 250.846 51.461)" fill="#41C6A7"/>
<circle cx="194.638" cy="74.022" r="0.757084" transform="rotate(15 194.638 74.022)" fill="#41C6A7"/>
<circle cx="241.441" cy="86.5627" r="0.757084" transform="rotate(15 241.441 86.5627)" fill="#41C6A7"/>
<circle cx="199.341" cy="56.4712" r="0.757084" transform="rotate(15 199.341 56.4712)" fill="#41C6A7"/>
<circle cx="246.143" cy="69.0118" r="0.757084" transform="rotate(15 246.143 69.0118)" fill="#41C6A7"/>
<circle cx="189.935" cy="91.573" r="0.757084" transform="rotate(15 189.935 91.573)" fill="#41C6A7"/>
<circle cx="236.737" cy="104.114" r="0.757084" transform="rotate(15 236.737 104.114)" fill="#41C6A7"/>
<circle cx="239.146" cy="48.3258" r="0.757084" transform="rotate(15 239.146 48.3258)" fill="#41C6A7"/>
<circle cx="229.739" cy="83.4275" r="0.757084" transform="rotate(15 229.739 83.4275)" fill="#41C6A7"/>
<circle cx="187.64" cy="53.3359" r="0.757084" transform="rotate(15 187.64 53.3359)" fill="#41C6A7"/>
<circle cx="234.443" cy="65.8768" r="0.757084" transform="rotate(15 234.443 65.8768)" fill="#41C6A7"/>
<circle cx="225.037" cy="100.979" r="0.757084" transform="rotate(15 225.037 100.979)" fill="#41C6A7"/>
<circle cx="215.744" cy="42.0555" r="0.757084" transform="rotate(15 215.744 42.0555)" fill="#41C6A7"/>
<circle cx="206.339" cy="77.1572" r="0.757084" transform="rotate(15 206.339 77.1572)" fill="#41C6A7"/>
<circle cx="253.141" cy="89.698" r="0.757084" transform="rotate(15 253.141 89.698)" fill="#41C6A7"/>
<circle cx="211.042" cy="59.6063" r="0.757084" transform="rotate(15 211.042 59.6063)" fill="#41C6A7"/>
<circle cx="257.844" cy="72.1471" r="0.757084" transform="rotate(15 257.844 72.1471)" fill="#41C6A7"/>
<circle cx="201.636" cy="94.7082" r="0.757084" transform="rotate(15 201.636 94.7082)" fill="#41C6A7"/>
<circle cx="248.438" cy="107.249" r="0.757084" transform="rotate(15 248.438 107.249)" fill="#41C6A7"/>
<circle cx="220.027" cy="49.4734" r="0.757084" transform="rotate(15 220.027 49.4734)" fill="#41C6A7"/>
<circle cx="257.424" cy="97.1157" r="0.757084" transform="rotate(15 257.424 97.1157)" fill="#41C6A7"/>
<circle cx="210.622" cy="84.5751" r="0.757084" transform="rotate(15 210.622 84.5751)" fill="#41C6A7"/>
<circle cx="215.324" cy="67.0243" r="0.757084" transform="rotate(15 215.324 67.0243)" fill="#41C6A7"/>
<circle cx="205.918" cy="102.126" r="0.757084" transform="rotate(15 205.918 102.126)" fill="#41C6A7"/>
<circle cx="196.626" cy="43.2031" r="0.757084" transform="rotate(15 196.626 43.2031)" fill="#41C6A7"/>
<circle cx="243.428" cy="55.7436" r="0.757084" transform="rotate(15 243.428 55.7436)" fill="#41C6A7"/>
<circle cx="234.023" cy="90.8456" r="0.757084" transform="rotate(15 234.023 90.8456)" fill="#41C6A7"/>
<circle cx="191.923" cy="60.7538" r="0.757084" transform="rotate(15 191.923 60.7538)" fill="#41C6A7"/>
<circle cx="238.726" cy="73.2944" r="0.757084" transform="rotate(15 238.726 73.2944)" fill="#41C6A7"/>
<circle cx="248.131" cy="38.1929" r="0.757084" transform="rotate(15 248.131 38.1929)" fill="#41C6A7"/>
<circle cx="229.32" cy="108.396" r="0.757084" transform="rotate(15 229.32 108.396)" fill="#41C6A7"/>
<circle cx="231.727" cy="52.6086" r="0.757084" transform="rotate(15 231.727 52.6086)" fill="#41C6A7"/>
<circle cx="222.322" cy="87.7103" r="0.757084" transform="rotate(15 222.322 87.7103)" fill="#41C6A7"/>
<circle cx="227.025" cy="70.1594" r="0.757084" transform="rotate(15 227.025 70.1594)" fill="#41C6A7"/>
<circle cx="217.619" cy="105.261" r="0.757084" transform="rotate(15 217.619 105.261)" fill="#41C6A7"/>
<circle cx="208.326" cy="46.3381" r="0.757084" transform="rotate(15 208.326 46.3381)" fill="#41C6A7"/>
<circle cx="255.129" cy="58.8787" r="0.757084" transform="rotate(15 255.129 58.8787)" fill="#41C6A7"/>
<circle cx="198.921" cy="81.4401" r="0.757084" transform="rotate(15 198.921 81.4401)" fill="#41C6A7"/>
<circle cx="245.723" cy="93.9806" r="0.757084" transform="rotate(15 245.723 93.9806)" fill="#41C6A7"/>
<circle cx="203.623" cy="63.889" r="0.757084" transform="rotate(15 203.623 63.889)" fill="#41C6A7"/>
<circle cx="250.426" cy="76.4299" r="0.757084" transform="rotate(15 250.426 76.4299)" fill="#41C6A7"/>
<circle cx="259.831" cy="41.328" r="0.757084" transform="rotate(15 259.831 41.328)" fill="#41C6A7"/>
<circle cx="194.218" cy="98.9908" r="0.757084" transform="rotate(15 194.218 98.9908)" fill="#41C6A7"/>
<circle cx="225.877" cy="51.0411" r="0.757084" transform="rotate(15 225.877 51.0411)" fill="#41C6A7"/>
<circle cx="216.472" cy="86.1426" r="0.757084" transform="rotate(15 216.472 86.1426)" fill="#41C6A7"/>
<circle cx="221.174" cy="68.5918" r="0.757084" transform="rotate(15 221.174 68.5918)" fill="#41C6A7"/>
<circle cx="211.769" cy="103.694" r="0.757084" transform="rotate(15 211.769 103.694)" fill="#41C6A7"/>
<circle cx="202.476" cy="44.7706" r="0.757084" transform="rotate(15 202.476 44.7706)" fill="#41C6A7"/>
<circle cx="249.279" cy="57.3111" r="0.757084" transform="rotate(15 249.279 57.3111)" fill="#41C6A7"/>
<circle cx="193.07" cy="79.8726" r="0.757084" transform="rotate(15 193.07 79.8726)" fill="#41C6A7"/>
<circle cx="239.873" cy="92.4131" r="0.757084" transform="rotate(15 239.873 92.4131)" fill="#41C6A7"/>
<circle cx="197.773" cy="62.3213" r="0.757084" transform="rotate(15 197.773 62.3213)" fill="#41C6A7"/>
<circle cx="244.576" cy="74.8622" r="0.757084" transform="rotate(15 244.576 74.8622)" fill="#41C6A7"/>
<circle cx="253.981" cy="39.7604" r="0.757084" transform="rotate(15 253.981 39.7604)" fill="#41C6A7"/>
<circle cx="188.368" cy="97.4232" r="0.757084" transform="rotate(15 188.368 97.4232)" fill="#41C6A7"/>
<circle cx="190.775" cy="41.6355" r="0.757084" transform="rotate(15 190.775 41.6355)" fill="#41C6A7"/>
<circle cx="237.578" cy="54.1761" r="0.757084" transform="rotate(15 237.578 54.1761)" fill="#41C6A7"/>
<circle cx="228.173" cy="89.2778" r="0.757084" transform="rotate(15 228.173 89.2778)" fill="#41C6A7"/>
<circle cx="232.875" cy="71.7269" r="0.757084" transform="rotate(15 232.875 71.7269)" fill="#41C6A7"/>
<circle cx="242.28" cy="36.6254" r="0.757084" transform="rotate(15 242.28 36.6254)" fill="#41C6A7"/>
<circle cx="223.469" cy="106.829" r="0.757084" transform="rotate(15 223.469 106.829)" fill="#41C6A7"/>
<circle cx="214.176" cy="47.9056" r="0.757084" transform="rotate(15 214.176 47.9056)" fill="#41C6A7"/>
<circle cx="260.979" cy="60.4464" r="0.757084" transform="rotate(15 260.979 60.4464)" fill="#41C6A7"/>
<circle cx="204.771" cy="83.0076" r="0.757084" transform="rotate(15 204.771 83.0076)" fill="#41C6A7"/>
<circle cx="251.573" cy="95.5481" r="0.757084" transform="rotate(15 251.573 95.5481)" fill="#41C6A7"/>
<circle cx="209.474" cy="65.4568" r="0.757084" transform="rotate(15 209.474 65.4568)" fill="#41C6A7"/>
<circle cx="256.276" cy="77.9974" r="0.757084" transform="rotate(15 256.276 77.9974)" fill="#41C6A7"/>
<circle cx="200.068" cy="100.558" r="0.757084" transform="rotate(15 200.068 100.558)" fill="#41C6A7"/>
<circle cx="218.459" cy="55.3237" r="0.757084" transform="rotate(15 218.459 55.3237)" fill="#41C6A7"/>
<circle cx="255.856" cy="102.966" r="0.757084" transform="rotate(15 255.856 102.966)" fill="#41C6A7"/>
<circle cx="209.054" cy="90.4257" r="0.757084" transform="rotate(15 209.054 90.4257)" fill="#41C6A7"/>
<circle cx="260.559" cy="85.4153" r="0.757084" transform="rotate(15 260.559 85.4153)" fill="#41C6A7"/>
<circle cx="213.757" cy="72.8744" r="0.757084" transform="rotate(15 213.757 72.8744)" fill="#41C6A7"/>
<circle cx="223.162" cy="37.7729" r="0.757084" transform="rotate(15 223.162 37.7729)" fill="#41C6A7"/>
<circle cx="204.351" cy="107.976" r="0.757084" transform="rotate(15 204.351 107.976)" fill="#41C6A7"/>
<circle cx="195.058" cy="49.0533" r="0.757084" transform="rotate(15 195.058 49.0533)" fill="#41C6A7"/>
<circle cx="241.861" cy="61.594" r="0.757084" transform="rotate(15 241.861 61.594)" fill="#41C6A7"/>
<circle cx="232.455" cy="96.6957" r="0.757084" transform="rotate(15 232.455 96.6957)" fill="#41C6A7"/>
<circle cx="190.355" cy="66.6044" r="0.757084" transform="rotate(15 190.355 66.6044)" fill="#41C6A7"/>
<circle cx="237.158" cy="79.1449" r="0.757084" transform="rotate(15 237.158 79.1449)" fill="#41C6A7"/>
<circle cx="246.563" cy="44.043" r="0.757084" transform="rotate(15 246.563 44.043)" fill="#41C6A7"/>
<circle cx="230.159" cy="58.4587" r="0.757084" transform="rotate(15 230.159 58.4587)" fill="#41C6A7"/>
<circle cx="220.755" cy="93.5607" r="0.757084" transform="rotate(15 220.755 93.5607)" fill="#41C6A7"/>
<circle cx="225.457" cy="76.0096" r="0.757084" transform="rotate(15 225.457 76.0096)" fill="#41C6A7"/>
<circle cx="234.863" cy="40.9079" r="0.757084" transform="rotate(15 234.863 40.9079)" fill="#41C6A7"/>
<circle cx="206.759" cy="52.1886" r="0.757084" transform="rotate(15 206.759 52.1886)" fill="#41C6A7"/>
<circle cx="253.561" cy="64.7292" r="0.757084" transform="rotate(15 253.561 64.7292)" fill="#41C6A7"/>
<circle cx="197.353" cy="87.2902" r="0.757084" transform="rotate(15 197.353 87.2902)" fill="#41C6A7"/>
<circle cx="244.156" cy="99.8309" r="0.757084" transform="rotate(15 244.156 99.8309)" fill="#41C6A7"/>
<circle cx="202.056" cy="69.7394" r="0.757084" transform="rotate(15 202.056 69.7394)" fill="#41C6A7"/>
<circle cx="248.859" cy="82.28" r="0.757084" transform="rotate(15 248.859 82.28)" fill="#41C6A7"/>
<circle cx="258.264" cy="47.1782" r="0.757084" transform="rotate(15 258.264 47.1782)" fill="#41C6A7"/>
<circle cx="192.651" cy="104.841" r="0.757084" transform="rotate(15 192.651 104.841)" fill="#41C6A7"/>
<circle cx="224.309" cy="56.8912" r="0.757084" transform="rotate(15 224.309 56.8912)" fill="#41C6A7"/>
<circle cx="214.904" cy="91.9932" r="0.757084" transform="rotate(15 214.904 91.9932)" fill="#41C6A7"/>
<circle cx="219.607" cy="74.4419" r="0.757084" transform="rotate(15 219.607 74.4419)" fill="#41C6A7"/>
<circle cx="229.012" cy="39.3404" r="0.757084" transform="rotate(15 229.012 39.3404)" fill="#41C6A7"/>
<circle cx="210.201" cy="109.544" r="0.757084" transform="rotate(15 210.201 109.544)" fill="#41C6A7"/>
<circle cx="200.908" cy="50.6208" r="0.757084" transform="rotate(15 200.908 50.6208)" fill="#41C6A7"/>
<circle cx="247.711" cy="63.1617" r="0.757084" transform="rotate(15 247.711 63.1617)" fill="#41C6A7"/>
<circle cx="191.503" cy="85.7226" r="0.757084" transform="rotate(15 191.503 85.7226)" fill="#41C6A7"/>
<circle cx="238.305" cy="98.2632" r="0.757084" transform="rotate(15 238.305 98.2632)" fill="#41C6A7"/>
<circle cx="196.206" cy="68.1719" r="0.757084" transform="rotate(15 196.206 68.1719)" fill="#41C6A7"/>
<circle cx="243.008" cy="80.7125" r="0.757084" transform="rotate(15 243.008 80.7125)" fill="#41C6A7"/>
<circle cx="252.414" cy="45.6105" r="0.757084" transform="rotate(15 252.414 45.6105)" fill="#41C6A7"/>
<circle cx="189.208" cy="47.4856" r="0.757084" transform="rotate(15 189.208 47.4856)" fill="#41C6A7"/>
<circle cx="236.01" cy="60.0262" r="0.757084" transform="rotate(15 236.01 60.0262)" fill="#41C6A7"/>
<circle cx="226.605" cy="95.1282" r="0.757084" transform="rotate(15 226.605 95.1282)" fill="#41C6A7"/>
<circle cx="231.307" cy="77.5774" r="0.757084" transform="rotate(15 231.307 77.5774)" fill="#41C6A7"/>
<circle cx="240.713" cy="42.4755" r="0.757084" transform="rotate(15 240.713 42.4755)" fill="#41C6A7"/>
<circle cx="212.609" cy="53.7562" r="0.757084" transform="rotate(15 212.609 53.7562)" fill="#41C6A7"/>
<circle cx="259.411" cy="66.2967" r="0.757084" transform="rotate(15 259.411 66.2967)" fill="#41C6A7"/>
<circle cx="203.203" cy="88.8577" r="0.757084" transform="rotate(15 203.203 88.8577)" fill="#41C6A7"/>
<circle cx="250.006" cy="101.398" r="0.757084" transform="rotate(15 250.006 101.398)" fill="#41C6A7"/>
<circle cx="207.906" cy="71.3069" r="0.757084" transform="rotate(15 207.906 71.3069)" fill="#41C6A7"/>
<circle cx="254.709" cy="83.8475" r="0.757084" transform="rotate(15 254.709 83.8475)" fill="#41C6A7"/>
<circle cx="217.312" cy="36.2052" r="0.757084" transform="rotate(15 217.312 36.2052)" fill="#41C6A7"/>
<circle cx="198.501" cy="106.409" r="0.757084" transform="rotate(15 198.501 106.409)" fill="#41C6A7"/>
<circle cx="220.811" cy="46.5481" r="0.757084" transform="rotate(15 220.811 46.5481)" fill="#41C6A7"/>
<circle cx="258.208" cy="94.1907" r="0.757084" transform="rotate(15 258.208 94.1907)" fill="#41C6A7"/>
<circle cx="211.405" cy="81.65" r="0.757084" transform="rotate(15 211.405 81.65)" fill="#41C6A7"/>
<circle cx="216.108" cy="64.0992" r="0.757084" transform="rotate(15 216.108 64.0992)" fill="#41C6A7"/>
<circle cx="206.702" cy="99.2008" r="0.757084" transform="rotate(15 206.702 99.2008)" fill="#41C6A7"/>
<circle cx="197.409" cy="40.2781" r="0.757084" transform="rotate(15 197.409 40.2781)" fill="#41C6A7"/>
<circle cx="244.212" cy="52.8186" r="0.757084" transform="rotate(15 244.212 52.8186)" fill="#41C6A7"/>
<circle cx="188.004" cy="75.3795" r="0.757084" transform="rotate(15 188.004 75.3795)" fill="#41C6A7"/>
<circle cx="234.806" cy="87.9203" r="0.757084" transform="rotate(15 234.806 87.9203)" fill="#41C6A7"/>
<circle cx="192.707" cy="57.8287" r="0.757084" transform="rotate(15 192.707 57.8287)" fill="#41C6A7"/>
<circle cx="239.509" cy="70.3694" r="0.757084" transform="rotate(15 239.509 70.3694)" fill="#41C6A7"/>
<circle cx="230.104" cy="105.471" r="0.757084" transform="rotate(15 230.104 105.471)" fill="#41C6A7"/>
<circle cx="232.511" cy="49.6836" r="0.757084" transform="rotate(15 232.511 49.6836)" fill="#41C6A7"/>
<circle cx="223.106" cy="84.785" r="0.757084" transform="rotate(15 223.106 84.785)" fill="#41C6A7"/>
<circle cx="227.809" cy="67.2344" r="0.757084" transform="rotate(15 227.809 67.2344)" fill="#41C6A7"/>
<circle cx="218.403" cy="102.336" r="0.757084" transform="rotate(15 218.403 102.336)" fill="#41C6A7"/>
<circle cx="209.11" cy="43.4131" r="0.757084" transform="rotate(15 209.11 43.4131)" fill="#41C6A7"/>
<circle cx="255.913" cy="55.9536" r="0.757084" transform="rotate(15 255.913 55.9536)" fill="#41C6A7"/>
<circle cx="199.705" cy="78.515" r="0.757084" transform="rotate(15 199.705 78.515)" fill="#41C6A7"/>
<circle cx="246.507" cy="91.0555" r="0.757084" transform="rotate(15 246.507 91.0555)" fill="#41C6A7"/>
<circle cx="204.407" cy="60.9637" r="0.757084" transform="rotate(15 204.407 60.9637)" fill="#41C6A7"/>
<circle cx="251.21" cy="73.5046" r="0.757084" transform="rotate(15 251.21 73.5046)" fill="#41C6A7"/>
<circle cx="260.615" cy="38.4029" r="0.757084" transform="rotate(15 260.615 38.4029)" fill="#41C6A7"/>
<circle cx="195.002" cy="96.0658" r="0.757084" transform="rotate(15 195.002 96.0658)" fill="#41C6A7"/>
<circle cx="241.804" cy="108.606" r="0.757084" transform="rotate(15 241.804 108.606)" fill="#41C6A7"/>
<circle cx="226.661" cy="48.1156" r="0.757084" transform="rotate(15 226.661 48.1156)" fill="#41C6A7"/>
<circle cx="217.256" cy="83.2175" r="0.757084" transform="rotate(15 217.256 83.2175)" fill="#41C6A7"/>
<circle cx="221.958" cy="65.6667" r="0.757084" transform="rotate(15 221.958 65.6667)" fill="#41C6A7"/>
<circle cx="212.552" cy="100.768" r="0.757084" transform="rotate(15 212.552 100.768)" fill="#41C6A7"/>
<circle cx="203.26" cy="41.8456" r="0.757084" transform="rotate(15 203.26 41.8456)" fill="#41C6A7"/>
<circle cx="250.062" cy="54.3861" r="0.757084" transform="rotate(15 250.062 54.3861)" fill="#41C6A7"/>
<circle cx="193.854" cy="76.9473" r="0.757084" transform="rotate(15 193.854 76.9473)" fill="#41C6A7"/>
<circle cx="240.656" cy="89.488" r="0.757084" transform="rotate(15 240.656 89.488)" fill="#41C6A7"/>
<circle cx="198.557" cy="59.3962" r="0.757084" transform="rotate(15 198.557 59.3962)" fill="#41C6A7"/>
<circle cx="245.36" cy="71.9369" r="0.757084" transform="rotate(15 245.36 71.9369)" fill="#41C6A7"/>
<circle cx="254.765" cy="36.8353" r="0.757084" transform="rotate(15 254.765 36.8353)" fill="#41C6A7"/>
<circle cx="189.152" cy="94.4982" r="0.757084" transform="rotate(15 189.152 94.4982)" fill="#41C6A7"/>
<circle cx="235.954" cy="107.039" r="0.757084" transform="rotate(15 235.954 107.039)" fill="#41C6A7"/>
<circle cx="191.559" cy="38.7103" r="0.757084" transform="rotate(15 191.559 38.7103)" fill="#41C6A7"/>
<circle cx="238.362" cy="51.2511" r="0.757084" transform="rotate(15 238.362 51.2511)" fill="#41C6A7"/>
<circle cx="228.956" cy="86.3525" r="0.757084" transform="rotate(15 228.956 86.3525)" fill="#41C6A7"/>
<circle cx="233.659" cy="68.8019" r="0.757084" transform="rotate(15 233.659 68.8019)" fill="#41C6A7"/>
<circle cx="224.253" cy="103.904" r="0.757084" transform="rotate(15 224.253 103.904)" fill="#41C6A7"/>
<circle cx="214.96" cy="44.9806" r="0.757084" transform="rotate(15 214.96 44.9806)" fill="#41C6A7"/>
<circle cx="205.555" cy="80.0825" r="0.757084" transform="rotate(15 205.555 80.0825)" fill="#41C6A7"/>
<circle cx="252.357" cy="92.623" r="0.757084" transform="rotate(15 252.357 92.623)" fill="#41C6A7"/>
<circle cx="210.258" cy="62.5315" r="0.757084" transform="rotate(15 210.258 62.5315)" fill="#41C6A7"/>
<circle cx="257.06" cy="75.0721" r="0.757084" transform="rotate(15 257.06 75.0721)" fill="#41C6A7"/>
<circle cx="200.852" cy="97.6333" r="0.757084" transform="rotate(15 200.852 97.6333)" fill="#41C6A7"/>
<circle cx="219.243" cy="52.3987" r="0.757084" transform="rotate(15 219.243 52.3987)" fill="#41C6A7"/>
<circle cx="256.64" cy="100.041" r="0.757084" transform="rotate(15 256.64 100.041)" fill="#41C6A7"/>
<circle cx="209.838" cy="87.5001" r="0.757084" transform="rotate(15 209.838 87.5001)" fill="#41C6A7"/>
<circle cx="214.54" cy="69.9493" r="0.757084" transform="rotate(15 214.54 69.9493)" fill="#41C6A7"/>
<circle cx="205.135" cy="105.051" r="0.757084" transform="rotate(15 205.135 105.051)" fill="#41C6A7"/>
<circle cx="195.842" cy="46.128" r="0.757084" transform="rotate(15 195.842 46.128)" fill="#41C6A7"/>
<circle cx="242.644" cy="58.6687" r="0.757084" transform="rotate(15 242.644 58.6687)" fill="#41C6A7"/>
<circle cx="233.239" cy="93.7706" r="0.757084" transform="rotate(15 233.239 93.7706)" fill="#41C6A7"/>
<circle cx="191.139" cy="63.6791" r="0.757084" transform="rotate(15 191.139 63.6791)" fill="#41C6A7"/>
<circle cx="237.942" cy="76.2198" r="0.757084" transform="rotate(15 237.942 76.2198)" fill="#41C6A7"/>
<circle cx="247.347" cy="41.1179" r="0.757084" transform="rotate(15 247.347 41.1179)" fill="#41C6A7"/>
<circle cx="230.944" cy="55.5337" r="0.757084" transform="rotate(15 230.944 55.5337)" fill="#41C6A7"/>
<circle cx="221.538" cy="90.6356" r="0.757084" transform="rotate(15 221.538 90.6356)" fill="#41C6A7"/>
<circle cx="226.241" cy="73.0845" r="0.757084" transform="rotate(15 226.241 73.0845)" fill="#41C6A7"/>
<circle cx="235.647" cy="37.9829" r="0.757084" transform="rotate(15 235.647 37.9829)" fill="#41C6A7"/>
<circle cx="216.835" cy="108.186" r="0.757084" transform="rotate(15 216.835 108.186)" fill="#41C6A7"/>
<circle cx="207.542" cy="49.2634" r="0.757084" transform="rotate(15 207.542 49.2634)" fill="#41C6A7"/>
<circle cx="254.345" cy="61.8039" r="0.757084" transform="rotate(15 254.345 61.8039)" fill="#41C6A7"/>
<circle cx="198.137" cy="84.3651" r="0.757084" transform="rotate(15 198.137 84.3651)" fill="#41C6A7"/>
<circle cx="244.94" cy="96.9056" r="0.757084" transform="rotate(15 244.94 96.9056)" fill="#41C6A7"/>
<circle cx="202.84" cy="66.8143" r="0.757084" transform="rotate(15 202.84 66.8143)" fill="#41C6A7"/>
<circle cx="249.642" cy="79.355" r="0.757084" transform="rotate(15 249.642 79.355)" fill="#41C6A7"/>
<circle cx="259.048" cy="44.253" r="0.757084" transform="rotate(15 259.048 44.253)" fill="#41C6A7"/>
<circle cx="193.434" cy="101.916" r="0.757084" transform="rotate(15 193.434 101.916)" fill="#41C6A7"/>
<circle cx="225.093" cy="53.9662" r="0.757084" transform="rotate(15 225.093 53.9662)" fill="#41C6A7"/>
<circle cx="215.688" cy="89.0679" r="0.757084" transform="rotate(15 215.688 89.0679)" fill="#41C6A7"/>
<circle cx="220.39" cy="71.5168" r="0.757084" transform="rotate(15 220.39 71.5168)" fill="#41C6A7"/>
<circle cx="229.797" cy="36.4151" r="0.757084" transform="rotate(15 229.797 36.4151)" fill="#41C6A7"/>
<circle cx="210.985" cy="106.619" r="0.757084" transform="rotate(15 210.985 106.619)" fill="#41C6A7"/>
<circle cx="201.692" cy="47.6957" r="0.757084" transform="rotate(15 201.692 47.6957)" fill="#41C6A7"/>
<circle cx="248.495" cy="60.2364" r="0.757084" transform="rotate(15 248.495 60.2364)" fill="#41C6A7"/>
<circle cx="192.287" cy="82.7976" r="0.757084" transform="rotate(15 192.287 82.7976)" fill="#41C6A7"/>
<circle cx="239.089" cy="95.3381" r="0.757084" transform="rotate(15 239.089 95.3381)" fill="#41C6A7"/>
<circle cx="196.989" cy="65.2466" r="0.757084" transform="rotate(15 196.989 65.2466)" fill="#41C6A7"/>
<circle cx="243.792" cy="77.7875" r="0.757084" transform="rotate(15 243.792 77.7875)" fill="#41C6A7"/>
<circle cx="253.197" cy="42.6854" r="0.757084" transform="rotate(15 253.197 42.6854)" fill="#41C6A7"/>
<circle cx="187.584" cy="100.348" r="0.757084" transform="rotate(15 187.584 100.348)" fill="#41C6A7"/>
<circle cx="189.992" cy="44.5605" r="0.757084" transform="rotate(15 189.992 44.5605)" fill="#41C6A7"/>
<circle cx="236.794" cy="57.1012" r="0.757084" transform="rotate(15 236.794 57.1012)" fill="#41C6A7"/>
<circle cx="227.389" cy="92.2031" r="0.757084" transform="rotate(15 227.389 92.2031)" fill="#41C6A7"/>
<circle cx="232.091" cy="74.6522" r="0.757084" transform="rotate(15 232.091 74.6522)" fill="#41C6A7"/>
<circle cx="241.497" cy="39.5504" r="0.757084" transform="rotate(15 241.497 39.5504)" fill="#41C6A7"/>
<circle cx="213.392" cy="50.8309" r="0.757084" transform="rotate(15 213.392 50.8309)" fill="#41C6A7"/>
<circle cx="260.195" cy="63.3717" r="0.757084" transform="rotate(15 260.195 63.3717)" fill="#41C6A7"/>
<circle cx="203.987" cy="85.9326" r="0.757084" transform="rotate(15 203.987 85.9326)" fill="#41C6A7"/>
<circle cx="250.79" cy="98.4734" r="0.757084" transform="rotate(15 250.79 98.4734)" fill="#41C6A7"/>
<circle cx="208.69" cy="68.3818" r="0.757084" transform="rotate(15 208.69 68.3818)" fill="#41C6A7"/>
<circle cx="255.493" cy="80.9225" r="0.757084" transform="rotate(15 255.493 80.9225)" fill="#41C6A7"/>
<circle cx="199.285" cy="103.484" r="0.757084" transform="rotate(15 199.285 103.484)" fill="#41C6A7"/>
<circle cx="217.675" cy="58.2488" r="0.757084" transform="rotate(15 217.675 58.2488)" fill="#41C6A7"/>
<circle cx="255.072" cy="105.891" r="0.757084" transform="rotate(15 255.072 105.891)" fill="#41C6A7"/>
<circle cx="208.27" cy="93.3507" r="0.757084" transform="rotate(15 208.27 93.3507)" fill="#41C6A7"/>
<circle cx="259.775" cy="88.3403" r="0.757084" transform="rotate(15 259.775 88.3403)" fill="#41C6A7"/>
<circle cx="212.972" cy="75.7997" r="0.757084" transform="rotate(15 212.972 75.7997)" fill="#41C6A7"/>
<circle cx="222.379" cy="40.698" r="0.757084" transform="rotate(15 222.379 40.698)" fill="#41C6A7"/>
<circle cx="194.275" cy="51.9784" r="0.757084" transform="rotate(15 194.275 51.9784)" fill="#41C6A7"/>
<circle cx="241.077" cy="64.5193" r="0.757084" transform="rotate(15 241.077 64.5193)" fill="#41C6A7"/>
<circle cx="231.672" cy="99.6207" r="0.757084" transform="rotate(15 231.672 99.6207)" fill="#41C6A7"/>
<circle cx="189.571" cy="69.5294" r="0.757084" transform="rotate(15 189.571 69.5294)" fill="#41C6A7"/>
<circle cx="236.374" cy="82.0699" r="0.757084" transform="rotate(15 236.374 82.0699)" fill="#41C6A7"/>
<circle cx="245.779" cy="46.968" r="0.757084" transform="rotate(15 245.779 46.968)" fill="#41C6A7"/>
<circle cx="229.377" cy="61.3838" r="0.757084" transform="rotate(15 229.377 61.3838)" fill="#41C6A7"/>
<circle cx="219.97" cy="96.4857" r="0.757084" transform="rotate(15 219.97 96.4857)" fill="#41C6A7"/>
<circle cx="224.674" cy="78.9349" r="0.757084" transform="rotate(15 224.674 78.9349)" fill="#41C6A7"/>
<circle cx="234.079" cy="43.833" r="0.757084" transform="rotate(15 234.079 43.833)" fill="#41C6A7"/>
<circle cx="205.975" cy="55.1136" r="0.757084" transform="rotate(15 205.975 55.1136)" fill="#41C6A7"/>
<circle cx="252.777" cy="67.6543" r="0.757084" transform="rotate(15 252.777 67.6543)" fill="#41C6A7"/>
<circle cx="196.569" cy="90.2154" r="0.757084" transform="rotate(15 196.569 90.2154)" fill="#41C6A7"/>
<circle cx="243.372" cy="102.756" r="0.757084" transform="rotate(15 243.372 102.756)" fill="#41C6A7"/>
<circle cx="201.272" cy="72.6644" r="0.757084" transform="rotate(15 201.272 72.6644)" fill="#41C6A7"/>
<circle cx="248.074" cy="85.2051" r="0.757084" transform="rotate(15 248.074 85.2051)" fill="#41C6A7"/>
<circle cx="210.677" cy="37.5627" r="0.757084" transform="rotate(15 210.677 37.5627)" fill="#41C6A7"/>
<circle cx="257.48" cy="50.1035" r="0.757084" transform="rotate(15 257.48 50.1035)" fill="#41C6A7"/>
<circle cx="191.867" cy="107.766" r="0.757084" transform="rotate(15 191.867 107.766)" fill="#41C6A7"/>
<circle cx="223.526" cy="59.8163" r="0.757084" transform="rotate(15 223.526 59.8163)" fill="#41C6A7"/>
<circle cx="260.923" cy="107.459" r="0.757084" transform="rotate(15 260.923 107.459)" fill="#41C6A7"/>
<circle cx="214.12" cy="94.9182" r="0.757084" transform="rotate(15 214.12 94.9182)" fill="#41C6A7"/>
<circle cx="218.823" cy="77.3674" r="0.757084" transform="rotate(15 218.823 77.3674)" fill="#41C6A7"/>
<circle cx="228.229" cy="42.2655" r="0.757084" transform="rotate(15 228.229 42.2655)" fill="#41C6A7"/>
<circle cx="200.125" cy="53.5461" r="0.757084" transform="rotate(15 200.125 53.5461)" fill="#41C6A7"/>
<circle cx="246.927" cy="66.0868" r="0.757084" transform="rotate(15 246.927 66.0868)" fill="#41C6A7"/>
<circle cx="190.719" cy="88.6477" r="0.757084" transform="rotate(15 190.719 88.6477)" fill="#41C6A7"/>
<circle cx="237.522" cy="101.188" r="0.757084" transform="rotate(15 237.522 101.188)" fill="#41C6A7"/>
<circle cx="195.422" cy="71.0969" r="0.757084" transform="rotate(15 195.422 71.0969)" fill="#41C6A7"/>
<circle cx="242.224" cy="83.6376" r="0.757084" transform="rotate(15 242.224 83.6376)" fill="#41C6A7"/>
<circle cx="204.827" cy="35.9952" r="0.757084" transform="rotate(15 204.827 35.9952)" fill="#41C6A7"/>
<circle cx="251.63" cy="48.536" r="0.757084" transform="rotate(15 251.63 48.536)" fill="#41C6A7"/>
<circle cx="188.424" cy="50.4109" r="0.757084" transform="rotate(15 188.424 50.4109)" fill="#41C6A7"/>
<circle cx="235.227" cy="62.9518" r="0.757084" transform="rotate(15 235.227 62.9518)" fill="#41C6A7"/>
<circle cx="225.821" cy="98.0532" r="0.757084" transform="rotate(15 225.821 98.0532)" fill="#41C6A7"/>
<circle cx="230.524" cy="80.5024" r="0.757084" transform="rotate(15 230.524 80.5024)" fill="#41C6A7"/>
<circle cx="239.929" cy="45.4005" r="0.757084" transform="rotate(15 239.929 45.4005)" fill="#41C6A7"/>
<circle cx="211.825" cy="56.6813" r="0.757084" transform="rotate(15 211.825 56.6813)" fill="#41C6A7"/>
<circle cx="258.628" cy="69.2218" r="0.757084" transform="rotate(15 258.628 69.2218)" fill="#41C6A7"/>
<circle cx="202.42" cy="91.7832" r="0.757084" transform="rotate(15 202.42 91.7832)" fill="#41C6A7"/>
<circle cx="249.222" cy="104.324" r="0.757084" transform="rotate(15 249.222 104.324)" fill="#41C6A7"/>
<circle cx="207.122" cy="74.2319" r="0.757084" transform="rotate(15 207.122 74.2319)" fill="#41C6A7"/>
<circle cx="253.925" cy="86.7728" r="0.757084" transform="rotate(15 253.925 86.7728)" fill="#41C6A7"/>
<circle cx="216.528" cy="39.1305" r="0.757084" transform="rotate(15 216.528 39.1305)" fill="#41C6A7"/>
<circle cx="197.717" cy="109.334" r="0.757084" transform="rotate(15 197.717 109.334)" fill="#41C6A7"/>
<circle cx="217.885" cy="45.7644" r="0.757084" transform="rotate(15 217.885 45.7644)" fill="#41C6A7"/>
<circle cx="255.282" cy="93.4067" r="0.757084" transform="rotate(15 255.282 93.4067)" fill="#41C6A7"/>
<circle cx="208.48" cy="80.8662" r="0.757084" transform="rotate(15 208.48 80.8662)" fill="#41C6A7"/>
<circle cx="259.986" cy="75.8559" r="0.757084" transform="rotate(15 259.986 75.8559)" fill="#41C6A7"/>
<circle cx="213.183" cy="63.3152" r="0.757084" transform="rotate(15 213.183 63.3152)" fill="#41C6A7"/>
<circle cx="203.778" cy="98.4171" r="0.757084" transform="rotate(15 203.778 98.4171)" fill="#41C6A7"/>
<circle cx="194.485" cy="39.4941" r="0.757084" transform="rotate(15 194.485 39.4941)" fill="#41C6A7"/>
<circle cx="241.287" cy="52.0348" r="0.757084" transform="rotate(15 241.287 52.0348)" fill="#41C6A7"/>
<circle cx="231.881" cy="87.1365" r="0.757084" transform="rotate(15 231.881 87.1365)" fill="#41C6A7"/>
<circle cx="189.781" cy="57.0452" r="0.757084" transform="rotate(15 189.781 57.0452)" fill="#41C6A7"/>
<circle cx="236.584" cy="69.5857" r="0.757084" transform="rotate(15 236.584 69.5857)" fill="#41C6A7"/>
<circle cx="227.178" cy="104.687" r="0.757084" transform="rotate(15 227.178 104.687)" fill="#41C6A7"/>
<circle cx="229.586" cy="48.8995" r="0.757084" transform="rotate(15 229.586 48.8995)" fill="#41C6A7"/>
<circle cx="220.181" cy="84.0015" r="0.757084" transform="rotate(15 220.181 84.0015)" fill="#41C6A7"/>
<circle cx="224.883" cy="66.4504" r="0.757084" transform="rotate(15 224.883 66.4504)" fill="#41C6A7"/>
<circle cx="215.478" cy="101.552" r="0.757084" transform="rotate(15 215.478 101.552)" fill="#41C6A7"/>
<circle cx="206.185" cy="42.6294" r="0.757084" transform="rotate(15 206.185 42.6294)" fill="#41C6A7"/>
<circle cx="252.987" cy="55.17" r="0.757084" transform="rotate(15 252.987 55.17)" fill="#41C6A7"/>
<circle cx="196.779" cy="77.7311" r="0.757084" transform="rotate(15 196.779 77.7311)" fill="#41C6A7"/>
<circle cx="243.582" cy="90.2717" r="0.757084" transform="rotate(15 243.582 90.2717)" fill="#41C6A7"/>
<circle cx="201.483" cy="60.1802" r="0.757084" transform="rotate(15 201.483 60.1802)" fill="#41C6A7"/>
<circle cx="248.285" cy="72.7207" r="0.757084" transform="rotate(15 248.285 72.7207)" fill="#41C6A7"/>
<circle cx="257.69" cy="37.619" r="0.757084" transform="rotate(15 257.69 37.619)" fill="#41C6A7"/>
<circle cx="192.076" cy="95.2819" r="0.757084" transform="rotate(15 192.076 95.2819)" fill="#41C6A7"/>
<circle cx="238.879" cy="107.823" r="0.757084" transform="rotate(15 238.879 107.823)" fill="#41C6A7"/>
<circle cx="223.736" cy="47.3319" r="0.757084" transform="rotate(15 223.736 47.3319)" fill="#41C6A7"/>
<circle cx="261.133" cy="94.9742" r="0.757084" transform="rotate(15 261.133 94.9742)" fill="#41C6A7"/>
<circle cx="214.331" cy="82.4337" r="0.757084" transform="rotate(15 214.331 82.4337)" fill="#41C6A7"/>
<circle cx="219.033" cy="64.8829" r="0.757084" transform="rotate(15 219.033 64.8829)" fill="#41C6A7"/>
<circle cx="209.628" cy="99.9846" r="0.757084" transform="rotate(15 209.628 99.9846)" fill="#41C6A7"/>
<circle cx="200.335" cy="41.0616" r="0.757084" transform="rotate(15 200.335 41.0616)" fill="#41C6A7"/>
<circle cx="247.137" cy="53.6023" r="0.757084" transform="rotate(15 247.137 53.6023)" fill="#41C6A7"/>
<circle cx="190.929" cy="76.1633" r="0.757084" transform="rotate(15 190.929 76.1633)" fill="#41C6A7"/>
<circle cx="237.731" cy="88.7042" r="0.757084" transform="rotate(15 237.731 88.7042)" fill="#41C6A7"/>
<circle cx="195.632" cy="58.6127" r="0.757084" transform="rotate(15 195.632 58.6127)" fill="#41C6A7"/>
<circle cx="242.434" cy="71.1532" r="0.757084" transform="rotate(15 242.434 71.1532)" fill="#41C6A7"/>
<circle cx="251.84" cy="36.0515" r="0.757084" transform="rotate(15 251.84 36.0515)" fill="#41C6A7"/>
<circle cx="233.029" cy="106.255" r="0.757084" transform="rotate(15 233.029 106.255)" fill="#41C6A7"/>
<circle cx="188.634" cy="37.9264" r="0.757084" transform="rotate(15 188.634 37.9264)" fill="#41C6A7"/>
<circle cx="235.436" cy="50.4672" r="0.757084" transform="rotate(15 235.436 50.4672)" fill="#41C6A7"/>
<circle cx="226.031" cy="85.569" r="0.757084" transform="rotate(15 226.031 85.569)" fill="#41C6A7"/>
<circle cx="230.734" cy="68.0179" r="0.757084" transform="rotate(15 230.734 68.0179)" fill="#41C6A7"/>
<circle cx="221.328" cy="103.12" r="0.757084" transform="rotate(15 221.328 103.12)" fill="#41C6A7"/>
<circle cx="212.035" cy="44.1969" r="0.757084" transform="rotate(15 212.035 44.1969)" fill="#41C6A7"/>
<circle cx="258.838" cy="56.7375" r="0.757084" transform="rotate(15 258.838 56.7375)" fill="#41C6A7"/>
<circle cx="202.63" cy="79.2986" r="0.757084" transform="rotate(15 202.63 79.2986)" fill="#41C6A7"/>
<circle cx="249.432" cy="91.8392" r="0.757084" transform="rotate(15 249.432 91.8392)" fill="#41C6A7"/>
<circle cx="207.333" cy="61.7477" r="0.757084" transform="rotate(15 207.333 61.7477)" fill="#41C6A7"/>
<circle cx="254.135" cy="74.2884" r="0.757084" transform="rotate(15 254.135 74.2884)" fill="#41C6A7"/>
<circle cx="197.927" cy="96.8494" r="0.757084" transform="rotate(15 197.927 96.8494)" fill="#41C6A7"/>
<circle cx="244.729" cy="109.39" r="0.757084" transform="rotate(15 244.729 109.39)" fill="#41C6A7"/>
<circle cx="216.318" cy="51.6147" r="0.757084" transform="rotate(15 216.318 51.6147)" fill="#41C6A7"/>
<circle cx="253.715" cy="99.2573" r="0.757084" transform="rotate(15 253.715 99.2573)" fill="#41C6A7"/>
<circle cx="206.913" cy="86.7164" r="0.757084" transform="rotate(15 206.913 86.7164)" fill="#41C6A7"/>
<circle cx="258.418" cy="81.706" r="0.757084" transform="rotate(15 258.418 81.706)" fill="#41C6A7"/>
<circle cx="211.615" cy="69.1655" r="0.757084" transform="rotate(15 211.615 69.1655)" fill="#41C6A7"/>
<circle cx="202.21" cy="104.267" r="0.757084" transform="rotate(15 202.21 104.267)" fill="#41C6A7"/>
<circle cx="192.917" cy="45.3445" r="0.757084" transform="rotate(15 192.917 45.3445)" fill="#41C6A7"/>
<circle cx="239.719" cy="57.885" r="0.757084" transform="rotate(15 239.719 57.885)" fill="#41C6A7"/>
<circle cx="230.314" cy="92.9868" r="0.757084" transform="rotate(15 230.314 92.9868)" fill="#41C6A7"/>
<circle cx="188.214" cy="62.8953" r="0.757084" transform="rotate(15 188.214 62.8953)" fill="#41C6A7"/>
<circle cx="235.016" cy="75.436" r="0.757084" transform="rotate(15 235.016 75.436)" fill="#41C6A7"/>
<circle cx="244.422" cy="40.3341" r="0.757084" transform="rotate(15 244.422 40.3341)" fill="#41C6A7"/>
<circle cx="228.019" cy="54.7497" r="0.757084" transform="rotate(15 228.019 54.7497)" fill="#41C6A7"/>
<circle cx="218.613" cy="89.8517" r="0.757084" transform="rotate(15 218.613 89.8517)" fill="#41C6A7"/>
<circle cx="223.316" cy="72.3008" r="0.757084" transform="rotate(15 223.316 72.3008)" fill="#41C6A7"/>
<circle cx="232.721" cy="37.1991" r="0.757084" transform="rotate(15 232.721 37.1991)" fill="#41C6A7"/>
<circle cx="213.91" cy="107.402" r="0.757084" transform="rotate(15 213.91 107.402)" fill="#41C6A7"/>
<circle cx="204.617" cy="48.4795" r="0.757084" transform="rotate(15 204.617 48.4795)" fill="#41C6A7"/>
<circle cx="251.42" cy="61.0203" r="0.757084" transform="rotate(15 251.42 61.0203)" fill="#41C6A7"/>
<circle cx="195.212" cy="83.5814" r="0.757084" transform="rotate(15 195.212 83.5814)" fill="#41C6A7"/>
<circle cx="242.014" cy="96.1218" r="0.757084" transform="rotate(15 242.014 96.1218)" fill="#41C6A7"/>
<circle cx="199.915" cy="66.0305" r="0.757084" transform="rotate(15 199.915 66.0305)" fill="#41C6A7"/>
<circle cx="246.717" cy="78.571" r="0.757084" transform="rotate(15 246.717 78.571)" fill="#41C6A7"/>
<circle cx="256.123" cy="43.4693" r="0.757084" transform="rotate(15 256.123 43.4693)" fill="#41C6A7"/>
<circle cx="190.509" cy="101.132" r="0.757084" transform="rotate(15 190.509 101.132)" fill="#41C6A7"/>
<circle cx="222.168" cy="53.1822" r="0.757084" transform="rotate(15 222.168 53.1822)" fill="#41C6A7"/>
<circle cx="259.565" cy="100.825" r="0.757084" transform="rotate(15 259.565 100.825)" fill="#41C6A7"/>
<circle cx="212.763" cy="88.2839" r="0.757084" transform="rotate(15 212.763 88.2839)" fill="#41C6A7"/>
<circle cx="217.466" cy="70.7333" r="0.757084" transform="rotate(15 217.466 70.7333)" fill="#41C6A7"/>
<circle cx="208.06" cy="105.835" r="0.757084" transform="rotate(15 208.06 105.835)" fill="#41C6A7"/>
<circle cx="198.767" cy="46.912" r="0.757084" transform="rotate(15 198.767 46.912)" fill="#41C6A7"/>
<circle cx="245.569" cy="59.4526" r="0.757084" transform="rotate(15 245.569 59.4526)" fill="#41C6A7"/>
<circle cx="189.362" cy="82.0137" r="0.757084" transform="rotate(15 189.362 82.0137)" fill="#41C6A7"/>
<circle cx="236.164" cy="94.5543" r="0.757084" transform="rotate(15 236.164 94.5543)" fill="#41C6A7"/>
<circle cx="194.064" cy="64.4628" r="0.757084" transform="rotate(15 194.064 64.4628)" fill="#41C6A7"/>
<circle cx="240.866" cy="77.0035" r="0.757084" transform="rotate(15 240.866 77.0035)" fill="#41C6A7"/>
<circle cx="250.273" cy="41.9018" r="0.757084" transform="rotate(15 250.273 41.9018)" fill="#41C6A7"/>
<circle cx="233.869" cy="56.3175" r="0.757084" transform="rotate(15 233.869 56.3175)" fill="#41C6A7"/>
<circle cx="224.464" cy="91.4193" r="0.757084" transform="rotate(15 224.464 91.4193)" fill="#41C6A7"/>
<circle cx="229.166" cy="73.8683" r="0.757084" transform="rotate(15 229.166 73.8683)" fill="#41C6A7"/>
<circle cx="238.571" cy="38.7666" r="0.757084" transform="rotate(15 238.571 38.7666)" fill="#41C6A7"/>
<circle cx="219.76" cy="108.97" r="0.757084" transform="rotate(15 219.76 108.97)" fill="#41C6A7"/>
<circle cx="210.467" cy="50.047" r="0.757084" transform="rotate(15 210.467 50.047)" fill="#41C6A7"/>
<circle cx="257.27" cy="62.5879" r="0.757084" transform="rotate(15 257.27 62.5879)" fill="#41C6A7"/>
<circle cx="201.063" cy="85.1489" r="0.757084" transform="rotate(15 201.063 85.1489)" fill="#41C6A7"/>
<circle cx="247.864" cy="97.6896" r="0.757084" transform="rotate(15 247.864 97.6896)" fill="#41C6A7"/>
<circle cx="205.765" cy="67.598" r="0.757084" transform="rotate(15 205.765 67.598)" fill="#41C6A7"/>
<circle cx="252.568" cy="80.1385" r="0.757084" transform="rotate(15 252.568 80.1385)" fill="#41C6A7"/>
<circle cx="196.36" cy="102.7" r="0.757084" transform="rotate(15 196.36 102.7)" fill="#41C6A7"/>
<circle cx="214.751" cy="57.4651" r="0.757084" transform="rotate(15 214.751 57.4651)" fill="#41C6A7"/>
<circle cx="252.148" cy="105.107" r="0.757084" transform="rotate(15 252.148 105.107)" fill="#41C6A7"/>
<circle cx="205.345" cy="92.5668" r="0.757084" transform="rotate(15 205.345 92.5668)" fill="#41C6A7"/>
<circle cx="256.85" cy="87.5566" r="0.757084" transform="rotate(15 256.85 87.5566)" fill="#41C6A7"/>
<circle cx="210.048" cy="75.0159" r="0.757084" transform="rotate(15 210.048 75.0159)" fill="#41C6A7"/>
<circle cx="219.453" cy="39.9141" r="0.757084" transform="rotate(15 219.453 39.9141)" fill="#41C6A7"/>
<circle cx="191.349" cy="51.1946" r="0.757084" transform="rotate(15 191.349 51.1946)" fill="#41C6A7"/>
<circle cx="238.152" cy="63.7353" r="0.757084" transform="rotate(15 238.152 63.7353)" fill="#41C6A7"/>
<circle cx="228.746" cy="98.8372" r="0.757084" transform="rotate(15 228.746 98.8372)" fill="#41C6A7"/>
<circle cx="233.449" cy="81.2861" r="0.757084" transform="rotate(15 233.449 81.2861)" fill="#41C6A7"/>
<circle cx="242.854" cy="46.1844" r="0.757084" transform="rotate(15 242.854 46.1844)" fill="#41C6A7"/>
<circle cx="226.451" cy="60.6001" r="0.757084" transform="rotate(15 226.451 60.6001)" fill="#41C6A7"/>
<circle cx="217.046" cy="95.7018" r="0.757084" transform="rotate(15 217.046 95.7018)" fill="#41C6A7"/>
<circle cx="221.748" cy="78.1511" r="0.757084" transform="rotate(15 221.748 78.1511)" fill="#41C6A7"/>
<circle cx="231.154" cy="43.0494" r="0.757084" transform="rotate(15 231.154 43.0494)" fill="#41C6A7"/>
<circle cx="203.05" cy="54.3298" r="0.757084" transform="rotate(15 203.05 54.3298)" fill="#41C6A7"/>
<circle cx="249.852" cy="66.8704" r="0.757084" transform="rotate(15 249.852 66.8704)" fill="#41C6A7"/>
<circle cx="193.644" cy="89.4315" r="0.757084" transform="rotate(15 193.644 89.4315)" fill="#41C6A7"/>
<circle cx="240.446" cy="101.972" r="0.757084" transform="rotate(15 240.446 101.972)" fill="#41C6A7"/>
<circle cx="198.347" cy="71.8807" r="0.757084" transform="rotate(15 198.347 71.8807)" fill="#41C6A7"/>
<circle cx="245.149" cy="84.4214" r="0.757084" transform="rotate(15 245.149 84.4214)" fill="#41C6A7"/>
<circle cx="207.753" cy="36.7788" r="0.757084" transform="rotate(15 207.753 36.7788)" fill="#41C6A7"/>
<circle cx="254.555" cy="49.3197" r="0.757084" transform="rotate(15 254.555 49.3197)" fill="#41C6A7"/>
<circle cx="188.942" cy="106.983" r="0.757084" transform="rotate(15 188.942 106.983)" fill="#41C6A7"/>
<circle cx="220.601" cy="59.0326" r="0.757084" transform="rotate(15 220.601 59.0326)" fill="#41C6A7"/>
<circle cx="257.998" cy="106.675" r="0.757084" transform="rotate(15 257.998 106.675)" fill="#41C6A7"/>
<circle cx="211.195" cy="94.1343" r="0.757084" transform="rotate(15 211.195 94.1343)" fill="#41C6A7"/>
<circle cx="215.898" cy="76.5836" r="0.757084" transform="rotate(15 215.898 76.5836)" fill="#41C6A7"/>
<circle cx="225.303" cy="41.4818" r="0.757084" transform="rotate(15 225.303 41.4818)" fill="#41C6A7"/>
<circle cx="197.2" cy="52.7623" r="0.757084" transform="rotate(15 197.2 52.7623)" fill="#41C6A7"/>
<circle cx="244.002" cy="65.3028" r="0.757084" transform="rotate(15 244.002 65.3028)" fill="#41C6A7"/>
<circle cx="187.794" cy="87.864" r="0.757084" transform="rotate(15 187.794 87.864)" fill="#41C6A7"/>
<circle cx="234.596" cy="100.405" r="0.757084" transform="rotate(15 234.596 100.405)" fill="#41C6A7"/>
<circle cx="192.496" cy="70.3132" r="0.757084" transform="rotate(15 192.496 70.3132)" fill="#41C6A7"/>
<circle cx="239.299" cy="82.8539" r="0.757084" transform="rotate(15 239.299 82.8539)" fill="#41C6A7"/>
<circle cx="248.705" cy="47.7522" r="0.757084" transform="rotate(15 248.705 47.7522)" fill="#41C6A7"/>
<circle cx="232.301" cy="62.1678" r="0.757084" transform="rotate(15 232.301 62.1678)" fill="#41C6A7"/>
<circle cx="222.896" cy="97.2695" r="0.757084" transform="rotate(15 222.896 97.2695)" fill="#41C6A7"/>
<circle cx="227.598" cy="79.7186" r="0.757084" transform="rotate(15 227.598 79.7186)" fill="#41C6A7"/>
<circle cx="237.004" cy="44.6169" r="0.757084" transform="rotate(15 237.004 44.6169)" fill="#41C6A7"/>
<circle cx="208.9" cy="55.8976" r="0.757084" transform="rotate(15 208.9 55.8976)" fill="#41C6A7"/>
<circle cx="255.702" cy="68.438" r="0.757084" transform="rotate(15 255.702 68.438)" fill="#41C6A7"/>
<circle cx="199.495" cy="90.9993" r="0.757084" transform="rotate(15 199.495 90.9993)" fill="#41C6A7"/>
<circle cx="246.297" cy="103.54" r="0.757084" transform="rotate(15 246.297 103.54)" fill="#41C6A7"/>
<circle cx="204.197" cy="73.4484" r="0.757084" transform="rotate(15 204.197 73.4484)" fill="#41C6A7"/>
<circle cx="251" cy="85.9889" r="0.757084" transform="rotate(15 251 85.9889)" fill="#41C6A7"/>
<circle cx="213.603" cy="38.3465" r="0.757084" transform="rotate(15 213.603 38.3465)" fill="#41C6A7"/>
<circle cx="260.405" cy="50.8872" r="0.757084" transform="rotate(15 260.405 50.8872)" fill="#41C6A7"/>
<circle cx="194.792" cy="108.55" r="0.757084" transform="rotate(15 194.792 108.55)" fill="#41C6A7"/>
</g>
</g>
<g filter="url(#filter0_f)">
<circle cx="43.6485" cy="44.6899" r="22.7188" transform="rotate(8.96402 43.6485 44.6899)" fill="#C9FFF1"/>
</g>
<circle cx="39.8475" cy="37.4006" r="23.2088" transform="rotate(-174.511 39.8475 37.4006)" fill="white"/>
<circle cx="42.3119" cy="43.1518" r="22.3873" transform="rotate(-174.511 42.3119 43.1518)" stroke="#41C6A7" stroke-width="1.64318"/>
<path d="M42.8128 54.1546L42.6308 52.2602C41.4528 52.2957 40.432 52.1062 39.5684 51.6918C38.7187 51.2605 37.9726 50.6949 37.3302 49.995L38.5756 48.6396C39.1321 49.2545 39.7222 49.734 40.346 50.0782C40.9836 50.4055 41.7004 50.5854 42.4962 50.6177L41.9257 44.6804C40.3053 44.4786 39.0929 44.0744 38.2885 43.4677C37.498 42.8442 37.0451 41.9318 36.9296 40.7305C36.8704 40.1144 36.9257 39.5573 37.0954 39.0591C37.2791 38.5441 37.5541 38.0902 37.9205 37.6975C38.2869 37.3048 38.7378 36.9816 39.273 36.7281C39.8067 36.4592 40.4095 36.2614 41.0812 36.1347L40.8992 34.2403L42.3315 34.1027L42.5113 35.974C43.5675 35.9657 44.4944 36.1487 45.292 36.5228C46.1035 36.88 46.8235 37.4171 47.452 38.1339L46.1449 39.332C45.708 38.8299 45.2038 38.4354 44.6322 38.1484C44.0591 37.8459 43.3977 37.6763 42.6481 37.6396L43.1675 43.0455L43.3799 43.0717C45.0157 43.2721 46.2289 43.684 47.0193 44.3075C47.8237 44.9141 48.2844 45.8258 48.4013 47.0425C48.5286 48.3671 48.2002 49.4789 47.4162 50.3781C46.646 51.2604 45.5283 51.8419 44.0631 52.1226L44.2451 54.017L42.8128 54.1546ZM46.5873 47.3334C46.5118 46.5479 46.2231 45.9695 45.7211 45.598C45.2345 45.2251 44.4395 44.9595 43.3363 44.8013L43.8824 50.4845C44.7946 50.2725 45.4889 49.8949 45.9652 49.3517C46.4554 48.7917 46.6628 48.1189 46.5873 47.3334ZM38.7414 40.4165C38.8169 41.202 39.0972 41.7735 39.5823 42.131C40.0814 42.4716 40.8048 42.7208 41.7525 42.8784L41.2619 37.7728C40.4406 37.9605 39.795 38.279 39.3253 38.7283C38.8709 39.1761 38.6763 39.7388 38.7414 40.4165Z" fill="#41C6A7"/>
<g filter="url(#filter1_f)">
<circle cx="109.923" cy="132.647" r="32.5725" transform="rotate(8.96402 109.923 132.647)" fill="#7892FF" fill-opacity="0.6"/>
</g>
<circle cx="100.544" cy="136.412" r="32.9919" transform="rotate(8.96402 100.544 136.412)" fill="white"/>
<circle cx="104.651" cy="130.553" r="32.1703" transform="rotate(8.96402 104.651 130.553)" stroke="#3139CE" stroke-width="1.64318"/>
<path d="M102.397 142.954C101.354 142.79 100.433 142.489 99.6337 142.051C98.8561 141.616 98.2152 141.092 97.7108 140.478C97.2099 139.843 96.8547 139.13 96.6454 138.34C96.4394 137.528 96.4084 136.666 96.5524 135.753C96.6278 135.275 96.738 134.858 96.8832 134.503C97.0318 134.125 97.1861 133.782 97.3461 133.474L94.9346 133.093L95.279 130.91L99.3526 131.552L105.256 129.277L95.7725 127.781L96.1169 125.598L108.338 127.526C108.609 127.078 108.794 126.54 108.893 125.91C109.078 124.737 108.857 123.811 108.229 123.133C107.626 122.437 106.695 121.989 105.435 121.79C104.588 121.657 103.758 121.693 102.946 121.899C102.134 122.105 101.343 122.537 100.571 123.194L99.1161 121.194C100.186 120.339 101.31 119.781 102.486 119.522C103.663 119.262 104.848 119.226 106.043 119.415C106.999 119.566 107.848 119.833 108.589 120.217C109.352 120.605 109.976 121.093 110.462 121.682C110.973 122.252 111.324 122.92 111.515 123.685C111.732 124.431 111.771 125.239 111.634 126.108C111.518 126.847 111.32 127.462 111.043 127.952L113.585 128.353L113.24 130.537L109.134 129.889L103.231 132.164L112.747 133.665L112.402 135.849L100.149 133.916C99.927 134.192 99.7452 134.498 99.6035 134.832C99.4618 135.166 99.3566 135.55 99.2881 135.984C99.0825 137.288 99.3085 138.326 99.966 139.097C100.645 139.872 101.637 140.363 102.94 140.568C103.853 140.712 104.74 140.663 105.602 140.421C106.49 140.16 107.452 139.632 108.49 138.839L109.87 140.893C108.836 141.799 107.679 142.429 106.398 142.784C105.121 143.117 103.787 143.174 102.397 142.954Z" fill="#3139CE"/>
<g filter="url(#filter2_f)">
<circle cx="331.249" cy="35.4764" r="17.9395" transform="rotate(8.96402 331.249 35.4764)" fill="#7892FF" fill-opacity="0.6"/>
</g>
<circle cx="337.296" cy="29.9953" r="19.2908" transform="rotate(174.683 337.296 29.9953)" fill="white"/>
<circle cx="335.27" cy="33.3725" r="18.4692" transform="rotate(174.683 335.27 33.3725)" stroke="#3139CE" stroke-width="1.64318"/>
<path d="M333.675 38.4213L333.911 40.9567L332.298 41.1069L332.062 38.5714L330.525 38.7144L330.4 37.3699L331.937 37.2269L331.763 35.3637L330.227 35.5067L330.102 34.1622L331.638 34.0192L331.05 27.6998L336.39 27.2029C337.594 27.0908 338.548 27.3508 339.252 27.9827C339.97 28.6134 340.383 29.5178 340.493 30.6959C340.603 31.874 340.363 32.8391 339.774 33.5914C339.197 34.3296 338.307 34.7548 337.103 34.8668L333.377 35.2136L333.55 37.0767L338.832 36.5852L338.958 37.9297L333.675 38.4213ZM333.252 33.869L336.978 33.5222C337.618 33.4627 338.096 33.2503 338.411 32.8852C338.738 32.5189 338.873 32.0284 338.816 31.4138L338.718 30.3573C338.661 29.7427 338.437 29.2856 338.048 28.986C337.671 28.6852 337.163 28.5647 336.522 28.6242L332.796 28.971L333.252 33.869Z" fill="#3139CE"/>
<g filter="url(#filter3_f)">
<circle cx="230.697" cy="79.9581" r="27.5639" transform="rotate(8.96402 230.697 79.9581)" fill="#C9FFF1"/>
</g>
<circle r="26.2619" transform="matrix(-0.99185 0.127408 0.127408 0.99185 235.62 88.2743)" fill="white"/>
<circle r="25.4403" transform="matrix(-0.99185 0.127408 0.127408 0.99185 232.333 84.166)" stroke="#41C6A7" stroke-width="1.64318"/>
<path d="M234.26 94.5633C231.967 94.8578 230.075 94.2801 228.583 92.8302C227.09 91.3803 226.149 89.1359 225.758 86.0969C225.368 83.058 225.712 80.6485 226.789 78.8685C227.867 77.0885 229.552 76.0512 231.844 75.7568C233.372 75.5605 234.685 75.7536 235.784 76.3362C236.898 76.8992 237.822 77.7691 238.555 78.9457L236.996 80.2052C236.511 79.3143 235.85 78.6401 235.015 78.1825C234.177 77.7076 233.203 77.5415 232.091 77.6843C230.72 77.8605 229.661 78.4114 228.915 79.3368C228.169 80.2623 227.778 81.4157 227.744 82.7969L234.438 81.937L234.662 83.6822L227.864 84.5555L228.185 87.0561L234.984 86.1828L235.208 87.928L228.513 88.788C228.913 90.1134 229.582 91.1307 230.521 91.8398C231.476 92.5467 232.64 92.812 234.012 92.6358C235.158 92.4886 236.083 92.0609 236.786 91.3527C237.49 90.6446 237.969 89.771 238.224 88.7321L240.061 89.6347C239.859 90.2608 239.599 90.8502 239.282 91.4029C238.964 91.9555 238.569 92.4477 238.094 92.8793C237.638 93.3086 237.093 93.6699 236.46 93.963C235.826 94.2562 235.093 94.4563 234.26 94.5633Z" fill="#41C6A7"/>
<defs>
<filter id="filter0_f" x="0.354898" y="1.3964" width="86.587" height="86.587" filterUnits="userSpaceOnUse" color-interpolation-filters="sRGB">
<feFlood flood-opacity="0" result="BackgroundImageFix"/>
<feBlend mode="normal" in="SourceGraphic" in2="BackgroundImageFix" result="shape"/>
<feGaussianBlur stdDeviation="10.2857" result="effect1_foregroundBlur"/>
</filter>
<filter id="filter1_f" x="56.7738" y="79.4983" width="106.297" height="106.297" filterUnits="userSpaceOnUse" color-interpolation-filters="sRGB">
<feFlood flood-opacity="0" result="BackgroundImageFix"/>
<feBlend mode="normal" in="SourceGraphic" in2="BackgroundImageFix" result="shape"/>
<feGaussianBlur stdDeviation="10.2857" result="effect1_foregroundBlur"/>
</filter>
<filter id="filter2_f" x="296.395" y="0.621838" width="69.7091" height="69.7091" filterUnits="userSpaceOnUse" color-interpolation-filters="sRGB">
<feFlood flood-opacity="0" result="BackgroundImageFix"/>
<feBlend mode="normal" in="SourceGraphic" in2="BackgroundImageFix" result="shape"/>
<feGaussianBlur stdDeviation="8.45623" result="effect1_foregroundBlur"/>
</filter>
<filter id="filter3_f" x="182.558" y="31.8189" width="96.2785" height="96.2785" filterUnits="userSpaceOnUse" color-interpolation-filters="sRGB">
<feFlood flood-opacity="0" result="BackgroundImageFix"/>
<feBlend mode="normal" in="SourceGraphic" in2="BackgroundImageFix" result="shape"/>
<feGaussianBlur stdDeviation="10.2857" result="effect1_foregroundBlur"/>
</filter>
</defs>
</svg>
