<svg width="300" height="167" viewBox="0 0 300 167" fill="none" xmlns="http://www.w3.org/2000/svg">
<g filter="url(#filter0_d)">
<path fill-rule="evenodd" clip-rule="evenodd" d="M230.408 112.002C230.408 111.161 231.382 110.696 232.036 111.224L248.904 124.858C249.399 125.259 249.399 126.014 248.904 126.414L232.036 140.048C231.382 140.576 230.408 140.111 230.408 139.27L230.408 133.123C230.408 132.571 229.96 132.123 229.408 132.123L218.731 132.123L155 132.123C154.448 132.123 154 131.676 154 131.123L154 120.151C154 119.599 154.448 119.151 155 119.151L218.731 119.151L229.408 119.151C229.96 119.151 230.408 118.703 230.408 118.151L230.408 112.002Z" fill="white"/>
</g>
<g filter="url(#filter1_d)">
<path fill-rule="evenodd" clip-rule="evenodd" d="M200.408 73.0017C200.408 72.1608 201.382 71.6954 202.036 72.2239L218.904 85.8579C219.399 86.2582 219.399 87.0131 218.904 87.4133L202.036 101.047C201.382 101.576 200.408 101.11 200.408 100.27L200.408 94.1228C200.408 93.5705 199.96 93.1228 199.408 93.1228L188.731 93.1228L125 93.1228C124.448 93.1228 124 92.675 124 92.1228L124 81.1505C124 80.5982 124.448 80.1505 125 80.1505L188.731 80.1505L199.408 80.1505C199.96 80.1505 200.408 79.7027 200.408 79.1505L200.408 73.0017Z" fill="white"/>
</g>
<mask id="mask0" mask-type="alpha" maskUnits="userSpaceOnUse" x="64" y="21" width="108" height="123">
<rect x="63.9346" y="27.1855" width="100.279" height="116.992" rx="12.72" transform="rotate(-3.98145 63.9346 27.1855)" fill="white"/>
</mask>
<g mask="url(#mask0)">
<circle cx="124.989" cy="42.3832" r="1.25809" transform="rotate(7.75711 124.989 42.3832)" fill="#5DD9BD"/>
<circle cx="116.838" cy="102.219" r="1.25809" transform="rotate(7.75711 116.838 102.219)" fill="#5DD9BD"/>
<circle cx="120.914" cy="72.3007" r="1.25809" transform="rotate(7.75711 120.914 72.3007)" fill="#5DD9BD"/>
<circle cx="112.763" cy="132.136" r="1.25809" transform="rotate(7.75711 112.763 132.136)" fill="#5DD9BD"/>
<circle cx="85.0987" cy="36.9491" r="1.25809" transform="rotate(7.75711 85.0987 36.9491)" fill="#5DD9BD"/>
<circle cx="164.88" cy="47.8168" r="1.25809" transform="rotate(7.75711 164.88 47.8168)" fill="#5DD9BD"/>
<circle cx="76.9479" cy="96.7845" r="1.25809" transform="rotate(7.75711 76.9479 96.7845)" fill="#5DD9BD"/>
<circle cx="156.729" cy="107.652" r="1.25809" transform="rotate(7.75711 156.729 107.652)" fill="#5DD9BD"/>
<circle cx="81.0235" cy="66.8666" r="1.25809" transform="rotate(7.75711 81.0235 66.8666)" fill="#5DD9BD"/>
<circle cx="160.804" cy="77.7347" r="1.25809" transform="rotate(7.75711 160.804 77.7347)" fill="#5DD9BD"/>
<circle cx="72.8727" cy="126.702" r="1.25809" transform="rotate(7.75711 72.8727 126.702)" fill="#5DD9BD"/>
<circle cx="152.653" cy="137.57" r="1.25809" transform="rotate(7.75711 152.653 137.57)" fill="#5DD9BD"/>
<circle cx="65.1534" cy="34.2323" r="1.25809" transform="rotate(7.75711 65.1534 34.2323)" fill="#5DD9BD"/>
<circle cx="144.935" cy="45.1" r="1.25809" transform="rotate(7.75711 144.935 45.1)" fill="#5DD9BD"/>
<circle cx="136.784" cy="104.935" r="1.25809" transform="rotate(7.75711 136.784 104.935)" fill="#5DD9BD"/>
<circle cx="140.859" cy="75.0179" r="1.25809" transform="rotate(7.75711 140.859 75.0179)" fill="#5DD9BD"/>
<circle cx="132.708" cy="134.853" r="1.25809" transform="rotate(7.75711 132.708 134.853)" fill="#5DD9BD"/>
<circle cx="105.044" cy="39.6664" r="1.25809" transform="rotate(7.75711 105.044 39.6664)" fill="#5DD9BD"/>
<circle cx="96.8932" cy="99.5013" r="1.25809" transform="rotate(7.75711 96.8932 99.5013)" fill="#5DD9BD"/>
<circle cx="100.968" cy="69.5839" r="1.25809" transform="rotate(7.75711 100.968 69.5839)" fill="#5DD9BD"/>
<circle cx="92.8175" cy="129.419" r="1.25809" transform="rotate(7.75711 92.8175 129.419)" fill="#5DD9BD"/>
<circle cx="172.598" cy="140.287" r="1.25809" transform="rotate(7.75711 172.598 140.287)" fill="#5DD9BD"/>
<circle cx="134.962" cy="43.7416" r="1.25809" transform="rotate(7.75711 134.962 43.7416)" fill="#5DD9BD"/>
<circle cx="126.811" cy="103.577" r="1.25809" transform="rotate(7.75711 126.811 103.577)" fill="#5DD9BD"/>
<circle cx="130.886" cy="73.6591" r="1.25809" transform="rotate(7.75711 130.886 73.6591)" fill="#5DD9BD"/>
<circle cx="122.735" cy="133.495" r="1.25809" transform="rotate(7.75711 122.735 133.495)" fill="#5DD9BD"/>
<circle cx="95.0714" cy="38.3075" r="1.25809" transform="rotate(7.75711 95.0714 38.3075)" fill="#5DD9BD"/>
<circle cx="86.9205" cy="98.1429" r="1.25809" transform="rotate(7.75711 86.9205 98.1429)" fill="#5DD9BD"/>
<circle cx="166.701" cy="109.011" r="1.25809" transform="rotate(7.75711 166.701 109.011)" fill="#5DD9BD"/>
<circle cx="90.9957" cy="68.225" r="1.25809" transform="rotate(7.75711 90.9957 68.225)" fill="#5DD9BD"/>
<circle cx="170.776" cy="79.0931" r="1.25809" transform="rotate(7.75711 170.776 79.0931)" fill="#5DD9BD"/>
<circle cx="82.8453" cy="128.061" r="1.25809" transform="rotate(7.75711 82.8453 128.061)" fill="#5DD9BD"/>
<circle cx="162.626" cy="138.929" r="1.25809" transform="rotate(7.75711 162.626 138.929)" fill="#5DD9BD"/>
<circle cx="75.1261" cy="35.5907" r="1.25809" transform="rotate(7.75711 75.1261 35.5907)" fill="#5DD9BD"/>
<circle cx="154.907" cy="46.4584" r="1.25809" transform="rotate(7.75711 154.907 46.4584)" fill="#5DD9BD"/>
<circle cx="66.9752" cy="95.4261" r="1.25809" transform="rotate(7.75711 66.9752 95.4261)" fill="#5DD9BD"/>
<circle cx="146.756" cy="106.294" r="1.25809" transform="rotate(7.75711 146.756 106.294)" fill="#5DD9BD"/>
<circle cx="71.0509" cy="65.5082" r="1.25809" transform="rotate(7.75711 71.0509 65.5082)" fill="#5DD9BD"/>
<circle cx="150.832" cy="76.3763" r="1.25809" transform="rotate(7.75711 150.832 76.3763)" fill="#5DD9BD"/>
<circle cx="142.681" cy="136.212" r="1.25809" transform="rotate(7.75711 142.681 136.212)" fill="#5DD9BD"/>
<circle cx="115.017" cy="41.0243" r="1.25809" transform="rotate(7.75711 115.017 41.0243)" fill="#5DD9BD"/>
<circle cx="106.866" cy="100.86" r="1.25809" transform="rotate(7.75711 106.866 100.86)" fill="#5DD9BD"/>
<circle cx="110.941" cy="70.9423" r="1.25809" transform="rotate(7.75711 110.941 70.9423)" fill="#5DD9BD"/>
<circle cx="102.791" cy="130.778" r="1.25809" transform="rotate(7.75711 102.791 130.778)" fill="#5DD9BD"/>
<circle cx="123.63" cy="52.3558" r="1.25809" transform="rotate(7.75711 123.63 52.3558)" fill="#5DD9BD"/>
<circle cx="115.48" cy="112.191" r="1.25809" transform="rotate(7.75711 115.48 112.191)" fill="#5DD9BD"/>
<circle cx="119.555" cy="82.2733" r="1.25809" transform="rotate(7.75711 119.555 82.2733)" fill="#5DD9BD"/>
<circle cx="127.706" cy="22.4379" r="1.25809" transform="rotate(7.75711 127.706 22.4379)" fill="#5DD9BD"/>
<circle cx="111.404" cy="142.109" r="1.25809" transform="rotate(7.75711 111.404 142.109)" fill="#5DD9BD"/>
<circle cx="83.7403" cy="46.9218" r="1.25809" transform="rotate(7.75711 83.7403 46.9218)" fill="#5DD9BD"/>
<circle cx="163.521" cy="57.7894" r="1.25809" transform="rotate(7.75711 163.521 57.7894)" fill="#5DD9BD"/>
<circle cx="75.5895" cy="106.757" r="1.25809" transform="rotate(7.75711 75.5895 106.757)" fill="#5DD9BD"/>
<circle cx="155.37" cy="117.625" r="1.25809" transform="rotate(7.75711 155.37 117.625)" fill="#5DD9BD"/>
<circle cx="79.6651" cy="76.8392" r="1.25809" transform="rotate(7.75711 79.6651 76.8392)" fill="#5DD9BD"/>
<circle cx="159.445" cy="87.7074" r="1.25809" transform="rotate(7.75711 159.445 87.7074)" fill="#5DD9BD"/>
<circle cx="167.597" cy="27.8715" r="1.25809" transform="rotate(7.75711 167.597 27.8715)" fill="#5DD9BD"/>
<circle cx="71.5143" cy="136.675" r="1.25809" transform="rotate(7.75711 71.5143 136.675)" fill="#5DD9BD"/>
<circle cx="63.795" cy="44.205" r="1.25809" transform="rotate(7.75711 63.795 44.205)" fill="#5DD9BD"/>
<circle cx="143.576" cy="55.0726" r="1.25809" transform="rotate(7.75711 143.576 55.0726)" fill="#5DD9BD"/>
<circle cx="135.425" cy="114.908" r="1.25809" transform="rotate(7.75711 135.425 114.908)" fill="#5DD9BD"/>
<circle cx="139.501" cy="84.9906" r="1.25809" transform="rotate(7.75711 139.501 84.9906)" fill="#5DD9BD"/>
<circle cx="147.651" cy="25.1547" r="1.25809" transform="rotate(7.75711 147.651 25.1547)" fill="#5DD9BD"/>
<circle cx="103.686" cy="49.639" r="1.25809" transform="rotate(7.75711 103.686 49.639)" fill="#5DD9BD"/>
<circle cx="95.5348" cy="109.474" r="1.25809" transform="rotate(7.75711 95.5348 109.474)" fill="#5DD9BD"/>
<circle cx="99.6105" cy="79.5565" r="1.25809" transform="rotate(7.75711 99.6105 79.5565)" fill="#5DD9BD"/>
<circle cx="107.761" cy="19.7211" r="1.25809" transform="rotate(7.75711 107.761 19.7211)" fill="#5DD9BD"/>
<circle cx="91.4591" cy="139.392" r="1.25809" transform="rotate(7.75711 91.4591 139.392)" fill="#5DD9BD"/>
<circle cx="133.603" cy="53.7142" r="1.25809" transform="rotate(7.75711 133.603 53.7142)" fill="#5DD9BD"/>
<circle cx="125.452" cy="113.549" r="1.25809" transform="rotate(7.75711 125.452 113.549)" fill="#5DD9BD"/>
<circle cx="129.528" cy="83.6317" r="1.25809" transform="rotate(7.75711 129.528 83.6317)" fill="#5DD9BD"/>
<circle cx="137.679" cy="23.7963" r="1.25809" transform="rotate(7.75711 137.679 23.7963)" fill="#5DD9BD"/>
<circle cx="121.377" cy="143.467" r="1.25809" transform="rotate(7.75711 121.377 143.467)" fill="#5DD9BD"/>
<circle cx="93.7125" cy="48.2802" r="1.25809" transform="rotate(7.75711 93.7125 48.2802)" fill="#5DD9BD"/>
<circle cx="85.5621" cy="108.116" r="1.25809" transform="rotate(7.75711 85.5621 108.116)" fill="#5DD9BD"/>
<circle cx="165.343" cy="118.983" r="1.25809" transform="rotate(7.75711 165.343 118.983)" fill="#5DD9BD"/>
<circle cx="89.6373" cy="78.1981" r="1.25809" transform="rotate(7.75711 89.6373 78.1981)" fill="#5DD9BD"/>
<circle cx="169.418" cy="89.0658" r="1.25809" transform="rotate(7.75711 169.418 89.0658)" fill="#5DD9BD"/>
<circle cx="81.4864" cy="138.034" r="1.25809" transform="rotate(7.75711 81.4864 138.034)" fill="#5DD9BD"/>
<circle cx="73.7677" cy="45.5634" r="1.25809" transform="rotate(7.75711 73.7677 45.5634)" fill="#5DD9BD"/>
<circle cx="153.548" cy="56.431" r="1.25809" transform="rotate(7.75711 153.548 56.431)" fill="#5DD9BD"/>
<circle cx="65.6173" cy="105.399" r="1.25809" transform="rotate(7.75711 65.6173 105.399)" fill="#5DD9BD"/>
<circle cx="145.398" cy="116.266" r="1.25809" transform="rotate(7.75711 145.398 116.266)" fill="#5DD9BD"/>
<circle cx="69.6925" cy="75.4808" r="1.25809" transform="rotate(7.75711 69.6925 75.4808)" fill="#5DD9BD"/>
<circle cx="149.473" cy="86.349" r="1.25809" transform="rotate(7.75711 149.473 86.349)" fill="#5DD9BD"/>
<circle cx="157.624" cy="26.5131" r="1.25809" transform="rotate(7.75711 157.624 26.5131)" fill="#5DD9BD"/>
<circle cx="113.658" cy="50.9974" r="1.25809" transform="rotate(7.75711 113.658 50.9974)" fill="#5DD9BD"/>
<circle cx="105.507" cy="110.832" r="1.25809" transform="rotate(7.75711 105.507 110.832)" fill="#5DD9BD"/>
<circle cx="109.583" cy="80.9149" r="1.25809" transform="rotate(7.75711 109.583 80.9149)" fill="#5DD9BD"/>
<circle cx="117.734" cy="21.0795" r="1.25809" transform="rotate(7.75711 117.734 21.0795)" fill="#5DD9BD"/>
<circle cx="101.432" cy="140.75" r="1.25809" transform="rotate(7.75711 101.432 140.75)" fill="#5DD9BD"/>
<circle cx="122.272" cy="62.3285" r="1.25809" transform="rotate(7.75711 122.272 62.3285)" fill="#5DD9BD"/>
<circle cx="114.121" cy="122.163" r="1.25809" transform="rotate(7.75711 114.121 122.163)" fill="#5DD9BD"/>
<circle cx="118.197" cy="92.2455" r="1.25809" transform="rotate(7.75711 118.197 92.2455)" fill="#5DD9BD"/>
<circle cx="126.348" cy="32.4105" r="1.25809" transform="rotate(7.75711 126.348 32.4105)" fill="#5DD9BD"/>
<circle cx="82.3819" cy="56.8944" r="1.25809" transform="rotate(7.75711 82.3819 56.8944)" fill="#5DD9BD"/>
<circle cx="162.163" cy="67.7621" r="1.25809" transform="rotate(7.75711 162.163 67.7621)" fill="#5DD9BD"/>
<circle cx="74.2311" cy="116.73" r="1.25809" transform="rotate(7.75711 74.2311 116.73)" fill="#5DD9BD"/>
<circle cx="154.012" cy="127.598" r="1.25809" transform="rotate(7.75711 154.012 127.598)" fill="#5DD9BD"/>
<circle cx="78.3063" cy="86.8119" r="1.25809" transform="rotate(7.75711 78.3063 86.8119)" fill="#5DD9BD"/>
<circle cx="158.087" cy="97.6796" r="1.25809" transform="rotate(7.75711 158.087 97.6796)" fill="#5DD9BD"/>
<circle cx="86.4576" cy="26.9764" r="1.25809" transform="rotate(7.75711 86.4576 26.9764)" fill="#5DD9BD"/>
<circle cx="166.238" cy="37.8441" r="1.25809" transform="rotate(7.75711 166.238 37.8441)" fill="#5DD9BD"/>
<circle cx="142.217" cy="65.0453" r="1.25809" transform="rotate(7.75711 142.217 65.0453)" fill="#5DD9BD"/>
<circle cx="134.067" cy="124.881" r="1.25809" transform="rotate(7.75711 134.067 124.881)" fill="#5DD9BD"/>
<circle cx="138.142" cy="94.9628" r="1.25809" transform="rotate(7.75711 138.142 94.9628)" fill="#5DD9BD"/>
<circle cx="66.5118" cy="24.2596" r="1.25809" transform="rotate(7.75711 66.5118 24.2596)" fill="#5DD9BD"/>
<circle cx="146.293" cy="35.1273" r="1.25809" transform="rotate(7.75711 146.293 35.1273)" fill="#5DD9BD"/>
<circle cx="102.327" cy="59.6112" r="1.25809" transform="rotate(7.75711 102.327 59.6112)" fill="#5DD9BD"/>
<circle cx="94.1759" cy="119.447" r="1.25809" transform="rotate(7.75711 94.1759 119.447)" fill="#5DD9BD"/>
<circle cx="98.2516" cy="89.5287" r="1.25809" transform="rotate(7.75711 98.2516 89.5287)" fill="#5DD9BD"/>
<circle cx="106.402" cy="29.6937" r="1.25809" transform="rotate(7.75711 106.402 29.6937)" fill="#5DD9BD"/>
<circle cx="132.245" cy="63.6869" r="1.25809" transform="rotate(7.75711 132.245 63.6869)" fill="#5DD9BD"/>
<circle cx="124.094" cy="123.522" r="1.25809" transform="rotate(7.75711 124.094 123.522)" fill="#5DD9BD"/>
<circle cx="128.169" cy="93.6044" r="1.25809" transform="rotate(7.75711 128.169 93.6044)" fill="#5DD9BD"/>
<circle cx="136.32" cy="33.7689" r="1.25809" transform="rotate(7.75711 136.32 33.7689)" fill="#5DD9BD"/>
<circle cx="92.3546" cy="58.2528" r="1.25809" transform="rotate(7.75711 92.3546 58.2528)" fill="#5DD9BD"/>
<circle cx="172.135" cy="69.1205" r="1.25809" transform="rotate(7.75711 172.135 69.1205)" fill="#5DD9BD"/>
<circle cx="84.2037" cy="118.088" r="1.25809" transform="rotate(7.75711 84.2037 118.088)" fill="#5DD9BD"/>
<circle cx="163.984" cy="128.956" r="1.25809" transform="rotate(7.75711 163.984 128.956)" fill="#5DD9BD"/>
<circle cx="88.2789" cy="88.1703" r="1.25809" transform="rotate(7.75711 88.2789 88.1703)" fill="#5DD9BD"/>
<circle cx="168.06" cy="99.0385" r="1.25809" transform="rotate(7.75711 168.06 99.0385)" fill="#5DD9BD"/>
<circle cx="96.4298" cy="28.3348" r="1.25809" transform="rotate(7.75711 96.4298 28.3348)" fill="#5DD9BD"/>
<circle cx="72.4093" cy="55.5355" r="1.25809" transform="rotate(7.75711 72.4093 55.5355)" fill="#5DD9BD"/>
<circle cx="152.19" cy="66.4037" r="1.25809" transform="rotate(7.75711 152.19 66.4037)" fill="#5DD9BD"/>
<circle cx="64.2584" cy="115.371" r="1.25809" transform="rotate(7.75711 64.2584 115.371)" fill="#5DD9BD"/>
<circle cx="144.039" cy="126.239" r="1.25809" transform="rotate(7.75711 144.039 126.239)" fill="#5DD9BD"/>
<circle cx="68.3341" cy="85.4535" r="1.25809" transform="rotate(7.75711 68.3341 85.4535)" fill="#5DD9BD"/>
<circle cx="148.114" cy="96.3212" r="1.25809" transform="rotate(7.75711 148.114 96.3212)" fill="#5DD9BD"/>
<circle cx="76.485" cy="25.618" r="1.25809" transform="rotate(7.75711 76.485 25.618)" fill="#5DD9BD"/>
<circle cx="156.265" cy="36.4857" r="1.25809" transform="rotate(7.75711 156.265 36.4857)" fill="#5DD9BD"/>
<circle cx="112.299" cy="60.9696" r="1.25809" transform="rotate(7.75711 112.299 60.9696)" fill="#5DD9BD"/>
<circle cx="104.149" cy="120.805" r="1.25809" transform="rotate(7.75711 104.149 120.805)" fill="#5DD9BD"/>
<circle cx="108.224" cy="90.8876" r="1.25809" transform="rotate(7.75711 108.224 90.8876)" fill="#5DD9BD"/>
<circle cx="116.375" cy="31.0516" r="1.25809" transform="rotate(7.75711 116.375 31.0516)" fill="#5DD9BD"/>
<circle cx="129.976" cy="43.0624" r="1.25809" transform="rotate(7.75711 129.976 43.0624)" fill="#5DD9BD"/>
<circle cx="121.825" cy="102.898" r="1.25809" transform="rotate(7.75711 121.825 102.898)" fill="#5DD9BD"/>
<circle cx="125.9" cy="72.9799" r="1.25809" transform="rotate(7.75711 125.9 72.9799)" fill="#5DD9BD"/>
<circle cx="117.75" cy="132.816" r="1.25809" transform="rotate(7.75711 117.75 132.816)" fill="#5DD9BD"/>
<circle cx="90.0851" cy="37.6283" r="1.25809" transform="rotate(7.75711 90.0851 37.6283)" fill="#5DD9BD"/>
<circle cx="169.866" cy="48.4965" r="1.25809" transform="rotate(7.75711 169.866 48.4965)" fill="#5DD9BD"/>
<circle cx="81.9342" cy="97.4637" r="1.25809" transform="rotate(7.75711 81.9342 97.4637)" fill="#5DD9BD"/>
<circle cx="161.715" cy="108.331" r="1.25809" transform="rotate(7.75711 161.715 108.331)" fill="#5DD9BD"/>
<circle cx="86.0099" cy="67.5463" r="1.25809" transform="rotate(7.75711 86.0099 67.5463)" fill="#5DD9BD"/>
<circle cx="165.791" cy="78.4139" r="1.25809" transform="rotate(7.75711 165.791 78.4139)" fill="#5DD9BD"/>
<circle cx="77.8585" cy="127.382" r="1.25809" transform="rotate(7.75711 77.8585 127.382)" fill="#5DD9BD"/>
<circle cx="157.64" cy="138.249" r="1.25809" transform="rotate(7.75711 157.64 138.249)" fill="#5DD9BD"/>
<circle cx="70.1398" cy="34.9115" r="1.25809" transform="rotate(7.75711 70.1398 34.9115)" fill="#5DD9BD"/>
<circle cx="149.921" cy="45.7792" r="1.25809" transform="rotate(7.75711 149.921 45.7792)" fill="#5DD9BD"/>
<circle cx="141.77" cy="105.615" r="1.25809" transform="rotate(7.75711 141.77 105.615)" fill="#5DD9BD"/>
<circle cx="66.0646" cy="64.829" r="1.25809" transform="rotate(7.75711 66.0646 64.829)" fill="#5DD9BD"/>
<circle cx="145.845" cy="75.6967" r="1.25809" transform="rotate(7.75711 145.845 75.6967)" fill="#5DD9BD"/>
<circle cx="137.694" cy="135.533" r="1.25809" transform="rotate(7.75711 137.694 135.533)" fill="#5DD9BD"/>
<circle cx="110.03" cy="40.3451" r="1.25809" transform="rotate(7.75711 110.03 40.3451)" fill="#5DD9BD"/>
<circle cx="101.88" cy="100.181" r="1.25809" transform="rotate(7.75711 101.88 100.181)" fill="#5DD9BD"/>
<circle cx="105.955" cy="70.2631" r="1.25809" transform="rotate(7.75711 105.955 70.2631)" fill="#5DD9BD"/>
<circle cx="97.8038" cy="130.099" r="1.25809" transform="rotate(7.75711 97.8038 130.099)" fill="#5DD9BD"/>
<circle cx="139.948" cy="44.4208" r="1.25809" transform="rotate(7.75711 139.948 44.4208)" fill="#5DD9BD"/>
<circle cx="131.797" cy="104.256" r="1.25809" transform="rotate(7.75711 131.797 104.256)" fill="#5DD9BD"/>
<circle cx="135.873" cy="74.3383" r="1.25809" transform="rotate(7.75711 135.873 74.3383)" fill="#5DD9BD"/>
<circle cx="127.722" cy="134.174" r="1.25809" transform="rotate(7.75711 127.722 134.174)" fill="#5DD9BD"/>
<circle cx="100.058" cy="38.9867" r="1.25809" transform="rotate(7.75711 100.058 38.9867)" fill="#5DD9BD"/>
<circle cx="91.9068" cy="98.8226" r="1.25809" transform="rotate(7.75711 91.9068 98.8226)" fill="#5DD9BD"/>
<circle cx="171.688" cy="109.69" r="1.25809" transform="rotate(7.75711 171.688 109.69)" fill="#5DD9BD"/>
<circle cx="95.982" cy="68.9047" r="1.25809" transform="rotate(7.75711 95.982 68.9047)" fill="#5DD9BD"/>
<circle cx="87.8316" cy="128.74" r="1.25809" transform="rotate(7.75711 87.8316 128.74)" fill="#5DD9BD"/>
<circle cx="167.612" cy="139.608" r="1.25809" transform="rotate(7.75711 167.612 139.608)" fill="#5DD9BD"/>
<circle cx="80.1124" cy="36.2699" r="1.25809" transform="rotate(7.75711 80.1124 36.2699)" fill="#5DD9BD"/>
<circle cx="159.893" cy="47.1381" r="1.25809" transform="rotate(7.75711 159.893 47.1381)" fill="#5DD9BD"/>
<circle cx="71.9615" cy="96.1053" r="1.25809" transform="rotate(7.75711 71.9615 96.1053)" fill="#5DD9BD"/>
<circle cx="151.742" cy="106.973" r="1.25809" transform="rotate(7.75711 151.742 106.973)" fill="#5DD9BD"/>
<circle cx="76.0372" cy="66.1879" r="1.25809" transform="rotate(7.75711 76.0372 66.1879)" fill="#5DD9BD"/>
<circle cx="155.817" cy="77.0551" r="1.25809" transform="rotate(7.75711 155.817 77.0551)" fill="#5DD9BD"/>
<circle cx="67.8863" cy="126.023" r="1.25809" transform="rotate(7.75711 67.8863 126.023)" fill="#5DD9BD"/>
<circle cx="147.667" cy="136.891" r="1.25809" transform="rotate(7.75711 147.667 136.891)" fill="#5DD9BD"/>
<circle cx="120.003" cy="41.7035" r="1.25809" transform="rotate(7.75711 120.003 41.7035)" fill="#5DD9BD"/>
<circle cx="111.852" cy="101.539" r="1.25809" transform="rotate(7.75711 111.852 101.539)" fill="#5DD9BD"/>
<circle cx="115.927" cy="71.6215" r="1.25809" transform="rotate(7.75711 115.927 71.6215)" fill="#5DD9BD"/>
<circle cx="107.776" cy="131.457" r="1.25809" transform="rotate(7.75711 107.776 131.457)" fill="#5DD9BD"/>
<circle cx="128.617" cy="53.0345" r="1.25809" transform="rotate(7.75711 128.617 53.0345)" fill="#5DD9BD"/>
<circle cx="120.466" cy="112.87" r="1.25809" transform="rotate(7.75711 120.466 112.87)" fill="#5DD9BD"/>
<circle cx="124.542" cy="82.9525" r="1.25809" transform="rotate(7.75711 124.542 82.9525)" fill="#5DD9BD"/>
<circle cx="132.692" cy="23.1171" r="1.25809" transform="rotate(7.75711 132.692 23.1171)" fill="#5DD9BD"/>
<circle cx="116.391" cy="142.788" r="1.25809" transform="rotate(7.75711 116.391 142.788)" fill="#5DD9BD"/>
<circle cx="88.7267" cy="47.601" r="1.25809" transform="rotate(7.75711 88.7267 47.601)" fill="#5DD9BD"/>
<circle cx="168.507" cy="58.4686" r="1.25809" transform="rotate(7.75711 168.507 58.4686)" fill="#5DD9BD"/>
<circle cx="80.5758" cy="107.436" r="1.25809" transform="rotate(7.75711 80.5758 107.436)" fill="#5DD9BD"/>
<circle cx="160.357" cy="118.304" r="1.25809" transform="rotate(7.75711 160.357 118.304)" fill="#5DD9BD"/>
<circle cx="84.6515" cy="77.5189" r="1.25809" transform="rotate(7.75711 84.6515 77.5189)" fill="#5DD9BD"/>
<circle cx="164.432" cy="88.3866" r="1.25809" transform="rotate(7.75711 164.432 88.3866)" fill="#5DD9BD"/>
<circle cx="172.583" cy="28.5507" r="1.25809" transform="rotate(7.75711 172.583 28.5507)" fill="#5DD9BD"/>
<circle cx="76.5006" cy="137.354" r="1.25809" transform="rotate(7.75711 76.5006 137.354)" fill="#5DD9BD"/>
<circle cx="68.7814" cy="44.8842" r="1.25809" transform="rotate(7.75711 68.7814 44.8842)" fill="#5DD9BD"/>
<circle cx="148.562" cy="55.7518" r="1.25809" transform="rotate(7.75711 148.562 55.7518)" fill="#5DD9BD"/>
<circle cx="140.411" cy="115.587" r="1.25809" transform="rotate(7.75711 140.411 115.587)" fill="#5DD9BD"/>
<circle cx="64.7062" cy="74.8021" r="1.25809" transform="rotate(7.75711 64.7062 74.8021)" fill="#5DD9BD"/>
<circle cx="144.487" cy="85.6698" r="1.25809" transform="rotate(7.75711 144.487 85.6698)" fill="#5DD9BD"/>
<circle cx="152.638" cy="25.8339" r="1.25809" transform="rotate(7.75711 152.638 25.8339)" fill="#5DD9BD"/>
<circle cx="108.671" cy="50.3177" r="1.25809" transform="rotate(7.75711 108.671 50.3177)" fill="#5DD9BD"/>
<circle cx="100.521" cy="110.153" r="1.25809" transform="rotate(7.75711 100.521 110.153)" fill="#5DD9BD"/>
<circle cx="104.596" cy="80.2357" r="1.25809" transform="rotate(7.75711 104.596 80.2357)" fill="#5DD9BD"/>
<circle cx="112.747" cy="20.3998" r="1.25809" transform="rotate(7.75711 112.747 20.3998)" fill="#5DD9BD"/>
<circle cx="96.4454" cy="140.071" r="1.25809" transform="rotate(7.75711 96.4454 140.071)" fill="#5DD9BD"/>
<circle cx="138.589" cy="54.3934" r="1.25809" transform="rotate(7.75711 138.589 54.3934)" fill="#5DD9BD"/>
<circle cx="130.439" cy="114.229" r="1.25809" transform="rotate(7.75711 130.439 114.229)" fill="#5DD9BD"/>
<circle cx="134.514" cy="84.3109" r="1.25809" transform="rotate(7.75711 134.514 84.3109)" fill="#5DD9BD"/>
<circle cx="142.665" cy="24.4755" r="1.25809" transform="rotate(7.75711 142.665 24.4755)" fill="#5DD9BD"/>
<circle cx="126.363" cy="144.146" r="1.25809" transform="rotate(7.75711 126.363 144.146)" fill="#5DD9BD"/>
<circle cx="98.6993" cy="48.9594" r="1.25809" transform="rotate(7.75711 98.6993 48.9594)" fill="#5DD9BD"/>
<circle cx="90.5484" cy="108.795" r="1.25809" transform="rotate(7.75711 90.5484 108.795)" fill="#5DD9BD"/>
<circle cx="170.329" cy="119.662" r="1.25809" transform="rotate(7.75711 170.329 119.662)" fill="#5DD9BD"/>
<circle cx="94.6236" cy="78.8773" r="1.25809" transform="rotate(7.75711 94.6236 78.8773)" fill="#5DD9BD"/>
<circle cx="86.4728" cy="138.713" r="1.25809" transform="rotate(7.75711 86.4728 138.713)" fill="#5DD9BD"/>
<circle cx="78.7535" cy="46.2426" r="1.25809" transform="rotate(7.75711 78.7535 46.2426)" fill="#5DD9BD"/>
<circle cx="158.534" cy="57.1102" r="1.25809" transform="rotate(7.75711 158.534 57.1102)" fill="#5DD9BD"/>
<circle cx="70.6031" cy="106.078" r="1.25809" transform="rotate(7.75711 70.6031 106.078)" fill="#5DD9BD"/>
<circle cx="150.383" cy="116.946" r="1.25809" transform="rotate(7.75711 150.383 116.946)" fill="#5DD9BD"/>
<circle cx="74.6783" cy="76.16" r="1.25809" transform="rotate(7.75711 74.6783 76.16)" fill="#5DD9BD"/>
<circle cx="154.459" cy="87.0282" r="1.25809" transform="rotate(7.75711 154.459 87.0282)" fill="#5DD9BD"/>
<circle cx="162.61" cy="27.1923" r="1.25809" transform="rotate(7.75711 162.61 27.1923)" fill="#5DD9BD"/>
<circle cx="66.5275" cy="135.995" r="1.25809" transform="rotate(7.75711 66.5275 135.995)" fill="#5DD9BD"/>
<circle cx="118.645" cy="51.6761" r="1.25809" transform="rotate(7.75711 118.645 51.6761)" fill="#5DD9BD"/>
<circle cx="110.494" cy="111.512" r="1.25809" transform="rotate(7.75711 110.494 111.512)" fill="#5DD9BD"/>
<circle cx="114.569" cy="81.5941" r="1.25809" transform="rotate(7.75711 114.569 81.5941)" fill="#5DD9BD"/>
<circle cx="122.72" cy="21.7587" r="1.25809" transform="rotate(7.75711 122.72 21.7587)" fill="#5DD9BD"/>
<circle cx="106.418" cy="141.43" r="1.25809" transform="rotate(7.75711 106.418 141.43)" fill="#5DD9BD"/>
<circle cx="127.258" cy="63.0072" r="1.25809" transform="rotate(7.75711 127.258 63.0072)" fill="#5DD9BD"/>
<circle cx="119.108" cy="122.843" r="1.25809" transform="rotate(7.75711 119.108 122.843)" fill="#5DD9BD"/>
<circle cx="123.183" cy="92.9252" r="1.25809" transform="rotate(7.75711 123.183 92.9252)" fill="#5DD9BD"/>
<circle cx="131.334" cy="33.0897" r="1.25809" transform="rotate(7.75711 131.334 33.0897)" fill="#5DD9BD"/>
<circle cx="87.3683" cy="57.5731" r="1.25809" transform="rotate(7.75711 87.3683 57.5731)" fill="#5DD9BD"/>
<circle cx="167.149" cy="68.4413" r="1.25809" transform="rotate(7.75711 167.149 68.4413)" fill="#5DD9BD"/>
<circle cx="79.2174" cy="117.409" r="1.25809" transform="rotate(7.75711 79.2174 117.409)" fill="#5DD9BD"/>
<circle cx="158.998" cy="128.277" r="1.25809" transform="rotate(7.75711 158.998 128.277)" fill="#5DD9BD"/>
<circle cx="83.2926" cy="87.4911" r="1.25809" transform="rotate(7.75711 83.2926 87.4911)" fill="#5DD9BD"/>
<circle cx="163.073" cy="98.3588" r="1.25809" transform="rotate(7.75711 163.073 98.3588)" fill="#5DD9BD"/>
<circle cx="91.4435" cy="27.6556" r="1.25809" transform="rotate(7.75711 91.4435 27.6556)" fill="#5DD9BD"/>
<circle cx="171.224" cy="38.5233" r="1.25809" transform="rotate(7.75711 171.224 38.5233)" fill="#5DD9BD"/>
<circle cx="67.423" cy="54.8568" r="1.25809" transform="rotate(7.75711 67.423 54.8568)" fill="#5DD9BD"/>
<circle cx="147.204" cy="65.724" r="1.25809" transform="rotate(7.75711 147.204 65.724)" fill="#5DD9BD"/>
<circle cx="139.053" cy="125.56" r="1.25809" transform="rotate(7.75711 139.053 125.56)" fill="#5DD9BD"/>
<circle cx="143.129" cy="95.642" r="1.25809" transform="rotate(7.75711 143.129 95.642)" fill="#5DD9BD"/>
<circle cx="71.4986" cy="24.9388" r="1.25809" transform="rotate(7.75711 71.4986 24.9388)" fill="#5DD9BD"/>
<circle cx="151.279" cy="35.8065" r="1.25809" transform="rotate(7.75711 151.279 35.8065)" fill="#5DD9BD"/>
<circle cx="107.313" cy="60.2904" r="1.25809" transform="rotate(7.75711 107.313 60.2904)" fill="#5DD9BD"/>
<circle cx="99.1622" cy="120.126" r="1.25809" transform="rotate(7.75711 99.1622 120.126)" fill="#5DD9BD"/>
<circle cx="103.238" cy="90.2084" r="1.25809" transform="rotate(7.75711 103.238 90.2084)" fill="#5DD9BD"/>
<circle cx="111.389" cy="30.3724" r="1.25809" transform="rotate(7.75711 111.389 30.3724)" fill="#5DD9BD"/>
<circle cx="137.231" cy="64.3661" r="1.25809" transform="rotate(7.75711 137.231 64.3661)" fill="#5DD9BD"/>
<circle cx="129.08" cy="124.202" r="1.25809" transform="rotate(7.75711 129.08 124.202)" fill="#5DD9BD"/>
<circle cx="133.156" cy="94.2836" r="1.25809" transform="rotate(7.75711 133.156 94.2836)" fill="#5DD9BD"/>
<circle cx="141.306" cy="34.4481" r="1.25809" transform="rotate(7.75711 141.306 34.4481)" fill="#5DD9BD"/>
<circle cx="97.3409" cy="58.932" r="1.25809" transform="rotate(7.75711 97.3409 58.932)" fill="#5DD9BD"/>
<circle cx="89.19" cy="118.768" r="1.25809" transform="rotate(7.75711 89.19 118.768)" fill="#5DD9BD"/>
<circle cx="168.971" cy="129.635" r="1.25809" transform="rotate(7.75711 168.971 129.635)" fill="#5DD9BD"/>
<circle cx="93.2652" cy="88.85" r="1.25809" transform="rotate(7.75711 93.2652 88.85)" fill="#5DD9BD"/>
<circle cx="101.416" cy="29.014" r="1.25809" transform="rotate(7.75711 101.416 29.014)" fill="#5DD9BD"/>
<circle cx="77.3956" cy="56.2152" r="1.25809" transform="rotate(7.75711 77.3956 56.2152)" fill="#5DD9BD"/>
<circle cx="157.176" cy="67.0829" r="1.25809" transform="rotate(7.75711 157.176 67.0829)" fill="#5DD9BD"/>
<circle cx="69.2447" cy="116.051" r="1.25809" transform="rotate(7.75711 69.2447 116.051)" fill="#5DD9BD"/>
<circle cx="149.025" cy="126.918" r="1.25809" transform="rotate(7.75711 149.025 126.918)" fill="#5DD9BD"/>
<circle cx="73.3199" cy="86.1327" r="1.25809" transform="rotate(7.75711 73.3199 86.1327)" fill="#5DD9BD"/>
<circle cx="153.101" cy="97.0004" r="1.25809" transform="rotate(7.75711 153.101 97.0004)" fill="#5DD9BD"/>
<circle cx="81.4708" cy="26.2972" r="1.25809" transform="rotate(7.75711 81.4708 26.2972)" fill="#5DD9BD"/>
<circle cx="161.252" cy="37.1649" r="1.25809" transform="rotate(7.75711 161.252 37.1649)" fill="#5DD9BD"/>
<circle cx="117.286" cy="61.6488" r="1.25809" transform="rotate(7.75711 117.286 61.6488)" fill="#5DD9BD"/>
<circle cx="109.135" cy="121.485" r="1.25809" transform="rotate(7.75711 109.135 121.485)" fill="#5DD9BD"/>
<circle cx="113.211" cy="91.5668" r="1.25809" transform="rotate(7.75711 113.211 91.5668)" fill="#5DD9BD"/>
<circle cx="121.361" cy="31.7313" r="1.25809" transform="rotate(7.75711 121.361 31.7313)" fill="#5DD9BD"/>
<circle cx="129.296" cy="48.0482" r="1.25809" transform="rotate(7.75711 129.296 48.0482)" fill="#5DD9BD"/>
<circle cx="121.146" cy="107.884" r="1.25809" transform="rotate(7.75711 121.146 107.884)" fill="#5DD9BD"/>
<circle cx="125.221" cy="77.9662" r="1.25809" transform="rotate(7.75711 125.221 77.9662)" fill="#5DD9BD"/>
<circle cx="117.07" cy="137.802" r="1.25809" transform="rotate(7.75711 117.07 137.802)" fill="#5DD9BD"/>
<circle cx="89.4059" cy="42.6146" r="1.25809" transform="rotate(7.75711 89.4059 42.6146)" fill="#5DD9BD"/>
<circle cx="169.187" cy="53.4823" r="1.25809" transform="rotate(7.75711 169.187 53.4823)" fill="#5DD9BD"/>
<circle cx="81.255" cy="102.45" r="1.25809" transform="rotate(7.75711 81.255 102.45)" fill="#5DD9BD"/>
<circle cx="161.036" cy="113.318" r="1.25809" transform="rotate(7.75711 161.036 113.318)" fill="#5DD9BD"/>
<circle cx="85.3302" cy="72.5326" r="1.25809" transform="rotate(7.75711 85.3302 72.5326)" fill="#5DD9BD"/>
<circle cx="165.111" cy="83.4003" r="1.25809" transform="rotate(7.75711 165.111 83.4003)" fill="#5DD9BD"/>
<circle cx="77.1798" cy="132.368" r="1.25809" transform="rotate(7.75711 77.1798 132.368)" fill="#5DD9BD"/>
<circle cx="156.96" cy="143.236" r="1.25809" transform="rotate(7.75711 156.96 143.236)" fill="#5DD9BD"/>
<circle cx="69.4606" cy="39.8978" r="1.25809" transform="rotate(7.75711 69.4606 39.8978)" fill="#5DD9BD"/>
<circle cx="149.241" cy="50.7655" r="1.25809" transform="rotate(7.75711 149.241 50.7655)" fill="#5DD9BD"/>
<circle cx="141.09" cy="110.601" r="1.25809" transform="rotate(7.75711 141.09 110.601)" fill="#5DD9BD"/>
<circle cx="65.3854" cy="69.8153" r="1.25809" transform="rotate(7.75711 65.3854 69.8153)" fill="#5DD9BD"/>
<circle cx="145.166" cy="80.683" r="1.25809" transform="rotate(7.75711 145.166 80.683)" fill="#5DD9BD"/>
<circle cx="153.317" cy="20.848" r="1.25809" transform="rotate(7.75711 153.317 20.848)" fill="#5DD9BD"/>
<circle cx="137.015" cy="140.519" r="1.25809" transform="rotate(7.75711 137.015 140.519)" fill="#5DD9BD"/>
<circle cx="109.351" cy="45.3319" r="1.25809" transform="rotate(7.75711 109.351 45.3319)" fill="#5DD9BD"/>
<circle cx="101.2" cy="105.167" r="1.25809" transform="rotate(7.75711 101.2 105.167)" fill="#5DD9BD"/>
<circle cx="105.275" cy="75.2494" r="1.25809" transform="rotate(7.75711 105.275 75.2494)" fill="#5DD9BD"/>
<circle cx="97.1246" cy="135.085" r="1.25809" transform="rotate(7.75711 97.1246 135.085)" fill="#5DD9BD"/>
<circle cx="139.269" cy="49.4071" r="1.25809" transform="rotate(7.75711 139.269 49.4071)" fill="#5DD9BD"/>
<circle cx="131.118" cy="109.243" r="1.25809" transform="rotate(7.75711 131.118 109.243)" fill="#5DD9BD"/>
<circle cx="135.193" cy="79.3246" r="1.25809" transform="rotate(7.75711 135.193 79.3246)" fill="#5DD9BD"/>
<circle cx="127.043" cy="139.16" r="1.25809" transform="rotate(7.75711 127.043 139.16)" fill="#5DD9BD"/>
<circle cx="99.3785" cy="43.973" r="1.25809" transform="rotate(7.75711 99.3785 43.973)" fill="#5DD9BD"/>
<circle cx="91.2276" cy="103.809" r="1.25809" transform="rotate(7.75711 91.2276 103.809)" fill="#5DD9BD"/>
<circle cx="171.008" cy="114.676" r="1.25809" transform="rotate(7.75711 171.008 114.676)" fill="#5DD9BD"/>
<circle cx="95.3033" cy="73.891" r="1.25809" transform="rotate(7.75711 95.3033 73.891)" fill="#5DD9BD"/>
<circle cx="87.1525" cy="133.726" r="1.25809" transform="rotate(7.75711 87.1525 133.726)" fill="#5DD9BD"/>
<circle cx="79.4332" cy="41.2562" r="1.25809" transform="rotate(7.75711 79.4332 41.2562)" fill="#5DD9BD"/>
<circle cx="159.214" cy="52.1239" r="1.25809" transform="rotate(7.75711 159.214 52.1239)" fill="#5DD9BD"/>
<circle cx="71.2823" cy="101.092" r="1.25809" transform="rotate(7.75711 71.2823 101.092)" fill="#5DD9BD"/>
<circle cx="151.063" cy="111.959" r="1.25809" transform="rotate(7.75711 151.063 111.959)" fill="#5DD9BD"/>
<circle cx="75.3575" cy="71.1737" r="1.25809" transform="rotate(7.75711 75.3575 71.1737)" fill="#5DD9BD"/>
<circle cx="155.138" cy="82.0419" r="1.25809" transform="rotate(7.75711 155.138 82.0419)" fill="#5DD9BD"/>
<circle cx="163.289" cy="22.2064" r="1.25809" transform="rotate(7.75711 163.289 22.2064)" fill="#5DD9BD"/>
<circle cx="67.2071" cy="131.01" r="1.25809" transform="rotate(7.75711 67.2071 131.01)" fill="#5DD9BD"/>
<circle cx="146.987" cy="141.877" r="1.25809" transform="rotate(7.75711 146.987 141.877)" fill="#5DD9BD"/>
<circle cx="119.324" cy="46.6898" r="1.25809" transform="rotate(7.75711 119.324 46.6898)" fill="#5DD9BD"/>
<circle cx="111.173" cy="106.526" r="1.25809" transform="rotate(7.75711 111.173 106.526)" fill="#5DD9BD"/>
<circle cx="115.248" cy="76.6078" r="1.25809" transform="rotate(7.75711 115.248 76.6078)" fill="#5DD9BD"/>
<circle cx="107.097" cy="136.443" r="1.25809" transform="rotate(7.75711 107.097 136.443)" fill="#5DD9BD"/>
<circle cx="127.938" cy="58.0209" r="1.25809" transform="rotate(7.75711 127.938 58.0209)" fill="#5DD9BD"/>
<circle cx="119.787" cy="117.857" r="1.25809" transform="rotate(7.75711 119.787 117.857)" fill="#5DD9BD"/>
<circle cx="123.862" cy="87.9388" r="1.25809" transform="rotate(7.75711 123.862 87.9388)" fill="#5DD9BD"/>
<circle cx="132.013" cy="28.1034" r="1.25809" transform="rotate(7.75711 132.013 28.1034)" fill="#5DD9BD"/>
<circle cx="88.0475" cy="52.5873" r="1.25809" transform="rotate(7.75711 88.0475 52.5873)" fill="#5DD9BD"/>
<circle cx="167.828" cy="63.4554" r="1.25809" transform="rotate(7.75711 167.828 63.4554)" fill="#5DD9BD"/>
<circle cx="79.8966" cy="112.423" r="1.25809" transform="rotate(7.75711 79.8966 112.423)" fill="#5DD9BD"/>
<circle cx="159.677" cy="123.29" r="1.25809" transform="rotate(7.75711 159.677 123.29)" fill="#5DD9BD"/>
<circle cx="83.9718" cy="82.5052" r="1.25809" transform="rotate(7.75711 83.9718 82.5052)" fill="#5DD9BD"/>
<circle cx="163.753" cy="93.3724" r="1.25809" transform="rotate(7.75711 163.753 93.3724)" fill="#5DD9BD"/>
<circle cx="92.1227" cy="22.6693" r="1.25809" transform="rotate(7.75711 92.1227 22.6693)" fill="#5DD9BD"/>
<circle cx="171.903" cy="33.5375" r="1.25809" transform="rotate(7.75711 171.903 33.5375)" fill="#5DD9BD"/>
<circle cx="75.8214" cy="142.34" r="1.25809" transform="rotate(7.75711 75.8214 142.34)" fill="#5DD9BD"/>
<circle cx="68.1022" cy="49.8705" r="1.25809" transform="rotate(7.75711 68.1022 49.8705)" fill="#5DD9BD"/>
<circle cx="147.883" cy="60.7382" r="1.25809" transform="rotate(7.75711 147.883 60.7382)" fill="#5DD9BD"/>
<circle cx="139.732" cy="120.574" r="1.25809" transform="rotate(7.75711 139.732 120.574)" fill="#5DD9BD"/>
<circle cx="64.027" cy="79.788" r="1.25809" transform="rotate(7.75711 64.027 79.788)" fill="#5DD9BD"/>
<circle cx="143.808" cy="90.6556" r="1.25809" transform="rotate(7.75711 143.808 90.6556)" fill="#5DD9BD"/>
<circle cx="72.1778" cy="19.9525" r="1.25809" transform="rotate(7.75711 72.1778 19.9525)" fill="#5DD9BD"/>
<circle cx="151.958" cy="30.8202" r="1.25809" transform="rotate(7.75711 151.958 30.8202)" fill="#5DD9BD"/>
<circle cx="107.993" cy="55.3041" r="1.25809" transform="rotate(7.75711 107.993 55.3041)" fill="#5DD9BD"/>
<circle cx="99.8419" cy="115.14" r="1.25809" transform="rotate(7.75711 99.8419 115.14)" fill="#5DD9BD"/>
<circle cx="103.917" cy="85.222" r="1.25809" transform="rotate(7.75711 103.917 85.222)" fill="#5DD9BD"/>
<circle cx="112.068" cy="25.3861" r="1.25809" transform="rotate(7.75711 112.068 25.3861)" fill="#5DD9BD"/>
<circle cx="137.91" cy="59.3798" r="1.25809" transform="rotate(7.75711 137.91 59.3798)" fill="#5DD9BD"/>
<circle cx="129.759" cy="119.215" r="1.25809" transform="rotate(7.75711 129.759 119.215)" fill="#5DD9BD"/>
<circle cx="133.835" cy="89.2972" r="1.25809" transform="rotate(7.75711 133.835 89.2972)" fill="#5DD9BD"/>
<circle cx="141.985" cy="29.4618" r="1.25809" transform="rotate(7.75711 141.985 29.4618)" fill="#5DD9BD"/>
<circle cx="98.0201" cy="53.9457" r="1.25809" transform="rotate(7.75711 98.0201 53.9457)" fill="#5DD9BD"/>
<circle cx="89.8692" cy="113.781" r="1.25809" transform="rotate(7.75711 89.8692 113.781)" fill="#5DD9BD"/>
<circle cx="169.65" cy="124.649" r="1.25809" transform="rotate(7.75711 169.65 124.649)" fill="#5DD9BD"/>
<circle cx="93.9444" cy="83.8636" r="1.25809" transform="rotate(7.75711 93.9444 83.8636)" fill="#5DD9BD"/>
<circle cx="102.095" cy="24.0277" r="1.25809" transform="rotate(7.75711 102.095 24.0277)" fill="#5DD9BD"/>
<circle cx="85.7941" cy="143.699" r="1.25809" transform="rotate(7.75711 85.7941 143.699)" fill="#5DD9BD"/>
<circle cx="78.0748" cy="51.2289" r="1.25809" transform="rotate(7.75711 78.0748 51.2289)" fill="#5DD9BD"/>
<circle cx="157.856" cy="62.0966" r="1.25809" transform="rotate(7.75711 157.856 62.0966)" fill="#5DD9BD"/>
<circle cx="69.9239" cy="111.064" r="1.25809" transform="rotate(7.75711 69.9239 111.064)" fill="#5DD9BD"/>
<circle cx="149.705" cy="121.932" r="1.25809" transform="rotate(7.75711 149.705 121.932)" fill="#5DD9BD"/>
<circle cx="73.9991" cy="81.1464" r="1.25809" transform="rotate(7.75711 73.9991 81.1464)" fill="#5DD9BD"/>
<circle cx="153.78" cy="92.014" r="1.25809" transform="rotate(7.75711 153.78 92.014)" fill="#5DD9BD"/>
<circle cx="82.15" cy="21.3109" r="1.25809" transform="rotate(7.75711 82.15 21.3109)" fill="#5DD9BD"/>
<circle cx="161.931" cy="32.1791" r="1.25809" transform="rotate(7.75711 161.931 32.1791)" fill="#5DD9BD"/>
<circle cx="65.8483" cy="140.982" r="1.25809" transform="rotate(7.75711 65.8483 140.982)" fill="#5DD9BD"/>
<circle cx="117.965" cy="56.6625" r="1.25809" transform="rotate(7.75711 117.965 56.6625)" fill="#5DD9BD"/>
<circle cx="109.814" cy="116.498" r="1.25809" transform="rotate(7.75711 109.814 116.498)" fill="#5DD9BD"/>
<circle cx="113.89" cy="86.5804" r="1.25809" transform="rotate(7.75711 113.89 86.5804)" fill="#5DD9BD"/>
<circle cx="122.041" cy="26.7445" r="1.25809" transform="rotate(7.75711 122.041 26.7445)" fill="#5DD9BD"/>
<circle cx="126.579" cy="67.9935" r="1.25809" transform="rotate(7.75711 126.579 67.9935)" fill="#5DD9BD"/>
<circle cx="118.428" cy="127.829" r="1.25809" transform="rotate(7.75711 118.428 127.829)" fill="#5DD9BD"/>
<circle cx="122.504" cy="97.9115" r="1.25809" transform="rotate(7.75711 122.504 97.9115)" fill="#5DD9BD"/>
<circle cx="130.655" cy="38.076" r="1.25809" transform="rotate(7.75711 130.655 38.076)" fill="#5DD9BD"/>
<circle cx="86.6891" cy="62.5599" r="1.25809" transform="rotate(7.75711 86.6891 62.5599)" fill="#5DD9BD"/>
<circle cx="166.47" cy="73.4276" r="1.25809" transform="rotate(7.75711 166.47 73.4276)" fill="#5DD9BD"/>
<circle cx="78.5382" cy="122.395" r="1.25809" transform="rotate(7.75711 78.5382 122.395)" fill="#5DD9BD"/>
<circle cx="158.319" cy="133.263" r="1.25809" transform="rotate(7.75711 158.319 133.263)" fill="#5DD9BD"/>
<circle cx="82.6134" cy="92.4774" r="1.25809" transform="rotate(7.75711 82.6134 92.4774)" fill="#5DD9BD"/>
<circle cx="162.394" cy="103.345" r="1.25809" transform="rotate(7.75711 162.394 103.345)" fill="#5DD9BD"/>
<circle cx="90.7643" cy="32.642" r="1.25809" transform="rotate(7.75711 90.7643 32.642)" fill="#5DD9BD"/>
<circle cx="170.545" cy="43.5096" r="1.25809" transform="rotate(7.75711 170.545 43.5096)" fill="#5DD9BD"/>
<circle cx="66.7438" cy="59.8427" r="1.25809" transform="rotate(7.75711 66.7438 59.8427)" fill="#5DD9BD"/>
<circle cx="146.525" cy="70.7108" r="1.25809" transform="rotate(7.75711 146.525 70.7108)" fill="#5DD9BD"/>
<circle cx="138.374" cy="130.546" r="1.25809" transform="rotate(7.75711 138.374 130.546)" fill="#5DD9BD"/>
<circle cx="142.449" cy="100.628" r="1.25809" transform="rotate(7.75711 142.449 100.628)" fill="#5DD9BD"/>
<circle cx="70.8194" cy="29.9252" r="1.25809" transform="rotate(7.75711 70.8194 29.9252)" fill="#5DD9BD"/>
<circle cx="150.6" cy="40.7928" r="1.25809" transform="rotate(7.75711 150.6 40.7928)" fill="#5DD9BD"/>
<circle cx="106.634" cy="65.2767" r="1.25809" transform="rotate(7.75711 106.634 65.2767)" fill="#5DD9BD"/>
<circle cx="98.483" cy="125.112" r="1.25809" transform="rotate(7.75711 98.483 125.112)" fill="#5DD9BD"/>
<circle cx="102.559" cy="95.1942" r="1.25809" transform="rotate(7.75711 102.559 95.1942)" fill="#5DD9BD"/>
<circle cx="110.709" cy="35.3588" r="1.25809" transform="rotate(7.75711 110.709 35.3588)" fill="#5DD9BD"/>
<circle cx="136.552" cy="69.3524" r="1.25809" transform="rotate(7.75711 136.552 69.3524)" fill="#5DD9BD"/>
<circle cx="128.401" cy="129.188" r="1.25809" transform="rotate(7.75711 128.401 129.188)" fill="#5DD9BD"/>
<circle cx="132.477" cy="99.2699" r="1.25809" transform="rotate(7.75711 132.477 99.2699)" fill="#5DD9BD"/>
<circle cx="140.627" cy="39.4344" r="1.25809" transform="rotate(7.75711 140.627 39.4344)" fill="#5DD9BD"/>
<circle cx="96.6612" cy="63.9183" r="1.25809" transform="rotate(7.75711 96.6612 63.9183)" fill="#5DD9BD"/>
<circle cx="88.5108" cy="123.754" r="1.25809" transform="rotate(7.75711 88.5108 123.754)" fill="#5DD9BD"/>
<circle cx="168.291" cy="134.621" r="1.25809" transform="rotate(7.75711 168.291 134.621)" fill="#5DD9BD"/>
<circle cx="92.586" cy="93.8363" r="1.25809" transform="rotate(7.75711 92.586 93.8363)" fill="#5DD9BD"/>
<circle cx="172.367" cy="104.703" r="1.25809" transform="rotate(7.75711 172.367 104.703)" fill="#5DD9BD"/>
<circle cx="100.737" cy="34.0004" r="1.25809" transform="rotate(7.75711 100.737 34.0004)" fill="#5DD9BD"/>
<circle cx="76.7159" cy="61.2015" r="1.25809" transform="rotate(7.75711 76.7159 61.2015)" fill="#5DD9BD"/>
<circle cx="156.497" cy="72.0692" r="1.25809" transform="rotate(7.75711 156.497 72.0692)" fill="#5DD9BD"/>
<circle cx="68.565" cy="121.037" r="1.25809" transform="rotate(7.75711 68.565 121.037)" fill="#5DD9BD"/>
<circle cx="148.346" cy="131.905" r="1.25809" transform="rotate(7.75711 148.346 131.905)" fill="#5DD9BD"/>
<circle cx="72.6407" cy="91.119" r="1.25809" transform="rotate(7.75711 72.6407 91.119)" fill="#5DD9BD"/>
<circle cx="152.421" cy="101.987" r="1.25809" transform="rotate(7.75711 152.421 101.987)" fill="#5DD9BD"/>
<circle cx="80.7916" cy="31.2836" r="1.25809" transform="rotate(7.75711 80.7916 31.2836)" fill="#5DD9BD"/>
<circle cx="160.572" cy="42.1512" r="1.25809" transform="rotate(7.75711 160.572 42.1512)" fill="#5DD9BD"/>
<circle cx="116.607" cy="66.6351" r="1.25809" transform="rotate(7.75711 116.607 66.6351)" fill="#5DD9BD"/>
<circle cx="108.456" cy="126.471" r="1.25809" transform="rotate(7.75711 108.456 126.471)" fill="#5DD9BD"/>
<circle cx="112.531" cy="96.5531" r="1.25809" transform="rotate(7.75711 112.531 96.5531)" fill="#5DD9BD"/>
<circle cx="120.682" cy="36.7172" r="1.25809" transform="rotate(7.75711 120.682 36.7172)" fill="#5DD9BD"/>
<circle cx="124.31" cy="47.3695" r="1.25809" transform="rotate(7.75711 124.31 47.3695)" fill="#5DD9BD"/>
<circle cx="116.159" cy="107.204" r="1.25809" transform="rotate(7.75711 116.159 107.204)" fill="#5DD9BD"/>
<circle cx="120.234" cy="77.287" r="1.25809" transform="rotate(7.75711 120.234 77.287)" fill="#5DD9BD"/>
<circle cx="112.084" cy="137.122" r="1.25809" transform="rotate(7.75711 112.084 137.122)" fill="#5DD9BD"/>
<circle cx="84.4195" cy="41.9354" r="1.25809" transform="rotate(7.75711 84.4195 41.9354)" fill="#5DD9BD"/>
<circle cx="164.2" cy="52.8031" r="1.25809" transform="rotate(7.75711 164.2 52.8031)" fill="#5DD9BD"/>
<circle cx="76.2687" cy="101.771" r="1.25809" transform="rotate(7.75711 76.2687 101.771)" fill="#5DD9BD"/>
<circle cx="156.049" cy="112.639" r="1.25809" transform="rotate(7.75711 156.049 112.639)" fill="#5DD9BD"/>
<circle cx="80.3443" cy="71.8534" r="1.25809" transform="rotate(7.75711 80.3443 71.8534)" fill="#5DD9BD"/>
<circle cx="160.125" cy="82.7211" r="1.25809" transform="rotate(7.75711 160.125 82.7211)" fill="#5DD9BD"/>
<circle cx="168.275" cy="22.8851" r="1.25809" transform="rotate(7.75711 168.275 22.8851)" fill="#5DD9BD"/>
<circle cx="72.1935" cy="131.689" r="1.25809" transform="rotate(7.75711 72.1935 131.689)" fill="#5DD9BD"/>
<circle cx="151.974" cy="142.557" r="1.25809" transform="rotate(7.75711 151.974 142.557)" fill="#5DD9BD"/>
<circle cx="64.4742" cy="39.2181" r="1.25809" transform="rotate(7.75711 64.4742 39.2181)" fill="#5DD9BD"/>
<circle cx="144.255" cy="50.0863" r="1.25809" transform="rotate(7.75711 144.255 50.0863)" fill="#5DD9BD"/>
<circle cx="136.105" cy="109.922" r="1.25809" transform="rotate(7.75711 136.105 109.922)" fill="#5DD9BD"/>
<circle cx="140.18" cy="80.0043" r="1.25809" transform="rotate(7.75711 140.18 80.0043)" fill="#5DD9BD"/>
<circle cx="148.331" cy="20.1683" r="1.25809" transform="rotate(7.75711 148.331 20.1683)" fill="#5DD9BD"/>
<circle cx="132.029" cy="139.839" r="1.25809" transform="rotate(7.75711 132.029 139.839)" fill="#5DD9BD"/>
<circle cx="104.365" cy="44.6522" r="1.25809" transform="rotate(7.75711 104.365 44.6522)" fill="#5DD9BD"/>
<circle cx="96.214" cy="104.488" r="1.25809" transform="rotate(7.75711 96.214 104.488)" fill="#5DD9BD"/>
<circle cx="100.289" cy="74.5702" r="1.25809" transform="rotate(7.75711 100.289 74.5702)" fill="#5DD9BD"/>
<circle cx="92.1383" cy="134.406" r="1.25809" transform="rotate(7.75711 92.1383 134.406)" fill="#5DD9BD"/>
<circle cx="134.282" cy="48.7279" r="1.25809" transform="rotate(7.75711 134.282 48.7279)" fill="#5DD9BD"/>
<circle cx="126.131" cy="108.563" r="1.25809" transform="rotate(7.75711 126.131 108.563)" fill="#5DD9BD"/>
<circle cx="130.207" cy="78.6454" r="1.25809" transform="rotate(7.75711 130.207 78.6454)" fill="#5DD9BD"/>
<circle cx="122.056" cy="138.481" r="1.25809" transform="rotate(7.75711 122.056 138.481)" fill="#5DD9BD"/>
<circle cx="94.3922" cy="43.2938" r="1.25809" transform="rotate(7.75711 94.3922 43.2938)" fill="#5DD9BD"/>
<circle cx="86.2413" cy="103.129" r="1.25809" transform="rotate(7.75711 86.2413 103.129)" fill="#5DD9BD"/>
<circle cx="166.022" cy="113.997" r="1.25809" transform="rotate(7.75711 166.022 113.997)" fill="#5DD9BD"/>
<circle cx="90.3165" cy="73.2113" r="1.25809" transform="rotate(7.75711 90.3165 73.2113)" fill="#5DD9BD"/>
<circle cx="170.097" cy="84.0795" r="1.25809" transform="rotate(7.75711 170.097 84.0795)" fill="#5DD9BD"/>
<circle cx="82.1661" cy="133.047" r="1.25809" transform="rotate(7.75711 82.1661 133.047)" fill="#5DD9BD"/>
<circle cx="161.946" cy="143.915" r="1.25809" transform="rotate(7.75711 161.946 143.915)" fill="#5DD9BD"/>
<circle cx="74.4469" cy="40.5765" r="1.25809" transform="rotate(7.75711 74.4469 40.5765)" fill="#5DD9BD"/>
<circle cx="154.228" cy="51.4447" r="1.25809" transform="rotate(7.75711 154.228 51.4447)" fill="#5DD9BD"/>
<circle cx="66.296" cy="100.412" r="1.25809" transform="rotate(7.75711 66.296 100.412)" fill="#5DD9BD"/>
<circle cx="146.077" cy="111.28" r="1.25809" transform="rotate(7.75711 146.077 111.28)" fill="#5DD9BD"/>
<circle cx="70.3717" cy="70.4945" r="1.25809" transform="rotate(7.75711 70.3717 70.4945)" fill="#5DD9BD"/>
<circle cx="150.152" cy="81.3627" r="1.25809" transform="rotate(7.75711 150.152 81.3627)" fill="#5DD9BD"/>
<circle cx="158.303" cy="21.5267" r="1.25809" transform="rotate(7.75711 158.303 21.5267)" fill="#5DD9BD"/>
<circle cx="142.002" cy="141.198" r="1.25809" transform="rotate(7.75711 142.002 141.198)" fill="#5DD9BD"/>
<circle cx="114.338" cy="46.0111" r="1.25809" transform="rotate(7.75711 114.338 46.0111)" fill="#5DD9BD"/>
<circle cx="106.187" cy="105.846" r="1.25809" transform="rotate(7.75711 106.187 105.846)" fill="#5DD9BD"/>
<circle cx="110.262" cy="75.9286" r="1.25809" transform="rotate(7.75711 110.262 75.9286)" fill="#5DD9BD"/>
<circle cx="102.111" cy="135.764" r="1.25809" transform="rotate(7.75711 102.111 135.764)" fill="#5DD9BD"/>
<circle cx="122.951" cy="57.3417" r="1.25809" transform="rotate(7.75711 122.951 57.3417)" fill="#5DD9BD"/>
<circle cx="114.8" cy="117.178" r="1.25809" transform="rotate(7.75711 114.8 117.178)" fill="#5DD9BD"/>
<circle cx="118.876" cy="87.2596" r="1.25809" transform="rotate(7.75711 118.876 87.2596)" fill="#5DD9BD"/>
<circle cx="127.027" cy="27.4242" r="1.25809" transform="rotate(7.75711 127.027 27.4242)" fill="#5DD9BD"/>
<circle cx="83.0611" cy="51.9081" r="1.25809" transform="rotate(7.75711 83.0611 51.9081)" fill="#5DD9BD"/>
<circle cx="162.842" cy="62.7758" r="1.25809" transform="rotate(7.75711 162.842 62.7758)" fill="#5DD9BD"/>
<circle cx="74.9103" cy="111.744" r="1.25809" transform="rotate(7.75711 74.9103 111.744)" fill="#5DD9BD"/>
<circle cx="154.691" cy="122.611" r="1.25809" transform="rotate(7.75711 154.691 122.611)" fill="#5DD9BD"/>
<circle cx="78.9859" cy="81.8256" r="1.25809" transform="rotate(7.75711 78.9859 81.8256)" fill="#5DD9BD"/>
<circle cx="158.766" cy="92.6937" r="1.25809" transform="rotate(7.75711 158.766 92.6937)" fill="#5DD9BD"/>
<circle cx="87.1363" cy="21.9901" r="1.25809" transform="rotate(7.75711 87.1363 21.9901)" fill="#5DD9BD"/>
<circle cx="166.917" cy="32.8578" r="1.25809" transform="rotate(7.75711 166.917 32.8578)" fill="#5DD9BD"/>
<circle cx="70.8351" cy="141.661" r="1.25809" transform="rotate(7.75711 70.8351 141.661)" fill="#5DD9BD"/>
<circle cx="142.897" cy="60.059" r="1.25809" transform="rotate(7.75711 142.897 60.059)" fill="#5DD9BD"/>
<circle cx="134.746" cy="119.894" r="1.25809" transform="rotate(7.75711 134.746 119.894)" fill="#5DD9BD"/>
<circle cx="138.821" cy="89.9769" r="1.25809" transform="rotate(7.75711 138.821 89.9769)" fill="#5DD9BD"/>
<circle cx="146.972" cy="30.141" r="1.25809" transform="rotate(7.75711 146.972 30.141)" fill="#5DD9BD"/>
<circle cx="103.006" cy="54.6249" r="1.25809" transform="rotate(7.75711 103.006 54.6249)" fill="#5DD9BD"/>
<circle cx="94.8551" cy="114.46" r="1.25809" transform="rotate(7.75711 94.8551 114.46)" fill="#5DD9BD"/>
<circle cx="98.9308" cy="84.5428" r="1.25809" transform="rotate(7.75711 98.9308 84.5428)" fill="#5DD9BD"/>
<circle cx="107.082" cy="24.7074" r="1.25809" transform="rotate(7.75711 107.082 24.7074)" fill="#5DD9BD"/>
<circle cx="90.7799" cy="144.378" r="1.25809" transform="rotate(7.75711 90.7799 144.378)" fill="#5DD9BD"/>
<circle cx="132.924" cy="58.7006" r="1.25809" transform="rotate(7.75711 132.924 58.7006)" fill="#5DD9BD"/>
<circle cx="124.773" cy="118.536" r="1.25809" transform="rotate(7.75711 124.773 118.536)" fill="#5DD9BD"/>
<circle cx="128.849" cy="88.618" r="1.25809" transform="rotate(7.75711 128.849 88.618)" fill="#5DD9BD"/>
<circle cx="136.999" cy="28.7826" r="1.25809" transform="rotate(7.75711 136.999 28.7826)" fill="#5DD9BD"/>
<circle cx="93.0338" cy="53.2665" r="1.25809" transform="rotate(7.75711 93.0338 53.2665)" fill="#5DD9BD"/>
<circle cx="84.8829" cy="113.102" r="1.25809" transform="rotate(7.75711 84.8829 113.102)" fill="#5DD9BD"/>
<circle cx="164.664" cy="123.97" r="1.25809" transform="rotate(7.75711 164.664 123.97)" fill="#5DD9BD"/>
<circle cx="88.9581" cy="83.184" r="1.25809" transform="rotate(7.75711 88.9581 83.184)" fill="#5DD9BD"/>
<circle cx="168.739" cy="94.0521" r="1.25809" transform="rotate(7.75711 168.739 94.0521)" fill="#5DD9BD"/>
<circle cx="97.109" cy="23.3485" r="1.25809" transform="rotate(7.75711 97.109 23.3485)" fill="#5DD9BD"/>
<circle cx="80.8072" cy="143.02" r="1.25809" transform="rotate(7.75711 80.8072 143.02)" fill="#5DD9BD"/>
<circle cx="73.0885" cy="50.5497" r="1.25809" transform="rotate(7.75711 73.0885 50.5497)" fill="#5DD9BD"/>
<circle cx="152.869" cy="61.4174" r="1.25809" transform="rotate(7.75711 152.869 61.4174)" fill="#5DD9BD"/>
<circle cx="64.9376" cy="110.385" r="1.25809" transform="rotate(7.75711 64.9376 110.385)" fill="#5DD9BD"/>
<circle cx="144.718" cy="121.253" r="1.25809" transform="rotate(7.75711 144.718 121.253)" fill="#5DD9BD"/>
<circle cx="69.0133" cy="80.4672" r="1.25809" transform="rotate(7.75711 69.0133 80.4672)" fill="#5DD9BD"/>
<circle cx="148.794" cy="91.3348" r="1.25809" transform="rotate(7.75711 148.794 91.3348)" fill="#5DD9BD"/>
<circle cx="77.1637" cy="20.6317" r="1.25809" transform="rotate(7.75711 77.1637 20.6317)" fill="#5DD9BD"/>
<circle cx="156.944" cy="31.4994" r="1.25809" transform="rotate(7.75711 156.944 31.4994)" fill="#5DD9BD"/>
<circle cx="112.979" cy="55.9833" r="1.25809" transform="rotate(7.75711 112.979 55.9833)" fill="#5DD9BD"/>
<circle cx="104.828" cy="115.819" r="1.25809" transform="rotate(7.75711 104.828 115.819)" fill="#5DD9BD"/>
<circle cx="108.903" cy="85.9012" r="1.25809" transform="rotate(7.75711 108.903 85.9012)" fill="#5DD9BD"/>
<circle cx="117.054" cy="26.0658" r="1.25809" transform="rotate(7.75711 117.054 26.0658)" fill="#5DD9BD"/>
<circle cx="121.593" cy="67.3143" r="1.25809" transform="rotate(7.75711 121.593 67.3143)" fill="#5DD9BD"/>
<circle cx="113.442" cy="127.15" r="1.25809" transform="rotate(7.75711 113.442 127.15)" fill="#5DD9BD"/>
<circle cx="117.518" cy="97.2323" r="1.25809" transform="rotate(7.75711 117.518 97.2323)" fill="#5DD9BD"/>
<circle cx="125.668" cy="37.3969" r="1.25809" transform="rotate(7.75711 125.668 37.3969)" fill="#5DD9BD"/>
<circle cx="81.7027" cy="61.8807" r="1.25809" transform="rotate(7.75711 81.7027 61.8807)" fill="#5DD9BD"/>
<circle cx="161.484" cy="72.7484" r="1.25809" transform="rotate(7.75711 161.484 72.7484)" fill="#5DD9BD"/>
<circle cx="73.5519" cy="121.716" r="1.25809" transform="rotate(7.75711 73.5519 121.716)" fill="#5DD9BD"/>
<circle cx="153.333" cy="132.584" r="1.25809" transform="rotate(7.75711 153.333 132.584)" fill="#5DD9BD"/>
<circle cx="77.6271" cy="91.7982" r="1.25809" transform="rotate(7.75711 77.6271 91.7982)" fill="#5DD9BD"/>
<circle cx="157.408" cy="102.666" r="1.25809" transform="rotate(7.75711 157.408 102.666)" fill="#5DD9BD"/>
<circle cx="85.7779" cy="31.9628" r="1.25809" transform="rotate(7.75711 85.7779 31.9628)" fill="#5DD9BD"/>
<circle cx="165.559" cy="42.8304" r="1.25809" transform="rotate(7.75711 165.559 42.8304)" fill="#5DD9BD"/>
<circle cx="141.538" cy="70.0311" r="1.25809" transform="rotate(7.75711 141.538 70.0311)" fill="#5DD9BD"/>
<circle cx="133.387" cy="129.867" r="1.25809" transform="rotate(7.75711 133.387 129.867)" fill="#5DD9BD"/>
<circle cx="137.463" cy="99.9491" r="1.25809" transform="rotate(7.75711 137.463 99.9491)" fill="#5DD9BD"/>
<circle cx="65.8326" cy="29.246" r="1.25809" transform="rotate(7.75711 65.8326 29.246)" fill="#5DD9BD"/>
<circle cx="145.613" cy="40.1136" r="1.25809" transform="rotate(7.75711 145.613 40.1136)" fill="#5DD9BD"/>
<circle cx="101.648" cy="64.5975" r="1.25809" transform="rotate(7.75711 101.648 64.5975)" fill="#5DD9BD"/>
<circle cx="93.4967" cy="124.433" r="1.25809" transform="rotate(7.75711 93.4967 124.433)" fill="#5DD9BD"/>
<circle cx="97.5724" cy="94.515" r="1.25809" transform="rotate(7.75711 97.5724 94.515)" fill="#5DD9BD"/>
<circle cx="105.723" cy="34.6801" r="1.25809" transform="rotate(7.75711 105.723 34.6801)" fill="#5DD9BD"/>
<circle cx="131.566" cy="68.6727" r="1.25809" transform="rotate(7.75711 131.566 68.6727)" fill="#5DD9BD"/>
<circle cx="123.415" cy="128.508" r="1.25809" transform="rotate(7.75711 123.415 128.508)" fill="#5DD9BD"/>
<circle cx="127.49" cy="98.5907" r="1.25809" transform="rotate(7.75711 127.49 98.5907)" fill="#5DD9BD"/>
<circle cx="135.641" cy="38.7552" r="1.25809" transform="rotate(7.75711 135.641 38.7552)" fill="#5DD9BD"/>
<circle cx="91.6749" cy="63.2391" r="1.25809" transform="rotate(7.75711 91.6749 63.2391)" fill="#5DD9BD"/>
<circle cx="171.456" cy="74.1068" r="1.25809" transform="rotate(7.75711 171.456 74.1068)" fill="#5DD9BD"/>
<circle cx="83.5245" cy="123.075" r="1.25809" transform="rotate(7.75711 83.5245 123.075)" fill="#5DD9BD"/>
<circle cx="163.305" cy="133.942" r="1.25809" transform="rotate(7.75711 163.305 133.942)" fill="#5DD9BD"/>
<circle cx="87.5997" cy="93.1566" r="1.25809" transform="rotate(7.75711 87.5997 93.1566)" fill="#5DD9BD"/>
<circle cx="167.38" cy="104.025" r="1.25809" transform="rotate(7.75711 167.38 104.025)" fill="#5DD9BD"/>
<circle cx="95.7506" cy="33.3217" r="1.25809" transform="rotate(7.75711 95.7506 33.3217)" fill="#5DD9BD"/>
<circle cx="71.7301" cy="60.5223" r="1.25809" transform="rotate(7.75711 71.7301 60.5223)" fill="#5DD9BD"/>
<circle cx="151.511" cy="71.39" r="1.25809" transform="rotate(7.75711 151.511 71.39)" fill="#5DD9BD"/>
<circle cx="63.5792" cy="120.358" r="1.25809" transform="rotate(7.75711 63.5792 120.358)" fill="#5DD9BD"/>
<circle cx="143.36" cy="131.225" r="1.25809" transform="rotate(7.75711 143.36 131.225)" fill="#5DD9BD"/>
<circle cx="67.6549" cy="90.4398" r="1.25809" transform="rotate(7.75711 67.6549 90.4398)" fill="#5DD9BD"/>
<circle cx="147.435" cy="101.307" r="1.25809" transform="rotate(7.75711 147.435 101.307)" fill="#5DD9BD"/>
<circle cx="75.8053" cy="30.6044" r="1.25809" transform="rotate(7.75711 75.8053 30.6044)" fill="#5DD9BD"/>
<circle cx="155.586" cy="41.472" r="1.25809" transform="rotate(7.75711 155.586 41.472)" fill="#5DD9BD"/>
<circle cx="111.62" cy="65.9559" r="1.25809" transform="rotate(7.75711 111.62 65.9559)" fill="#5DD9BD"/>
<circle cx="103.469" cy="125.791" r="1.25809" transform="rotate(7.75711 103.469 125.791)" fill="#5DD9BD"/>
<circle cx="107.545" cy="95.8734" r="1.25809" transform="rotate(7.75711 107.545 95.8734)" fill="#5DD9BD"/>
<circle cx="115.696" cy="36.0385" r="1.25809" transform="rotate(7.75711 115.696 36.0385)" fill="#5DD9BD"/>
</g>
<g filter="url(#filter2_d)">
<rect x="78" y="20" width="100" height="124" rx="12.72" fill="white"/>
</g>
<path d="M108 56C107.448 56 107 56.4477 107 57C107 57.5523 107.448 58 108 58V56ZM164 58C164.552 58 165 57.5523 165 57C165 56.4477 164.552 56 164 56V58ZM108 58H164V56H108V58Z" fill="#3139CE"/>
<path opacity="0.5" d="M108 70C107.448 70 107 70.4477 107 71C107 71.5523 107.448 72 108 72V70ZM164 72C164.552 72 165 71.5523 165 71C165 70.4477 164.552 70 164 70V72ZM108 72H164V70H108V72Z" fill="#3139CE"/>
<path opacity="0.5" d="M108 97C107.448 97 107 97.4477 107 98C107 98.5523 107.448 99 108 99V97ZM164 99C164.552 99 165 98.5523 165 98C165 97.4477 164.552 97 164 97V99ZM108 99H164V97H108V99Z" fill="#3139CE"/>
<path d="M108 83C107.448 83 107 83.4477 107 84C107 84.5523 107.448 85 108 85V83ZM164 85C164.552 85 165 84.5523 165 84C165 83.4477 164.552 83 164 83V85ZM108 85H164V83H108V85Z" fill="#3139CE"/>
<path d="M108 41C107.448 41 107 41.4477 107 42C107 42.5523 107.448 43 108 43V41ZM164 43C164.552 43 165 42.5523 165 42C165 41.4477 164.552 41 164 41V43ZM108 43H164V41H108V43Z" fill="#3139CE"/>
<circle cx="94.5" cy="41.5" r="3.5" fill="#4347D2"/>
<circle cx="94.5" cy="56.5" r="3.5" fill="#4347D2"/>
<path opacity="0.5" d="M92.2744 68L94.5001 70.2256M96.7257 72.4513L94.5001 70.2256M94.5001 70.2256L96.7257 68M94.5001 70.2256L92.2744 72.4513" stroke="#4347D2" stroke-width="2" stroke-linecap="round" stroke-linejoin="round"/>
<path opacity="0.5" d="M92.2744 95L94.5001 97.2256M96.7257 99.4513L94.5001 97.2256M94.5001 97.2256L96.7257 95M94.5001 97.2256L92.2744 99.4513" stroke="#4347D2" stroke-width="2" stroke-linecap="round" stroke-linejoin="round"/>
<circle cx="94.5" cy="83.5" r="3.5" fill="#4347D2"/>
<circle cx="177.668" cy="137.668" r="23.4075" transform="rotate(15 177.668 137.668)" fill="#6EE0C6"/>
<circle cx="174.992" cy="139.213" r="21.2226" transform="rotate(15 174.992 139.213)" fill="#41C6A7"/>
<path d="M178.455 136.293L179.234 133.383L186.128 135.23L187.316 130.797L168.544 125.767L167.356 130.2L174.251 132.048L173.472 134.955C167.802 133.702 163.302 133.644 162.958 134.927C162.614 136.21 166.542 138.41 172.077 140.161L169.579 149.481L174.565 150.817L177.062 141.496C182.722 142.746 187.213 142.802 187.557 141.52C187.9 140.238 183.982 138.042 178.456 136.294L178.455 136.293ZM177.274 140.707L177.274 140.705C177.131 140.675 176.397 140.524 174.788 140.093C173.502 139.748 172.606 139.47 172.292 139.369L172.291 139.373C167.397 137.834 163.925 136.012 164.191 135.017C164.458 134.021 168.376 134.181 173.383 135.295L172.513 138.544C172.831 138.652 173.744 138.953 175.024 139.296C176.562 139.708 177.351 139.854 177.496 139.879L178.367 136.63C183.25 138.167 186.714 139.987 186.448 140.979C186.182 141.971 182.27 141.816 177.274 140.705" fill="white"/>
<circle cx="31.7972" cy="27.8837" r="17.7037" transform="rotate(15 31.7972 27.8837)" fill="#7479DE"/>
<circle cx="29.7602" cy="29.0599" r="16.0403" transform="rotate(15 29.7602 29.0599)" fill="#4347D2"/>
<g clip-path="url(#clip0)">
<path d="M32.526 18.7301L32.2645 19.1646L28.6044 32.8244L28.7026 32.9989L35.9026 30.911L32.526 18.7301Z" fill="white"/>
<path d="M32.5258 18.73L23.511 27.5906L28.7025 32.9988L30.479 26.3687L32.5258 18.73Z" fill="white"/>
<path d="M28.3806 34.1991L28.2788 34.2739L26.975 39.1398L26.9902 39.3882L35.5837 32.1142L28.3806 34.1991Z" fill="white"/>
<path d="M26.9905 39.3882L28.3809 34.1992L23.189 28.793L26.9905 39.3882Z" fill="white"/>
</g>
<g filter="url(#filter3_d)">
<path d="M244.033 71.7586C244.949 64.6331 245.407 61.0703 247.905 59.1412C250.403 57.2121 253.966 57.67 261.092 58.5859L270.809 59.8349C277.934 60.7507 281.497 61.2087 283.426 63.7068C285.355 66.2049 284.897 69.7677 283.981 76.8932L282.316 89.8494C281.4 96.9749 280.942 100.538 278.444 102.467C275.946 104.396 272.383 103.938 265.258 103.022L255.541 101.773C248.415 100.857 244.852 100.399 242.923 97.9012C240.994 95.403 241.452 91.8403 242.368 84.7148L244.033 71.7586Z" fill="white"/>
</g>
<circle cx="264.216" cy="72.7064" r="5.98709" transform="rotate(7.32422 264.216 72.7064)" fill="#4347D2"/>
<path d="M249.451 89.3766C249.589 88.3049 249.658 87.769 249.768 87.3249C250.659 83.7129 253.924 81.1923 257.644 81.243C258.101 81.2492 258.637 81.3181 259.709 81.4558L266.363 82.3112C267.435 82.4489 267.971 82.5178 268.415 82.6274C272.027 83.5192 274.548 86.7833 274.497 90.5034C274.491 90.9608 274.422 91.4967 274.284 92.5685C274.209 93.1518 274.172 93.4434 274.112 93.6851C273.627 95.651 271.85 97.0228 269.825 96.9953C269.576 96.9919 269.285 96.9544 268.701 96.8794L253.762 94.9593C253.179 94.8843 252.887 94.8468 252.646 94.7871C250.68 94.3018 249.308 92.5253 249.336 90.5006C249.339 90.2516 249.376 89.96 249.451 89.3766Z" fill="#4347D2"/>
<defs>
<filter id="filter0_d" x="146.44" y="104.521" width="110.394" height="44.3908" filterUnits="userSpaceOnUse" color-interpolation-filters="sRGB">
<feFlood flood-opacity="0" result="BackgroundImageFix"/>
<feColorMatrix in="SourceAlpha" type="matrix" values="0 0 0 0 0 0 0 0 0 0 0 0 0 0 0 0 0 0 127 0" result="hardAlpha"/>
<feOffset dy="1.07993"/>
<feGaussianBlur stdDeviation="3.77976"/>
<feColorMatrix type="matrix" values="0 0 0 0 0.309722 0 0 0 0 0.342759 0 0 0 0 0.929167 0 0 0 0.14 0"/>
<feBlend mode="normal" in2="BackgroundImageFix" result="effect1_dropShadow"/>
<feBlend mode="normal" in="SourceGraphic" in2="effect1_dropShadow" result="shape"/>
</filter>
<filter id="filter1_d" x="116.44" y="65.5204" width="110.394" height="44.3908" filterUnits="userSpaceOnUse" color-interpolation-filters="sRGB">
<feFlood flood-opacity="0" result="BackgroundImageFix"/>
<feColorMatrix in="SourceAlpha" type="matrix" values="0 0 0 0 0 0 0 0 0 0 0 0 0 0 0 0 0 0 127 0" result="hardAlpha"/>
<feOffset dy="1.07993"/>
<feGaussianBlur stdDeviation="3.77976"/>
<feColorMatrix type="matrix" values="0 0 0 0 0.309722 0 0 0 0 0.342759 0 0 0 0 0.929167 0 0 0 0.14 0"/>
<feBlend mode="normal" in2="BackgroundImageFix" result="effect1_dropShadow"/>
<feBlend mode="normal" in="SourceGraphic" in2="effect1_dropShadow" result="shape"/>
</filter>
<filter id="filter2_d" x="68.3843" y="11.758" width="119.231" height="143.231" filterUnits="userSpaceOnUse" color-interpolation-filters="sRGB">
<feFlood flood-opacity="0" result="BackgroundImageFix"/>
<feColorMatrix in="SourceAlpha" type="matrix" values="0 0 0 0 0 0 0 0 0 0 0 0 0 0 0 0 0 0 127 0" result="hardAlpha"/>
<feOffset dy="1.37367"/>
<feGaussianBlur stdDeviation="4.80785"/>
<feColorMatrix type="matrix" values="0 0 0 0 0.309722 0 0 0 0 0.342759 0 0 0 0 0.929167 0 0 0 0.08 0"/>
<feBlend mode="normal" in2="BackgroundImageFix" result="effect1_dropShadow"/>
<feBlend mode="normal" in="SourceGraphic" in2="effect1_dropShadow" result="shape"/>
</filter>
<filter id="filter3_d" x="226.579" y="43.8849" width="73.1925" height="76.0152" filterUnits="userSpaceOnUse" color-interpolation-filters="sRGB">
<feFlood flood-opacity="0" result="BackgroundImageFix"/>
<feColorMatrix in="SourceAlpha" type="matrix" values="0 0 0 0 0 0 0 0 0 0 0 0 0 0 0 0 0 0 127 0" result="hardAlpha"/>
<feOffset dy="1.08856"/>
<feGaussianBlur stdDeviation="7.5"/>
<feColorMatrix type="matrix" values="0 0 0 0 0.309722 0 0 0 0 0.342759 0 0 0 0 0.929167 0 0 0 0.1 0"/>
<feBlend mode="normal" in2="BackgroundImageFix" result="effect1_dropShadow"/>
<feBlend mode="normal" in="SourceGraphic" in2="effect1_dropShadow" result="shape"/>
</filter>
<clipPath id="clip0">
<rect width="21.3871" height="21.3871" fill="white" transform="translate(22.1982 15.9629) rotate(15)"/>
</clipPath>
</defs>
</svg>
