<svg width="20" height="20" viewBox="0 0 20 20" fill="none" xmlns="http://www.w3.org/2000/svg">
<path d="M17.9831 14.1464C17.99 14.1382 17.9959 14.1294 18.0023 14.1208C18.008 14.1131 18.0141 14.1055 18.0195 14.0974C18.026 14.0876 18.0317 14.0776 18.0376 14.0676C18.0421 14.06 18.0468 14.0527 18.051 14.045C18.0564 14.035 18.0609 14.0247 18.0657 14.0144C18.0696 14.0062 18.0737 13.998 18.0773 13.9895C18.0814 13.9796 18.0847 13.9695 18.0882 13.9596C18.0915 13.9503 18.0951 13.9412 18.098 13.9317C18.101 13.9217 18.1033 13.9114 18.1058 13.9013C18.1082 13.8916 18.1109 13.8822 18.1129 13.8724C18.1152 13.8606 18.1166 13.8486 18.1183 13.8366C18.1195 13.8284 18.121 13.8203 18.1219 13.8119C18.126 13.7708 18.126 13.7293 18.1219 13.6882C18.121 13.6798 18.1195 13.6717 18.1183 13.6635C18.1166 13.6515 18.1152 13.6395 18.1129 13.6277C18.1109 13.6179 18.1082 13.6084 18.1058 13.5988C18.1033 13.5886 18.101 13.5784 18.098 13.5684C18.0951 13.5589 18.0916 13.5498 18.0882 13.5405C18.0847 13.5305 18.0814 13.5205 18.0773 13.5106C18.0737 13.5021 18.0696 13.4939 18.0657 13.4856C18.0609 13.4754 18.0564 13.4651 18.051 13.4551C18.0468 13.4474 18.0421 13.4401 18.0376 13.4325C18.0317 13.4225 18.026 13.4124 18.0195 13.4027C18.0141 13.3946 18.008 13.387 18.0023 13.3793C17.9959 13.3707 17.99 13.3619 17.9831 13.3537C17.9728 13.341 17.9616 13.329 17.9502 13.3172C17.9473 13.3143 17.9449 13.311 17.942 13.3081L15.442 10.8081C15.3248 10.6909 15.1658 10.625 15 10.625C14.8342 10.625 14.6752 10.6909 14.558 10.8081C14.4408 10.9253 14.375 11.0843 14.375 11.25C14.375 11.4158 14.4408 11.5748 14.558 11.692L15.9911 13.125H2.5C2.33424 13.125 2.17527 13.1909 2.05806 13.3081C1.94085 13.4253 1.875 13.5843 1.875 13.75C1.875 13.9158 1.94085 14.0748 2.05806 14.192C2.17527 14.3092 2.33424 14.375 2.5 14.375H15.9911L14.558 15.8081C14.4408 15.9253 14.375 16.0843 14.375 16.25C14.375 16.4158 14.4408 16.5748 14.558 16.692C14.6752 16.8092 14.8342 16.8751 15 16.8751C15.1658 16.8751 15.3248 16.8092 15.442 16.692L17.942 14.192C17.9451 14.1889 17.9478 14.1854 17.9508 14.1822C17.962 14.1706 17.9729 14.1589 17.9831 14.1464Z" fill="#E6E6E6"/>
<path d="M1.99766 5.87925C1.9919 5.88703 1.98583 5.89463 1.98041 5.90271C1.97389 5.91244 1.96821 5.92251 1.96229 5.93251C1.95783 5.94006 1.9531 5.94738 1.94894 5.95513C1.94356 5.96512 1.93902 5.97542 1.93422 5.98564C1.93033 5.99393 1.92621 6.00209 1.92266 6.01059C1.91857 6.02047 1.91525 6.03054 1.91171 6.04054C1.90839 6.04981 1.90484 6.05889 1.90198 6.06835C1.89893 6.07842 1.89668 6.08864 1.89412 6.09883C1.89172 6.10844 1.88901 6.1179 1.88706 6.12767C1.88474 6.13953 1.88329 6.15151 1.88161 6.16345C1.88046 6.17169 1.8789 6.17981 1.87806 6.18817C1.87398 6.22932 1.87398 6.27077 1.87806 6.31192C1.8789 6.32027 1.88046 6.3284 1.88161 6.33664C1.88329 6.34858 1.88473 6.36056 1.88706 6.37242C1.88901 6.38219 1.89172 6.39165 1.89412 6.40126C1.89668 6.41144 1.89893 6.42167 1.90198 6.43174C1.90484 6.4412 1.90839 6.45028 1.91171 6.45955C1.91525 6.46954 1.91857 6.47962 1.92266 6.4895C1.9262 6.498 1.93032 6.50617 1.93422 6.51444C1.93902 6.52467 1.94356 6.53497 1.94894 6.54496C1.9531 6.5527 1.95783 6.56003 1.96229 6.56758C1.96821 6.57758 1.97389 6.58765 1.98041 6.59737C1.98583 6.60546 1.9919 6.61305 1.99766 6.62084C2.00399 6.62942 2.00998 6.63815 2.01681 6.64643C2.02699 6.65887 2.03798 6.67062 2.04912 6.68221C2.05217 6.68542 2.05484 6.68885 2.05797 6.69202L4.55797 9.19202C4.67518 9.30924 4.83417 9.37509 4.99994 9.37509C5.16571 9.37509 5.32469 9.30924 5.44191 9.19202C5.55913 9.0748 5.62498 8.91582 5.62498 8.75005C5.62498 8.58427 5.55913 8.42529 5.44191 8.30807L4.0088 6.87504H17.4999C17.6657 6.87504 17.8247 6.80919 17.9419 6.69198C18.0591 6.57477 18.1249 6.4158 18.1249 6.25004C18.1249 6.08428 18.0591 5.92531 17.9419 5.8081C17.8247 5.69089 17.6657 5.62504 17.4999 5.62504H4.0088L5.44191 4.19201C5.55913 4.07479 5.62498 3.91581 5.62498 3.75004C5.62498 3.58427 5.55913 3.42529 5.44191 3.30807C5.32469 3.19085 5.16571 3.125 4.99994 3.125C4.83417 3.125 4.67518 3.19085 4.55797 3.30807L2.05797 5.80807C2.05503 5.81101 2.05259 5.81425 2.04973 5.81723C2.03836 5.82901 2.02718 5.84099 2.01681 5.85366C2.00998 5.86193 2.00399 5.87067 1.99766 5.87925Z" fill="#E6E6E6"/>
</svg>
