<svg width="150" height="150" viewBox="0 0 150 150" fill="none" xmlns="http://www.w3.org/2000/svg">
<g clip-path="url(#clip0)">
<path opacity="0.8" fill-rule="evenodd" clip-rule="evenodd" d="M24.46 61.4877C24.3813 60.0373 25.4933 58.7978 26.9437 58.7191L79.6063 55.8628C81.0567 55.7842 82.2962 56.8961 82.3749 58.3465L83.0349 70.5158C83.0966 71.6525 83.882 72.6206 84.9815 72.9152L110.823 79.8393C112.446 80.2743 112.733 82.455 111.278 83.2953C110.02 84.0216 109.589 85.6301 110.315 86.888L115.605 96.0513C115.954 96.6557 116.049 97.374 115.868 98.0482L105.929 135.141C105.554 136.544 104.111 137.376 102.708 137L83.6254 131.887C83.3571 131.815 83.0791 131.786 82.8018 131.801L31.0598 134.608C29.6094 134.686 28.3698 133.574 28.2912 132.124L24.46 61.4877ZM111.144 89.9035C112.402 90.6297 112.833 92.2382 112.107 93.4961L98.0379 117.864C96.9254 119.791 93.992 119.128 93.8164 116.91C93.6911 115.326 92.0171 114.359 90.5827 115.043C88.574 116 86.5331 113.791 87.6456 111.864L101.714 87.4961C102.441 86.2382 104.049 85.8072 105.307 86.5335L111.144 89.9035ZM48.7864 110.612C47.336 110.691 46.2241 111.931 46.3027 113.381L46.397 115.118C46.4756 116.569 47.7152 117.681 49.1655 117.602L70.8736 116.425C72.324 116.346 73.436 115.106 73.3573 113.656L73.2631 111.919C73.1844 110.468 71.9449 109.356 70.4945 109.435L48.7864 110.612Z" fill="url(#paint0_linear)"/>
<path d="M100.929 129.141L99.6592 128.8L100.929 129.141ZM97.7083 131L98.0486 129.73L97.7083 131ZM112.542 75.6398L112.202 76.91L112.542 75.6398ZM114.402 78.8609L115.672 79.2012L114.402 78.8609ZM79.628 124.794C78.9265 124.606 78.2055 125.023 78.0175 125.724C77.8295 126.426 78.2458 127.147 78.9473 127.335L79.628 124.794ZM113.132 78.5205L99.6592 128.8L102.2 129.481L115.672 79.2012L113.132 78.5205ZM99.6592 128.8C99.4712 129.502 98.7502 129.918 98.0486 129.73L97.3679 132.27C99.4725 132.834 101.636 131.585 102.2 129.481L99.6592 128.8ZM112.202 76.91C112.903 77.098 113.32 77.819 113.132 78.5205L115.672 79.2012C116.236 77.0967 114.987 74.9335 112.882 74.3696L112.202 76.91ZM77.6597 67.6545L112.202 76.91L112.882 74.3696L78.3403 65.1141L77.6597 67.6545ZM98.0486 129.73L79.628 124.794L78.9473 127.335L97.3679 132.27L98.0486 129.73Z" fill="#3139CE"/>
<rect x="19" y="53.1412" width="58" height="76" rx="2.63" transform="rotate(-3.10459 19 53.1412)" stroke="#3139CE" stroke-width="2.63"/>
<path d="M29.7979 67.5776L67.7421 65.5196" stroke="#3139CE" stroke-width="2.63" stroke-linecap="round" stroke-linejoin="round"/>
<path d="M30.3394 77.563L68.2836 75.505" stroke="#3139CE" stroke-width="2.63" stroke-linecap="round" stroke-linejoin="round"/>
<path d="M51.8687 114.451L70.3415 113.449" stroke="#3139CE" stroke-width="2.63" stroke-linecap="round" stroke-linejoin="round"/>
<path opacity="0.8" fill-rule="evenodd" clip-rule="evenodd" d="M116.912 98.7794L127.338 116.838C128.305 118.513 130.869 117.793 130.822 115.859C130.768 113.611 133.222 112.194 135.141 113.365C136.792 114.373 138.698 112.513 137.73 110.838L126.487 91.3643C126.063 91.8942 125.431 92.2661 124.676 92.3349L121.419 92.6316C120.407 92.7237 119.54 93.3896 119.189 94.3424L118.059 97.4123C117.835 98.0224 117.418 98.4872 116.912 98.7794Z" fill="url(#paint1_linear)"/>
<path d="M105.315 80.888C104.589 79.6301 105.02 78.0216 106.278 77.2954L112.115 73.9254C113.373 73.1991 114.981 73.6301 115.707 74.888L134.123 106.785C135.251 108.739 133.029 110.907 131.104 109.732V109.732C129.632 108.835 127.751 109.921 127.793 111.644V111.644C127.848 113.899 124.859 114.739 123.731 112.785L105.315 80.888Z" stroke="#3139CE" stroke-width="2.63"/>
<path d="M110.107 88.4962C110.834 87.2382 110.403 85.6298 109.145 84.9035L103.308 81.5335C102.05 80.8073 100.441 81.2382 99.7151 82.4962L85.6462 106.864C84.5336 108.791 86.5746 111 88.5833 110.043V110.043C90.0177 109.36 91.6917 110.326 91.817 111.91V111.91C91.9925 114.128 94.926 114.791 96.0385 112.864L110.107 88.4962Z" stroke="#3139CE" stroke-width="2.63"/>
<path d="M102.582 64.4498C103.209 62.7441 105.337 62.1741 106.733 63.3374L109.247 65.4311C110.027 66.0809 111.111 66.2237 112.033 65.7979L115.002 64.426C116.652 63.6638 118.56 64.765 118.724 66.575L119.021 69.8327C119.113 70.8438 119.779 71.7116 120.732 72.0622L123.802 73.192C125.508 73.8197 126.078 75.947 124.914 77.3435L122.821 79.8568C122.171 80.6369 122.028 81.7214 122.454 82.6431L123.826 85.6127C124.588 87.2626 123.487 89.1699 121.677 89.3348L118.419 89.6315C117.408 89.7236 116.54 90.3895 116.189 91.3424L115.06 94.4122C114.432 96.1179 112.305 96.6879 110.908 95.5246L108.395 93.4309C107.615 92.7811 106.53 92.6383 105.609 93.0641L102.639 94.4359C100.989 95.1982 99.0817 94.097 98.9169 92.287L98.6201 89.0293C98.528 88.0182 97.8621 87.1504 96.9093 86.7997L93.8395 85.67C92.1338 85.0422 91.5638 82.9149 92.7271 81.5185L94.8207 79.0052C95.4706 78.2251 95.6134 77.1406 95.1876 76.2189L93.8157 73.2493C93.0535 71.5993 94.1547 69.692 95.9647 69.5272L99.2223 69.2304C100.233 69.1383 101.101 68.4724 101.452 67.5196L102.582 64.4498Z" fill="white" stroke="#3139CE" stroke-width="2.63"/>
</g>
<defs>
<linearGradient id="paint0_linear" x1="41.157" y1="69.4501" x2="68.7363" y2="148.508" gradientUnits="userSpaceOnUse">
<stop stop-color="#D6D7F5"/>
<stop offset="0.860503" stop-color="#D6D7F5" stop-opacity="0"/>
</linearGradient>
<linearGradient id="paint1_linear" x1="120.657" y1="95.7449" x2="132.072" y2="119.03" gradientUnits="userSpaceOnUse">
<stop stop-color="#D6D7F5" stop-opacity="0"/>
<stop offset="1" stop-color="#D6D7F5"/>
</linearGradient>
<clipPath id="clip0">
<rect width="150" height="150" fill="white"/>
</clipPath>
</defs>
</svg>
