<svg width="150" height="150" viewBox="0 0 150 150" fill="none" xmlns="http://www.w3.org/2000/svg">
<g clip-path="url(#clip0)">
<circle cx="43.5155" cy="75.5155" r="11.5155" fill="white" stroke="#3139CE" stroke-width="2.63158"/>
<path d="M84.2655 58.4911L91.0381 70.2215L92.3995 72.5795L109.501 102.2C109.864 102.829 109.648 103.633 109.019 103.996L51.3992 137.263C50.9365 137.53 50.3789 137.484 49.9719 137.191L45.0062 128.82L24.3678 93.0731C24.0047 92.4441 24.2202 91.6399 24.8491 91.2767L82.4692 58.0098C83.0982 57.6466 83.9024 57.8621 84.2655 58.4911Z" fill="white"/>
<path opacity="0.8" fill-rule="evenodd" clip-rule="evenodd" d="M31.2288 96.7306C30.5025 95.4727 30.9335 93.8642 32.1914 93.138L89.8115 59.871C91.0694 59.1447 92.6779 59.5757 93.4042 60.8336L100.024 72.2994C100.619 73.3309 101.834 73.8338 102.984 73.5256L114.036 70.5643C115.439 70.1884 116.881 71.021 117.257 72.424L120.241 83.5616C120.617 84.9655 122.06 85.7986 123.464 85.4224L133.696 82.6807C135.099 82.3048 136.541 83.1374 136.917 84.5404L139.08 92.6133C139.456 94.0163 138.624 95.4584 137.221 95.8344L126.989 98.5761C125.585 98.9522 124.752 100.395 125.128 101.799L130.319 121.174C130.695 122.577 129.863 124.02 128.46 124.396L60.0149 142.735C58.8082 143.059 57.5725 142.488 57.0112 141.429C56.8353 141.097 56.6516 140.764 56.4639 140.439L31.2288 96.7306Z" fill="url(#paint0_linear)"/>
<path d="M134.08 92.6133L131.917 84.5404C131.541 83.1374 130.099 82.3048 128.696 82.6807L114 86.6186L117.5 99.7788L132.221 95.8344C133.624 95.4584 134.456 94.0163 134.08 92.6133Z" stroke="#3139CE" stroke-width="2.63"/>
<path fill-rule="evenodd" clip-rule="evenodd" d="M22.0897 94.388C21.0004 92.5012 21.6468 90.0884 23.5337 88.9991L81.1538 55.7321C83.0407 54.6427 85.4534 55.2892 86.5428 57.176L93.6677 69.5168L105.695 66.294C107.8 65.7301 109.963 66.979 110.527 69.0836L123.589 117.834C124.153 119.939 122.904 122.102 120.8 122.666L52.355 141.005C50.3636 141.539 48.3197 140.449 47.628 138.548C47.5182 138.406 47.4168 138.256 47.3248 138.096L22.0897 94.388ZM110.334 106.273L57.09 137.014L120.119 120.125C120.821 119.937 121.237 119.216 121.049 118.515L107.986 69.7642C107.798 69.0627 107.077 68.6464 106.376 68.8344L95.0291 71.8747L111.778 100.884C112.867 102.771 112.221 105.184 110.334 106.273ZM91.0377 70.2215L84.2652 58.491C83.9021 57.8621 83.0978 57.6466 82.4689 58.0097L24.8488 91.2767C24.2198 91.6398 24.0043 92.4441 24.3674 93.073L45.0058 128.82L49.9715 137.19C50.3785 137.484 50.9361 137.53 51.3988 137.263L109.019 103.996C109.648 103.633 109.863 102.828 109.5 102.2L92.3991 72.5795L91.0377 70.2215Z" fill="#3139CE"/>
<circle opacity="0.8" cx="87.5155" cy="31.5155" r="11.5155" fill="url(#paint1_linear)"/>
<circle cx="83.5155" cy="27.5155" r="11.5155" stroke="#3139CE" stroke-width="2.63158"/>
</g>
<defs>
<linearGradient id="paint0_linear" x1="56.0355" y1="79.5" x2="81.2052" y2="163.018" gradientUnits="userSpaceOnUse">
<stop stop-color="#D6D7F5"/>
<stop offset="0.860503" stop-color="#D6D7F5" stop-opacity="0"/>
</linearGradient>
<linearGradient id="paint1_linear" x1="81.3507" y1="25.5242" x2="89.9049" y2="47.3594" gradientUnits="userSpaceOnUse">
<stop stop-color="#D6D7F5"/>
<stop offset="0.860503" stop-color="#D6D7F5" stop-opacity="0"/>
</linearGradient>
<clipPath id="clip0">
<rect width="150" height="150" fill="white"/>
</clipPath>
</defs>
</svg>
