<svg width="150" height="150" viewBox="0 0 150 150" fill="none" xmlns="http://www.w3.org/2000/svg">
<g clip-path="url(#clip0)">
<path opacity="0.8" d="M78 124L54 127.5C55.9998 140.7 65.1667 142.333 69.5002 141.5L87.5002 138.5C77.9002 135.3 77.1667 127.5 78 124Z" fill="url(#paint0_linear)"/>
<path d="M49.3242 96.0299C49.0923 94.596 50.0667 93.2456 51.5006 93.0137L73.4181 89.469C81.5961 88.1463 89.2979 93.7037 90.6205 101.882L95.3652 131.218C95.8942 134.49 93.6713 137.57 90.4001 138.099L69.8349 141.425C62.7473 142.572 56.0724 137.755 54.9262 130.668L49.3242 96.0299Z" stroke="#3139CE" stroke-width="2.63"/>
<rect x="8.375" y="55.748" width="63.6891" height="78.1639" rx="2.63" transform="rotate(-9.1869 8.375 55.748)" fill="white" stroke="#3139CE" stroke-width="2.63"/>
<path opacity="0.8" fill-rule="evenodd" clip-rule="evenodd" d="M13.6943 61.7224C13.518 60.632 14.2589 59.6051 15.3493 59.4287L74.2728 49.899C75.3632 49.7227 76.3901 50.4637 76.5664 51.5541L88.4071 124.767C88.4288 124.901 88.4366 125.034 88.4316 125.165C84.9185 108.672 69.0375 97.667 52.2063 100.389C35.3748 103.111 23.7723 118.562 25.6378 135.322C25.5915 135.199 25.5568 135.07 25.535 134.935L13.6943 61.7224ZM50.9736 92.7682C58.8652 91.4919 64.228 84.0598 62.9517 76.1681C61.6754 68.2764 54.2433 62.9137 46.3516 64.19C38.46 65.4663 33.0972 72.8984 34.3735 80.7901C35.6498 88.6817 43.0819 94.0445 50.9736 92.7682Z" fill="url(#paint1_linear)"/>
<path d="M20.5567 130.5C19.1532 114.059 30.6501 99.0667 47.2061 96.3891C63.8099 93.7038 79.4891 104.377 83.2822 120.5" stroke="#3139CE" stroke-width="2.63158"/>
<circle cx="43.6626" cy="74.4791" r="14.4748" transform="rotate(-9.1869 43.6626 74.4791)" stroke="#3139CE" stroke-width="2.63158"/>
<rect x="8.375" y="55.748" width="63.6891" height="78.1639" rx="2.63" transform="rotate(-9.1869 8.375 55.748)" stroke="#3139CE" stroke-width="2.63"/>
<path d="M69.3118 108.069C67.4802 104.985 68.5244 101.003 71.6307 99.2096C74.7732 97.3953 78.7934 98.5349 80.5163 101.728L94.8057 128.214C94.8699 128.333 94.9144 128.461 94.9373 128.595L95.4996 131.868C95.9792 134.658 94.1258 137.316 91.3414 137.83C90.5643 137.974 89.7807 138.072 88.9926 138.014C85.7049 137.77 76.8084 135.987 78.6209 123.744C75.7683 118.941 71.9911 112.581 69.3118 108.069Z" fill="white"/>
<path d="M78.6209 123.744L79.9217 123.936L79.9901 123.474L79.7515 123.072L78.6209 123.744ZM67.1231 132.645C66.7097 133.242 66.8586 134.061 67.4557 134.475C68.0529 134.888 68.872 134.739 69.2854 134.142L67.1231 132.645ZM88.9926 138.014L88.8954 139.325L88.9926 138.014ZM94.9373 128.595L96.2333 128.372L94.9373 128.595ZM69.3118 108.069L68.1811 108.741L69.3118 108.069ZM79.359 102.353L93.6484 128.838L95.963 127.589L81.6736 101.104L79.359 102.353ZM93.6413 128.817L94.2036 132.09L96.7957 131.645L96.2333 128.372L93.6413 128.817ZM89.0898 136.702C87.5452 136.588 84.8306 136.113 82.7359 134.368C80.7436 132.708 79.0695 129.693 79.9217 123.936L77.3201 123.551C76.3598 130.038 78.2278 134.036 81.0525 136.389C83.7748 138.657 87.1523 139.196 88.8954 139.325L89.0898 136.702ZM79.7515 123.072C76.8989 118.269 73.1218 111.909 70.4424 107.398L68.1811 108.741C70.8605 113.252 74.6377 119.612 77.4902 124.415L79.7515 123.072ZM77.9818 122.594C75.8264 123.793 70.738 127.423 67.1231 132.645L69.2854 134.142C72.6183 129.328 77.3659 125.946 79.2599 124.893L77.9818 122.594ZM94.2036 132.09C94.5613 134.171 93.1791 136.154 91.1024 136.537L91.5803 139.123C95.0726 138.478 97.3971 135.145 96.7957 131.645L94.2036 132.09ZM91.1024 136.537C90.3667 136.673 89.712 136.748 89.0898 136.702L88.8954 139.325C89.8494 139.396 90.7619 139.275 91.5803 139.123L91.1024 136.537ZM93.6484 128.838C93.6449 128.831 93.6425 128.824 93.6413 128.817L96.2333 128.372C96.1862 128.098 96.095 127.834 95.963 127.589L93.6484 128.838ZM72.2882 100.348C74.7889 98.9046 77.988 99.8115 79.359 102.353L81.6736 101.104C79.5988 97.2582 74.7575 95.8859 70.9732 98.0707L72.2882 100.348ZM70.9732 98.0707C67.2335 100.23 65.9748 105.026 68.1811 108.741L70.4424 107.398C68.9855 104.945 69.8152 101.776 72.2882 100.348L70.9732 98.0707Z" fill="#3139CE"/>
</g>
<defs>
<linearGradient id="paint0_linear" x1="55.5002" y1="131.5" x2="68.0349" y2="143.316" gradientUnits="userSpaceOnUse">
<stop offset="0.12205" stop-color="#D6D7F5"/>
<stop offset="0.860503" stop-color="#D6D7F5" stop-opacity="0"/>
</linearGradient>
<linearGradient id="paint1_linear" x1="-9.02616" y1="34.8382" x2="61.1494" y2="157.452" gradientUnits="userSpaceOnUse">
<stop offset="0.121338" stop-color="#D6D7F5"/>
<stop offset="0.810786" stop-color="#D6D7F5" stop-opacity="0"/>
</linearGradient>
<clipPath id="clip0">
<rect width="150" height="150" fill="white"/>
</clipPath>
</defs>
</svg>
