<svg width="150" height="150" viewBox="0 0 150 150" fill="none" xmlns="http://www.w3.org/2000/svg">
<circle opacity="0.8" cx="75.1264" cy="46.372" r="12.1254" fill="url(#paint0_linear)"/>
<circle cx="70.9147" cy="42.1601" r="12.1254" stroke="#3139CE" stroke-width="2.63158"/>
<path opacity="0.7" fill-rule="evenodd" clip-rule="evenodd" d="M123.213 85.3095C123.213 84.5393 122.371 84.0476 121.657 84.3363C120.24 84.9091 118.699 85.2233 117.087 85.2233C110.109 85.2233 104.452 79.3305 104.452 72.0613C104.452 68.3794 105.903 65.0507 108.242 62.6619C109.019 61.8684 108.422 59.6943 107.311 59.6943H40.5549C39.1015 59.6943 37.9233 60.8725 37.9233 62.3259V118.135C37.9233 119.588 39.1015 120.766 40.5549 120.766H120.582C122.035 120.766 123.213 119.588 123.213 118.135V85.3095Z" fill="url(#paint1_linear)"/>
<path d="M112.349 54.4292H35.4277C33.8983 54.4292 32.6584 55.6691 32.6584 57.1985V112.732C32.6584 114.261 33.8983 115.501 35.4277 115.501H115.179C116.708 115.501 117.948 114.261 117.948 112.732V90.2299" stroke="#3139CE" stroke-width="2.63" stroke-linecap="round"/>
<path d="M121.299 74.6938L128 81.3949" stroke="#3139CE" stroke-width="2.63" stroke-linecap="round" stroke-linejoin="round"/>
<circle cx="117.975" cy="71.3696" r="6.15284" fill="white" stroke="#3139CE" stroke-width="2.63"/>
<rect x="55.2971" y="80.7534" width="45.5311" height="45.5311" rx="2.63" fill="white"/>
<rect opacity="0.8" x="60.562" y="86.0181" width="45.5311" height="45.5311" rx="2.63158" fill="url(#paint2_linear)"/>
<rect x="55.2971" y="80.7534" width="45.5311" height="45.5311" rx="2.63" stroke="#3139CE" stroke-width="2.63"/>
<path d="M63.9124 99.9644H92.3423" stroke="#3139CE" stroke-width="2.63" stroke-linecap="round" stroke-linejoin="round"/>
<path d="M63.9124 108.388H92.3423" stroke="#3139CE" stroke-width="2.63" stroke-linecap="round" stroke-linejoin="round"/>
<path d="M63.9124 92.5938H92.3423" stroke="#3139CE" stroke-width="2.63" stroke-linecap="round" stroke-linejoin="round"/>
<path d="M46.5386 70.4814H92.3424" stroke="#3139CE" stroke-width="2.63" stroke-linecap="round" stroke-linejoin="round"/>
<circle cx="32.1321" cy="112.869" r="8.95017" fill="white" stroke="#3139CE" stroke-width="2.63"/>
<path d="M28.9731 112.342L31.6055 114.975L35.2908 111.289" stroke="#3139CE" stroke-width="2.63" stroke-linecap="round" stroke-linejoin="round"/>
<defs>
<linearGradient id="paint0_linear" x1="68.635" y1="40.0633" x2="77.6423" y2="63.0549" gradientUnits="userSpaceOnUse">
<stop stop-color="#D6D7F5"/>
<stop offset="0.860503" stop-color="#D6D7F5" stop-opacity="0"/>
</linearGradient>
<linearGradient id="paint1_linear" x1="53.4904" y1="69.9125" x2="70.8737" y2="131.692" gradientUnits="userSpaceOnUse">
<stop stop-color="#D6D7F5"/>
<stop offset="0.860503" stop-color="#D6D7F5" stop-opacity="0"/>
</linearGradient>
<linearGradient id="paint2_linear" x1="18.2892" y1="45.2681" x2="69.6739" y2="184.616" gradientUnits="userSpaceOnUse">
<stop stop-color="#D6D7F5"/>
<stop offset="0.765697" stop-color="#D6D7F5" stop-opacity="0"/>
</linearGradient>
</defs>
</svg>
