<svg width="150" height="150" viewBox="0 0 150 150" fill="none" xmlns="http://www.w3.org/2000/svg">
<circle cx="39.1498" cy="68.1029" r="11.5155" fill="white" stroke="#3139CE" stroke-width="2.63158"/>
<path d="M78.8998 51.0786L85.6724 62.809L87.0338 65.167L104.135 94.7871C104.498 95.416 104.283 96.2203 103.654 96.5834L46.0335 129.85C45.5708 130.118 45.0132 130.072 44.6062 129.778L39.6404 121.407L19.0021 85.6606C18.639 85.0316 18.8544 84.2274 19.4834 83.8643L77.1035 50.5973C77.7325 50.2342 78.5367 50.4497 78.8998 51.0786Z" fill="white"/>
<path opacity="0.8" fill-rule="evenodd" clip-rule="evenodd" d="M25.863 89.3179C25.1368 88.06 25.5678 86.4515 26.8257 85.7252L84.4458 52.4583C85.7037 51.732 87.3122 52.163 88.0384 53.4209L94.6582 64.8867C95.2538 65.9182 96.4679 66.4211 97.6183 66.1128L108.67 63.1516C110.073 62.7756 111.515 63.6083 111.891 65.0113L114.875 76.1489C115.252 77.5528 116.695 78.3859 118.098 78.0097L128.331 75.268C129.734 74.8921 131.176 75.7247 131.552 77.1277L133.715 85.2006C134.091 86.6036 133.258 88.0457 131.855 88.4216L121.623 91.1633C120.219 91.5395 119.386 92.9825 119.762 94.3863L124.954 113.762C125.33 115.165 124.497 116.607 123.094 116.983L54.6492 135.323C53.4425 135.646 52.2068 135.075 51.6455 134.016C51.4696 133.685 51.2859 133.352 51.0981 133.026L25.863 89.3179Z" fill="url(#paint0_linear)"/>
<path d="M128.715 85.2006L126.552 77.1277C126.176 75.7247 124.734 74.8921 123.331 75.268L108.634 79.2058L112.134 92.366L126.855 88.4216C128.258 88.0457 129.091 86.6036 128.715 85.2006Z" stroke="#3139CE" stroke-width="2.63"/>
<path fill-rule="evenodd" clip-rule="evenodd" d="M16.7243 86.9752C15.6349 85.0883 16.2814 82.6756 18.1682 81.5862L75.7883 48.3192C77.6752 47.2298 80.0879 47.8763 81.1773 49.7632L88.3022 62.1039L100.33 58.8812C102.434 58.3173 104.597 59.5662 105.161 61.6707L118.224 110.421C118.788 112.526 117.539 114.689 115.434 115.253L46.9896 133.593C44.9981 134.126 42.9542 133.037 42.2625 131.135C42.1527 130.993 42.0513 130.843 41.9593 130.684L16.7243 86.9752ZM104.968 98.8606L51.7245 129.601L114.754 112.712C115.455 112.524 115.871 111.803 115.684 111.102L102.621 62.3514C102.433 61.6499 101.712 61.2336 101.01 61.4216L89.6636 64.4619L106.412 93.4717C107.502 95.3585 106.855 97.7712 104.968 98.8606ZM85.6723 62.8086L78.8997 51.0782C78.5366 50.4492 77.7323 50.2338 77.1034 50.5969L19.4833 83.8639C18.8543 84.227 18.6388 85.0312 19.002 85.6602L39.6403 121.407L44.606 129.778C45.0131 130.071 45.5707 130.117 46.0334 129.85L103.653 96.583C104.282 96.2199 104.498 95.4156 104.135 94.7867L87.0337 65.1666L85.6723 62.8086Z" fill="#3139CE"/>
<circle opacity="0.8" cx="82.1498" cy="30.1029" r="11.5155" fill="url(#paint1_linear)"/>
<circle cx="78.1498" cy="26.1029" r="11.5155" stroke="#3139CE" stroke-width="2.63158"/>
<defs>
<linearGradient id="paint0_linear" x1="50.6698" y1="72.0873" x2="75.8395" y2="155.605" gradientUnits="userSpaceOnUse">
<stop stop-color="#D6D7F5"/>
<stop offset="0.860503" stop-color="#D6D7F5" stop-opacity="0"/>
</linearGradient>
<linearGradient id="paint1_linear" x1="75.985" y1="24.1116" x2="84.5391" y2="45.9468" gradientUnits="userSpaceOnUse">
<stop stop-color="#D6D7F5"/>
<stop offset="0.860503" stop-color="#D6D7F5" stop-opacity="0"/>
</linearGradient>
</defs>
</svg>
