<svg width="150" height="150" viewBox="0 0 150 150" fill="none" xmlns="http://www.w3.org/2000/svg">
<path d="M68.5061 83.8481V90.3783C68.5061 95.9011 64.029 100.378 58.5061 100.378H26.0001" stroke="#3139CE" stroke-width="2.63" stroke-linecap="round"/>
<path d="M75 112.186L75 116.354C75 121.877 70.5228 126.354 65 126.354H34.8554" stroke="#3139CE" stroke-width="2.63" stroke-linecap="round"/>
<path d="M106.638 117.971V100.5H41.5296V131.971H63.5413H92.6377C100.37 131.971 106.638 125.703 106.638 117.971Z" fill="url(#paint0_linear)"/>
<path d="M101.566 100.969V116.354C101.566 121.877 97.089 126.354 91.5662 126.354H58.4698" stroke="#3139CE" stroke-width="2.63" stroke-linecap="round"/>
<path fill-rule="evenodd" clip-rule="evenodd" d="M107.585 63.4566C106.886 63.4566 106.346 62.8463 106.381 62.1479C106.399 61.802 106.408 61.4537 106.408 61.1034C106.408 50.0559 97.4525 41.1001 86.405 41.1001C78.8706 41.1001 72.3091 45.2657 68.8979 51.4194C68.2034 52.6723 66.7225 53.3226 65.3112 53.0768C64.5188 52.9388 63.7036 52.8668 62.8717 52.8668C56.5308 52.8668 51.1661 57.0466 49.3825 62.8012C49.11 63.6801 48.4815 64.4125 47.6591 64.8254C43.4226 66.9522 40.5151 71.3365 40.5151 76.3999C40.5151 83.5483 46.3101 89.3432 53.4584 89.3432H107.585C114.733 89.3432 120.528 83.5483 120.528 76.3999C120.528 69.2515 114.733 63.4566 107.585 63.4566Z" fill="url(#paint1_linear)"/>
<path d="M67.3252 84.4385H50.2047C43.0317 84.4385 37.2168 78.6235 37.2168 71.4505C37.2168 66.463 40.0281 62.132 44.1525 59.9559C45.1129 59.4492 45.8537 58.5867 46.1944 57.5557C48.0601 51.91 53.3795 47.836 59.6505 47.836C60.3288 47.836 60.9959 47.8837 61.6488 47.9758C63.3226 48.2121 65.0698 47.4475 65.9227 45.9881C69.4041 40.0309 75.8672 36.0288 83.265 36.0288C94.3506 36.0288 103.337 45.0155 103.337 56.1011C103.337 56.4527 103.328 56.8021 103.31 57.1493C103.274 57.8501 103.816 58.4625 104.518 58.4625C111.691 58.4625 117.506 64.2775 117.506 71.4505C117.506 78.6235 111.691 84.4385 104.518 84.4385H90.3493" stroke="#3139CE" stroke-width="2.63" stroke-linecap="round"/>
<path d="M80.9036 64.9565V90.3782C80.9036 95.9011 85.3807 100.378 90.9036 100.378H124" stroke="#3139CE" stroke-width="2.63" stroke-linecap="round"/>
<circle cx="75" cy="110.414" r="4.72289" fill="white" stroke="#3139CE" stroke-width="2.63"/>
<circle cx="100.976" cy="100.968" r="4.72289" fill="white" stroke="#3139CE" stroke-width="2.63"/>
<circle cx="50.2048" cy="125.764" r="4.72289" fill="white" stroke="#3139CE" stroke-width="2.63"/>
<circle cx="67.9158" cy="83.2576" r="4.72289" fill="white" stroke="#3139CE" stroke-width="2.63"/>
<circle cx="80.9036" cy="62.0046" r="4.72289" fill="white" stroke="#3139CE" stroke-width="2.63"/>
<defs>
<linearGradient id="paint0_linear" x1="89.7377" y1="159.656" x2="49.7351" y2="137.652" gradientUnits="userSpaceOnUse">
<stop stop-color="#D6D7F5"/>
<stop offset="0.588073" stop-color="#D6D7F5" stop-opacity="0"/>
</linearGradient>
<linearGradient id="paint1_linear" x1="55.1191" y1="49.1719" x2="66.934" y2="99.0389" gradientUnits="userSpaceOnUse">
<stop stop-color="#D6D7F5"/>
<stop offset="0.860503" stop-color="#D6D7F5" stop-opacity="0"/>
</linearGradient>
</defs>
</svg>
