<svg width="48" height="49" viewBox="0 0 48 49" fill="none" xmlns="http://www.w3.org/2000/svg">
<path d="M11.9116 25.064C11.9116 24.0096 11.11 23.1548 10.1212 23.1548H6.54049C5.55169 23.1548 4.75011 24.0096 4.75011 25.064V26.7702C4.75011 27.8246 5.55169 28.6794 6.54049 28.6794H10.1212C11.11 28.6794 11.9116 27.8246 11.9116 26.7702V25.064Z" fill="white"/>
<path d="M10.1212 24.1548H6.54049V22.1548H10.1212V24.1548ZM5.75011 25.064V26.7702H3.75011V25.064H5.75011ZM6.54049 27.6794H10.1212V29.6794H6.54049V27.6794ZM10.9116 26.7702V25.064H12.9116V26.7702H10.9116ZM10.1212 27.6794C10.4982 27.6794 10.9116 27.3338 10.9116 26.7702H12.9116C12.9116 28.3154 11.7219 29.6794 10.1212 29.6794V27.6794ZM5.75011 26.7702C5.75011 27.3338 6.16352 27.6794 6.54049 27.6794V29.6794C4.93985 29.6794 3.75011 28.3154 3.75011 26.7702H5.75011ZM6.54049 24.1548C6.16352 24.1548 5.75011 24.5003 5.75011 25.064H3.75011C3.75011 23.5188 4.93985 22.1548 6.54049 22.1548V24.1548ZM10.1212 22.1548C11.7219 22.1548 12.9116 23.5188 12.9116 25.064H10.9116C10.9116 24.5003 10.4982 24.1548 10.1212 24.1548V22.1548Z" fill="#3139CE"/>
<path d="M11.9116 38.814C11.9116 37.7596 11.11 36.9048 10.1212 36.9048H6.54049C5.55169 36.9048 4.75011 37.7596 4.75011 38.814V40.5202C4.75011 41.5746 5.55169 42.4294 6.54049 42.4294H10.1212C11.11 42.4294 11.9116 41.5746 11.9116 40.5202V38.814Z" fill="white"/>
<path d="M10.1212 37.9048H6.54049V35.9048H10.1212V37.9048ZM5.75011 38.814V40.5202H3.75011V38.814H5.75011ZM6.54049 41.4294H10.1212V43.4294H6.54049V41.4294ZM10.9116 40.5202V38.814H12.9116V40.5202H10.9116ZM10.1212 41.4294C10.4982 41.4294 10.9116 41.0838 10.9116 40.5202H12.9116C12.9116 42.0654 11.7219 43.4294 10.1212 43.4294V41.4294ZM5.75011 40.5202C5.75011 41.0838 6.16352 41.4294 6.54049 41.4294V43.4294C4.93985 43.4294 3.75011 42.0654 3.75011 40.5202H5.75011ZM6.54049 37.9048C6.16352 37.9048 5.75011 38.2503 5.75011 38.814H3.75011C3.75011 37.2688 4.93985 35.9048 6.54049 35.9048V37.9048ZM10.1212 35.9048C11.7219 35.9048 12.9116 37.2688 12.9116 38.814H10.9116C10.9116 38.2503 10.4982 37.9048 10.1212 37.9048V35.9048Z" fill="#3139CE"/>
<path d="M11.3867 5.92865C11.3867 4.0565 9.95552 2.53882 8.19005 2.53882C6.42458 2.53882 4.99339 4.0565 4.99339 5.92865L4.99339 7.96255L11.3867 7.96255L11.3867 5.92865Z" stroke="#3139CE" stroke-width="2"/>
<path d="M13.5181 10.6448C13.5181 9.076 12.3254 7.8042 10.8542 7.8042L5.5264 7.8042C4.05517 7.8042 2.86251 9.076 2.86251 10.6448L2.86251 13.1835C2.86251 14.7524 4.05517 16.0242 5.5264 16.0242L10.8542 16.0242C12.3254 16.0242 13.5181 14.7524 13.5181 13.1835L13.5181 10.6448Z" fill="white"/>
<path d="M13.5181 13.1835L14.5181 13.1835L13.5181 13.1835ZM2.86251 13.1835L3.86251 13.1835L2.86251 13.1835ZM2.86251 10.6448L1.86251 10.6448L2.86251 10.6448ZM13.5181 10.6448L12.5181 10.6448L13.5181 10.6448ZM10.8542 8.8042L5.5264 8.8042L5.5264 6.8042L10.8542 6.8042L10.8542 8.8042ZM3.86251 10.6448L3.86251 13.1835L1.86251 13.1835L1.86251 10.6448L3.86251 10.6448ZM5.5264 15.0242L10.8542 15.0242L10.8542 17.0242L5.5264 17.0242L5.5264 15.0242ZM12.5181 13.1835L12.5181 10.6448L14.5181 10.6448L14.5181 13.1835L12.5181 13.1835ZM10.8542 15.0242C11.7136 15.0242 12.5181 14.2616 12.5181 13.1835L14.5181 13.1835C14.5181 15.2432 12.9372 17.0242 10.8542 17.0242L10.8542 15.0242ZM3.86251 13.1835C3.86251 14.2616 4.66701 15.0242 5.5264 15.0242L5.5264 17.0242C3.44334 17.0242 1.86251 15.2432 1.86251 13.1835L3.86251 13.1835ZM5.5264 8.8042C4.66701 8.8042 3.86251 9.5668 3.86251 10.6448L1.86251 10.6448C1.86251 8.58521 3.44334 6.8042 5.5264 6.8042L5.5264 8.8042ZM10.8542 6.8042C12.9372 6.8042 14.5181 8.58521 14.5181 10.6448L12.5181 10.6448C12.5181 9.5668 11.7136 8.8042 10.8542 8.8042L10.8542 6.8042Z" fill="#3139CE"/>
<path d="M19.4165 12.167H41.4165" stroke="#3139CE" stroke-width="2" stroke-linecap="round" stroke-linejoin="round"/>
<path d="M19.4165 25.917H41.4165" stroke="#3139CE" stroke-width="2" stroke-linecap="round" stroke-linejoin="round"/>
<path d="M19.4165 39.667H41.4165" stroke="#3139CE" stroke-width="2" stroke-linecap="round" stroke-linejoin="round"/>
</svg>
