<svg width="48" height="49" viewBox="0 0 48 49" fill="none" xmlns="http://www.w3.org/2000/svg">
<rect width="14.58" height="15.7016" rx="7.29001" transform="matrix(-1 0 0 1 18.3765 21.741)" fill="white" stroke="#3139CE" stroke-width="2"/>
<rect width="14.58" height="15.7016" rx="7.29001" transform="matrix(-1 0 0 1 44.8438 21.741)" fill="white" stroke="#3139CE" stroke-width="2"/>
<path d="M32.5088 12.1624C32.5088 7.45488 28.6926 3.63867 23.985 3.63867C19.2775 3.63867 15.4613 7.45488 15.4613 12.1624C15.4613 16.87 19.2775 20.6862 23.985 20.6862C28.6926 20.6862 32.5088 16.87 32.5088 12.1624Z" fill="white" stroke="#3139CE" stroke-width="2"/>
<path d="M16.1338 16.6941C16.1338 13.9068 13.8742 11.6472 11.0869 11.6472C8.29951 11.6472 6.03992 13.9068 6.03992 16.6941C6.03992 19.4815 8.29951 21.7411 11.0869 21.7411C13.8742 21.7411 16.1338 19.4815 16.1338 16.6941Z" fill="white" stroke="#3139CE" stroke-width="2"/>
<path d="M42.6021 16.6941C42.6021 13.9068 40.3425 11.6472 37.5551 11.6472C34.7678 11.6472 32.5082 13.9068 32.5082 16.6941C32.5082 19.4815 34.7678 21.7411 37.5551 21.7411C40.3425 21.7411 42.6021 19.4815 42.6021 16.6941Z" fill="white" stroke="#3139CE" stroke-width="2"/>
<path d="M34.6392 31.4477C34.6392 25.5632 29.8689 20.793 23.9845 20.793C18.1001 20.793 13.3298 25.5632 13.3298 31.4477V33.5786C13.3298 39.463 18.1001 44.2333 23.9845 44.2333C29.8689 44.2333 34.6392 39.463 34.6392 33.5786V31.4477Z" fill="white" stroke="#3139CE" stroke-width="2"/>
<rect x="16.5522" y="32.1909" width="14.8647" height="14.8647" rx="5" fill="white" stroke="#3139CE" stroke-width="2"/>
<path d="M20.6396 39.4438L23.5465 42.3507L27.6992 38.198" stroke="#3139CE" stroke-width="2" stroke-linecap="round" stroke-linejoin="round"/>
</svg>
