<svg width="48" height="48" viewBox="0 0 48 48" fill="none" xmlns="http://www.w3.org/2000/svg">
<path d="M12.2401 30.6884C12.2401 31.0198 11.9715 31.2884 11.6401 31.2884H3.79091C3.45954 31.2884 3.19091 31.0198 3.19091 30.6884V29.6288C3.19091 29.4514 3.26935 29.2832 3.40516 29.1692L7.44824 25.7755C8.12279 25.2009 8.63826 24.6562 8.99462 24.1414C9.36372 23.6147 9.54827 23.064 9.54827 22.4893V22.2559C9.54827 21.6453 9.35099 21.1665 8.95644 20.8193C8.57462 20.4721 8.05279 20.2985 7.39097 20.2985C7.02187 20.2985 6.69732 20.3524 6.41732 20.4602C6.15004 20.5559 5.91458 20.6936 5.71094 20.8732C5.50731 21.0527 5.33548 21.2623 5.19548 21.5017C5.1667 21.5558 5.13922 21.6109 5.11304 21.6669C4.96507 21.9833 4.60966 22.1726 4.28111 22.054L3.56102 21.794C3.25064 21.682 3.08588 21.3382 3.23292 21.0428C3.33206 20.8436 3.44533 20.6494 3.57273 20.4602C3.81456 20.089 4.12001 19.7598 4.48911 19.4725C4.85821 19.1852 5.29094 18.9577 5.78731 18.7901C6.29641 18.6225 6.88823 18.5387 7.56279 18.5387C8.23734 18.5387 8.84189 18.6345 9.37645 18.826C9.911 19.0056 10.3565 19.263 10.7128 19.5982C11.0819 19.9214 11.3619 20.3105 11.5528 20.7654C11.7437 21.2204 11.8392 21.7172 11.8392 22.2559C11.8392 22.7587 11.7565 23.2256 11.591 23.6566C11.4256 24.0875 11.1965 24.4946 10.9037 24.8777C10.611 25.2608 10.2674 25.6259 9.87282 25.9731C9.49099 26.3202 9.08372 26.6734 8.65098 27.0325L6.83887 28.498C6.39909 28.8536 6.65057 29.5645 7.21615 29.5645H11.6401C11.9715 29.5645 12.2401 29.8332 12.2401 30.1645V30.6884Z" fill="#3139CE"/>
<path d="M20.8128 31.2884C20.4814 31.2884 20.2128 31.0198 20.2128 30.6884V29.4462C20.2128 29.1149 19.9441 28.8462 19.6128 28.8462H14.6272C14.2959 28.8462 14.0272 28.5776 14.0272 28.2462V27.2816C14.0272 27.1659 14.0607 27.0527 14.1235 26.9556L19.2527 19.0283C19.3633 18.8574 19.5529 18.7542 19.7565 18.7542H21.6555C21.9869 18.7542 22.2555 19.0228 22.2555 19.3542V26.648C22.2555 26.9794 22.5241 27.248 22.8555 27.248H23.4692C23.8006 27.248 24.0692 27.5167 24.0692 27.848V28.2462C24.0692 28.5776 23.8006 28.8462 23.4692 28.8462H22.8555C22.5241 28.8462 22.2555 29.1149 22.2555 29.4462V30.6884C22.2555 31.0198 21.9869 31.2884 21.6555 31.2884H20.8128ZM16.4452 26.3264C16.1916 26.7259 16.4785 27.248 16.9517 27.248H19.6128C19.9441 27.248 20.2128 26.9794 20.2128 26.648V20.6901C20.2128 20.6424 20.1742 20.6038 20.1265 20.6038C20.097 20.6038 20.0695 20.6189 20.0537 20.6438L16.4452 26.3264Z" fill="#3139CE"/>
<path d="M31.2727 34C31.0139 34 30.7842 33.834 30.703 33.5883L25.8114 18.7883C25.6831 18.4001 25.9722 18 26.3811 18H26.9118C27.1706 18 27.4003 18.166 27.4815 18.4117L32.3731 33.2117C32.5014 33.5999 32.2123 34 31.8034 34H31.2727Z" fill="#3139CE"/>
<path d="M36.9551 31.2884C36.5209 31.2884 36.2304 30.8415 36.4068 30.4447L40.4867 21.268C40.6631 20.8712 40.3726 20.4242 39.9384 20.4242H36.4217C36.0904 20.4242 35.8217 20.6929 35.8217 21.0242V22.1407C35.8217 22.4721 35.5531 22.7407 35.2217 22.7407H34.5699C34.2385 22.7407 33.9699 22.4721 33.9699 22.1407V19.3542C33.9699 19.0228 34.2385 18.7542 34.5699 18.7542H42.4C42.7314 18.7542 43 19.0228 43 19.3542V20.3889C43 20.4714 42.983 20.5531 42.95 20.6287L38.4606 30.9282C38.3652 31.147 38.1493 31.2884 37.9106 31.2884H36.9551Z" fill="#3139CE"/>
</svg>
