<svg width="48" height="48" viewBox="0 0 48 48" fill="none" xmlns="http://www.w3.org/2000/svg">
<path d="M38.045 9.52692C38.273 9.29556 38.6183 9.22508 38.9188 9.34855L42.6705 10.8902C43.4926 11.228 44.0267 12.0115 43.9829 12.8927C43.6884 18.8309 40.3935 41.2846 25.1463 46.2866C24.7653 46.4032 24.3437 46.4032 23.9627 46.2866C8.71485 41.2846 5.42047 18.8308 5.12603 12.8927C5.08233 12.0114 5.61636 11.228 6.43846 10.8902L23.7119 3.79225C24.2514 3.57055 24.8576 3.57055 25.3972 3.79225L32.1544 6.56895C32.6443 6.77024 32.8069 7.38336 32.4812 7.80094L24.6183 17.8815C24.3479 18.2282 24.4908 18.7352 24.9033 18.8927L28.1673 20.1394C28.4978 20.2657 28.6689 20.6279 28.5552 20.9605L25.8669 28.8202C25.7104 29.2777 26.3086 29.6109 26.6213 29.2404L35.329 18.9225C35.6195 18.5783 35.4824 18.053 35.06 17.8916L32.1742 16.7894C31.7316 16.6203 31.6079 16.0575 31.9394 15.7211L38.045 9.52692Z" stroke="#3139CE" stroke-width="2" stroke-linecap="round" stroke-linejoin="round"/>
<path d="M3.58838 31.3364C4.06983 32.4092 5.58442 34.307 7.7912 33.3166C9.99798 32.3262 12.0822 31.3908 12.8484 31.0469C13.7679 30.6342 15.318 29.1652 14.1625 26.5906" stroke="#3139CE" stroke-width="2" stroke-linecap="round" stroke-linejoin="round"/>
<path d="M19.1138 37.6243C18.6323 36.5515 17.1177 34.6537 14.9109 35.6441C12.7042 36.6345 10.62 37.5699 9.85372 37.9138C8.93423 38.3265 7.38411 39.7955 8.53961 42.3701" stroke="#3139CE" stroke-width="2" stroke-linecap="round" stroke-linejoin="round"/>
<path d="M18.2231 31.9482C16.8484 32.0129 15.4866 32.0717 14.3698 32.573M4.89054 37.932C5.42043 37.1419 6.41184 36.1446 7.91854 35.4683M14.3698 32.573C11.9524 33.6579 9.71569 34.6618 7.91854 35.4683M14.3698 32.573L7.91854 35.4683" stroke="#3139CE" stroke-width="2" stroke-linecap="round" stroke-linejoin="round"/>
<path d="M10.7014 30.7511C11.7546 30.2785 12.9677 30.6959 13.411 31.6836L15.0163 35.2603C15.4595 36.2479 14.9651 37.4318 13.9119 37.9045L13.0597 38.2869L12.2076 38.6694C11.1544 39.1421 9.94125 38.7246 9.49797 37.7369L7.89273 34.1603C7.44946 33.1726 7.9439 31.9887 8.99711 31.516L9.84926 31.1336L10.7014 30.7511Z" fill="white"/>
<path d="M12.4987 32.0931L14.1039 35.6697L15.9286 34.8508L14.3233 31.2741L12.4987 32.0931ZM10.4103 37.3275L8.80506 33.7508L6.9804 34.5697L8.58565 38.1464L10.4103 37.3275ZM8.80506 33.7508C8.61231 33.3213 8.80113 32.7001 9.40657 32.4284L8.58765 30.6037C7.08668 31.2774 6.28661 33.0239 6.9804 34.5697L8.80506 33.7508ZM11.7981 37.7571C11.1927 38.0288 10.6031 37.7569 10.4103 37.3275L8.58565 38.1464C9.27944 39.6922 11.1161 40.2554 12.6171 39.5817L11.7981 37.7571ZM14.1039 35.6697C14.2967 36.0992 14.1079 36.7204 13.5024 36.9921L14.3213 38.8168C15.8223 38.1432 16.6224 36.3967 15.9286 34.8508L14.1039 35.6697ZM14.3233 31.2741C13.6295 29.7283 11.7929 29.1652 10.2919 29.8388L11.1109 31.6635C11.7163 31.3917 12.3059 31.6636 12.4987 32.0931L14.3233 31.2741ZM9.40657 32.4284L10.2587 32.0459L9.43979 30.2213L8.58765 30.6037L9.40657 32.4284ZM10.2587 32.0459L11.1109 31.6635L10.2919 29.8388L9.43979 30.2213L10.2587 32.0459ZM13.5024 36.9921L12.6503 37.3746L13.4692 39.1993L14.3213 38.8168L13.5024 36.9921ZM12.6503 37.3746L11.7981 37.7571L12.6171 39.5817L13.4692 39.1993L12.6503 37.3746Z" fill="#3139CE"/>
</svg>
