<svg width="48" height="48" viewBox="0 0 48 48" fill="none" xmlns="http://www.w3.org/2000/svg">
<path d="M7.20801 7C7.208 10.3055 8.90801 16.9166 15.7081 16.9166C22.5081 16.9166 28.9304 16.9166 31.2915 16.9166C34.1249 16.9167 39.7916 14.9334 39.7916 7" stroke="#3139CE" stroke-width="2" stroke-linecap="round" stroke-linejoin="round"/>
<path d="M39.7915 41C39.7915 37.6945 38.0915 31.0834 31.2915 31.0834C24.4914 31.0834 18.0691 31.0834 15.708 31.0834C12.8746 31.0833 7.20792 33.0666 7.20792 41" stroke="#3139CE" stroke-width="2" stroke-linecap="round" stroke-linejoin="round"/>
<path d="M44.0415 25.4167C40.441 24.0001 36.8808 22.5834 33.4393 22.5834M2.95796 25.4167C5.22661 24.0001 8.91737 22.5834 13.5602 22.5834M33.4393 22.5834C25.9903 22.5834 19.098 22.5834 13.5602 22.5834M33.4393 22.5834L13.5602 22.5834" stroke="#3139CE" stroke-width="2" stroke-linecap="round" stroke-linejoin="round"/>
<path d="M27.2188 9.09863C31.8153 9.09863 35.5415 12.593 35.5415 16.9035L35.5415 32.5131C35.5415 36.8236 31.8153 40.3179 27.2188 40.3179L23.4998 40.3179L19.7808 40.3179C15.1843 40.3179 11.458 36.8236 11.458 32.5131L11.458 16.9035C11.458 12.593 15.1843 9.09863 19.7808 9.09863L23.4998 9.09863L27.2188 9.09863Z" fill="white"/>
<path d="M27.2188 9.09863L27.2188 8.09863L27.2188 9.09863ZM34.5415 16.9035L34.5415 32.5131L36.5415 32.5131L36.5415 16.9035L34.5415 16.9035ZM12.458 32.5131L12.458 16.9035L10.458 16.9035L10.458 32.5131L12.458 32.5131ZM12.458 16.9035C12.458 13.2048 15.675 10.0986 19.7808 10.0986L19.7808 8.09863C14.6935 8.09863 10.458 11.9811 10.458 16.9035L12.458 16.9035ZM19.7808 39.3179C15.675 39.3179 12.458 36.2118 12.458 32.5131L10.458 32.5131C10.458 37.4354 14.6935 41.3179 19.7808 41.3179L19.7808 39.3179ZM34.5415 32.5131C34.5415 36.2118 31.3245 39.3179 27.2188 39.3179L27.2188 41.3179C32.3061 41.3179 36.5415 37.4354 36.5415 32.5131L34.5415 32.5131ZM36.5415 16.9035C36.5415 11.9811 32.3061 8.09863 27.2188 8.09863L27.2188 10.0986C31.3245 10.0986 34.5415 13.2048 34.5415 16.9035L36.5415 16.9035ZM19.7808 10.0986L23.4998 10.0986L23.4998 8.09863L19.7808 8.09863L19.7808 10.0986ZM23.4998 10.0986L27.2188 10.0986L27.2188 8.09863L23.4998 8.09863L23.4998 10.0986ZM27.2188 39.3179L23.4998 39.3179L23.4998 41.3179L27.2188 41.3179L27.2188 39.3179ZM23.4998 39.3179L19.7808 39.3179L19.7808 41.3179L23.4998 41.3179L23.4998 39.3179ZM22.4998 9.09863L22.4998 40.3179L24.4998 40.3179L24.4998 9.09863L22.4998 9.09863Z" fill="#3139CE"/>
</svg>
