<svg width="120" height="120" viewBox="0 0 120 120" fill="none" xmlns="http://www.w3.org/2000/svg">
<circle r="60" transform="matrix(1 0 0 -1 60 60)" fill="white"/>
<path d="M86.41 49.5229C86.9805 48.2868 88.9683 45.9632 92.3544 46.5581C96.5872 47.3018 96.7146 51.2744 96.4634 52.7043C96.2122 54.1341 94.3805 57.173 90.606 56.5098L89.8322 60.9138" stroke="#3139CE" stroke-width="2" stroke-linecap="round" stroke-linejoin="round"/>
<rect x="87.979" y="64.1445" width="2.67342" height="3.04288" rx="1.08252" transform="rotate(9.96482 87.979 64.1445)" fill="#3139CE"/>
<path fill-rule="evenodd" clip-rule="evenodd" d="M39.6669 38.4699C45.5483 35.0743 53.0688 37.0894 56.4644 42.9708L58.1405 45.8739L57.675 46.1426C53.2926 48.6728 51.7911 54.2766 54.3212 58.659L57.0738 63.4266C59.604 67.809 65.2078 69.3105 69.5902 66.7803L71.7939 65.508C76.1764 62.9778 77.6779 57.374 75.1477 52.9916L72.3951 48.2241C69.8732 43.8559 64.2975 42.3499 59.9215 44.8458L58.2453 41.9426C54.2819 35.0776 45.5036 32.7255 38.6387 36.689L36.9221 37.6801C30.0571 41.6436 27.705 50.4218 31.6685 57.2868L37.3718 67.1652L36.9615 67.4021C31.5016 70.5543 29.6309 77.5359 32.7832 82.9958L36.298 89.0838C39.4503 94.5437 46.4319 96.4144 51.8918 93.2621L52.3037 93.0243C55.9946 99.1873 63.6129 101.602 70.0983 98.912C71.5423 100.042 73.5848 100.248 75.27 99.2753L80.603 96.1963C82.8182 94.9174 83.5772 92.0848 82.2982 89.8696C81.0193 87.6544 78.1867 86.8954 75.9715 88.1743L70.6385 91.2533C68.5398 92.465 67.7482 95.0713 68.7584 97.2259C63.3397 99.172 57.1483 97.0802 54.0849 91.9959L54.7059 91.6374C60.1658 88.4851 62.0365 81.5035 58.8842 76.0436L55.3694 69.9557C52.2171 64.4958 45.2355 62.6251 39.7756 65.7773L39.1527 66.1369L33.4494 56.2585C30.0538 50.3771 32.0689 42.8566 37.9503 39.461L39.6669 38.4699Z" fill="url(#paint0_linear)"/>
<path d="M49.991 89.2233C53.4917 95.2868 61.0385 97.558 67.2522 94.5955M56.5261 43.2789L56.4421 43.1332L54.2703 39.3717C50.5908 32.9985 42.4414 30.8149 36.0682 34.4944L34.3517 35.4855C27.9785 39.1651 25.7949 47.3144 29.4744 53.6876L35.6471 64.3789" stroke="#3139CE" stroke-width="2"/>
<rect x="25.3955" y="70.4014" width="24.0238" height="27.8042" rx="10.1021" transform="rotate(-30 25.3955 70.4014)" stroke="#3139CE" stroke-width="2"/>
<rect x="76.5215" y="84.1777" width="7.20654" height="13.3645" rx="3.60327" transform="rotate(60 76.5215 84.1777)" stroke="#3139CE" stroke-width="2"/>
<rect x="48.0596" y="48.0156" width="18.8135" height="21.7739" rx="7.91116" transform="rotate(-30 48.0596 48.0156)" stroke="#3139CE" stroke-width="2"/>
<defs>
<linearGradient id="paint0_linear" x1="23.4776" y1="70.0179" x2="82.8617" y2="71.8693" gradientUnits="userSpaceOnUse">
<stop stop-color="#D6D7F5"/>
<stop offset="1" stop-color="#D6D7F5" stop-opacity="0"/>
</linearGradient>
</defs>
</svg>
