<svg width="121" height="120" viewBox="0 0 121 120" fill="none" xmlns="http://www.w3.org/2000/svg">
<circle r="60" transform="matrix(1 0 0 -1 60.5 60)" fill="white"/>
<g clip-path="url(#clip0)">
<path d="M79.9034 39.6628L71.6477 29.3073C70.847 28.303 69.3207 28.303 68.52 29.3073L60.2643 39.6628C59.2198 40.9729 60.1527 42.9095 61.8281 42.9095H62.5969C63.7015 42.9095 64.5969 43.805 64.5969 44.9095V69.8143C64.5969 70.9189 63.7015 71.8143 62.5969 71.8143H53.3929C52.2884 71.8143 51.3929 72.7097 51.3929 73.8143V82.3819C51.3929 83.4865 50.4975 84.3819 49.3929 84.3819H40.3765C39.2719 84.3819 38.3765 85.2773 38.3765 86.3819V94.6986C38.3765 95.8032 39.2719 96.6986 40.3765 96.6986H73.5713C74.6758 96.6986 75.5713 95.8032 75.5713 94.6986V44.9095C75.5713 43.805 76.4667 42.9095 77.5713 42.9095H78.3396C80.015 42.9095 80.9479 40.9729 79.9034 39.6628Z" fill="url(#paint0_linear)"/>
<path d="M73.9809 59.9837V41.2162C73.9809 40.6639 74.4286 40.2162 74.9809 40.2162H76.7094C78.3918 40.2162 79.3225 38.2655 78.264 36.9578L69.048 25.5728C68.2476 24.5839 66.7395 24.5839 65.939 25.5728L56.7231 36.9578C55.6646 38.2655 56.5952 40.2162 58.2776 40.2162H60.0066C60.5589 40.2162 61.0066 40.6639 61.0066 41.2162V58.1723V69.1209M61.0066 69.1209H48.8026C47.698 69.1209 46.8026 70.0164 46.8026 71.1209V81.6885M61.0066 69.1209H78.9015M46.8026 81.6885H34.7861C33.6816 81.6885 32.7861 82.584 32.7861 83.6885V91.8073M46.8026 81.6885H61.0066" stroke="#3139CE" stroke-width="2" stroke-linecap="round" stroke-linejoin="round"/>
<circle cx="79.7235" cy="60.5096" r="8.75181" fill="white" stroke="#3139CE" stroke-width="2"/>
</g>
<defs>
<linearGradient id="paint0_linear" x1="38.3765" y1="27.3457" x2="82.4919" y2="98.9661" gradientUnits="userSpaceOnUse">
<stop stop-color="#D6D7F5"/>
<stop offset="0.860503" stop-color="#D6D7F5" stop-opacity="0"/>
</linearGradient>
<clipPath id="clip0">
<rect width="114" height="114" fill="white" transform="translate(3.5 3)"/>
</clipPath>
</defs>
</svg>
