<svg width="121" height="120" viewBox="0 0 121 120" fill="none" xmlns="http://www.w3.org/2000/svg">
<circle r="60" transform="matrix(1 0 0 -1 60.0439 60)" fill="white"/>
<path d="M32.1474 71.4944C34.1553 70.6661 41.7037 67.386 42.7767 64.4714C44.0162 61.1047 46.5544 53.4911 50.6859 50.235C53.4285 48.0735 54.242 40.9174 54.338 39.9755C54.3451 39.9058 54.3581 39.837 54.3827 39.7713C55.1893 37.619 59.3811 39.2691 60.7237 42.9311C61.5813 45.2702 60.8827 49.5936 59.1454 55.0935C58.8908 55.8996 59.6762 56.6685 60.4734 56.3872C62.2723 55.7523 64.9695 54.8413 67.189 54.2626C70.8713 53.3025 87.515 48.7058 87.6107 48.6794L87.6156 48.6781C89.6324 48.1433 92.4415 49.0041 92.8292 51.5712C93.0853 53.2676 92.1419 55.2361 90.3927 55.9512C90.3673 55.9615 90.3437 55.9698 90.3175 55.9777C89.6263 56.1874 79.4402 59.2763 77.561 59.7663C81.3908 59.5979 81.6628 66.9104 76.9994 68.1262C79.7253 67.9689 81.0984 75.3581 76.6941 76.5064C79.2284 76.6757 80.399 83.2877 76.2538 84.3685C76.2538 84.3685 67.1388 87.8517 60.4612 89.5927C54.4441 91.1615 42.6542 93.6718 40.3806 94.1531C40.1307 94.206 39.8714 94.1592 39.6566 94.021C30.8876 88.3796 30.5452 77.4928 31.5503 72.2137C31.6126 71.8864 31.8394 71.6215 32.1474 71.4944Z" fill="url(#paint0_linear)"/>
<path d="M28.6545 68.6931C28.6545 68.6931 38.534 64.8388 39.7735 61.4721M39.7735 61.4721C41.0129 58.1054 43.5512 50.4918 47.6826 47.2357C50.6205 44.9203 51.3448 36.8736 51.3448 36.8736C52.0571 34.5696 56.3572 36.2137 57.7204 39.9318C58.6803 42.5497 57.6908 47.6528 55.4777 54.109M39.7735 61.4721C39.3479 64.0033 36.6431 66.6763 40.5839 73.867M74.5578 56.767L67.2388 58.3114C64.1665 59.0146 58.2963 60.6851 56.6266 61.2095C54.6761 61.8222 52.7815 63.2645 52.834 65.3655C52.8699 66.8009 53.5934 68.7435 56.7776 69.1892M74.5578 56.767C78.3875 56.5985 78.6595 63.911 73.9961 65.1269M74.5578 56.767C81.9348 55.2496 88.3512 51.9672 88.3512 51.9672C90.6611 50.5283 90.9192 49.3043 90.6611 47.5956C90.3214 45.3459 88.3502 43.9496 85.6079 44.6799C82.8656 45.4103 73.2505 48.527 64.1939 50.5283M73.9961 65.1269C76.722 64.9696 78.0951 72.3588 73.6908 73.5071M73.9961 65.1269L68.2224 66.6322L67.2601 66.8831C66.0102 67.2051 63.8227 67.7064 61.7297 68.165L56.7776 69.1892M73.6908 73.5071C76.2252 73.6764 77.3957 80.2884 73.2505 81.3692M73.6908 73.5071C73.6908 73.5071 71.9131 73.9882 69.4555 74.6155L62.4554 76.2697C59.9832 76.7897 57.8262 77.1749 57.3167 77.1714M73.2505 81.3692C69.4488 82.6061 62.5421 83.606 59.9498 82.9418C57.6387 82.3496 55.9097 79.5555 57.3167 77.1714M73.2505 81.3692C73.2505 81.3692 66.3883 83.3147 61.7297 85.5324C59.9498 86.3797 59.137 86.5761 57.6494 86.964C56.1618 87.3518 52.834 87.8635 50.2768 87.5783C46.0698 89.3883 42.7656 90.7159 38.5372 91.348M57.3167 77.1714C51.3458 75.2272 54.5755 69.5732 56.7776 69.1892" stroke="#3139CE" stroke-width="2" stroke-linecap="round" stroke-linejoin="round"/>
<path d="M65.7133 34.0165L66.1084 27.4277" stroke="#3139CE" stroke-width="2" stroke-linecap="round" stroke-linejoin="round"/>
<path d="M75.0792 38.0537L80.3013 34.0166" stroke="#3139CE" stroke-width="2" stroke-linecap="round" stroke-linejoin="round"/>
<path d="M71.4104 34.1545L73.8628 28.0264" stroke="#3139CE" stroke-width="2" stroke-linecap="round" stroke-linejoin="round"/>
<defs>
<linearGradient id="paint0_linear" x1="28.9657" y1="39.5996" x2="57.0903" y2="92.6125" gradientUnits="userSpaceOnUse">
<stop stop-color="#D6D7F5"/>
<stop offset="1" stop-color="#D6D7F5" stop-opacity="0"/>
</linearGradient>
</defs>
</svg>
