<svg width="120" height="120" viewBox="0 0 120 120" fill="none" xmlns="http://www.w3.org/2000/svg">
<circle r="60" transform="matrix(1 0 0 -1 60 60)" fill="white"/>
<path d="M63.0263 28.3949C68.3454 26.9696 73.7973 29.6469 76.0225 34.4871C76.0389 34.5228 76.0741 34.5466 76.1134 34.5481C80.6549 34.7208 84.1405 38.6375 83.7849 43.1683L82.926 54.1111C82.9136 54.2703 83.086 54.3772 83.223 54.2953C86.4539 52.362 90.3331 55.5283 89.0862 59.0809L86.4593 66.5655C85.9794 67.933 84.5782 68.7504 83.1516 68.495L82.9026 68.4505C82.3205 68.3463 81.7757 68.7671 81.7294 69.3566L81.507 72.1903C81.2686 75.228 79.5443 77.805 77.0924 79.2476C76.7658 79.4397 76.549 79.7821 76.549 80.1611V84.714C76.549 85.2838 77.0244 85.7384 77.5936 85.713L79.4185 85.6316C79.7055 85.6188 79.9842 85.73 80.1834 85.937L86.3831 92.3754C86.8005 92.8088 86.7483 93.5074 86.2513 93.8467C78.4243 99.1894 60.1692 106.017 42.0147 95.4052C41.5464 95.1314 41.3895 94.5258 41.6619 94.0566L45.4062 87.6088C45.5772 87.3143 45.8862 87.1271 46.2264 87.1119L49.7412 86.9552C50.2756 86.9314 50.6966 86.4911 50.6966 85.9562V78.7635C50.6966 78.4347 50.5326 78.1299 50.2732 77.9278C48.3077 76.3965 46.9937 74.0657 46.8204 71.4119L46.7197 69.8699C46.6808 69.2746 46.1328 68.8456 45.5456 68.9507L44.8486 69.0754C43.4219 69.3308 42.0208 68.5134 41.5408 67.1459L38.9139 59.6613C37.667 56.1087 41.5463 52.9423 44.7771 54.8757L45.7753 55.4724C45.7761 55.4729 45.7771 55.4729 45.7779 55.4724C45.7787 55.4719 45.7792 55.471 45.7792 55.47C45.6913 54.1231 45.7382 52.8013 45.908 51.5168C45.9823 50.9542 45.5987 50.4299 45.0626 50.2436C43.4003 49.6659 42.0443 48.3014 41.5545 46.4734C39.8527 40.1224 43.6217 33.5943 49.9727 31.8926L63.0263 28.3949Z" fill="url(#paint0_linear)"/>
<path d="M55.5229 48.7454C55.9123 47.5496 57.4838 45.2024 60.6548 45.381C64.6185 45.6043 65.1662 49.2349 65.0907 50.5739C65.0153 51.9128 63.6644 54.8993 60.1298 54.7002L59.8975 58.8242" stroke="#3139CE" stroke-width="2" stroke-linecap="round" stroke-linejoin="round"/>
<rect x="58.5454" y="61.9883" width="2.46963" height="2.81093" rx="1" transform="rotate(3.22404 58.5454 61.9883)" fill="#3139CE"/>
<path d="M59.0263 25.3949L58.7674 24.429L58.7674 24.429L59.0263 25.3949ZM72.1134 31.5481L72.0754 32.5474L72.0754 32.5474L72.1134 31.5481ZM79.7849 40.1683L78.788 40.0901L78.788 40.0901L79.7849 40.1683ZM79.223 51.2953L79.7362 52.1536L79.7365 52.1534L79.223 51.2953ZM85.0862 56.0809L86.0298 56.4121L86.0298 56.4121L85.0862 56.0809ZM82.4593 63.5655L81.5157 63.2344L81.5157 63.2344L82.4593 63.5655ZM79.1516 65.495L78.9754 66.4794L78.9754 66.4794L79.1516 65.495ZM77.507 69.1903L76.5101 69.112L76.5101 69.112L77.507 69.1903ZM42.8204 68.4119L43.8183 68.3468L43.8183 68.3468L42.8204 68.4119ZM40.8486 66.0754L41.0247 67.0598L41.0247 67.0598L40.8486 66.0754ZM37.5408 64.1459L38.4844 63.8148L38.4844 63.8148L37.5408 64.1459ZM34.9139 56.6613L33.9703 56.9925L33.9703 56.9925L34.9139 56.6613ZM40.7771 51.8757L40.2636 52.7338L40.264 52.734L40.7771 51.8757ZM41.7793 52.4716L42.7789 52.4451L42.7784 52.4257L42.7771 52.4064L41.7793 52.4716ZM37.5545 43.4734L36.5886 43.7323L36.5886 43.7323L37.5545 43.4734ZM45.9727 28.8926L46.2316 29.8585L46.2316 29.8585L45.9727 28.8926ZM45.1208 73.8564L45.8629 73.1861L45.1208 73.8564ZM43.5043 84.055L43.4597 83.0559L43.5043 84.055ZM76.9431 85.6705L76.3512 86.4765L76.3512 86.4765L76.9431 85.6705ZM36.8703 90.4476C36.6618 90.959 36.9073 91.5426 37.4186 91.7512C37.93 91.9598 38.5137 91.7143 38.7222 91.2029L36.8703 90.4476ZM72.0225 31.4871L71.1139 31.9048L71.1139 31.9048L72.0225 31.4871ZM41.7416 51.628L40.7419 51.652L41.7416 51.628ZM38.5527 45.4627L39.3365 44.8416L38.5527 45.4627ZM74.4622 75.2583L73.8036 74.5059L73.8036 74.5059L74.4622 75.2583ZM41.7766 52.4732L41.2635 53.3315L41.7824 53.6417L42.2982 53.3264L41.7766 52.4732ZM77.7097 66.6088L78.7066 66.687L78.7066 66.687L77.7097 66.6088ZM42.7658 67.5765L41.768 67.6417L41.768 67.6417L42.7658 67.5765ZM78.926 51.1111L79.923 51.1893L79.923 51.1893L78.926 51.1111ZM80.478 91.5088C80.7773 91.973 81.3962 92.1066 81.8604 91.8073C82.3245 91.508 82.4581 90.8891 82.1588 90.425L80.478 91.5088ZM41.3647 58.6201C41.5102 59.1529 42.0601 59.4668 42.5928 59.3213C43.1256 59.1758 43.4395 58.6259 43.294 58.0931L41.3647 58.6201ZM79.3824 60.2766C79.5138 59.7402 79.1854 59.1988 78.649 59.0675C78.1125 58.9361 77.5712 59.2645 77.4398 59.8009L79.3824 60.2766ZM72.9311 31.0694C70.5057 25.7939 64.5652 22.8755 58.7674 24.429L59.2851 26.3608C64.1256 25.0638 69.0888 27.4999 71.1139 31.9048L72.9311 31.0694ZM80.7819 40.2466C81.1819 35.1494 77.2606 30.7431 72.1514 30.5489L72.0754 32.5474C76.0492 32.6985 79.0992 36.1256 78.788 40.0901L80.7819 40.2466ZM79.923 51.1893L80.7819 40.2466L78.788 40.0901L77.9291 51.0328L79.923 51.1893ZM86.0298 56.4121C87.5866 51.9766 82.7433 48.0234 78.7095 50.4372L79.7365 52.1534C82.1645 50.7005 85.0797 53.08 84.1427 55.7497L86.0298 56.4121ZM83.4029 63.8967L86.0298 56.4121L84.1427 55.7497L81.5157 63.2344L83.4029 63.8967ZM78.9754 66.4794C80.885 66.8212 82.7604 65.7272 83.4029 63.8967L81.5157 63.2344C81.1983 64.1389 80.2714 64.6796 79.3278 64.5107L78.9754 66.4794ZM78.504 69.2685L78.7066 66.687L76.7127 66.5305L76.5101 69.112L78.504 69.2685ZM75.1209 76.0108C77.0185 74.3497 78.2917 71.9728 78.504 69.2685L76.5101 69.112C76.3403 71.2758 75.3236 73.1753 73.8036 74.5059L75.1209 76.0108ZM73.549 81.7132V78.8531H71.549V81.7132H73.549ZM40.0081 85.0601C39.1885 86.0059 37.879 87.9742 36.8703 90.4476L38.7222 91.2029C39.6556 88.9141 40.8548 87.1369 41.5195 86.3699L40.0081 85.0601ZM45.6966 77.3389V80.7171H47.6966V77.3389H45.6966ZM41.8225 68.4771C41.9744 70.8031 42.916 72.9074 44.3788 74.5267L45.8629 73.1861C44.6921 71.8899 43.9399 70.2085 43.8183 68.3468L41.8225 68.4771ZM41.768 67.6417L41.8225 68.4771L43.8183 68.3468L43.7637 67.5113L41.768 67.6417ZM36.5973 64.4771C37.2397 66.3075 39.1152 67.4016 41.0247 67.0598L40.6724 65.0911C39.7287 65.26 38.8019 64.7193 38.4844 63.8148L36.5973 64.4771ZM33.9703 56.9925L36.5973 64.4771L38.4844 63.8148L35.8575 56.3301L33.9703 56.9925ZM41.2906 51.0176C37.2569 48.6038 32.4136 52.557 33.9703 56.9925L35.8575 56.3301C34.9205 53.6603 37.8357 51.2809 40.2636 52.7338L41.2906 51.0176ZM42.2897 51.6149L41.2902 51.0173L40.264 52.734L41.2635 53.3315L42.2897 51.6149ZM40.7419 51.652C40.7489 51.9457 40.762 52.2407 40.7814 52.5367L42.7771 52.4064C42.7596 52.1378 42.7477 51.8703 42.7413 51.6041L40.7419 51.652ZM36.5886 43.7323C36.825 44.6147 37.2335 45.4081 37.769 46.0838L39.3365 44.8416C38.9675 44.376 38.6849 43.8284 38.5204 43.2146L36.5886 43.7323ZM45.7139 27.9267C38.8294 29.7714 34.7439 36.8478 36.5886 43.7323L38.5204 43.2146C36.9616 37.3971 40.414 31.4173 46.2316 29.8585L45.7139 27.9267ZM58.7674 24.429L45.7139 27.9267L46.2316 29.8585L59.2851 26.3608L58.7674 24.429ZM47.6966 77.3389C47.6966 75.6684 46.8205 74.2462 45.8629 73.1861L44.3788 74.5267C45.1844 75.4186 45.6966 76.379 45.6966 77.3389H47.6966ZM43.5488 85.054C45.8689 84.9505 47.6966 83.0394 47.6966 80.7171H45.6966C45.6966 81.9695 44.7109 83.0001 43.4597 83.0559L43.5488 85.054ZM71.549 81.7132C71.549 83.4311 72.7696 84.4734 73.796 85.1092C74.3251 85.4369 74.886 85.708 75.3414 85.9303C75.8352 86.1713 76.1574 86.3342 76.3512 86.4765L77.535 84.8645C77.1641 84.5922 76.6547 84.3458 76.2188 84.133C75.7445 83.9015 75.2774 83.6742 74.8491 83.4089C73.9609 82.8587 73.549 82.3371 73.549 81.7132H71.549ZM41.5195 86.3699C42.2356 85.5436 42.8554 85.0849 43.5488 85.054L43.4597 83.0559C41.8801 83.1264 40.7763 84.1736 40.0081 85.0601L41.5195 86.3699ZM71.1139 31.9048C71.2855 32.278 71.654 32.5314 72.0754 32.5474L72.1514 30.5489C72.4941 30.5619 72.7924 30.7677 72.9311 31.0694L71.1139 31.9048ZM42.7413 51.6041C42.7084 50.2273 42.1721 48.958 41.5155 47.8513C40.8599 46.7462 40.0293 45.7159 39.3365 44.8416L37.769 46.0838C38.4861 46.9887 39.2227 47.9063 39.7955 48.8718C40.3672 49.8356 40.7205 50.7594 40.7419 51.652L42.7413 51.6041ZM73.8036 74.5059C72.6333 75.5303 71.549 77.0276 71.549 78.8531H73.549C73.549 77.8469 74.1604 76.8515 75.1209 76.0108L73.8036 74.5059ZM42.2982 53.3264L42.3008 53.3248L41.2577 51.6183L41.255 51.62L42.2982 53.3264ZM79.3278 64.5107C78.0304 64.2785 76.8158 65.2166 76.7127 66.5305L78.7066 66.687C78.7172 66.552 78.842 66.4555 78.9754 66.4794L79.3278 64.5107ZM43.7637 67.5113C43.6613 65.944 42.2184 64.8144 40.6724 65.0911L41.0247 67.0598C41.3964 66.9933 41.7433 67.2649 41.768 67.6417L43.7637 67.5113ZM77.9291 51.0328C77.8531 52.0015 78.9022 52.6522 79.7362 52.1536L78.7099 50.437C79.2698 50.1022 79.974 50.5391 79.923 51.1893L77.9291 51.0328ZM82.1588 90.425C80.3894 87.681 79.2537 86.1267 77.535 84.8645L76.3512 86.4765C77.7432 87.4988 78.7085 88.7648 80.478 91.5088L82.1588 90.425ZM40.7796 52.498C40.7989 53.2267 40.8499 54.3959 40.9406 55.549C41.0291 56.6732 41.1618 57.8772 41.3647 58.6201L43.294 58.0931C43.1477 57.5576 43.0243 56.5335 42.9345 55.3921C42.8469 54.2795 42.7975 53.1455 42.7789 52.4451L40.7796 52.498ZM78.7088 66.6505C78.7715 65.1477 78.9978 61.847 79.3824 60.2766L77.4398 59.8009C77.0005 61.5947 76.7721 65.0916 76.7105 66.5671L78.7088 66.6505Z" fill="#3139CE"/>
<defs>
<linearGradient id="paint0_linear" x1="51.1927" y1="21.474" x2="71.7934" y2="100.987" gradientUnits="userSpaceOnUse">
<stop stop-color="#D6D7F5"/>
<stop offset="1" stop-color="#D6D7F5" stop-opacity="0"/>
</linearGradient>
</defs>
</svg>
