<svg width="451" height="234" viewBox="0 0 451 234" fill="none" xmlns="http://www.w3.org/2000/svg">
<path d="M306.932 66.0148C318.431 89.18 354.883 94.4919 388.35 77.8791C421.818 61.2664 445.233 11.6119 428.127 5.85485C411.022 0.0979851 410.147 42.8253 376.68 59.438C342.545 79.5454 298.836 46.1306 306.932 66.0148Z" fill="#FFB96A"/>
<g opacity="0.6" filter="url(#filter0_f)">
<ellipse cx="263.336" cy="154.979" rx="99.5403" ry="35.1604" transform="rotate(-5.45233 263.336 154.979)" fill="#262973"/>
</g>
<path d="M164.721 150.079C152.976 157.905 145.157 162.423 145.208 168.009C145.283 176.188 159.341 174.175 168.144 169.607C176.11 165.474 182.754 169.173 188.311 159.546C189.311 157.814 189.108 154.865 188.311 151.307C184.553 148.694 178.348 143.341 164.721 150.079Z" fill="url(#paint0_linear)"/>
<path d="M12.9824 169.292C23.642 180.394 90.1051 192.442 144.476 148.932C151.035 143.684 155.39 139.506 161.672 134.672" stroke="#FF8401" stroke-width="2.04752" stroke-linecap="square"/>
<path d="M189.813 111.702L189.025 112.356L190.333 113.931L191.121 113.277L189.813 111.702ZM195.069 110.145L195.885 109.527L194.648 107.895L193.832 108.514L195.069 110.145ZM191.121 113.277C192.403 112.213 193.72 111.168 195.069 110.145L193.832 108.514C192.459 109.555 191.118 110.618 189.813 111.702L191.121 113.277Z" fill="#FF8401"/>
<path fill-rule="evenodd" clip-rule="evenodd" d="M164.875 151.958C170.984 171.436 214.797 189.136 294.27 173.343C345.617 163.139 358.311 130.755 358.193 109C357.118 97.2941 354.859 87.7833 350.714 82.5609C340.809 70.0789 305.862 45.0657 262.087 71.2755C256.814 74.4326 249.689 80.3745 242.228 86.5962C230.069 96.736 217.019 107.619 209.644 108.4C164.511 113.183 159.39 134.467 164.875 151.958Z" fill="#FFB96A"/>
<mask id="mask0" mask-type="alpha" maskUnits="userSpaceOnUse" x="155" y="57" width="204" height="122">
<path fill-rule="evenodd" clip-rule="evenodd" d="M155.711 119.712C155.543 116.922 159.073 117.41 165.363 119.553C167.619 120.321 169.667 121.211 171.364 122.035C176.096 117.611 183.152 113.849 193.258 111.249C193.425 109.724 193.664 108.076 194.001 106.372C195.455 99.0129 196.971 95.2865 199.609 97.0262C201.37 98.1881 205.606 103.711 208.851 108.489C209.115 108.459 209.381 108.43 209.648 108.402C216.827 107.641 229.383 96.4719 241.261 85.9065L241.261 85.9064C249.072 78.9583 256.589 72.2713 262.091 68.9776C305.866 42.7679 340.813 67.781 350.718 80.263C354.862 85.4854 357.122 94.9962 358.197 106.702C358.315 128.457 342.003 164.289 290.44 173.345C215.124 186.573 170.988 171.438 164.879 151.96C163.392 147.219 162.685 142.2 163.342 137.306C161.08 133.845 155.878 122.499 155.711 119.712Z" fill="#F9B466"/>
</mask>
<g mask="url(#mask0)">
<path fill-rule="evenodd" clip-rule="evenodd" d="M155.711 119.712C155.543 116.922 159.073 117.41 165.363 119.553C167.619 120.322 169.667 121.211 171.364 122.036C176.096 117.612 183.152 113.849 193.258 111.25C193.425 109.724 193.664 108.077 194.001 106.372C195.455 99.0133 196.971 95.287 199.608 97.0267C201.37 98.1886 205.605 103.711 208.851 108.489C209.115 108.46 209.381 108.431 209.648 108.403C216.827 107.642 229.383 96.4724 241.261 85.907L241.261 85.9069C249.072 78.9588 256.589 72.2718 262.091 68.9781C305.866 42.7683 340.813 67.7815 350.718 80.2635C354.862 85.4859 357.122 94.9967 358.197 106.703C358.315 128.457 342.003 164.289 290.44 173.345C215.124 186.574 170.988 171.439 164.879 151.96C163.392 147.22 162.685 142.201 163.342 137.307C161.08 133.845 155.878 122.5 155.711 119.712Z" fill="#FFB96A"/>
<ellipse cx="154.414" cy="116.8" rx="23.2306" ry="28.6" transform="rotate(-23.2816 154.414 116.8)" fill="#E5A05C"/>
<ellipse cx="263.985" cy="72.3277" rx="34.4802" ry="45.3801" transform="rotate(-108.965 263.985 72.3277)" fill="#E5A05C"/>
</g>
<path d="M160.494 152.287C160.018 151.981 159.385 152.118 159.079 152.593C158.773 153.069 158.91 153.702 159.385 154.008L160.494 152.287ZM186.843 179.243C179.747 176.711 175.867 171.857 172.417 166.644C169.012 161.497 165.934 155.791 160.494 152.287L159.385 154.008C164.362 157.213 167.147 162.39 170.709 167.773C174.227 173.09 178.417 178.411 186.155 181.171L186.843 179.243Z" fill="#FF8401"/>
<path d="M215.155 130.066C215.155 130.066 223.812 126.827 232.789 129.51" stroke="#E5A05C" stroke-width="1.37628" stroke-miterlimit="10" stroke-linecap="round"/>
<path d="M212.835 125.86C212.835 125.86 218.766 118.785 227.911 116.687" stroke="#E5A05C" stroke-width="1.37628" stroke-miterlimit="10" stroke-linecap="round"/>
<path d="M172.414 146.997C172.414 146.997 163.784 150.305 158.855 158.254" stroke="#E5A05C" stroke-width="1.37628" stroke-miterlimit="10" stroke-linecap="round"/>
<path d="M171.25 142.394C171.25 142.394 162.183 140.586 153.737 144.666" stroke="#E5A05C" stroke-width="1.37628" stroke-miterlimit="10" stroke-linecap="round"/>
<path d="M191.315 138.68C190.316 139.17 185.026 138.046 189.874 135.712C194.732 133.362 192.32 138.217 191.315 138.68Z" fill="#3F3D56"/>
<path d="M197.315 128.652C197.977 128.556 198.435 127.943 198.339 127.283C198.242 126.623 197.628 126.166 196.966 126.262C196.304 126.358 195.846 126.971 195.942 127.631C196.039 128.291 196.653 128.748 197.315 128.652Z" fill="#3F3D56"/>
<path d="M319.394 110.511C308.283 116.926 304.968 131.986 311.99 144.148C315.51 150.245 319.652 155.464 325.197 158.351C318.502 170.32 314.079 181.225 320.676 184.524C325.773 187.073 342.706 176.936 349.373 158.351C359.84 139.242 364.743 116.041 353.479 88.8546C350.955 82.7615 329.337 98.9027 319.394 110.511Z" fill="#FFB96A"/>
<path d="M319.393 110.512C308.282 116.927 304.967 131.987 311.989 144.149C315.509 150.246 319.651 155.464 325.196 158.352C318.501 170.321 314.078 181.226 320.675 184.525C325.773 187.074 342.705 176.937 349.372 158.352C357.399 143.696 364.581 119.12 353.806 87.8153" stroke="#E5A05C" stroke-width="2.04752" stroke-linecap="round"/>
<path d="M179.551 136.009C180.212 135.913 180.671 135.3 180.574 134.64C180.478 133.98 179.863 133.523 179.201 133.62C178.539 133.716 178.081 134.329 178.178 134.989C178.274 135.649 178.889 136.106 179.551 136.009Z" fill="#3F3D56"/>
<path d="M224.433 156.496C235.431 153.022 230.87 158.658 233.014 166.879C250.764 158.309 285.305 145.147 281.472 161.055C277.638 176.962 247.767 181.761 233.31 182.172C212.231 189.095 189.136 192.438 186.991 184.218C184.494 174.644 205.746 166.86 224.433 156.496Z" fill="url(#paint1_linear)"/>
<path d="M224.433 156.493C205.747 166.857 184.494 174.641 186.992 184.215C187.152 184.832 187.431 185.383 187.818 185.873M187.818 185.873C192.587 191.915 213.811 188.574 233.311 182.169C248.395 181.542 281.435 176.24 288.058 151.799M187.818 185.873C188.767 185.4 189.96 184.391 192.912 183.334M187.107 180.731C188.137 180.037 190.155 179.078 191.168 178.708" stroke="#E5A05C" stroke-width="2.04752" stroke-linecap="round"/>
<path d="M254.155 116.809L254.833 116.041L254.155 116.809ZM265.253 186.061L265.416 185.05L265.253 186.061ZM206.918 163.857L207.379 164.771L206.918 163.857ZM301.665 89.9382L301.268 90.8818L301.665 89.9382ZM378.118 65.6732L377.187 65.2464L378.118 65.6732ZM405.453 72.9334L404.605 72.3595L405.453 72.9334ZM401.959 33.394L402.624 34.1725L401.959 33.394ZM425.936 70.5451C425.764 71.0836 426.061 71.6598 426.599 71.8322C427.138 72.0046 427.714 71.7078 427.886 71.1693L425.936 70.5451ZM209.202 107.049C208.654 107.189 208.324 107.747 208.464 108.295C208.604 108.842 209.161 109.173 209.709 109.033L209.202 107.049ZM198.392 167.805C197.945 168.151 197.864 168.794 198.211 169.241C198.557 169.688 199.2 169.769 199.647 169.422L198.392 167.805ZM394.545 46.931C395.025 46.6328 395.173 46.0016 394.874 45.5213C394.576 45.0409 393.945 44.8932 393.465 45.1914L394.545 46.931ZM412.061 60.8161C412.216 60.2725 411.902 59.7057 411.358 59.5501C410.814 59.3945 410.248 59.7091 410.092 60.2526L412.061 60.8161ZM405.817 31.4805C406.251 31.1182 406.31 30.4726 405.947 30.0386C405.585 29.6045 404.939 29.5463 404.505 29.9086L405.817 31.4805ZM427.882 39.0158C427.702 38.4797 427.122 38.1908 426.586 38.3705C426.05 38.5502 425.761 39.1304 425.94 39.6665L427.882 39.0158ZM253.478 117.576C274.2 135.861 280.796 153.55 280.376 166.191C280.165 172.522 278.201 177.569 275.402 180.853C272.61 184.129 269.02 185.631 265.416 185.05L265.09 187.071C269.535 187.788 273.801 185.889 276.961 182.181C280.115 178.479 282.2 172.96 282.422 166.259C282.868 152.836 275.868 134.601 254.833 116.041L253.478 117.576ZM265.416 185.05C260.402 184.241 256.513 181.468 252.902 177.887C251.094 176.094 249.378 174.123 247.626 172.112C245.882 170.111 244.104 168.072 242.205 166.198C238.403 162.444 234.04 159.268 228.27 158.246C222.502 157.225 215.497 158.384 206.457 162.943L207.379 164.771C216.175 160.335 222.722 159.343 227.913 160.262C233.101 161.181 237.104 164.038 240.767 167.655C242.602 169.466 244.331 171.447 246.082 173.457C247.824 175.456 249.589 177.486 251.46 179.341C255.207 183.056 259.469 186.165 265.09 187.071L265.416 185.05ZM301.268 90.8818C322.491 99.8178 339.348 99.3666 352.24 93.7351C365.109 88.1134 373.866 77.3986 379.048 66.1L377.187 65.2464C372.155 76.2193 363.711 86.4897 351.42 91.8588C339.151 97.2183 322.89 97.7639 302.063 88.9947L301.268 90.8818ZM404.605 72.3595C401.229 77.3476 397.797 78.6378 395.104 78.0044C392.322 77.3502 389.748 74.5306 388.395 70.0472C385.716 61.17 388.152 46.5336 402.624 34.1725L401.294 32.6156C386.29 45.4317 383.49 60.8821 386.435 70.6388C387.893 75.4724 390.846 79.1065 394.635 79.9975C398.512 80.9094 402.693 78.8363 406.301 73.5073L404.605 72.3595ZM209.709 109.033C225.001 105.125 240.774 106.367 253.478 117.576L254.833 116.041C241.462 104.243 224.915 103.034 209.202 107.049L209.709 109.033ZM206.457 162.943C202.938 164.717 200.297 166.327 198.392 167.805L199.647 169.422C201.41 168.055 203.924 166.513 207.379 164.771L206.457 162.943ZM379.048 66.1C381.148 61.5226 384.043 57.3314 386.92 53.9715C389.807 50.6002 392.627 48.1211 394.545 46.931L393.465 45.1914C391.306 46.5317 388.329 49.1779 385.365 52.6398C382.391 56.1129 379.381 60.4626 377.187 65.2464L379.048 66.1ZM410.092 60.2526C409.339 62.8849 407.834 67.5899 404.605 72.3595L406.301 73.5073C409.708 68.4738 411.284 63.5274 412.061 60.8161L410.092 60.2526ZM402.624 34.1725C403.302 33.593 404.1 32.9203 404.73 32.3916C405.044 32.1274 405.316 31.8995 405.51 31.7377C405.606 31.6569 405.683 31.5925 405.736 31.5484C405.762 31.5263 405.783 31.5093 405.797 31.4979C405.803 31.4921 405.809 31.4878 405.812 31.4849C405.814 31.4834 405.815 31.4823 405.816 31.4816C405.816 31.4812 405.817 31.481 405.817 31.4808C405.817 31.4807 405.817 31.4806 405.817 31.4806C405.817 31.4806 405.817 31.4806 405.817 31.4805C405.817 31.4805 405.817 31.4805 405.161 30.6946C404.505 29.9086 404.505 29.9086 404.505 29.9087C404.505 29.9087 404.505 29.9087 404.505 29.9087C404.505 29.9088 404.505 29.9088 404.505 29.9089C404.505 29.9091 404.504 29.9094 404.504 29.9098C404.503 29.9105 404.502 29.9117 404.5 29.9132C404.496 29.9161 404.491 29.9205 404.484 29.9263C404.47 29.9379 404.45 29.955 404.423 29.9772C404.37 30.0216 404.293 30.0863 404.196 30.1675C404.002 30.3299 403.729 30.5586 403.413 30.8237C402.782 31.3536 401.979 32.0306 401.294 32.6156L402.624 34.1725ZM205.069 103.218C215.378 95.4204 231.883 89.1414 249.645 86.4205C267.402 83.7002 286.256 84.5611 301.268 90.8818L302.063 88.9947C286.588 82.479 267.32 81.6413 249.335 84.3966C231.353 87.1512 214.494 93.5218 203.834 101.585L205.069 103.218ZM425.94 39.6665C428.912 48.5332 429.174 60.4287 425.936 70.5451L427.886 71.1693C431.257 60.64 430.993 48.2978 427.882 39.0158L425.94 39.6665Z" fill="#FF8401"/>
<path d="M46.5339 145.845C60.4952 141.021 67.8842 125.767 63.006 111.798C58.1278 97.8292 42.871 90.4176 28.9097 95.2413C14.9484 100.065 7.55938 115.319 12.4376 129.288C17.3157 143.257 32.584 150.682 46.5339 145.845Z" fill="#FF8400"/>
<path d="M45.7522 119.362C45.3047 118.843 44.6956 118.525 44.0265 118.419C43.6114 118.338 43.1657 118.306 42.7376 118.352C42.9526 118.13 43.1447 117.881 43.2886 117.602C43.4962 117.2 43.6187 116.752 43.6143 116.291C43.5985 115.816 43.4899 115.37 43.328 114.944C43.0814 114.216 42.6213 113.567 42.0277 113.098C41.4035 112.676 40.6825 112.449 39.9269 112.436C39.1993 112.4 38.4702 112.505 37.7676 112.728L36.7445 109.797L35.3717 111.563L35.9977 113.354L34.5874 113.851L33.9323 111.967L31.7436 111.54L32.7667 114.471L28.8979 115.805L30.9107 117.584C31.1661 117.469 31.4532 117.421 31.7237 117.41C31.8761 117.426 31.9979 117.489 32.1031 117.59C32.2717 117.824 32.3869 118.079 32.4601 118.368L35.2311 126.314C35.3463 126.569 35.4196 126.858 35.4166 127.139C35.3897 127.277 35.4162 127.395 35.2904 127.497C35.1759 127.613 35.1645 127.599 34.7909 127.741L33.9997 130.475L37.8431 129.138L38.8663 132.07L40.6869 131.449L39.6638 128.518L41.0855 128.035L42.1087 130.967L43.89 130.355L42.8694 127.398C43.7626 127.067 44.5926 126.601 45.3452 126.012C46.0305 125.455 46.5421 124.714 46.8188 123.884C47.022 123.022 46.9712 122.134 46.6981 121.288C46.4997 120.589 46.1806 119.943 45.7522 119.362ZM35.4284 116.303L35.4081 116.25L36.6444 115.825C37.3355 115.589 39.5721 114.537 40.3097 116.492C41.0358 118.434 37.9193 119.435 37.9193 119.435L36.683 119.86L36.6337 119.714L35.4284 116.303ZM37.3735 121.9L38.7952 121.418C39.0874 121.32 40.0936 121.013 40.4506 120.908C40.5968 120.859 40.7657 120.838 40.9066 120.839C40.9574 120.845 41.0222 120.838 41.073 120.844C41.3295 120.844 41.5695 120.881 41.7929 120.955C41.9427 120.996 42.0899 121.062 42.2091 121.151C42.3994 121.298 42.5731 121.482 42.7189 121.689C42.819 121.84 42.8937 121.988 42.9544 122.148C43.0759 122.467 43.1186 122.804 43.0483 123.117C42.9511 123.568 42.7181 123.966 42.3799 124.265C41.7454 124.827 41.0108 125.238 40.2129 125.516L38.7912 125.998L37.3735 121.9Z" fill="white"/>
<path d="M164.721 150.079C152.976 157.905 145.157 162.423 145.208 168.009C145.283 176.188 159.341 174.175 168.144 169.607C176.11 165.474 182.754 169.173 188.311 159.546C189.311 157.814 189.108 154.865 188.311 151.307C184.553 148.694 178.348 143.341 164.721 150.079Z" fill="url(#paint2_linear)"/>
<path d="M12.9824 169.292C23.642 180.394 90.1051 192.442 144.476 148.932C151.035 143.684 155.39 139.506 161.672 134.672" stroke="#FF8401" stroke-width="2.04752" stroke-linecap="square"/>
<path d="M189.813 111.702L189.025 112.356L190.333 113.931L191.121 113.277L189.813 111.702ZM195.069 110.145L195.885 109.527L194.648 107.895L193.832 108.514L195.069 110.145ZM191.121 113.277C192.403 112.213 193.72 111.168 195.069 110.145L193.832 108.514C192.459 109.555 191.118 110.618 189.813 111.702L191.121 113.277Z" fill="#FF8401"/>
<path fill-rule="evenodd" clip-rule="evenodd" d="M164.875 151.958C170.984 171.436 214.797 189.136 294.27 173.343C345.617 163.139 358.311 130.755 358.193 109C357.118 97.2941 354.859 87.7833 350.714 82.5609C340.809 70.0789 305.862 45.0657 262.087 71.2755C256.814 74.4326 249.689 80.3745 242.228 86.5962C230.069 96.736 217.019 107.619 209.644 108.4C164.511 113.183 159.39 134.467 164.875 151.958Z" fill="#FFB96A"/>
<mask id="mask1" mask-type="alpha" maskUnits="userSpaceOnUse" x="155" y="57" width="204" height="122">
<path fill-rule="evenodd" clip-rule="evenodd" d="M155.711 119.712C155.543 116.922 159.073 117.41 165.363 119.553C167.619 120.321 169.667 121.211 171.364 122.035C176.096 117.611 183.152 113.849 193.258 111.249C193.425 109.724 193.664 108.076 194.001 106.372C195.455 99.0129 196.971 95.2865 199.609 97.0262C201.37 98.1881 205.606 103.711 208.851 108.489C209.115 108.459 209.381 108.43 209.648 108.402C216.827 107.641 229.383 96.4719 241.261 85.9065L241.261 85.9064C249.072 78.9583 256.589 72.2713 262.091 68.9776C305.866 42.7679 340.813 67.781 350.718 80.263C354.862 85.4854 357.122 94.9962 358.197 106.702C358.315 128.457 342.003 164.289 290.44 173.345C215.124 186.573 170.988 171.438 164.879 151.96C163.392 147.219 162.685 142.2 163.342 137.306C161.08 133.845 155.878 122.499 155.711 119.712Z" fill="#F9B466"/>
</mask>
<g mask="url(#mask1)">
<path fill-rule="evenodd" clip-rule="evenodd" d="M155.711 119.712C155.543 116.922 159.073 117.41 165.363 119.553C167.619 120.322 169.667 121.211 171.364 122.036C176.096 117.612 183.152 113.849 193.258 111.25C193.425 109.724 193.664 108.077 194.001 106.372C195.455 99.0133 196.971 95.287 199.608 97.0267C201.37 98.1886 205.605 103.711 208.851 108.489C209.115 108.46 209.381 108.431 209.648 108.403C216.827 107.642 229.383 96.4724 241.261 85.907L241.261 85.9069C249.072 78.9588 256.589 72.2718 262.091 68.9781C305.866 42.7683 340.813 67.7815 350.718 80.2635C354.862 85.4859 357.122 94.9967 358.197 106.703C358.315 128.457 342.003 164.289 290.44 173.345C215.124 186.574 170.988 171.439 164.879 151.96C163.392 147.22 162.685 142.201 163.342 137.307C161.08 133.845 155.878 122.5 155.711 119.712Z" fill="#FFB96A"/>
<ellipse cx="154.414" cy="116.8" rx="23.2306" ry="28.6" transform="rotate(-23.2816 154.414 116.8)" fill="#E5A05C"/>
<ellipse cx="263.985" cy="72.3277" rx="34.4802" ry="45.3801" transform="rotate(-108.965 263.985 72.3277)" fill="#E5A05C"/>
</g>
<path d="M160.494 152.287C160.018 151.981 159.385 152.118 159.079 152.593C158.773 153.069 158.91 153.702 159.385 154.008L160.494 152.287ZM186.843 179.243C179.747 176.711 175.867 171.857 172.417 166.644C169.012 161.497 165.934 155.791 160.494 152.287L159.385 154.008C164.362 157.213 167.147 162.39 170.709 167.773C174.227 173.09 178.417 178.411 186.155 181.171L186.843 179.243Z" fill="#FF8401"/>
<path d="M215.155 130.066C215.155 130.066 223.812 126.827 232.789 129.51" stroke="#E5A05C" stroke-width="1.37628" stroke-miterlimit="10" stroke-linecap="round"/>
<path d="M212.835 125.86C212.835 125.86 218.766 118.785 227.911 116.687" stroke="#E5A05C" stroke-width="1.37628" stroke-miterlimit="10" stroke-linecap="round"/>
<path d="M172.414 146.997C172.414 146.997 163.784 150.305 158.855 158.254" stroke="#E5A05C" stroke-width="1.37628" stroke-miterlimit="10" stroke-linecap="round"/>
<path d="M171.25 142.394C171.25 142.394 162.183 140.586 153.737 144.666" stroke="#E5A05C" stroke-width="1.37628" stroke-miterlimit="10" stroke-linecap="round"/>
<path d="M191.315 138.68C190.316 139.17 185.026 138.046 189.874 135.712C194.732 133.362 192.32 138.217 191.315 138.68Z" fill="#3F3D56"/>
<path d="M197.315 128.652C197.977 128.556 198.435 127.943 198.339 127.283C198.242 126.623 197.628 126.166 196.966 126.262C196.304 126.358 195.846 126.971 195.942 127.631C196.039 128.291 196.653 128.748 197.315 128.652Z" fill="#3F3D56"/>
<path d="M319.394 110.511C308.283 116.926 304.968 131.986 311.99 144.148C315.51 150.245 319.652 155.464 325.197 158.351C318.502 170.32 314.079 181.225 320.676 184.524C325.773 187.073 342.706 176.936 349.373 158.351C359.84 139.242 364.743 116.041 353.479 88.8546C350.955 82.7615 329.337 98.9027 319.394 110.511Z" fill="#FFB96A"/>
<path d="M319.393 110.512C308.282 116.927 304.967 131.987 311.989 144.149C315.509 150.246 319.651 155.464 325.196 158.352C318.501 170.321 314.078 181.226 320.675 184.525C325.773 187.074 342.705 176.937 349.372 158.352C357.399 143.696 364.581 119.12 353.806 87.8153" stroke="#E5A05C" stroke-width="2.04752" stroke-linecap="round"/>
<path d="M179.551 136.009C180.212 135.913 180.671 135.3 180.574 134.64C180.478 133.98 179.863 133.523 179.201 133.62C178.539 133.716 178.081 134.329 178.178 134.989C178.274 135.649 178.889 136.106 179.551 136.009Z" fill="#3F3D56"/>
<path d="M224.433 156.496C235.431 153.022 230.87 158.658 233.014 166.879C250.764 158.309 285.305 145.147 281.472 161.055C277.638 176.962 247.767 181.761 233.31 182.172C212.231 189.095 189.136 192.438 186.991 184.218C184.494 174.644 205.746 166.86 224.433 156.496Z" fill="url(#paint3_linear)"/>
<path d="M224.433 156.493C205.747 166.857 184.494 174.641 186.992 184.215C187.152 184.832 187.431 185.383 187.818 185.873M187.818 185.873C192.587 191.915 213.811 188.574 233.311 182.169C248.395 181.542 281.435 176.24 288.058 151.799M187.818 185.873C188.767 185.4 189.96 184.391 192.912 183.334M187.107 180.731C188.137 180.037 190.155 179.078 191.168 178.708" stroke="#E5A05C" stroke-width="2.04752" stroke-linecap="round"/>
<path d="M254.155 116.809L254.833 116.041L254.155 116.809ZM265.253 186.061L265.416 185.05L265.253 186.061ZM206.918 163.857L207.379 164.771L206.918 163.857ZM301.665 89.9382L301.268 90.8818L301.665 89.9382ZM378.118 65.6732L377.187 65.2464L378.118 65.6732ZM405.453 72.9334L404.605 72.3595L405.453 72.9334ZM401.959 33.394L402.624 34.1725L401.959 33.394ZM425.936 70.5451C425.764 71.0836 426.061 71.6598 426.599 71.8322C427.138 72.0046 427.714 71.7078 427.886 71.1693L425.936 70.5451ZM209.202 107.049C208.654 107.189 208.324 107.747 208.464 108.295C208.604 108.842 209.161 109.173 209.709 109.033L209.202 107.049ZM198.392 167.805C197.945 168.151 197.864 168.794 198.211 169.241C198.557 169.688 199.2 169.769 199.647 169.422L198.392 167.805ZM394.545 46.931C395.025 46.6328 395.173 46.0016 394.874 45.5213C394.576 45.0409 393.945 44.8932 393.465 45.1914L394.545 46.931ZM412.061 60.8161C412.216 60.2725 411.902 59.7057 411.358 59.5501C410.814 59.3945 410.248 59.7091 410.092 60.2526L412.061 60.8161ZM405.817 31.4805C406.251 31.1182 406.31 30.4726 405.947 30.0386C405.585 29.6045 404.939 29.5463 404.505 29.9086L405.817 31.4805ZM427.882 39.0158C427.702 38.4797 427.122 38.1908 426.586 38.3705C426.05 38.5502 425.761 39.1304 425.94 39.6665L427.882 39.0158ZM253.478 117.576C274.2 135.861 280.796 153.55 280.376 166.191C280.165 172.522 278.201 177.569 275.402 180.853C272.61 184.129 269.02 185.631 265.416 185.05L265.09 187.071C269.535 187.788 273.801 185.889 276.961 182.181C280.115 178.479 282.2 172.96 282.422 166.259C282.868 152.836 275.868 134.601 254.833 116.041L253.478 117.576ZM265.416 185.05C260.402 184.241 256.513 181.468 252.902 177.887C251.094 176.094 249.378 174.123 247.626 172.112C245.882 170.111 244.104 168.072 242.205 166.198C238.403 162.444 234.04 159.268 228.27 158.246C222.502 157.225 215.497 158.384 206.457 162.943L207.379 164.771C216.175 160.335 222.722 159.343 227.913 160.262C233.101 161.181 237.104 164.038 240.767 167.655C242.602 169.466 244.331 171.447 246.082 173.457C247.824 175.456 249.589 177.486 251.46 179.341C255.207 183.056 259.469 186.165 265.09 187.071L265.416 185.05ZM301.268 90.8818C322.491 99.8178 339.348 99.3666 352.24 93.7351C365.109 88.1134 373.866 77.3986 379.048 66.1L377.187 65.2464C372.155 76.2193 363.711 86.4897 351.42 91.8588C339.151 97.2183 322.89 97.7639 302.063 88.9947L301.268 90.8818ZM404.605 72.3595C401.229 77.3476 397.797 78.6378 395.104 78.0044C392.322 77.3502 389.748 74.5306 388.395 70.0472C385.716 61.17 388.152 46.5336 402.624 34.1725L401.294 32.6156C386.29 45.4317 383.49 60.8821 386.435 70.6388C387.893 75.4724 390.846 79.1065 394.635 79.9975C398.512 80.9094 402.693 78.8363 406.301 73.5073L404.605 72.3595ZM209.709 109.033C225.001 105.125 240.774 106.367 253.478 117.576L254.833 116.041C241.462 104.243 224.915 103.034 209.202 107.049L209.709 109.033ZM206.457 162.943C202.938 164.717 200.297 166.327 198.392 167.805L199.647 169.422C201.41 168.055 203.924 166.513 207.379 164.771L206.457 162.943ZM379.048 66.1C381.148 61.5226 384.043 57.3314 386.92 53.9715C389.807 50.6002 392.627 48.1211 394.545 46.931L393.465 45.1914C391.306 46.5317 388.329 49.1779 385.365 52.6398C382.391 56.1129 379.381 60.4626 377.187 65.2464L379.048 66.1ZM410.092 60.2526C409.339 62.8849 407.834 67.5899 404.605 72.3595L406.301 73.5073C409.708 68.4738 411.284 63.5274 412.061 60.8161L410.092 60.2526ZM402.624 34.1725C403.302 33.593 404.1 32.9203 404.73 32.3916C405.044 32.1274 405.316 31.8995 405.51 31.7377C405.606 31.6569 405.683 31.5925 405.736 31.5484C405.762 31.5263 405.783 31.5093 405.797 31.4979C405.803 31.4921 405.809 31.4878 405.812 31.4849C405.814 31.4834 405.815 31.4823 405.816 31.4816C405.816 31.4812 405.817 31.481 405.817 31.4808C405.817 31.4807 405.817 31.4806 405.817 31.4806C405.817 31.4806 405.817 31.4806 405.817 31.4805C405.817 31.4805 405.817 31.4805 405.161 30.6946C404.505 29.9086 404.505 29.9086 404.505 29.9087C404.505 29.9087 404.505 29.9087 404.505 29.9087C404.505 29.9088 404.505 29.9088 404.505 29.9089C404.505 29.9091 404.504 29.9094 404.504 29.9098C404.503 29.9105 404.502 29.9117 404.5 29.9132C404.496 29.9161 404.491 29.9205 404.484 29.9263C404.47 29.9379 404.45 29.955 404.423 29.9772C404.37 30.0216 404.293 30.0863 404.196 30.1675C404.002 30.3299 403.729 30.5586 403.413 30.8237C402.782 31.3536 401.979 32.0306 401.294 32.6156L402.624 34.1725ZM205.069 103.218C215.378 95.4204 231.883 89.1414 249.645 86.4205C267.402 83.7002 286.256 84.5611 301.268 90.8818L302.063 88.9947C286.588 82.479 267.32 81.6413 249.335 84.3966C231.353 87.1512 214.494 93.5218 203.834 101.585L205.069 103.218ZM425.94 39.6665C428.912 48.5332 429.174 60.4287 425.936 70.5451L427.886 71.1693C431.257 60.64 430.993 48.2978 427.882 39.0158L425.94 39.6665Z" fill="#FF8401"/>
<g opacity="0.6" filter="url(#filter1_f)">
<ellipse cx="263.336" cy="154.979" rx="99.5403" ry="35.1604" transform="rotate(-5.45233 263.336 154.979)" fill="#262973"/>
</g>
<path d="M164.721 150.079C152.976 157.905 145.157 162.423 145.208 168.009C145.283 176.188 159.341 174.175 168.144 169.607C176.11 165.474 182.754 169.173 188.311 159.546C189.311 157.814 189.108 154.865 188.311 151.307C184.553 148.694 178.348 143.341 164.721 150.079Z" fill="url(#paint4_linear)"/>
<path d="M12.9824 169.292C23.642 180.394 90.1051 192.442 144.476 148.932C151.035 143.684 155.39 139.506 161.672 134.672" stroke="#FF8401" stroke-width="2.04752" stroke-linecap="square"/>
<path d="M189.813 111.702L189.025 112.356L190.333 113.931L191.121 113.277L189.813 111.702ZM195.069 110.145L195.885 109.527L194.648 107.895L193.832 108.514L195.069 110.145ZM191.121 113.277C192.403 112.213 193.72 111.168 195.069 110.145L193.832 108.514C192.459 109.555 191.118 110.618 189.813 111.702L191.121 113.277Z" fill="#FF8401"/>
<path fill-rule="evenodd" clip-rule="evenodd" d="M164.875 151.958C170.984 171.436 214.797 189.136 294.27 173.343C345.617 163.139 358.311 130.755 358.193 109C357.118 97.2941 354.859 87.7833 350.714 82.5609C340.809 70.0789 305.862 45.0657 262.087 71.2755C256.814 74.4326 249.689 80.3745 242.228 86.5962C230.069 96.736 217.019 107.619 209.644 108.4C164.511 113.183 159.39 134.467 164.875 151.958Z" fill="#FFB96A"/>
<mask id="mask2" mask-type="alpha" maskUnits="userSpaceOnUse" x="155" y="57" width="204" height="122">
<path fill-rule="evenodd" clip-rule="evenodd" d="M155.711 119.712C155.543 116.922 159.073 117.41 165.363 119.553C167.619 120.321 169.667 121.211 171.364 122.035C176.096 117.611 183.152 113.849 193.258 111.249C193.425 109.724 193.664 108.076 194.001 106.372C195.455 99.0129 196.971 95.2865 199.609 97.0262C201.37 98.1881 205.606 103.711 208.851 108.489C209.115 108.459 209.381 108.43 209.648 108.402C216.827 107.641 229.383 96.4719 241.261 85.9065L241.261 85.9064C249.072 78.9583 256.589 72.2713 262.091 68.9776C305.866 42.7679 340.813 67.781 350.718 80.263C354.862 85.4854 357.122 94.9962 358.197 106.702C358.315 128.457 342.003 164.289 290.44 173.345C215.124 186.573 170.988 171.438 164.879 151.96C163.392 147.219 162.685 142.2 163.342 137.306C161.08 133.845 155.878 122.499 155.711 119.712Z" fill="#F9B466"/>
</mask>
<g mask="url(#mask2)">
<path fill-rule="evenodd" clip-rule="evenodd" d="M155.711 119.712C155.543 116.922 159.073 117.41 165.363 119.553C167.619 120.322 169.667 121.211 171.364 122.036C176.096 117.612 183.152 113.849 193.258 111.25C193.425 109.724 193.664 108.077 194.001 106.372C195.455 99.0133 196.971 95.287 199.608 97.0267C201.37 98.1886 205.605 103.711 208.851 108.489C209.115 108.46 209.381 108.431 209.648 108.403C216.827 107.642 229.383 96.4724 241.261 85.907L241.261 85.9069C249.072 78.9588 256.589 72.2718 262.091 68.9781C305.866 42.7683 340.813 67.7815 350.718 80.2635C354.862 85.4859 357.122 94.9967 358.197 106.703C358.315 128.457 342.003 164.289 290.44 173.345C215.124 186.574 170.988 171.439 164.879 151.96C163.392 147.22 162.685 142.201 163.342 137.307C161.08 133.845 155.878 122.5 155.711 119.712Z" fill="#FFB96A"/>
<ellipse cx="154.414" cy="116.8" rx="23.2306" ry="28.6" transform="rotate(-23.2816 154.414 116.8)" fill="#E5A05C"/>
<ellipse cx="263.985" cy="72.3277" rx="34.4802" ry="45.3801" transform="rotate(-108.965 263.985 72.3277)" fill="#E5A05C"/>
</g>
<path d="M160.494 152.287C160.018 151.981 159.385 152.118 159.079 152.593C158.773 153.069 158.91 153.702 159.385 154.008L160.494 152.287ZM186.843 179.243C179.747 176.711 175.867 171.857 172.417 166.644C169.012 161.497 165.934 155.791 160.494 152.287L159.385 154.008C164.362 157.213 167.147 162.39 170.709 167.773C174.227 173.09 178.417 178.411 186.155 181.171L186.843 179.243Z" fill="#FF8401"/>
<path d="M215.155 130.066C215.155 130.066 223.812 126.827 232.789 129.51" stroke="#E5A05C" stroke-width="1.37628" stroke-miterlimit="10" stroke-linecap="round"/>
<path d="M212.835 125.86C212.835 125.86 218.766 118.785 227.911 116.687" stroke="#E5A05C" stroke-width="1.37628" stroke-miterlimit="10" stroke-linecap="round"/>
<path d="M172.414 146.997C172.414 146.997 163.784 150.305 158.855 158.254" stroke="#E5A05C" stroke-width="1.37628" stroke-miterlimit="10" stroke-linecap="round"/>
<path d="M171.25 142.394C171.25 142.394 162.183 140.586 153.737 144.666" stroke="#E5A05C" stroke-width="1.37628" stroke-miterlimit="10" stroke-linecap="round"/>
<path d="M191.315 138.68C190.316 139.17 185.026 138.046 189.874 135.712C194.732 133.362 192.32 138.217 191.315 138.68Z" fill="#3F3D56"/>
<path d="M197.315 128.652C197.977 128.556 198.435 127.943 198.339 127.283C198.242 126.623 197.628 126.166 196.966 126.262C196.304 126.358 195.846 126.971 195.942 127.631C196.039 128.291 196.653 128.748 197.315 128.652Z" fill="#3F3D56"/>
<path d="M319.394 110.511C308.283 116.926 304.968 131.986 311.99 144.148C315.51 150.245 319.652 155.464 325.197 158.351C318.502 170.32 314.079 181.225 320.676 184.524C325.773 187.073 342.706 176.936 349.373 158.351C359.84 139.242 364.743 116.041 353.479 88.8546C350.955 82.7615 329.337 98.9027 319.394 110.511Z" fill="#FFB96A"/>
<path d="M179.551 136.009C180.212 135.913 180.671 135.3 180.574 134.64C180.478 133.98 179.863 133.523 179.201 133.62C178.539 133.716 178.081 134.329 178.178 134.989C178.274 135.649 178.889 136.106 179.551 136.009Z" fill="#3F3D56"/>
<path d="M224.433 156.496C235.431 153.022 230.87 158.658 233.014 166.879C250.764 158.309 285.305 145.147 281.472 161.055C277.638 176.962 247.767 181.761 233.31 182.172C212.231 189.095 189.136 192.438 186.991 184.218C184.494 174.644 205.746 166.86 224.433 156.496Z" fill="url(#paint5_linear)"/>
<path d="M224.433 156.493C205.747 166.857 184.494 174.641 186.992 184.215C187.152 184.832 187.431 185.383 187.818 185.873M187.818 185.873C192.587 191.915 213.811 188.574 233.311 182.169C248.395 181.542 281.435 176.24 288.058 151.799M187.818 185.873C188.767 185.4 189.96 184.391 192.912 183.334M187.107 180.731C188.137 180.037 190.155 179.078 191.168 178.708" stroke="#E5A05C" stroke-width="2.04752" stroke-linecap="round"/>
<path d="M254.155 116.809L254.833 116.041L254.155 116.809ZM265.253 186.061L265.416 185.05L265.253 186.061ZM206.918 163.857L207.379 164.771L206.918 163.857ZM301.665 89.9382L301.268 90.8818L301.665 89.9382ZM378.118 65.6732L377.187 65.2464L378.118 65.6732ZM405.453 72.9334L404.605 72.3595L405.453 72.9334ZM401.959 33.394L402.624 34.1725L401.959 33.394ZM425.936 70.5451C425.764 71.0836 426.061 71.6598 426.599 71.8322C427.138 72.0046 427.714 71.7078 427.886 71.1693L425.936 70.5451ZM209.202 107.049C208.654 107.189 208.324 107.747 208.464 108.295C208.604 108.842 209.161 109.173 209.709 109.033L209.202 107.049ZM198.392 167.805C197.945 168.151 197.864 168.794 198.211 169.241C198.557 169.688 199.2 169.769 199.647 169.422L198.392 167.805ZM394.545 46.931C395.025 46.6328 395.173 46.0016 394.874 45.5213C394.576 45.0409 393.945 44.8932 393.465 45.1914L394.545 46.931ZM412.061 60.8161C412.216 60.2725 411.902 59.7057 411.358 59.5501C410.814 59.3945 410.248 59.7091 410.092 60.2526L412.061 60.8161ZM405.817 31.4805C406.251 31.1182 406.31 30.4726 405.947 30.0386C405.585 29.6045 404.939 29.5463 404.505 29.9086L405.817 31.4805ZM427.882 39.0158C427.702 38.4797 427.122 38.1908 426.586 38.3705C426.05 38.5502 425.761 39.1304 425.94 39.6665L427.882 39.0158ZM253.478 117.576C274.2 135.861 280.796 153.55 280.376 166.191C280.165 172.522 278.201 177.569 275.402 180.853C272.61 184.129 269.02 185.631 265.416 185.05L265.09 187.071C269.535 187.788 273.801 185.889 276.961 182.181C280.115 178.479 282.2 172.96 282.422 166.259C282.868 152.836 275.868 134.601 254.833 116.041L253.478 117.576ZM265.416 185.05C260.402 184.241 256.513 181.468 252.902 177.887C251.094 176.094 249.378 174.123 247.626 172.112C245.882 170.111 244.104 168.072 242.205 166.198C238.403 162.444 234.04 159.268 228.27 158.246C222.502 157.225 215.497 158.384 206.457 162.943L207.379 164.771C216.175 160.335 222.722 159.343 227.913 160.262C233.101 161.181 237.104 164.038 240.767 167.655C242.602 169.466 244.331 171.447 246.082 173.457C247.824 175.456 249.589 177.486 251.46 179.341C255.207 183.056 259.469 186.165 265.09 187.071L265.416 185.05ZM301.268 90.8818C322.491 99.8178 339.348 99.3666 352.24 93.7351C365.109 88.1134 373.866 77.3986 379.048 66.1L377.187 65.2464C372.155 76.2193 363.711 86.4897 351.42 91.8588C339.151 97.2183 322.89 97.7639 302.063 88.9947L301.268 90.8818ZM404.605 72.3595C401.229 77.3476 397.797 78.6378 395.104 78.0044C392.322 77.3502 389.748 74.5306 388.395 70.0472C385.716 61.17 388.152 46.5336 402.624 34.1725L401.294 32.6156C386.29 45.4317 383.49 60.8821 386.435 70.6388C387.893 75.4724 390.846 79.1065 394.635 79.9975C398.512 80.9094 402.693 78.8363 406.301 73.5073L404.605 72.3595ZM209.709 109.033C225.001 105.125 240.774 106.367 253.478 117.576L254.833 116.041C241.462 104.243 224.915 103.034 209.202 107.049L209.709 109.033ZM206.457 162.943C202.938 164.717 200.297 166.327 198.392 167.805L199.647 169.422C201.41 168.055 203.924 166.513 207.379 164.771L206.457 162.943ZM379.048 66.1C381.148 61.5226 384.043 57.3314 386.92 53.9715C389.807 50.6002 392.627 48.1211 394.545 46.931L393.465 45.1914C391.306 46.5317 388.329 49.1779 385.365 52.6398C382.391 56.1129 379.381 60.4626 377.187 65.2464L379.048 66.1ZM410.092 60.2526C409.339 62.8849 407.834 67.5899 404.605 72.3595L406.301 73.5073C409.708 68.4738 411.284 63.5274 412.061 60.8161L410.092 60.2526ZM402.624 34.1725C403.302 33.593 404.1 32.9203 404.73 32.3916C405.044 32.1274 405.316 31.8995 405.51 31.7377C405.606 31.6569 405.683 31.5925 405.736 31.5484C405.762 31.5263 405.783 31.5093 405.797 31.4979C405.803 31.4921 405.809 31.4878 405.812 31.4849C405.814 31.4834 405.815 31.4823 405.816 31.4816C405.816 31.4812 405.817 31.481 405.817 31.4808C405.817 31.4807 405.817 31.4806 405.817 31.4806C405.817 31.4806 405.817 31.4806 405.817 31.4805C405.817 31.4805 405.817 31.4805 405.161 30.6946C404.505 29.9086 404.505 29.9086 404.505 29.9087C404.505 29.9087 404.505 29.9087 404.505 29.9087C404.505 29.9088 404.505 29.9088 404.505 29.9089C404.505 29.9091 404.504 29.9094 404.504 29.9098C404.503 29.9105 404.502 29.9117 404.5 29.9132C404.496 29.9161 404.491 29.9205 404.484 29.9263C404.47 29.9379 404.45 29.955 404.423 29.9772C404.37 30.0216 404.293 30.0863 404.196 30.1675C404.002 30.3299 403.729 30.5586 403.413 30.8237C402.782 31.3536 401.979 32.0306 401.294 32.6156L402.624 34.1725ZM205.069 103.218C215.378 95.4204 231.883 89.1414 249.645 86.4205C267.402 83.7002 286.256 84.5611 301.268 90.8818L302.063 88.9947C286.588 82.479 267.32 81.6413 249.335 84.3966C231.353 87.1512 214.494 93.5218 203.834 101.585L205.069 103.218ZM425.94 39.6665C428.912 48.5332 429.174 60.4287 425.936 70.5451L427.886 71.1693C431.257 60.64 430.993 48.2978 427.882 39.0158L425.94 39.6665Z" fill="#FF8401"/>
<path d="M46.5339 145.845C60.4952 141.021 67.8842 125.767 63.006 111.798C58.1278 97.8292 42.871 90.4176 28.9097 95.2413C14.9484 100.065 7.55938 115.319 12.4376 129.288C17.3157 143.257 32.584 150.682 46.5339 145.845Z" fill="#FF8400"/>
<path d="M45.7522 119.362C45.3047 118.843 44.6956 118.525 44.0265 118.419C43.6114 118.338 43.1657 118.306 42.7376 118.352C42.9526 118.13 43.1447 117.881 43.2886 117.602C43.4962 117.2 43.6187 116.752 43.6143 116.291C43.5985 115.816 43.4899 115.37 43.328 114.944C43.0814 114.216 42.6213 113.567 42.0277 113.098C41.4035 112.676 40.6825 112.449 39.9269 112.436C39.1993 112.4 38.4702 112.505 37.7676 112.728L36.7445 109.797L35.3717 111.563L35.9977 113.354L34.5874 113.851L33.9323 111.967L31.7436 111.54L32.7667 114.471L28.8979 115.805L30.9107 117.584C31.1661 117.469 31.4532 117.421 31.7237 117.41C31.8761 117.426 31.9979 117.489 32.1031 117.59C32.2717 117.824 32.3869 118.079 32.4601 118.368L35.2311 126.314C35.3463 126.569 35.4196 126.858 35.4166 127.139C35.3897 127.277 35.4162 127.395 35.2904 127.497C35.1759 127.613 35.1645 127.599 34.7909 127.741L33.9997 130.475L37.8431 129.138L38.8663 132.07L40.6869 131.449L39.6638 128.518L41.0855 128.035L42.1087 130.967L43.89 130.355L42.8694 127.398C43.7626 127.067 44.5926 126.601 45.3452 126.012C46.0305 125.455 46.5421 124.714 46.8188 123.884C47.022 123.022 46.9712 122.134 46.6981 121.288C46.4997 120.589 46.1806 119.943 45.7522 119.362ZM35.4284 116.303L35.4081 116.25L36.6444 115.825C37.3355 115.589 39.5721 114.537 40.3097 116.492C41.0358 118.434 37.9193 119.435 37.9193 119.435L36.683 119.86L36.6337 119.714L35.4284 116.303ZM37.3735 121.9L38.7952 121.418C39.0874 121.32 40.0936 121.013 40.4506 120.908C40.5968 120.859 40.7657 120.838 40.9066 120.839C40.9574 120.845 41.0222 120.838 41.073 120.844C41.3295 120.844 41.5695 120.881 41.7929 120.955C41.9427 120.996 42.0899 121.062 42.2091 121.151C42.3994 121.298 42.5731 121.482 42.7189 121.689C42.819 121.84 42.8937 121.988 42.9544 122.148C43.0759 122.467 43.1186 122.804 43.0483 123.117C42.9511 123.568 42.7181 123.966 42.3799 124.265C41.7454 124.827 41.0108 125.238 40.2129 125.516L38.7912 125.998L37.3735 121.9Z" fill="white"/>
<path d="M164.721 150.079C152.976 157.905 145.157 162.423 145.208 168.009C145.283 176.188 159.341 174.175 168.144 169.607C176.11 165.474 182.754 169.173 188.311 159.546C189.311 157.814 189.108 154.865 188.311 151.307C184.553 148.694 178.348 143.341 164.721 150.079Z" fill="url(#paint6_linear)"/>
<path d="M12.9824 169.292C23.642 180.394 90.1051 192.442 144.476 148.932C151.035 143.684 155.39 139.506 161.672 134.672" stroke="#FF8401" stroke-width="2.04752" stroke-linecap="square"/>
<path d="M189.813 111.702L189.025 112.356L190.333 113.931L191.121 113.277L189.813 111.702ZM195.069 110.145L195.885 109.527L194.648 107.895L193.832 108.514L195.069 110.145ZM191.121 113.277C192.403 112.213 193.72 111.168 195.069 110.145L193.832 108.514C192.459 109.555 191.118 110.618 189.813 111.702L191.121 113.277Z" fill="#FF8401"/>
<path fill-rule="evenodd" clip-rule="evenodd" d="M164.875 151.958C170.984 171.436 214.797 189.136 294.27 173.343C345.617 163.139 358.311 130.755 358.193 109C357.118 97.2941 354.859 87.7833 350.714 82.5609C340.809 70.0789 305.862 45.0657 262.087 71.2755C256.814 74.4326 249.689 80.3745 242.228 86.5962C230.069 96.736 217.019 107.619 209.644 108.4C164.511 113.183 159.39 134.467 164.875 151.958Z" fill="#FFB96A"/>
<mask id="mask3" mask-type="alpha" maskUnits="userSpaceOnUse" x="155" y="57" width="204" height="122">
<path fill-rule="evenodd" clip-rule="evenodd" d="M155.711 119.712C155.543 116.922 159.073 117.41 165.363 119.553C167.619 120.321 169.667 121.211 171.364 122.035C176.096 117.611 183.152 113.849 193.258 111.249C193.425 109.724 193.664 108.076 194.001 106.372C195.455 99.0129 196.971 95.2865 199.609 97.0262C201.37 98.1881 205.606 103.711 208.851 108.489C209.115 108.459 209.381 108.43 209.648 108.402C216.827 107.641 229.383 96.4719 241.261 85.9065L241.261 85.9064C249.072 78.9583 256.589 72.2713 262.091 68.9776C305.866 42.7679 340.813 67.781 350.718 80.263C354.862 85.4854 357.122 94.9962 358.197 106.702C358.315 128.457 342.003 164.289 290.44 173.345C215.124 186.573 170.988 171.438 164.879 151.96C163.392 147.219 162.685 142.2 163.342 137.306C161.08 133.845 155.878 122.499 155.711 119.712Z" fill="#F9B466"/>
</mask>
<g mask="url(#mask3)">
<path fill-rule="evenodd" clip-rule="evenodd" d="M155.711 119.712C155.543 116.922 159.073 117.41 165.363 119.553C167.619 120.322 169.667 121.211 171.364 122.036C176.096 117.612 183.152 113.849 193.258 111.25C193.425 109.724 193.664 108.077 194.001 106.372C195.455 99.0133 196.971 95.287 199.608 97.0267C201.37 98.1886 205.605 103.711 208.851 108.489C209.115 108.46 209.381 108.431 209.648 108.403C216.827 107.642 229.383 96.4724 241.261 85.907L241.261 85.9069C249.072 78.9588 256.589 72.2718 262.091 68.9781C305.866 42.7683 340.813 67.7815 350.718 80.2635C354.862 85.4859 357.122 94.9967 358.197 106.703C358.315 128.457 342.003 164.289 290.44 173.345C215.124 186.574 170.988 171.439 164.879 151.96C163.392 147.22 162.685 142.201 163.342 137.307C161.08 133.845 155.878 122.5 155.711 119.712Z" fill="#FFB96A"/>
<ellipse cx="154.414" cy="116.8" rx="23.2306" ry="28.6" transform="rotate(-23.2816 154.414 116.8)" fill="#E5A05C"/>
<ellipse cx="263.985" cy="72.3277" rx="34.4802" ry="45.3801" transform="rotate(-108.965 263.985 72.3277)" fill="#E5A05C"/>
</g>
<path d="M160.494 152.287C160.018 151.981 159.385 152.118 159.079 152.593C158.773 153.069 158.91 153.702 159.385 154.008L160.494 152.287ZM186.843 179.243C179.747 176.711 175.867 171.857 172.417 166.644C169.012 161.497 165.934 155.791 160.494 152.287L159.385 154.008C164.362 157.213 167.147 162.39 170.709 167.773C174.227 173.09 178.417 178.411 186.155 181.171L186.843 179.243Z" fill="#FF8401"/>
<path d="M215.155 130.066C215.155 130.066 223.812 126.827 232.789 129.51" stroke="#E5A05C" stroke-width="1.37628" stroke-miterlimit="10" stroke-linecap="round"/>
<path d="M212.835 125.86C212.835 125.86 218.766 118.785 227.911 116.687" stroke="#E5A05C" stroke-width="1.37628" stroke-miterlimit="10" stroke-linecap="round"/>
<path d="M172.414 146.997C172.414 146.997 163.784 150.305 158.855 158.254" stroke="#E5A05C" stroke-width="1.37628" stroke-miterlimit="10" stroke-linecap="round"/>
<path d="M171.25 142.394C171.25 142.394 162.183 140.586 153.737 144.666" stroke="#E5A05C" stroke-width="1.37628" stroke-miterlimit="10" stroke-linecap="round"/>
<path d="M191.315 138.68C190.316 139.17 185.026 138.046 189.874 135.712C194.732 133.362 192.32 138.217 191.315 138.68Z" fill="#3F3D56"/>
<path d="M197.315 128.652C197.977 128.556 198.435 127.943 198.339 127.283C198.242 126.623 197.628 126.166 196.966 126.262C196.304 126.358 195.846 126.971 195.942 127.631C196.039 128.291 196.653 128.748 197.315 128.652Z" fill="#3F3D56"/>
<path d="M319.394 110.511C308.283 116.926 304.968 131.986 311.99 144.148C315.51 150.245 319.652 155.464 325.197 158.351C318.502 170.32 314.079 181.225 320.676 184.524C325.773 187.073 342.706 176.936 349.373 158.351C359.84 139.242 364.743 116.041 353.479 88.8546C350.955 82.7615 329.337 98.9027 319.394 110.511Z" fill="#FFB96A"/>
<path d="M179.551 136.009C180.212 135.913 180.671 135.3 180.574 134.64C180.478 133.98 179.863 133.523 179.201 133.62C178.539 133.716 178.081 134.329 178.178 134.989C178.274 135.649 178.889 136.106 179.551 136.009Z" fill="#3F3D56"/>
<path d="M224.433 156.496C235.431 153.022 230.87 158.658 233.014 166.879C250.764 158.309 285.305 145.147 281.472 161.055C277.638 176.962 247.767 181.761 233.31 182.172C212.231 189.095 189.136 192.438 186.991 184.218C184.494 174.644 205.746 166.86 224.433 156.496Z" fill="url(#paint7_linear)"/>
<path d="M224.433 156.493C205.747 166.857 184.494 174.641 186.992 184.215C187.152 184.832 187.431 185.383 187.818 185.873M187.818 185.873C192.587 191.915 213.811 188.574 233.311 182.169C248.395 181.542 281.435 176.24 288.058 151.799M187.818 185.873C188.767 185.4 189.96 184.391 192.912 183.334M187.107 180.731C188.137 180.037 190.155 179.078 191.168 178.708" stroke="#E5A05C" stroke-width="2.04752" stroke-linecap="round"/>
<path d="M254.155 116.809L254.833 116.041L254.155 116.809ZM265.253 186.061L265.416 185.05L265.253 186.061ZM206.918 163.857L207.379 164.771L206.918 163.857ZM301.665 89.9382L301.268 90.8818L301.665 89.9382ZM378.118 65.6732L377.187 65.2464L378.118 65.6732ZM405.453 72.9334L404.605 72.3595L405.453 72.9334ZM401.959 33.394L402.624 34.1725L401.959 33.394ZM425.936 70.5451C425.764 71.0836 426.061 71.6598 426.599 71.8322C427.138 72.0046 427.714 71.7078 427.886 71.1693L425.936 70.5451ZM209.202 107.049C208.654 107.189 208.324 107.747 208.464 108.295C208.604 108.842 209.161 109.173 209.709 109.033L209.202 107.049ZM198.392 167.805C197.945 168.151 197.864 168.794 198.211 169.241C198.557 169.688 199.2 169.769 199.647 169.422L198.392 167.805ZM394.545 46.931C395.025 46.6328 395.173 46.0016 394.874 45.5213C394.576 45.0409 393.945 44.8932 393.465 45.1914L394.545 46.931ZM412.061 60.8161C412.216 60.2725 411.902 59.7057 411.358 59.5501C410.814 59.3945 410.248 59.7091 410.092 60.2526L412.061 60.8161ZM405.817 31.4805C406.251 31.1182 406.31 30.4726 405.947 30.0386C405.585 29.6045 404.939 29.5463 404.505 29.9086L405.817 31.4805ZM427.882 39.0158C427.702 38.4797 427.122 38.1908 426.586 38.3705C426.05 38.5502 425.761 39.1304 425.94 39.6665L427.882 39.0158ZM253.478 117.576C274.2 135.861 280.796 153.55 280.376 166.191C280.165 172.522 278.201 177.569 275.402 180.853C272.61 184.129 269.02 185.631 265.416 185.05L265.09 187.071C269.535 187.788 273.801 185.889 276.961 182.181C280.115 178.479 282.2 172.96 282.422 166.259C282.868 152.836 275.868 134.601 254.833 116.041L253.478 117.576ZM265.416 185.05C260.402 184.241 256.513 181.468 252.902 177.887C251.094 176.094 249.378 174.123 247.626 172.112C245.882 170.111 244.104 168.072 242.205 166.198C238.403 162.444 234.04 159.268 228.27 158.246C222.502 157.225 215.497 158.384 206.457 162.943L207.379 164.771C216.175 160.335 222.722 159.343 227.913 160.262C233.101 161.181 237.104 164.038 240.767 167.655C242.602 169.466 244.331 171.447 246.082 173.457C247.824 175.456 249.589 177.486 251.46 179.341C255.207 183.056 259.469 186.165 265.09 187.071L265.416 185.05ZM301.268 90.8818C322.491 99.8178 339.348 99.3666 352.24 93.7351C365.109 88.1134 373.866 77.3986 379.048 66.1L377.187 65.2464C372.155 76.2193 363.711 86.4897 351.42 91.8588C339.151 97.2183 322.89 97.7639 302.063 88.9947L301.268 90.8818ZM404.605 72.3595C401.229 77.3476 397.797 78.6378 395.104 78.0044C392.322 77.3502 389.748 74.5306 388.395 70.0472C385.716 61.17 388.152 46.5336 402.624 34.1725L401.294 32.6156C386.29 45.4317 383.49 60.8821 386.435 70.6388C387.893 75.4724 390.846 79.1065 394.635 79.9975C398.512 80.9094 402.693 78.8363 406.301 73.5073L404.605 72.3595ZM209.709 109.033C225.001 105.125 240.774 106.367 253.478 117.576L254.833 116.041C241.462 104.243 224.915 103.034 209.202 107.049L209.709 109.033ZM206.457 162.943C202.938 164.717 200.297 166.327 198.392 167.805L199.647 169.422C201.41 168.055 203.924 166.513 207.379 164.771L206.457 162.943ZM379.048 66.1C381.148 61.5226 384.043 57.3314 386.92 53.9715C389.807 50.6002 392.627 48.1211 394.545 46.931L393.465 45.1914C391.306 46.5317 388.329 49.1779 385.365 52.6398C382.391 56.1129 379.381 60.4626 377.187 65.2464L379.048 66.1ZM410.092 60.2526C409.339 62.8849 407.834 67.5899 404.605 72.3595L406.301 73.5073C409.708 68.4738 411.284 63.5274 412.061 60.8161L410.092 60.2526ZM402.624 34.1725C403.302 33.593 404.1 32.9203 404.73 32.3916C405.044 32.1274 405.316 31.8995 405.51 31.7377C405.606 31.6569 405.683 31.5925 405.736 31.5484C405.762 31.5263 405.783 31.5093 405.797 31.4979C405.803 31.4921 405.809 31.4878 405.812 31.4849C405.814 31.4834 405.815 31.4823 405.816 31.4816C405.816 31.4812 405.817 31.481 405.817 31.4808C405.817 31.4807 405.817 31.4806 405.817 31.4806C405.817 31.4806 405.817 31.4806 405.817 31.4805C405.817 31.4805 405.817 31.4805 405.161 30.6946C404.505 29.9086 404.505 29.9086 404.505 29.9087C404.505 29.9087 404.505 29.9087 404.505 29.9087C404.505 29.9088 404.505 29.9088 404.505 29.9089C404.505 29.9091 404.504 29.9094 404.504 29.9098C404.503 29.9105 404.502 29.9117 404.5 29.9132C404.496 29.9161 404.491 29.9205 404.484 29.9263C404.47 29.9379 404.45 29.955 404.423 29.9772C404.37 30.0216 404.293 30.0863 404.196 30.1675C404.002 30.3299 403.729 30.5586 403.413 30.8237C402.782 31.3536 401.979 32.0306 401.294 32.6156L402.624 34.1725ZM205.069 103.218C215.378 95.4204 231.883 89.1414 249.645 86.4205C267.402 83.7002 286.256 84.5611 301.268 90.8818L302.063 88.9947C286.588 82.479 267.32 81.6413 249.335 84.3966C231.353 87.1512 214.494 93.5218 203.834 101.585L205.069 103.218ZM425.94 39.6665C428.912 48.5332 429.174 60.4287 425.936 70.5451L427.886 71.1693C431.257 60.64 430.993 48.2978 427.882 39.0158L425.94 39.6665Z" fill="#FF8401"/>
<defs>
<filter id="filter0_f" x="138.188" y="92.7136" width="250.295" height="124.531" filterUnits="userSpaceOnUse" color-interpolation-filters="sRGB">
<feFlood flood-opacity="0" result="BackgroundImageFix"/>
<feBlend mode="normal" in="SourceGraphic" in2="BackgroundImageFix" result="shape"/>
<feGaussianBlur stdDeviation="13" result="effect1_foregroundBlur"/>
</filter>
<filter id="filter1_f" x="138.188" y="92.7136" width="250.295" height="124.531" filterUnits="userSpaceOnUse" color-interpolation-filters="sRGB">
<feFlood flood-opacity="0" result="BackgroundImageFix"/>
<feBlend mode="normal" in="SourceGraphic" in2="BackgroundImageFix" result="shape"/>
<feGaussianBlur stdDeviation="13" result="effect1_foregroundBlur"/>
</filter>
<linearGradient id="paint0_linear" x1="116.077" y1="184.147" x2="119.528" y2="132.104" gradientUnits="userSpaceOnUse">
<stop offset="0.265625" stop-color="#E7A25D"/>
<stop offset="0.729167" stop-color="#FFB96A"/>
</linearGradient>
<linearGradient id="paint1_linear" x1="154.638" y1="202.226" x2="204.073" y2="237.595" gradientUnits="userSpaceOnUse">
<stop offset="0.0677083" stop-color="#E7A25D"/>
<stop offset="0.572917" stop-color="#FFB96A"/>
</linearGradient>
<linearGradient id="paint2_linear" x1="116.077" y1="184.147" x2="119.528" y2="132.104" gradientUnits="userSpaceOnUse">
<stop offset="0.265625" stop-color="#E7A25D"/>
<stop offset="0.729167" stop-color="#FFB96A"/>
</linearGradient>
<linearGradient id="paint3_linear" x1="154.638" y1="202.226" x2="204.073" y2="237.595" gradientUnits="userSpaceOnUse">
<stop offset="0.0677083" stop-color="#E7A25D"/>
<stop offset="0.572917" stop-color="#FFB96A"/>
</linearGradient>
<linearGradient id="paint4_linear" x1="116.077" y1="184.147" x2="119.528" y2="132.104" gradientUnits="userSpaceOnUse">
<stop offset="0.265625" stop-color="#E7A25D"/>
<stop offset="0.729167" stop-color="#FFB96A"/>
</linearGradient>
<linearGradient id="paint5_linear" x1="154.638" y1="202.226" x2="204.073" y2="237.595" gradientUnits="userSpaceOnUse">
<stop offset="0.0677083" stop-color="#E7A25D"/>
<stop offset="0.572917" stop-color="#FFB96A"/>
</linearGradient>
<linearGradient id="paint6_linear" x1="116.077" y1="184.147" x2="119.528" y2="132.104" gradientUnits="userSpaceOnUse">
<stop offset="0.265625" stop-color="#E7A25D"/>
<stop offset="0.729167" stop-color="#FFB96A"/>
</linearGradient>
<linearGradient id="paint7_linear" x1="154.638" y1="202.226" x2="204.073" y2="237.595" gradientUnits="userSpaceOnUse">
<stop offset="0.0677083" stop-color="#E7A25D"/>
<stop offset="0.572917" stop-color="#FFB96A"/>
</linearGradient>
</defs>
</svg>
