<svg width="650" height="300" viewBox="0 0 650 300" fill="none" xmlns="http://www.w3.org/2000/svg">
<g clip-path="url(#clip0)">
<path opacity="0.8" d="M146.045 84.8677C139.308 95.8208 89.8808 104.136 45.8427 95.044C18.3716 89.3726 -0.705377 63.1789 160.308 68.7714C180.18 69.4616 202.216 75.7227 206.432 80.8788C210.648 86.0348 211.399 112.16 24.377 113.055" stroke="#35438E" stroke-width="2" stroke-linecap="round"/>
<g opacity="0.88">
<ellipse rx="46.947" ry="46.8972" transform="matrix(0.946909 0.322813 -0.32667 0.94469 580.162 248.827)" fill="#41C6A7"/>
<g clip-path="url(#clip1)">
<path d="M588.294 242.616L590.462 236.344L605.306 241.405L608.61 231.85L568.191 218.07L564.886 227.625L579.732 232.686L577.565 238.952C565.315 235.375 555.445 234.591 554.489 237.356C553.532 240.122 561.81 245.524 573.684 250.174L566.738 270.262L577.472 273.922L584.419 253.832C596.648 257.401 606.499 258.18 607.454 255.417C608.41 252.654 600.154 247.261 588.297 242.619L588.294 242.616ZM585.007 252.131L585.009 252.126C584.7 252.041 583.113 251.601 579.648 250.42C576.878 249.475 574.956 248.735 574.281 248.466L574.278 248.475C563.777 244.385 556.441 239.879 557.183 237.733C557.925 235.588 566.501 236.509 577.317 239.686L574.896 246.688C575.578 246.973 577.535 247.767 580.291 248.707C583.601 249.835 585.312 250.269 585.626 250.346L588.048 243.344C598.528 247.429 605.845 251.93 605.105 254.068C604.366 256.206 595.802 255.293 585.009 252.126" fill="white"/>
</g>
<ellipse rx="47.9471" ry="48.0534" transform="matrix(0.94662 0.323646 -0.325873 0.944961 580.78 248.926)" fill="#5B64FF"/>
<g clip-path="url(#clip2)">
<path d="M591.677 218.476L590.819 219.718L577.078 259.566L577.323 260.101L598.675 255.179L591.677 218.476Z" fill="white"/>
<path d="M591.293 218.345L562.743 242.894L576.939 259.97L583.609 240.629L591.293 218.345Z" fill="white"/>
<path d="M575.937 263.582L575.622 263.789L570.647 278.214L570.633 278.965L597.515 258.544L575.937 263.582Z" fill="white"/>
<path d="M570.414 278.89L575.719 263.507L561.583 246.259L570.414 278.89Z" fill="white"/>
</g>
</g>
<path d="M127 94C143.569 94 157 80.5685 157 64C157 47.4315 143.569 34 127 34C110.431 34 97 47.4315 97 64C97 80.5685 110.431 94 127 94Z" fill="#354390"/>
<path opacity="0.8" d="M139.777 51.1864L135.325 53.5072L113.811 64.7075C113.505 62.3006 113.859 59.8539 114.833 57.6405C115.808 55.427 117.364 53.5339 119.33 52.1721C121.296 50.8104 123.593 50.0337 125.965 49.9286C128.337 49.8235 130.691 50.3942 132.765 51.577L135.314 50.2497L135.694 50.0506C133.276 48.2571 130.407 47.2082 127.424 47.0279C124.442 46.8476 121.472 47.5434 118.864 49.033C116.256 50.5227 114.12 52.7441 112.707 55.4349C111.294 58.1256 110.665 61.1734 110.892 64.2183C110.934 64.791 110.81 65.3638 110.535 65.8645C110.26 66.3652 109.846 66.7715 109.345 67.0321L108 67.7337V71.0025L111.958 68.9396L113.24 68.2703L114.503 67.6123L137.182 55.7996L139.73 54.4742L144.998 51.7306V48.4636L139.777 51.1864ZM145 55.0014L115.794 70.2005L113.246 71.5278L108.002 74.2638V77.5308L113.21 74.8194L117.664 72.4986L139.2 61.2812C139.511 63.6919 139.16 66.1434 138.185 68.3616C137.211 70.5797 135.652 72.4768 133.682 73.8406C131.713 75.2044 129.411 75.9811 127.035 76.0836C124.658 76.1861 122.3 75.6105 120.226 74.4212L120.068 74.5065L117.304 75.9476C119.722 77.7421 122.593 78.7916 125.576 78.9721C128.559 79.1525 131.53 78.4563 134.139 76.9659C136.747 75.4754 138.883 73.2528 140.296 70.5609C141.708 67.8689 142.337 64.8199 142.108 61.7742C142.066 61.2021 142.19 60.6299 142.465 60.1297C142.74 59.6294 143.153 59.2233 143.653 58.9623L145 58.2607V55.0032V55.0014Z" fill="white"/>
<path opacity="0.88" d="M547.763 282.78C530.421 272.791 513.432 229.161 534.039 207.159C560.14 179.291 590.75 201.158 590 153" stroke="#5B64FF" stroke-width="2" stroke-linecap="round"/>
<path d="M407.865 86.0474C422.807 116.223 470.197 123.131 513.713 101.476C557.229 79.8212 587.689 15.1221 565.452 7.62769C543.215 0.133475 542.063 55.7998 498.546 77.4548C454.161 103.663 397.347 60.1447 407.865 86.0474Z" fill="#FFB96A"/>
<g opacity="0.6" filter="url(#filter0_f)">
<ellipse rx="129.5" ry="46" transform="matrix(0.995453 -0.0952531 0.0947827 0.995498 350.271 202.458)" fill="#1F1F41"/>
</g>
<path d="M221.475 196.309C206.155 206.541 195.956 212.448 196.024 219.752C196.123 230.448 214.462 227.818 225.944 221.846C236.335 216.442 245.002 221.281 252.251 208.693C253.555 206.429 253.289 202.571 252.249 197.918C247.345 194.501 239.251 187.501 221.475 196.309Z" fill="url(#paint0_linear)"/>
<path d="M24 221.349C37.9079 235.891 124.625 251.673 195.565 194.68C204.121 187.805 209.805 182.332 218 176" stroke="#FF8401" stroke-width="2.04752" stroke-linecap="square"/>
<path d="M254.343 146.215L253.558 146.872L254.872 148.442L255.657 147.785L254.343 146.215ZM260.622 143.813L261.435 143.191L260.191 141.565L259.378 142.187L260.622 143.813ZM255.657 147.785C257.269 146.435 258.925 145.11 260.622 143.813L259.378 142.187C257.658 143.502 255.979 144.845 254.343 146.215L255.657 147.785Z" fill="#FF8401"/>
<path fill-rule="evenodd" clip-rule="evenodd" d="M221.897 198.384C229.872 223.804 286.981 246.93 390.536 226.381C457.443 213.104 473.962 170.858 473.792 142.473C472.383 127.198 469.432 114.787 464.027 107.969C451.11 91.6758 405.55 59.0135 348.522 93.1802C341.653 97.2957 332.372 105.044 322.654 113.156C306.816 126.378 289.818 140.568 280.208 141.582C221.395 147.791 214.736 175.558 221.897 198.384Z" fill="#FFB96A"/>
<mask id="mask0" mask-type="alpha" maskUnits="userSpaceOnUse" x="209" y="74" width="265" height="159">
<path fill-rule="evenodd" clip-rule="evenodd" d="M209.24 156.526C208.998 152.93 213.637 153.587 221.914 156.4C224.734 157.358 227.306 158.455 229.473 159.485C235.649 153.461 245.036 148.341 258.68 144.849C258.895 142.836 259.205 140.657 259.648 138.402C261.527 128.836 263.498 123.994 266.952 126.265C269.266 127.787 274.85 135.024 279.113 141.262C279.382 141.233 279.652 141.204 279.923 141.175C289.275 140.188 305.626 125.63 321.093 111.859C331.264 102.803 341.053 94.0875 348.218 89.7958C405.23 55.6448 450.777 88.2913 463.691 104.577C469.094 111.391 472.044 123.796 473.453 139.064C473.622 167.436 452.396 214.156 385.226 225.93C287.112 243.128 229.6 223.358 221.628 197.95C219.75 191.966 218.823 185.642 219.538 179.455C219.497 179.396 219.456 179.335 219.414 179.273C216.421 174.811 209.483 160.123 209.24 156.526Z" fill="#F9B466"/>
</mask>
<g mask="url(#mask0)">
<path fill-rule="evenodd" clip-rule="evenodd" d="M209.24 156.526C208.998 152.93 213.637 153.587 221.914 156.4C224.734 157.358 227.306 158.455 229.473 159.485C235.649 153.461 245.036 148.341 258.68 144.849C258.895 142.836 259.205 140.657 259.648 138.402C261.527 128.836 263.498 123.994 266.952 126.265C269.266 127.787 274.85 135.024 279.113 141.262C279.382 141.233 279.652 141.204 279.923 141.175C289.275 140.188 305.626 125.63 321.093 111.859C331.264 102.803 341.053 94.0875 348.218 89.7958C405.23 55.6448 450.777 88.2913 463.691 104.577C469.094 111.391 472.044 123.796 473.453 139.064C473.622 167.436 452.396 214.156 385.226 225.93C287.112 243.128 229.6 223.358 221.628 197.95C219.75 191.966 218.823 185.642 219.538 179.455C219.497 179.396 219.456 179.335 219.414 179.273C216.421 174.811 209.483 160.123 209.24 156.526Z" fill="#FFB96A"/>
<ellipse rx="30.5" ry="37.5" transform="matrix(0.918533 -0.395345 0.395154 0.918615 207.834 152.39)" fill="#E5A05C"/>
<ellipse rx="45" ry="59" transform="matrix(-0.325 -0.945714 0.94572 -0.324983 350.172 94.2689)" fill="#E5A05C"/>
</g>
<path d="M216.547 199.135C216.069 198.833 215.437 198.975 215.135 199.453C214.833 199.931 214.975 200.563 215.453 200.865L216.547 199.135ZM251.338 234.034C241.884 230.723 236.721 224.371 232.167 217.615C227.655 210.922 223.644 203.62 216.547 199.135L215.453 200.865C222.084 205.057 225.799 211.832 230.469 218.759C235.096 225.623 240.57 232.432 250.662 235.966L251.338 234.034Z" fill="#FF8401"/>
<path d="M288 171.429C288 171.429 299.071 167.43 310.657 171.019" stroke="#E5A05C" stroke-width="1.37628" stroke-miterlimit="10" stroke-linecap="round"/>
<path d="M285 166.445C285 166.445 292.521 157.472 304.067 154.769" stroke="#E5A05C" stroke-width="1.37628" stroke-miterlimit="10" stroke-linecap="round"/>
<path d="M232 193.355C232 193.355 220.38 197.595 213.789 207.9" stroke="#E5A05C" stroke-width="1.37628" stroke-miterlimit="10" stroke-linecap="round"/>
<path d="M231 187.375C231 187.375 218.95 184.887 207.856 189.851" stroke="#E5A05C" stroke-width="1.37628" stroke-miterlimit="10" stroke-linecap="round"/>
<path d="M259.801 181.667C258.531 182.272 251.748 180.764 257.911 177.886C264.087 174.987 261.079 181.096 259.801 181.667Z" fill="#3F3D56"/>
<path d="M266.916 169.188C267.736 169.069 268.304 168.309 268.184 167.492C268.065 166.675 267.304 166.11 266.484 166.229C265.665 166.348 265.097 167.108 265.216 167.925C265.335 168.742 266.096 169.307 266.916 169.188Z" fill="#3F3D56"/>
<path d="M423.236 143.943C408.714 152.347 404.341 172.004 413.468 187.85C418.044 195.793 423.434 202.588 430.662 206.339C421.887 221.974 416.081 236.215 424.681 240.498C431.326 243.808 453.456 230.531 462.216 206.263C475.936 181.3 482.407 151.018 467.79 115.584C464.514 107.643 436.25 128.768 423.236 143.943Z" fill="#FFB96A"/>
<path d="M423.307 144.617C408.788 153.019 404.405 172.652 413.516 188.469C418.084 196.399 423.466 203.181 430.687 206.921C421.908 222.541 416.095 236.766 424.687 241.038C431.326 244.339 453.451 231.065 462.221 206.826C472.75 187.7 482.215 155.653 468.284 114.912" stroke="#E5A05C" stroke-width="2.04752" stroke-linecap="round"/>
<path d="M243.916 178.158C244.736 178.039 245.304 177.28 245.184 176.462C245.065 175.645 244.304 175.08 243.484 175.199C242.665 175.319 242.097 176.078 242.216 176.895C242.335 177.712 243.096 178.277 243.916 178.158Z" fill="#3F3D56"/>
<path d="M299.463 204.832C313.779 200.297 307.846 207.67 310.647 218.434C333.748 207.236 378.705 190.045 373.732 210.865C368.76 231.684 329.873 237.932 311.051 238.454C283.613 247.493 253.547 251.843 250.746 241.08C247.484 228.544 275.145 218.378 299.463 204.832Z" fill="url(#paint1_linear)"/>
<path d="M299.458 204.762C275.114 218.231 247.437 228.366 250.662 240.755C250.869 241.553 251.23 242.266 251.732 242.898M251.732 242.898C257.923 250.708 285.55 246.326 310.941 237.982C330.572 237.129 373.581 230.177 382.265 198.513M251.732 242.898C252.968 242.284 254.523 240.974 258.369 239.598M250.821 236.244C252.163 235.342 254.791 234.095 256.111 233.613" stroke="#E5A05C" stroke-width="2.04752" stroke-linecap="round"/>
<path d="M338.831 152.418L339.509 151.651L338.831 152.418ZM353.29 242.823L353.453 241.812L353.29 242.823ZM277.29 213.836L277.752 214.75L277.752 214.75L277.29 213.836ZM400.728 117.34L400.33 118.283L400.728 117.34ZM500.33 85.6628L499.399 85.2367L500.33 85.6628ZM535.943 95.1406L535.094 94.5675L535.094 94.5675L535.943 95.1406ZM531.391 43.524L532.056 44.3018L531.391 43.524ZM562.923 92.1187C562.751 92.6573 563.048 93.2334 563.587 93.4054C564.125 93.5775 564.702 93.2803 564.874 92.7417L562.923 92.1187ZM280.342 139.98C279.794 140.121 279.464 140.678 279.604 141.226C279.745 141.774 280.302 142.104 280.85 141.964L280.342 139.98ZM266.372 219.238C265.925 219.585 265.845 220.228 266.192 220.674C266.539 221.121 267.182 221.201 267.628 220.854L266.372 219.238ZM521.568 60.9296C522.049 60.631 522.196 59.9997 521.897 59.5196C521.598 59.0395 520.967 58.8924 520.487 59.191L521.568 60.9296ZM544.253 79.2355C544.408 78.6918 544.094 78.1252 543.55 77.9699C543.006 77.8146 542.44 78.1294 542.284 78.6731L544.253 79.2355ZM536.219 40.7853C536.653 40.4226 536.711 39.7769 536.348 39.3432C535.985 38.9095 535.339 38.852 534.906 39.2147L536.219 40.7853ZM564.869 50.9629C564.69 50.4267 564.11 50.1374 563.574 50.3168C563.037 50.4962 562.748 51.0762 562.928 51.6124L564.869 50.9629ZM338.153 153.185C365.198 177.096 373.853 200.271 373.301 216.894C373.025 225.216 370.447 231.877 366.747 236.227C363.054 240.57 358.274 242.591 353.453 241.812L353.127 243.833C358.79 244.749 364.246 242.328 368.307 237.554C372.362 232.786 375.059 225.652 375.348 216.962C375.925 199.559 366.866 175.838 339.509 151.651L338.153 153.185ZM353.453 241.812C346.829 240.741 341.706 237.07 336.981 232.375C334.615 230.025 332.373 227.443 330.091 224.819C327.819 222.206 325.509 219.553 323.046 217.116C318.113 212.236 312.483 208.139 305.054 206.82C297.626 205.502 288.569 206.99 276.828 212.923L277.752 214.75C289.249 208.941 297.847 207.621 304.696 208.836C311.543 210.051 316.812 213.829 321.606 218.571C324.006 220.945 326.266 223.54 328.546 226.163C330.817 228.775 333.11 231.416 335.537 233.828C340.398 238.657 345.894 242.664 353.127 243.833L353.453 241.812ZM400.33 118.283C427.919 129.923 449.791 129.32 466.493 122.009C483.171 114.709 494.533 100.789 501.261 86.0889L499.399 85.2367C492.82 99.6113 481.771 113.086 465.672 120.134C449.594 127.171 428.319 127.869 401.126 116.396L400.33 118.283ZM535.094 94.5675C530.66 101.132 526.076 102.934 522.389 102.065C518.614 101.175 515.202 97.3708 513.423 91.4637C509.891 79.7396 513.122 60.5077 532.056 44.3018L530.725 42.7462C511.258 59.4078 507.666 79.4527 511.462 92.0542C513.346 98.3099 517.135 102.931 521.919 104.058C526.793 105.206 532.127 102.618 536.791 95.7137L535.094 94.5675ZM280.85 141.964C300.836 136.846 321.501 138.462 338.153 153.185L339.509 151.651C322.19 136.338 300.75 134.755 280.342 139.98L280.85 141.964ZM276.828 212.923C272.253 215.234 268.832 217.326 266.372 219.238L267.628 220.854C269.946 219.053 273.241 217.029 277.752 214.75L276.828 212.923ZM501.261 86.0889C504.011 80.0817 507.801 74.5861 511.563 70.1826C515.336 65.7678 519.034 62.506 521.568 60.9296L520.487 59.191C517.711 60.9179 513.857 64.3471 510.007 68.8525C506.147 73.3693 502.243 79.0233 499.399 85.2367L501.261 86.0889ZM542.284 78.6731C541.299 82.1216 539.328 88.3007 535.094 94.5675L536.791 95.7137C541.203 89.1831 543.246 82.7628 544.253 79.2355L542.284 78.6731ZM532.056 44.3018C532.941 43.5445 533.982 42.6656 534.802 41.9752C535.212 41.6302 535.566 41.3326 535.818 41.1213C535.944 41.0157 536.045 40.9316 536.113 40.874C536.148 40.8452 536.174 40.823 536.192 40.808C536.201 40.8005 536.208 40.7948 536.213 40.791C536.215 40.7891 536.217 40.7877 536.218 40.7867C536.218 40.7862 536.219 40.7859 536.219 40.7856C536.219 40.7855 536.219 40.7854 536.219 40.7854C536.219 40.7854 536.219 40.7853 536.219 40.7853C536.219 40.7853 536.219 40.7853 535.563 40C534.906 39.2147 534.906 39.2147 534.906 39.2147C534.906 39.2147 534.906 39.2148 534.906 39.2148C534.906 39.2149 534.905 39.215 534.905 39.2151C534.905 39.2153 534.905 39.2157 534.904 39.2162C534.903 39.2172 534.901 39.2187 534.899 39.2206C534.894 39.2245 534.887 39.2302 534.878 39.2378C534.86 39.2529 534.833 39.2752 534.799 39.3042C534.73 39.3621 534.629 39.4464 534.503 39.5524C534.25 39.7643 533.894 40.0627 533.483 40.4087C532.662 41.1003 531.616 41.9834 530.725 42.7462L532.056 44.3018ZM274.695 134.425C288.179 124.206 309.735 115.995 332.908 112.438C356.077 108.882 380.703 110.002 400.33 118.283L401.126 116.396C381.035 107.92 355.995 106.823 332.597 110.414C309.204 114.005 287.294 122.308 273.458 132.793L274.695 134.425ZM562.928 51.6124C566.821 63.2512 567.162 78.8488 562.923 92.1187L564.874 92.7417C569.244 79.0597 568.901 63.0163 564.869 50.9629L562.928 51.6124Z" fill="#FF8401"/>
<path d="M53.6236 226.376C71.8395 220.05 81.5058 200.118 75.1725 181.89C68.8392 163.661 48.9584 154.015 30.7426 160.341C12.5267 166.667 2.86046 186.598 9.19375 204.827C15.527 223.055 35.4226 232.72 53.6236 226.376Z" fill="#FF8400"/>
<path d="M52.8527 191.86C52.2709 191.185 51.474 190.776 50.5955 190.645C50.0506 190.545 49.4648 190.508 48.9013 190.574C49.1869 190.281 49.4428 189.952 49.6358 189.583C49.914 189.054 50.0811 188.464 50.0814 187.859C50.0668 187.236 49.9299 186.652 49.7225 186.095C49.4078 185.142 48.8113 184.298 48.0367 183.689C47.2214 183.144 46.2761 182.856 45.2826 182.849C44.3262 182.812 43.3659 182.959 42.439 183.261L41.132 179.427L39.3033 181.763L40.1031 184.105L38.2418 184.775L37.405 182.312L34.5321 181.78L35.8392 185.613L30.7336 187.414L33.3573 189.721C33.6947 189.567 34.0729 189.501 34.4288 189.483C34.629 189.502 34.7883 189.584 34.9255 189.714C35.1441 190.019 35.2922 190.352 35.3847 190.73L38.9245 201.12C39.0726 201.453 39.1651 201.831 39.1576 202.2C39.1204 202.382 39.1537 202.536 38.9868 202.672C38.8348 202.826 38.82 202.808 38.3268 202.998L37.2502 206.596L42.3224 204.792L43.6295 208.626L46.0321 207.787L44.7251 203.954L46.6012 203.302L47.9082 207.136L50.259 206.309L48.9557 202.442C50.1347 201.996 51.2323 201.374 52.2299 200.592C53.1385 199.851 53.821 198.872 54.1959 197.781C54.4744 196.647 54.4193 195.482 54.0713 194.375C53.8196 193.461 53.4084 192.617 52.8527 191.86ZM39.3155 187.982L39.2896 187.912L40.921 187.339C41.8331 187.019 44.7884 185.61 45.7327 188.166C46.6621 190.705 42.5502 192.059 42.5502 192.059L40.9188 192.632L40.8559 192.442L39.3155 187.982ZM41.8 195.301L43.6761 194.649C44.0617 194.516 45.3891 194.1 45.86 193.959C46.0528 193.892 46.2752 193.862 46.4606 193.862C46.5273 193.869 46.6126 193.86 46.6793 193.866C47.0167 193.863 47.3318 193.909 47.6246 194.003C47.8211 194.054 48.0138 194.139 48.1695 194.254C48.4178 194.445 48.6438 194.684 48.8327 194.954C48.9624 195.15 49.0587 195.344 49.1365 195.553C49.292 195.97 49.3437 196.412 49.2472 196.823C49.1135 197.416 48.8018 197.942 48.3531 198.338C47.5112 199.084 46.5397 199.633 45.4867 200.007L43.6106 200.659L41.8 195.301Z" fill="white"/>
</g>
<defs>
<filter id="filter0_f" x="195.285" y="129.021" width="309.973" height="146.874" filterUnits="userSpaceOnUse" color-interpolation-filters="sRGB">
<feFlood flood-opacity="0" result="BackgroundImageFix"/>
<feBlend mode="normal" in="SourceGraphic" in2="BackgroundImageFix" result="shape"/>
<feGaussianBlur stdDeviation="13" result="effect1_foregroundBlur"/>
</filter>
<linearGradient id="paint0_linear" x1="158.024" y1="240.851" x2="162.557" y2="172.799" gradientUnits="userSpaceOnUse">
<stop offset="0.265625" stop-color="#E7A25D"/>
<stop offset="0.729167" stop-color="#FFB96A"/>
</linearGradient>
<linearGradient id="paint1_linear" x1="208.643" y1="264.617" x2="273.308" y2="310.605" gradientUnits="userSpaceOnUse">
<stop offset="0.0677083" stop-color="#E7A25D"/>
<stop offset="0.572917" stop-color="#FFB96A"/>
</linearGradient>
<clipPath id="clip0">
<rect width="650" height="300" fill="white"/>
</clipPath>
<clipPath id="clip1">
<rect width="61.9301" height="61.8643" fill="white" transform="matrix(0.946909 0.322813 -0.32667 0.94469 561.018 209.302)"/>
</clipPath>
<clipPath id="clip2">
<rect width="63.9294" height="64.0713" fill="white" transform="matrix(0.94662 0.323647 -0.325872 0.944961 561.034 208)"/>
</clipPath>
</defs>
</svg>
