<svg width="56" height="64" viewBox="0 0 56 64" fill="none" xmlns="http://www.w3.org/2000/svg">
<g filter="url(#filter0_d)">
<path d="M27.999 6.99939C23.6245 7.00458 19.4307 8.74463 16.3375 11.8379C13.2443 14.9311 11.5042 19.1249 11.499 23.4994C11.499 37.6176 26.499 48.2816 27.1377 48.7284C27.3903 48.9048 27.6909 48.9994 27.999 48.9994C28.3071 48.9994 28.6078 48.9048 28.8604 48.7284C29.499 48.2816 44.499 37.6176 44.499 23.4994C44.4938 19.1249 42.7538 14.9311 39.6606 11.8379C36.5673 8.74463 32.3735 7.00458 27.999 6.99939V6.99939ZM28.0001 17.4999C29.1868 17.4999 30.3468 17.8518 31.3335 18.5111C32.3202 19.1704 33.0893 20.1075 33.5434 21.2038C33.9975 22.3002 34.1163 23.5066 33.8848 24.6705C33.6533 25.8344 33.0819 26.9035 32.2428 27.7426C31.4036 28.5817 30.3345 29.1531 29.1707 29.3846C28.0068 29.6162 26.8004 29.4973 25.704 29.0432C24.6077 28.5891 23.6706 27.82 23.0113 26.8334C22.352 25.8467 22.0001 24.6866 22.0001 23.4999C22.0001 22.712 22.1553 21.9318 22.4568 21.2038C22.7583 20.4758 23.2003 19.8144 23.7574 19.2572C24.3146 18.7001 24.976 18.2581 25.704 17.9566C26.432 17.6551 27.2122 17.4999 28.0001 17.4999V17.4999Z" fill="#3139CE"/>
</g>
<circle cx="28" cy="58" r="4" fill="#3139CE"/>
<defs>
<filter id="filter0_d" x="0.499023" y="-0.000610352" width="55" height="64" filterUnits="userSpaceOnUse" color-interpolation-filters="sRGB">
<feFlood flood-opacity="0" result="BackgroundImageFix"/>
<feColorMatrix in="SourceAlpha" type="matrix" values="0 0 0 0 0 0 0 0 0 0 0 0 0 0 0 0 0 0 127 0" result="hardAlpha"/>
<feOffset dy="4"/>
<feGaussianBlur stdDeviation="5.5"/>
<feColorMatrix type="matrix" values="0 0 0 0 0.22 0 0 0 0 0.224076 0 0 0 0 0.3 0 0 0 0.1 0"/>
<feBlend mode="normal" in2="BackgroundImageFix" result="effect1_dropShadow"/>
<feBlend mode="normal" in="SourceGraphic" in2="effect1_dropShadow" result="shape"/>
</filter>
</defs>
</svg>
